G04*
G04 #@! TF.GenerationSoftware,Altium Limited,Altium Designer,26.8.1 (31)*
G04*
G04 Layer_Physical_Order=2*
G04 Layer_Color=16711680*
G04 Board_Origin=0|0*
%FSLAX44Y44*%
%MOMM*%
G71*
G04*
G04 #@! TF.SameCoordinates,925F5AF1-14A6-441F-BD70-3B09AEF2B194*
G04*
G04*
G04 #@! TF.FilePolarity,Positive*
G04*
G01*
G75*
%ADD13C,0.2540*%
%ADD14C,1.2100*%
%ADD15C,1.2000*%
%ADD16C,1.1300*%
%ADD17R,1.1300X1.1300*%
%ADD19C,1.8000*%
%ADD20R,1.8000X1.8000*%
%ADD21C,1.2690*%
%ADD22C,3.0000*%
%ADD23C,2.0000*%
%ADD24R,2.0000X2.0000*%
%ADD25R,1.2750X1.2750*%
%ADD26C,1.2750*%
%ADD27R,1.5080X1.5080*%
%ADD28C,1.5080*%
%ADD29C,1.8150*%
%ADD30R,1.8150X1.8150*%
%ADD31C,1.1000*%
%ADD32C,1.2700*%
%ADD33C,0.3810*%
%ADD34C,0.5080*%
%ADD35C,6.0000*%
G36*
X1534775Y1124145D02*
X1541106Y1122448D01*
X1547162Y1119940D01*
X1552838Y1116663D01*
X1558038Y1112673D01*
X1562673Y1108038D01*
X1566663Y1102838D01*
X1569940Y1097162D01*
X1572448Y1091106D01*
X1574144Y1084775D01*
X1575000Y1078277D01*
X1575000Y1075000D01*
X1575000D01*
X1575000Y1075000D01*
X1575000Y475000D01*
X1575000Y471723D01*
X1574144Y465224D01*
X1572448Y458894D01*
X1569940Y452838D01*
X1566663Y447162D01*
X1562673Y441962D01*
X1558038Y437327D01*
X1552838Y433337D01*
X1547162Y430060D01*
X1541106Y427552D01*
X1534775Y425855D01*
X1528277Y425000D01*
X621723D01*
X615224Y425855D01*
X608894Y427552D01*
X602838Y430060D01*
X597162Y433337D01*
X591962Y437327D01*
X587327Y441962D01*
X583337Y447162D01*
X580060Y452838D01*
X577552Y458894D01*
X575855Y465224D01*
X575000Y471723D01*
X575000Y475000D01*
X575000Y1075000D01*
Y1078277D01*
X575855Y1084775D01*
X577552Y1091106D01*
X580060Y1097162D01*
X583337Y1102838D01*
X587327Y1108038D01*
X591962Y1112673D01*
X597162Y1116663D01*
X602838Y1119940D01*
X608894Y1122448D01*
X615224Y1124144D01*
X621723Y1125000D01*
X625000D01*
X625000Y1125000D01*
X1525000Y1125000D01*
X1528277Y1125000D01*
X1534775Y1124145D01*
D02*
G37*
%LPC*%
G36*
X1527561Y1107540D02*
X1522439D01*
X1517380Y1106739D01*
X1512509Y1105156D01*
X1507945Y1102831D01*
X1503802Y1099820D01*
X1500180Y1096198D01*
X1497169Y1092055D01*
X1494844Y1087491D01*
X1493261Y1082620D01*
X1492460Y1077561D01*
Y1072439D01*
X1493261Y1067380D01*
X1494844Y1062509D01*
X1497169Y1057945D01*
X1500180Y1053802D01*
X1503802Y1050180D01*
X1507945Y1047169D01*
X1512509Y1044844D01*
X1517380Y1043261D01*
X1522439Y1042460D01*
X1527561D01*
X1532620Y1043261D01*
X1537491Y1044844D01*
X1542055Y1047169D01*
X1546198Y1050180D01*
X1549820Y1053802D01*
X1552831Y1057945D01*
X1555156Y1062509D01*
X1556739Y1067380D01*
X1557540Y1072439D01*
Y1077561D01*
X1556739Y1082620D01*
X1555156Y1087491D01*
X1552831Y1092055D01*
X1549820Y1096198D01*
X1546198Y1099820D01*
X1542055Y1102831D01*
X1537491Y1105156D01*
X1532620Y1106739D01*
X1527561Y1107540D01*
D02*
G37*
G36*
X627561D02*
X622439D01*
X617380Y1106739D01*
X612509Y1105156D01*
X607945Y1102831D01*
X603802Y1099820D01*
X600180Y1096198D01*
X597169Y1092055D01*
X594844Y1087491D01*
X593261Y1082620D01*
X592460Y1077561D01*
Y1072439D01*
X593261Y1067380D01*
X594844Y1062509D01*
X597169Y1057945D01*
X600180Y1053802D01*
X603802Y1050180D01*
X607945Y1047169D01*
X612509Y1044844D01*
X617380Y1043261D01*
X622439Y1042460D01*
X627561D01*
X632620Y1043261D01*
X637491Y1044844D01*
X642055Y1047169D01*
X646198Y1050180D01*
X649820Y1053802D01*
X652831Y1057945D01*
X655156Y1062509D01*
X656739Y1067380D01*
X657540Y1072439D01*
Y1077561D01*
X656739Y1082620D01*
X655156Y1087491D01*
X652831Y1092055D01*
X649820Y1096198D01*
X646198Y1099820D01*
X642055Y1102831D01*
X637491Y1105156D01*
X632620Y1106739D01*
X627561Y1107540D01*
D02*
G37*
G36*
X1417690Y1023290D02*
X1392610D01*
Y1017620D01*
X1390578Y1017076D01*
X1389785Y1018450D01*
X1387450Y1020785D01*
X1384590Y1022436D01*
X1381401Y1023290D01*
X1378099D01*
X1374910Y1022436D01*
X1372050Y1020785D01*
X1369716Y1018450D01*
X1368116Y1015679D01*
X1367705Y1015591D01*
X1366395D01*
X1365984Y1015679D01*
X1364384Y1018450D01*
X1362050Y1020785D01*
X1359190Y1022436D01*
X1356001Y1023290D01*
X1352699D01*
X1349510Y1022436D01*
X1346650Y1020785D01*
X1344315Y1018450D01*
X1342715Y1015679D01*
X1342305Y1015591D01*
X1340995D01*
X1340585Y1015679D01*
X1338985Y1018450D01*
X1336650Y1020785D01*
X1333790Y1022436D01*
X1330601Y1023290D01*
X1327299D01*
X1324110Y1022436D01*
X1321250Y1020785D01*
X1318916Y1018450D01*
X1317316Y1015679D01*
X1316905Y1015591D01*
X1315595D01*
X1315184Y1015679D01*
X1313584Y1018450D01*
X1311250Y1020785D01*
X1308390Y1022436D01*
X1305201Y1023290D01*
X1301899D01*
X1298710Y1022436D01*
X1295850Y1020785D01*
X1293515Y1018450D01*
X1291915Y1015679D01*
X1291505Y1015591D01*
X1290195D01*
X1289785Y1015679D01*
X1288185Y1018450D01*
X1285850Y1020785D01*
X1282990Y1022436D01*
X1279801Y1023290D01*
X1276499D01*
X1273310Y1022436D01*
X1270450Y1020785D01*
X1268115Y1018450D01*
X1266516Y1015679D01*
X1266105Y1015591D01*
X1264795D01*
X1264385Y1015679D01*
X1262785Y1018450D01*
X1260450Y1020785D01*
X1257590Y1022436D01*
X1254401Y1023290D01*
X1251099D01*
X1247910Y1022436D01*
X1245050Y1020785D01*
X1242716Y1018450D01*
X1241115Y1015679D01*
X1240705Y1015591D01*
X1239395D01*
X1238985Y1015679D01*
X1237384Y1018450D01*
X1235050Y1020785D01*
X1232190Y1022436D01*
X1229001Y1023290D01*
X1225699D01*
X1222510Y1022436D01*
X1219650Y1020785D01*
X1217316Y1018450D01*
X1215715Y1015679D01*
X1215305Y1015591D01*
X1213995D01*
X1213585Y1015679D01*
X1211984Y1018450D01*
X1209650Y1020785D01*
X1206790Y1022436D01*
X1203601Y1023290D01*
X1200299D01*
X1197110Y1022436D01*
X1194250Y1020785D01*
X1191916Y1018450D01*
X1190315Y1015679D01*
X1189905Y1015591D01*
X1188595D01*
X1188185Y1015679D01*
X1186584Y1018450D01*
X1184250Y1020785D01*
X1181390Y1022436D01*
X1178201Y1023290D01*
X1174899D01*
X1171710Y1022436D01*
X1168850Y1020785D01*
X1166516Y1018450D01*
X1164915Y1015679D01*
X1164505Y1015591D01*
X1163195D01*
X1162785Y1015679D01*
X1161184Y1018450D01*
X1158850Y1020785D01*
X1155990Y1022436D01*
X1152801Y1023290D01*
X1149499D01*
X1146310Y1022436D01*
X1143450Y1020785D01*
X1141115Y1018450D01*
X1139516Y1015679D01*
X1139105Y1015591D01*
X1137795D01*
X1137384Y1015679D01*
X1135785Y1018450D01*
X1133450Y1020785D01*
X1130590Y1022436D01*
X1127401Y1023290D01*
X1124099D01*
X1120910Y1022436D01*
X1118050Y1020785D01*
X1115715Y1018450D01*
X1114116Y1015679D01*
X1113705Y1015591D01*
X1112395D01*
X1111984Y1015679D01*
X1110385Y1018450D01*
X1108050Y1020785D01*
X1105190Y1022436D01*
X1102001Y1023290D01*
X1098699D01*
X1095510Y1022436D01*
X1092650Y1020785D01*
X1090315Y1018450D01*
X1088716Y1015679D01*
X1088305Y1015591D01*
X1086995D01*
X1086584Y1015679D01*
X1084985Y1018450D01*
X1082650Y1020785D01*
X1079790Y1022436D01*
X1076601Y1023290D01*
X1073299D01*
X1070110Y1022436D01*
X1067250Y1020785D01*
X1064915Y1018450D01*
X1063316Y1015679D01*
X1062905Y1015591D01*
X1061595D01*
X1061184Y1015679D01*
X1059585Y1018450D01*
X1057250Y1020785D01*
X1054390Y1022436D01*
X1051201Y1023290D01*
X1047899D01*
X1044710Y1022436D01*
X1041850Y1020785D01*
X1039516Y1018450D01*
X1037865Y1015591D01*
X1037010Y1012401D01*
Y1009100D01*
X1037865Y1005910D01*
X1039516Y1003051D01*
X1041850Y1000716D01*
X1044710Y999065D01*
X1047899Y998210D01*
X1051201D01*
X1054390Y999065D01*
X1057250Y1000716D01*
X1059585Y1003051D01*
X1061184Y1005822D01*
X1061595Y1005910D01*
X1062905D01*
X1063316Y1005822D01*
X1064915Y1003051D01*
X1067250Y1000716D01*
X1070110Y999065D01*
X1073299Y998210D01*
X1076601D01*
X1079790Y999065D01*
X1082650Y1000716D01*
X1084985Y1003051D01*
X1086584Y1005822D01*
X1086995Y1005910D01*
X1088305D01*
X1088716Y1005822D01*
X1090315Y1003051D01*
X1092650Y1000716D01*
X1095510Y999065D01*
X1098699Y998210D01*
X1102001D01*
X1105190Y999065D01*
X1108050Y1000716D01*
X1110385Y1003051D01*
X1111984Y1005822D01*
X1112395Y1005910D01*
X1113705D01*
X1114116Y1005822D01*
X1115715Y1003051D01*
X1118050Y1000716D01*
X1120910Y999065D01*
X1124099Y998210D01*
X1127401D01*
X1130590Y999065D01*
X1133450Y1000716D01*
X1135785Y1003051D01*
X1137384Y1005822D01*
X1137795Y1005910D01*
X1139105D01*
X1139516Y1005822D01*
X1141115Y1003051D01*
X1143450Y1000716D01*
X1146310Y999065D01*
X1149499Y998210D01*
X1152801D01*
X1155990Y999065D01*
X1158850Y1000716D01*
X1161184Y1003051D01*
X1162785Y1005822D01*
X1163195Y1005910D01*
X1164505D01*
X1164915Y1005822D01*
X1166516Y1003051D01*
X1168850Y1000716D01*
X1171710Y999065D01*
X1174899Y998210D01*
X1178201D01*
X1181390Y999065D01*
X1184250Y1000716D01*
X1186584Y1003051D01*
X1188185Y1005822D01*
X1188595Y1005910D01*
X1189905D01*
X1190315Y1005822D01*
X1191916Y1003051D01*
X1194250Y1000716D01*
X1197110Y999065D01*
X1200299Y998210D01*
X1203601D01*
X1206790Y999065D01*
X1209650Y1000716D01*
X1211984Y1003051D01*
X1213585Y1005822D01*
X1213995Y1005910D01*
X1215305D01*
X1215715Y1005822D01*
X1217316Y1003051D01*
X1219650Y1000716D01*
X1222510Y999065D01*
X1225699Y998210D01*
X1229001D01*
X1232190Y999065D01*
X1235050Y1000716D01*
X1237384Y1003051D01*
X1238985Y1005822D01*
X1239395Y1005910D01*
X1240705D01*
X1241115Y1005822D01*
X1242716Y1003051D01*
X1245050Y1000716D01*
X1247910Y999065D01*
X1251099Y998210D01*
X1254401D01*
X1257590Y999065D01*
X1260450Y1000716D01*
X1262785Y1003051D01*
X1264385Y1005822D01*
X1264795Y1005910D01*
X1266105D01*
X1266516Y1005822D01*
X1268115Y1003051D01*
X1270450Y1000716D01*
X1273310Y999065D01*
X1276499Y998210D01*
X1279801D01*
X1282990Y999065D01*
X1285850Y1000716D01*
X1288185Y1003051D01*
X1289785Y1005822D01*
X1290195Y1005910D01*
X1291505D01*
X1291915Y1005822D01*
X1293515Y1003051D01*
X1295850Y1000716D01*
X1298710Y999065D01*
X1301899Y998210D01*
X1305201D01*
X1308390Y999065D01*
X1311250Y1000716D01*
X1313584Y1003051D01*
X1315184Y1005822D01*
X1315595Y1005910D01*
X1316905D01*
X1317316Y1005822D01*
X1318916Y1003051D01*
X1321250Y1000716D01*
X1324110Y999065D01*
X1327299Y998210D01*
X1330601D01*
X1333790Y999065D01*
X1336650Y1000716D01*
X1338985Y1003051D01*
X1340585Y1005822D01*
X1340995Y1005910D01*
X1342305D01*
X1342715Y1005822D01*
X1344315Y1003051D01*
X1346650Y1000716D01*
X1349510Y999065D01*
X1352699Y998210D01*
X1356001D01*
X1359190Y999065D01*
X1362050Y1000716D01*
X1364384Y1003051D01*
X1365984Y1005822D01*
X1366395Y1005910D01*
X1367705D01*
X1368116Y1005822D01*
X1369716Y1003051D01*
X1372050Y1000716D01*
X1374910Y999065D01*
X1378099Y998210D01*
X1381401D01*
X1384590Y999065D01*
X1387450Y1000716D01*
X1389785Y1003051D01*
X1390578Y1004425D01*
X1392610Y1003881D01*
Y998210D01*
X1411281D01*
X1445968Y963523D01*
Y568127D01*
X1402873Y525032D01*
X1327812D01*
X1327544Y527064D01*
X1329326Y527542D01*
X1331273Y528666D01*
X1332864Y530256D01*
X1333988Y532203D01*
X1334570Y534375D01*
Y536624D01*
X1333988Y538796D01*
X1332864Y540743D01*
X1331273Y542333D01*
X1329326Y543457D01*
X1327154Y544039D01*
X1324906D01*
X1322733Y543457D01*
X1320786Y542333D01*
X1319196Y540743D01*
X1318072Y538796D01*
X1317490Y536624D01*
Y534375D01*
X1318072Y532203D01*
X1319196Y530256D01*
X1320786Y528666D01*
X1322733Y527542D01*
X1324516Y527064D01*
X1324248Y525032D01*
X1278842D01*
X1278574Y527064D01*
X1280356Y527542D01*
X1282304Y528666D01*
X1283894Y530256D01*
X1285018Y532203D01*
X1285600Y534375D01*
Y536624D01*
X1285018Y538796D01*
X1283894Y540743D01*
X1282304Y542333D01*
X1280356Y543457D01*
X1278184Y544039D01*
X1275936D01*
X1273764Y543457D01*
X1272352Y542642D01*
X1179880Y635114D01*
X1180768Y637100D01*
X1182416Y637542D01*
X1184364Y638666D01*
X1185954Y640256D01*
X1187078Y642203D01*
X1187660Y644375D01*
Y646624D01*
X1187078Y648796D01*
X1185954Y650743D01*
X1184364Y652333D01*
X1182416Y653457D01*
X1180244Y654040D01*
X1177996D01*
X1175824Y653457D01*
X1173876Y652333D01*
X1172286Y650743D01*
X1171162Y648796D01*
X1170720Y647147D01*
X1168734Y646259D01*
X1129635Y685359D01*
Y744809D01*
X1130590Y745065D01*
X1133450Y746716D01*
X1135785Y749051D01*
X1137384Y751822D01*
X1137795Y751910D01*
X1139105D01*
X1139516Y751822D01*
X1141115Y749051D01*
X1143450Y746716D01*
X1146310Y745065D01*
X1149499Y744210D01*
X1152801D01*
X1155990Y745065D01*
X1158850Y746716D01*
X1161184Y749051D01*
X1162785Y751822D01*
X1163195Y751910D01*
X1164505D01*
X1164915Y751822D01*
X1166516Y749051D01*
X1168850Y746716D01*
X1171710Y745065D01*
X1174899Y744210D01*
X1178201D01*
X1181390Y745065D01*
X1184250Y746716D01*
X1186584Y749051D01*
X1188185Y751822D01*
X1188595Y751910D01*
X1189905D01*
X1190315Y751822D01*
X1191916Y749051D01*
X1194250Y746716D01*
X1197110Y745065D01*
X1200299Y744210D01*
X1203601D01*
X1206790Y745065D01*
X1209650Y746716D01*
X1211984Y749051D01*
X1213585Y751822D01*
X1213995Y751910D01*
X1215305D01*
X1215715Y751822D01*
X1217316Y749051D01*
X1219650Y746716D01*
X1222510Y745065D01*
X1225699Y744210D01*
X1229001D01*
X1232190Y745065D01*
X1235050Y746716D01*
X1237384Y749051D01*
X1238985Y751822D01*
X1239395Y751910D01*
X1240705D01*
X1241115Y751822D01*
X1242716Y749051D01*
X1245050Y746716D01*
X1247910Y745065D01*
X1251099Y744210D01*
X1254401D01*
X1257590Y745065D01*
X1260450Y746716D01*
X1262785Y749051D01*
X1264385Y751822D01*
X1264795Y751910D01*
X1266105D01*
X1266516Y751822D01*
X1268115Y749051D01*
X1270450Y746716D01*
X1273310Y745065D01*
X1276499Y744210D01*
X1279801D01*
X1282990Y745065D01*
X1285850Y746716D01*
X1288185Y749051D01*
X1289785Y751822D01*
X1290195Y751910D01*
X1291505D01*
X1291915Y751822D01*
X1293515Y749051D01*
X1295850Y746716D01*
X1298710Y745065D01*
X1301899Y744210D01*
X1305201D01*
X1308390Y745065D01*
X1311250Y746716D01*
X1313584Y749051D01*
X1315184Y751822D01*
X1315595Y751910D01*
X1316905D01*
X1317316Y751822D01*
X1318916Y749051D01*
X1321250Y746716D01*
X1324110Y745065D01*
X1327299Y744210D01*
X1330601D01*
X1333790Y745065D01*
X1336650Y746716D01*
X1338985Y749051D01*
X1340585Y751822D01*
X1340995Y751910D01*
X1342305D01*
X1342715Y751822D01*
X1344315Y749051D01*
X1346650Y746716D01*
X1349510Y745065D01*
X1352699Y744210D01*
X1356001D01*
X1359190Y745065D01*
X1362050Y746716D01*
X1364384Y749051D01*
X1365984Y751822D01*
X1366395Y751910D01*
X1367705D01*
X1368116Y751822D01*
X1369716Y749051D01*
X1372050Y746716D01*
X1374910Y745065D01*
X1378099Y744210D01*
X1381401D01*
X1384590Y745065D01*
X1387450Y746716D01*
X1389785Y749051D01*
X1391384Y751822D01*
X1391795Y751910D01*
X1393105D01*
X1393515Y751822D01*
X1395116Y749051D01*
X1397450Y746716D01*
X1400310Y745065D01*
X1403499Y744210D01*
X1403880D01*
Y756750D01*
Y769290D01*
X1403499D01*
X1400310Y768436D01*
X1397450Y766785D01*
X1395116Y764450D01*
X1393515Y761679D01*
X1393105Y761591D01*
X1391795D01*
X1391384Y761679D01*
X1389785Y764450D01*
X1387450Y766785D01*
X1384590Y768436D01*
X1381401Y769290D01*
X1378099D01*
X1374910Y768436D01*
X1372050Y766785D01*
X1369716Y764450D01*
X1368116Y761679D01*
X1367705Y761591D01*
X1366395D01*
X1365984Y761679D01*
X1364384Y764450D01*
X1362050Y766785D01*
X1359190Y768436D01*
X1356001Y769290D01*
X1352699D01*
X1349510Y768436D01*
X1346650Y766785D01*
X1344315Y764450D01*
X1342715Y761679D01*
X1342305Y761591D01*
X1340995D01*
X1340585Y761679D01*
X1338985Y764450D01*
X1336650Y766785D01*
X1333790Y768436D01*
X1330601Y769290D01*
X1327299D01*
X1324110Y768436D01*
X1321250Y766785D01*
X1318916Y764450D01*
X1317316Y761679D01*
X1316905Y761591D01*
X1315595D01*
X1315184Y761679D01*
X1313584Y764450D01*
X1311250Y766785D01*
X1308390Y768436D01*
X1305201Y769290D01*
X1301899D01*
X1298710Y768436D01*
X1295850Y766785D01*
X1293515Y764450D01*
X1291915Y761679D01*
X1291505Y761591D01*
X1290195D01*
X1289785Y761679D01*
X1288185Y764450D01*
X1285850Y766785D01*
X1282990Y768436D01*
X1279801Y769290D01*
X1276499D01*
X1273310Y768436D01*
X1270450Y766785D01*
X1268115Y764450D01*
X1266516Y761679D01*
X1266105Y761591D01*
X1264795D01*
X1264385Y761679D01*
X1262785Y764450D01*
X1260450Y766785D01*
X1257590Y768436D01*
X1254401Y769290D01*
X1251099D01*
X1247910Y768436D01*
X1245050Y766785D01*
X1242716Y764450D01*
X1241115Y761679D01*
X1240705Y761591D01*
X1239395D01*
X1238985Y761679D01*
X1237384Y764450D01*
X1235050Y766785D01*
X1232190Y768436D01*
X1229001Y769290D01*
X1225699D01*
X1222510Y768436D01*
X1219650Y766785D01*
X1217316Y764450D01*
X1215715Y761679D01*
X1215305Y761591D01*
X1213995D01*
X1213585Y761679D01*
X1211984Y764450D01*
X1209650Y766785D01*
X1206790Y768436D01*
X1203601Y769290D01*
X1200299D01*
X1197110Y768436D01*
X1194250Y766785D01*
X1191916Y764450D01*
X1190315Y761679D01*
X1189905Y761591D01*
X1188595D01*
X1188185Y761679D01*
X1186584Y764450D01*
X1184250Y766785D01*
X1181390Y768436D01*
X1178201Y769290D01*
X1174899D01*
X1171710Y768436D01*
X1168850Y766785D01*
X1166516Y764450D01*
X1164915Y761679D01*
X1164505Y761591D01*
X1163195D01*
X1162785Y761679D01*
X1161184Y764450D01*
X1158850Y766785D01*
X1155990Y768436D01*
X1152801Y769290D01*
X1149499D01*
X1146310Y768436D01*
X1143450Y766785D01*
X1141115Y764450D01*
X1139516Y761679D01*
X1139105Y761591D01*
X1137795D01*
X1137384Y761679D01*
X1135785Y764450D01*
X1133450Y766785D01*
X1130590Y768436D01*
X1127401Y769290D01*
X1124099D01*
X1120910Y768436D01*
X1118050Y766785D01*
X1115715Y764450D01*
X1114116Y761679D01*
X1113705Y761591D01*
X1112395D01*
X1111984Y761679D01*
X1110385Y764450D01*
X1108050Y766785D01*
X1105190Y768436D01*
X1102001Y769290D01*
X1098699D01*
X1095510Y768436D01*
X1092650Y766785D01*
X1090315Y764450D01*
X1088716Y761679D01*
X1088305Y761591D01*
X1086995D01*
X1086584Y761679D01*
X1084985Y764450D01*
X1082650Y766785D01*
X1079790Y768436D01*
X1076601Y769290D01*
X1073299D01*
X1070110Y768436D01*
X1067250Y766785D01*
X1064915Y764450D01*
X1063316Y761679D01*
X1062905Y761591D01*
X1061595D01*
X1061184Y761679D01*
X1059585Y764450D01*
X1057250Y766785D01*
X1054390Y768436D01*
X1051201Y769290D01*
X1047899D01*
X1044710Y768436D01*
X1041850Y766785D01*
X1039516Y764450D01*
X1037865Y761591D01*
X1037010Y758401D01*
Y755099D01*
X1037865Y751910D01*
X1039516Y749051D01*
X1041850Y746716D01*
X1044710Y745065D01*
X1047899Y744210D01*
X1051201D01*
X1054390Y745065D01*
X1057250Y746716D01*
X1059585Y749051D01*
X1061184Y751822D01*
X1061595Y751910D01*
X1062905D01*
X1063316Y751822D01*
X1064915Y749051D01*
X1067250Y746716D01*
X1070110Y745065D01*
X1073299Y744210D01*
X1076601D01*
X1079790Y745065D01*
X1082650Y746716D01*
X1084985Y749051D01*
X1086584Y751822D01*
X1086995Y751910D01*
X1088305D01*
X1088716Y751822D01*
X1090315Y749051D01*
X1092650Y746716D01*
X1095510Y745065D01*
X1098699Y744210D01*
X1102001D01*
X1105190Y745065D01*
X1108050Y746716D01*
X1110385Y749051D01*
X1111984Y751822D01*
X1112395Y751910D01*
X1113705D01*
X1114116Y751822D01*
X1115715Y749051D01*
X1118050Y746716D01*
X1120910Y745065D01*
X1121865Y744809D01*
Y685083D01*
X1119833Y684242D01*
X1089662Y714413D01*
X1087982Y715535D01*
X1086000Y715929D01*
X986445D01*
X920045Y782330D01*
X912720D01*
Y775005D01*
X980638Y707088D01*
X980638Y707087D01*
X982318Y705965D01*
X984300Y705571D01*
X1072759D01*
X1073600Y703539D01*
X1073270Y703209D01*
X1072100Y701181D01*
X1071494Y698920D01*
Y696580D01*
X1072100Y694319D01*
X1073270Y692291D01*
X1074926Y690636D01*
X1076897Y689498D01*
Y652888D01*
X1075936Y652333D01*
X1074346Y650743D01*
X1073222Y648796D01*
X1072640Y646624D01*
Y644375D01*
X1073222Y642203D01*
X1074346Y640256D01*
X1075936Y638666D01*
X1077884Y637542D01*
X1080056Y636959D01*
X1082304D01*
X1084476Y637542D01*
X1086424Y638666D01*
X1088014Y640256D01*
X1089138Y642203D01*
X1089720Y644375D01*
Y646624D01*
X1089138Y648796D01*
X1088014Y650743D01*
X1086424Y652333D01*
X1084667Y653348D01*
Y689957D01*
X1085843Y690636D01*
X1087498Y692291D01*
X1088668Y694319D01*
X1089274Y696580D01*
Y697277D01*
X1091306Y698119D01*
X1124970Y664455D01*
Y652370D01*
X1124906Y652333D01*
X1123316Y650743D01*
X1122192Y648796D01*
X1121649Y646769D01*
X1130150D01*
X1138651D01*
X1138108Y648796D01*
X1136984Y650743D01*
X1135394Y652333D01*
X1135330Y652370D01*
Y665803D01*
X1137330Y666676D01*
X1268387Y535620D01*
X1268520Y535531D01*
Y534375D01*
X1269102Y532203D01*
X1270226Y530256D01*
X1271816Y528666D01*
X1273764Y527542D01*
X1275546Y527064D01*
X1275278Y525032D01*
X1244967D01*
X1236417Y533582D01*
X1236630Y534375D01*
Y536624D01*
X1236048Y538796D01*
X1234924Y540743D01*
X1233334Y542333D01*
X1231386Y543457D01*
X1229214Y544039D01*
X1226966D01*
X1224794Y543457D01*
X1222846Y542333D01*
X1221256Y540743D01*
X1220132Y538796D01*
X1219550Y536624D01*
Y534375D01*
X1220132Y532203D01*
X1221256Y530256D01*
X1222846Y528666D01*
X1224794Y527542D01*
X1226966Y526960D01*
X1229214D01*
X1230008Y527172D01*
X1239885Y517295D01*
X1239885Y517295D01*
X1241355Y516313D01*
X1243089Y515968D01*
X1243090Y515968D01*
X1404750D01*
X1406484Y516313D01*
X1407955Y517295D01*
X1453705Y563045D01*
X1453705Y563045D01*
X1454687Y564516D01*
X1455032Y566250D01*
X1455032Y566250D01*
Y965400D01*
X1455032Y965400D01*
X1454687Y967135D01*
X1453705Y968605D01*
X1453705Y968605D01*
X1417690Y1004620D01*
Y1023290D01*
D02*
G37*
G36*
X1486478Y1024090D02*
X1483022D01*
X1479634Y1023416D01*
X1476442Y1022094D01*
X1473569Y1020175D01*
X1471126Y1017731D01*
X1469206Y1014859D01*
X1467884Y1011667D01*
X1467210Y1008278D01*
Y1004823D01*
X1467884Y1001434D01*
X1469206Y998242D01*
X1471126Y995369D01*
X1473569Y992926D01*
X1476442Y991007D01*
X1479634Y989685D01*
X1483022Y989010D01*
X1486478D01*
X1489866Y989685D01*
X1493058Y991007D01*
X1495931Y992926D01*
X1498374Y995369D01*
X1500294Y998242D01*
X1501616Y1001434D01*
X1502290Y1004823D01*
Y1008278D01*
X1501616Y1011667D01*
X1500294Y1014859D01*
X1498374Y1017731D01*
X1495931Y1020175D01*
X1493058Y1022094D01*
X1489866Y1023416D01*
X1486478Y1024090D01*
D02*
G37*
G36*
X1016977D02*
X1013522D01*
X1010134Y1023416D01*
X1006942Y1022094D01*
X1004069Y1020175D01*
X1001626Y1017731D01*
X999706Y1014859D01*
X998384Y1011667D01*
X997710Y1008278D01*
Y1004823D01*
X998384Y1001434D01*
X999706Y998242D01*
X1001626Y995369D01*
X1004069Y992926D01*
X1006942Y991007D01*
X1010134Y989685D01*
X1013522Y989010D01*
X1016977D01*
X1020366Y989685D01*
X1023558Y991007D01*
X1026431Y992926D01*
X1028874Y995369D01*
X1030794Y998242D01*
X1032116Y1001434D01*
X1032790Y1004823D01*
Y1008278D01*
X1032116Y1011667D01*
X1030794Y1014859D01*
X1028874Y1017731D01*
X1026431Y1020175D01*
X1023558Y1022094D01*
X1020366Y1023416D01*
X1016977Y1024090D01*
D02*
G37*
G36*
X745828Y994540D02*
X743711D01*
X741667Y993992D01*
X739833Y992934D01*
X738336Y991437D01*
X737278Y989603D01*
X736730Y987559D01*
Y985442D01*
X737278Y983397D01*
X738336Y981563D01*
X739833Y980066D01*
X741667Y979008D01*
X743711Y978460D01*
X745828D01*
X747873Y979008D01*
X749508Y979951D01*
X750295Y979325D01*
X750921Y978538D01*
X749978Y976903D01*
X749430Y974858D01*
Y972741D01*
X749978Y970697D01*
X750921Y969062D01*
X750295Y968275D01*
X749508Y967648D01*
X747873Y968592D01*
X745828Y969140D01*
X743711D01*
X741667Y968592D01*
X739833Y967534D01*
X738336Y966037D01*
X737278Y964203D01*
X736730Y962159D01*
Y960042D01*
X737278Y957997D01*
X738336Y956163D01*
X739833Y954666D01*
X741667Y953608D01*
X743711Y953060D01*
X745828D01*
X747873Y953608D01*
X749707Y954666D01*
X751204Y956163D01*
X752262Y957997D01*
X752810Y960042D01*
Y962159D01*
X752262Y964203D01*
X751319Y965838D01*
X751945Y966625D01*
X752732Y967252D01*
X754367Y966308D01*
X756412Y965760D01*
X758529D01*
X760573Y966308D01*
X762407Y967366D01*
X763904Y968863D01*
X764962Y970697D01*
X765510Y972741D01*
Y974858D01*
X764962Y976903D01*
X763904Y978737D01*
X762407Y980234D01*
X760573Y981292D01*
X758529Y981840D01*
X756412D01*
X754367Y981292D01*
X752732Y980349D01*
X751945Y980975D01*
X751319Y981762D01*
X752262Y983397D01*
X752810Y985442D01*
Y987559D01*
X752262Y989603D01*
X751204Y991437D01*
X749707Y992934D01*
X747873Y993992D01*
X745828Y994540D01*
D02*
G37*
G36*
X907170Y979635D02*
X904830D01*
X902570Y979029D01*
X900545Y977860D01*
X898890Y976206D01*
X897720Y974180D01*
X897115Y971920D01*
Y969580D01*
X897720Y967320D01*
X898890Y965294D01*
X900545Y963640D01*
X902570Y962470D01*
X904830Y961865D01*
X907170D01*
X909429Y962470D01*
X911456Y963640D01*
X913110Y965294D01*
X914279Y967320D01*
X914885Y969580D01*
Y971920D01*
X914279Y974180D01*
X913110Y976206D01*
X911456Y977860D01*
X909429Y979029D01*
X907170Y979635D01*
D02*
G37*
G36*
X853170D02*
X850830D01*
X848570Y979029D01*
X846544Y977860D01*
X844890Y976206D01*
X843720Y974180D01*
X843115Y971920D01*
Y969580D01*
X843197Y969272D01*
X831588Y957663D01*
X830465Y955982D01*
X830070Y954000D01*
Y909567D01*
X828038Y909023D01*
X827334Y910244D01*
X825744Y911834D01*
X823796Y912958D01*
X821624Y913540D01*
X819376D01*
X817204Y912958D01*
X815256Y911834D01*
X813666Y910244D01*
X812542Y908296D01*
X811960Y906124D01*
Y903876D01*
X812542Y901704D01*
X813666Y899756D01*
X815256Y898166D01*
X817204Y897042D01*
X819376Y896460D01*
X821624D01*
X823796Y897042D01*
X825744Y898166D01*
X827334Y899756D01*
X828038Y900977D01*
X830070Y900433D01*
Y869403D01*
X828696Y868029D01*
X827618Y866161D01*
X827060Y864078D01*
Y861922D01*
X827618Y859839D01*
X828696Y857971D01*
X830221Y856446D01*
X832089Y855368D01*
X833005Y855123D01*
X833613Y852856D01*
X821003Y840247D01*
X820161Y838987D01*
X819865Y837500D01*
Y795100D01*
X820161Y793613D01*
X821003Y792353D01*
X827402Y785954D01*
X827060Y784678D01*
Y782522D01*
X827618Y780439D01*
X828696Y778571D01*
X830221Y777046D01*
X832089Y775968D01*
X834172Y775410D01*
X836328D01*
X838411Y775968D01*
X840279Y777046D01*
X841804Y778571D01*
X842882Y780439D01*
X843440Y782522D01*
Y784678D01*
X842882Y786761D01*
X841804Y788629D01*
X840279Y790154D01*
X838411Y791232D01*
X836328Y791790D01*
X834172D01*
X832896Y791448D01*
X827635Y796709D01*
Y835891D01*
X850859Y859115D01*
X853436D01*
X854096Y857971D01*
X855621Y856446D01*
X857489Y855368D01*
X859572Y854810D01*
X861728D01*
X863811Y855368D01*
X865679Y856446D01*
X867204Y857971D01*
X868282Y859839D01*
X868840Y861922D01*
Y864078D01*
X868282Y866161D01*
X867204Y868029D01*
X865679Y869554D01*
X863811Y870632D01*
X861728Y871190D01*
X859572D01*
X857489Y870632D01*
X855621Y869554D01*
X854096Y868029D01*
X853436Y866885D01*
X849250D01*
X847763Y866589D01*
X846503Y865747D01*
X845394Y864638D01*
X843127Y865245D01*
X842882Y866161D01*
X841804Y868029D01*
X840430Y869403D01*
Y951855D01*
X850522Y961947D01*
X850830Y961865D01*
X853170D01*
X855430Y962470D01*
X857456Y963640D01*
X859110Y965294D01*
X860279Y967320D01*
X860885Y969580D01*
Y971920D01*
X860279Y974180D01*
X859110Y976206D01*
X857456Y977860D01*
X855430Y979029D01*
X853170Y979635D01*
D02*
G37*
G36*
X931624Y913540D02*
X929376D01*
X927204Y912958D01*
X925256Y911834D01*
X923666Y910244D01*
X922542Y908296D01*
X921960Y906124D01*
Y903876D01*
X922542Y901704D01*
X923666Y899756D01*
X925256Y898166D01*
X927204Y897042D01*
X929376Y896460D01*
X931624D01*
X933796Y897042D01*
X935744Y898166D01*
X937334Y899756D01*
X938458Y901704D01*
X939040Y903876D01*
Y906124D01*
X938458Y908296D01*
X937334Y910244D01*
X935744Y911834D01*
X933796Y912958D01*
X931624Y913540D01*
D02*
G37*
G36*
X748631Y909240D02*
X746369D01*
X744184Y908655D01*
X742226Y907524D01*
X740626Y905924D01*
X739495Y903966D01*
X738910Y901781D01*
Y899519D01*
X739495Y897334D01*
X740626Y895376D01*
X742226Y893776D01*
X744184Y892645D01*
X746369Y892060D01*
X748631D01*
X750816Y892645D01*
X752774Y893776D01*
X754374Y895376D01*
X755505Y897334D01*
X756090Y899519D01*
Y901781D01*
X755505Y903966D01*
X754374Y905924D01*
X752774Y907524D01*
X750816Y908655D01*
X748631Y909240D01*
D02*
G37*
G36*
Y883840D02*
X746369D01*
X744184Y883255D01*
X742226Y882124D01*
X740626Y880524D01*
X739495Y878566D01*
X738910Y876381D01*
Y874119D01*
X739495Y871934D01*
X740626Y869976D01*
X742226Y868376D01*
X744184Y867245D01*
X746369Y866660D01*
X748631D01*
X750816Y867245D01*
X752774Y868376D01*
X754374Y869976D01*
X755505Y871934D01*
X756090Y874119D01*
Y876381D01*
X755505Y878566D01*
X754374Y880524D01*
X752774Y882124D01*
X750816Y883255D01*
X748631Y883840D01*
D02*
G37*
G36*
X919640Y871190D02*
X903260D01*
Y854810D01*
X919640D01*
Y871190D01*
D02*
G37*
G36*
X887128D02*
X884972D01*
X882889Y870632D01*
X881021Y869554D01*
X879496Y868029D01*
X878418Y866161D01*
X877860Y864078D01*
Y861922D01*
X878418Y859839D01*
X879496Y857971D01*
X881021Y856446D01*
X882889Y855368D01*
X884972Y854810D01*
X887128D01*
X889211Y855368D01*
X891079Y856446D01*
X892604Y857971D01*
X893682Y859839D01*
X894240Y861922D01*
Y864078D01*
X893682Y866161D01*
X892604Y868029D01*
X891079Y869554D01*
X889211Y870632D01*
X887128Y871190D01*
D02*
G37*
G36*
X848640Y846110D02*
X846299D01*
X844038Y845504D01*
X842011Y844333D01*
X840356Y842678D01*
X839185Y840651D01*
X838580Y838390D01*
Y836049D01*
X839185Y833788D01*
X840356Y831761D01*
X842011Y830106D01*
X844038Y828935D01*
X846299Y828330D01*
X848640D01*
X850901Y828935D01*
X852928Y830106D01*
X854583Y831761D01*
X855754Y833788D01*
X856360Y836049D01*
Y838390D01*
X855754Y840651D01*
X854583Y842678D01*
X852928Y844333D01*
X850901Y845504D01*
X848640Y846110D01*
D02*
G37*
G36*
X748631Y825090D02*
X746369D01*
X744184Y824505D01*
X742226Y823374D01*
X740626Y821774D01*
X739495Y819816D01*
X738910Y817631D01*
Y815369D01*
X739495Y813184D01*
X740626Y811226D01*
X742226Y809626D01*
X744184Y808495D01*
X746369Y807910D01*
X748631D01*
X750816Y808495D01*
X752774Y809626D01*
X754374Y811226D01*
X755505Y813184D01*
X756090Y815369D01*
Y817631D01*
X755505Y819816D01*
X754374Y821774D01*
X752774Y823374D01*
X750816Y824505D01*
X748631Y825090D01*
D02*
G37*
G36*
X1060150Y975440D02*
X995250D01*
X994259Y975243D01*
X993419Y974682D01*
X992857Y973841D01*
X992660Y972850D01*
Y795950D01*
X992857Y794959D01*
X993419Y794119D01*
X994259Y793558D01*
X995250Y793361D01*
X1060150D01*
X1061141Y793558D01*
X1061981Y794119D01*
X1062543Y794959D01*
X1062740Y795950D01*
Y972850D01*
X1062543Y973841D01*
X1061981Y974682D01*
X1061141Y975243D01*
X1060150Y975440D01*
D02*
G37*
G36*
X746230Y799653D02*
X744184Y799105D01*
X742226Y797974D01*
X740626Y796374D01*
X739495Y794416D01*
X738947Y792370D01*
X746230D01*
Y799653D01*
D02*
G37*
G36*
X912720Y791739D02*
Y784870D01*
X919589D01*
X919082Y786761D01*
X918004Y788629D01*
X916479Y790154D01*
X914611Y791232D01*
X912720Y791739D01*
D02*
G37*
G36*
X910180Y791739D02*
X908289Y791232D01*
X906421Y790154D01*
X904896Y788629D01*
X903818Y786761D01*
X903311Y784870D01*
X910180D01*
Y791739D01*
D02*
G37*
G36*
X746230Y789830D02*
X738947D01*
X739495Y787784D01*
X740626Y785826D01*
X742226Y784226D01*
X744184Y783095D01*
X746230Y782547D01*
Y789830D01*
D02*
G37*
G36*
X910180Y782330D02*
X903311D01*
X903818Y780439D01*
X904896Y778571D01*
X906421Y777046D01*
X908289Y775968D01*
X910180Y775461D01*
Y782330D01*
D02*
G37*
G36*
X887128Y791790D02*
X884972D01*
X882889Y791232D01*
X881021Y790154D01*
X879496Y788629D01*
X878418Y786761D01*
X877860Y784678D01*
Y782522D01*
X878418Y780439D01*
X879496Y778571D01*
X881021Y777046D01*
X882889Y775968D01*
X884972Y775410D01*
X887128D01*
X889211Y775968D01*
X891079Y777046D01*
X892604Y778571D01*
X893682Y780439D01*
X894240Y782522D01*
Y784678D01*
X893682Y786761D01*
X892604Y788629D01*
X891079Y790154D01*
X889211Y791232D01*
X887128Y791790D01*
D02*
G37*
G36*
X861728D02*
X859572D01*
X857489Y791232D01*
X855621Y790154D01*
X854096Y788629D01*
X853018Y786761D01*
X852460Y784678D01*
Y782522D01*
X853018Y780439D01*
X854096Y778571D01*
X855450Y777218D01*
X855433Y777046D01*
X854520Y775553D01*
Y767770D01*
X862113D01*
X861534Y769931D01*
X860364Y771959D01*
X858813Y773510D01*
X858806Y773695D01*
X859880Y775410D01*
X861728D01*
X863811Y775968D01*
X865679Y777046D01*
X867204Y778571D01*
X868282Y780439D01*
X868840Y782522D01*
Y784678D01*
X868282Y786761D01*
X867204Y788629D01*
X865679Y790154D01*
X863811Y791232D01*
X861728Y791790D01*
D02*
G37*
G36*
X1406801Y769290D02*
X1406420D01*
Y758020D01*
X1417690D01*
Y758401D01*
X1416835Y761591D01*
X1415184Y764450D01*
X1412850Y766785D01*
X1409990Y768436D01*
X1406801Y769290D01*
D02*
G37*
G36*
X748770Y799653D02*
Y791100D01*
Y782547D01*
X750816Y783095D01*
X752774Y784226D01*
X754374Y785826D01*
X754428Y785920D01*
X787223D01*
X810306Y762838D01*
X810306Y762838D01*
X811986Y761715D01*
X813969Y761320D01*
X845975D01*
X846136Y761041D01*
X847791Y759386D01*
X849819Y758216D01*
X851980Y757637D01*
Y766500D01*
Y775363D01*
X849819Y774784D01*
X847791Y773614D01*
X846136Y771959D01*
X845975Y771680D01*
X816114D01*
X793031Y794762D01*
X791351Y795885D01*
X789369Y796280D01*
X754428D01*
X754374Y796374D01*
X752774Y797974D01*
X750816Y799105D01*
X748770Y799653D01*
D02*
G37*
G36*
X862113Y765230D02*
X854520D01*
Y757637D01*
X856681Y758216D01*
X858709Y759386D01*
X860364Y761041D01*
X861534Y763069D01*
X862113Y765230D01*
D02*
G37*
G36*
X1417690Y755480D02*
X1406420D01*
Y744210D01*
X1406801D01*
X1409990Y745065D01*
X1412850Y746716D01*
X1415184Y749051D01*
X1416835Y751910D01*
X1417690Y755099D01*
Y755480D01*
D02*
G37*
G36*
X1486478Y778990D02*
X1483022D01*
X1479634Y778316D01*
X1476442Y776994D01*
X1473569Y775075D01*
X1471126Y772632D01*
X1469206Y769759D01*
X1467884Y766567D01*
X1467210Y763178D01*
Y759723D01*
X1467884Y756334D01*
X1469206Y753142D01*
X1471126Y750269D01*
X1473569Y747826D01*
X1476442Y745907D01*
X1479634Y744585D01*
X1483022Y743910D01*
X1486478D01*
X1489866Y744585D01*
X1493058Y745907D01*
X1495931Y747826D01*
X1498374Y750269D01*
X1500294Y753142D01*
X1501616Y756334D01*
X1502290Y759723D01*
Y763178D01*
X1501616Y766567D01*
X1500294Y769759D01*
X1498374Y772632D01*
X1495931Y775075D01*
X1493058Y776994D01*
X1489866Y778316D01*
X1486478Y778990D01*
D02*
G37*
G36*
X1016977D02*
X1013522D01*
X1010134Y778316D01*
X1006942Y776994D01*
X1004069Y775075D01*
X1001626Y772632D01*
X999706Y769759D01*
X998384Y766567D01*
X997710Y763178D01*
Y759723D01*
X998384Y756334D01*
X999706Y753142D01*
X1001626Y750269D01*
X1004069Y747826D01*
X1006942Y745907D01*
X1010134Y744585D01*
X1013522Y743910D01*
X1016977D01*
X1020366Y744585D01*
X1023558Y745907D01*
X1026431Y747826D01*
X1028874Y750269D01*
X1030794Y753142D01*
X1032116Y756334D01*
X1032790Y759723D01*
Y763178D01*
X1032116Y766567D01*
X1030794Y769759D01*
X1028874Y772632D01*
X1026431Y775075D01*
X1023558Y776994D01*
X1020366Y778316D01*
X1016977Y778990D01*
D02*
G37*
G36*
X835727Y750080D02*
X833073D01*
X830509Y749393D01*
X828211Y748066D01*
X826334Y746189D01*
X825007Y743891D01*
X824320Y741327D01*
Y738673D01*
X825007Y736109D01*
X826334Y733811D01*
X828211Y731934D01*
X830509Y730607D01*
X833073Y729920D01*
X835727D01*
X838291Y730607D01*
X840589Y731934D01*
X842466Y733811D01*
X843793Y736109D01*
X844480Y738673D01*
Y741327D01*
X843793Y743891D01*
X842466Y746189D01*
X840589Y748066D01*
X838291Y749393D01*
X835727Y750080D01*
D02*
G37*
G36*
X810327D02*
X807673D01*
X805109Y749393D01*
X802811Y748066D01*
X800934Y746189D01*
X799607Y743891D01*
X798920Y741327D01*
Y738673D01*
X799607Y736109D01*
X800934Y733811D01*
X802811Y731934D01*
X805109Y730607D01*
X807673Y729920D01*
X810327D01*
X812891Y730607D01*
X815189Y731934D01*
X817066Y733811D01*
X818393Y736109D01*
X819080Y738673D01*
Y741327D01*
X818393Y743891D01*
X817066Y746189D01*
X815189Y748066D01*
X812891Y749393D01*
X810327Y750080D01*
D02*
G37*
G36*
X784927D02*
X782273D01*
X779709Y749393D01*
X777411Y748066D01*
X775534Y746189D01*
X774207Y743891D01*
X773520Y741327D01*
Y738673D01*
X774207Y736109D01*
X775534Y733811D01*
X777411Y731934D01*
X779709Y730607D01*
X782273Y729920D01*
X784927D01*
X787491Y730607D01*
X789789Y731934D01*
X791666Y733811D01*
X792993Y736109D01*
X793680Y738673D01*
Y741327D01*
X792993Y743891D01*
X791666Y746189D01*
X789789Y748066D01*
X787491Y749393D01*
X784927Y750080D01*
D02*
G37*
G36*
X908027Y752540D02*
X904573D01*
X901184Y751866D01*
X897992Y750544D01*
X895119Y748624D01*
X892676Y746181D01*
X890756Y743308D01*
X889434Y740116D01*
X888760Y736728D01*
Y733272D01*
X889434Y729884D01*
X890756Y726692D01*
X892676Y723819D01*
X895119Y721376D01*
X897992Y719456D01*
X901184Y718134D01*
X904573Y717460D01*
X908027D01*
X911416Y718134D01*
X914608Y719456D01*
X917481Y721376D01*
X919924Y723819D01*
X921844Y726692D01*
X923166Y729884D01*
X923840Y733272D01*
Y736728D01*
X923166Y740116D01*
X921844Y743308D01*
X919924Y746181D01*
X917481Y748624D01*
X914608Y750544D01*
X911416Y751866D01*
X908027Y752540D01*
D02*
G37*
G36*
X688027D02*
X684573D01*
X681184Y751866D01*
X677992Y750544D01*
X675119Y748624D01*
X672676Y746181D01*
X670756Y743308D01*
X669434Y740116D01*
X668760Y736728D01*
Y733272D01*
X669434Y729884D01*
X670756Y726692D01*
X672676Y723819D01*
X675119Y721376D01*
X677992Y719456D01*
X681184Y718134D01*
X684573Y717460D01*
X688027D01*
X691416Y718134D01*
X694608Y719456D01*
X697481Y721376D01*
X699924Y723819D01*
X701844Y726692D01*
X703166Y729884D01*
X703840Y733272D01*
Y736728D01*
X703166Y740116D01*
X701844Y743308D01*
X699924Y746181D01*
X697481Y748624D01*
X694608Y750544D01*
X691416Y751866D01*
X688027Y752540D01*
D02*
G37*
G36*
X1380920Y716790D02*
X1378580D01*
X1376319Y716184D01*
X1374291Y715014D01*
X1372636Y713359D01*
X1371466Y711331D01*
X1370860Y709070D01*
Y706730D01*
X1371466Y704469D01*
X1372636Y702441D01*
X1374291Y700786D01*
X1376319Y699616D01*
X1378580Y699010D01*
X1380920D01*
X1383181Y699616D01*
X1385209Y700786D01*
X1386864Y702441D01*
X1388034Y704469D01*
X1388640Y706730D01*
Y709070D01*
X1388034Y711331D01*
X1386864Y713359D01*
X1385209Y715014D01*
X1383181Y716184D01*
X1380920Y716790D01*
D02*
G37*
G36*
X1420281Y677090D02*
X1418019D01*
X1415834Y676505D01*
X1413876Y675374D01*
X1412276Y673774D01*
X1411145Y671816D01*
X1410560Y669631D01*
Y667369D01*
X1411145Y665184D01*
X1412276Y663226D01*
X1413876Y661626D01*
X1415834Y660495D01*
X1418019Y659910D01*
X1420281D01*
X1422466Y660495D01*
X1424424Y661626D01*
X1426024Y663226D01*
X1427155Y665184D01*
X1427740Y667369D01*
Y669631D01*
X1427155Y671816D01*
X1426024Y673774D01*
X1424424Y675374D01*
X1422466Y676505D01*
X1420281Y677090D01*
D02*
G37*
G36*
X1394881D02*
X1392619D01*
X1390434Y676505D01*
X1388476Y675374D01*
X1386876Y673774D01*
X1385745Y671816D01*
X1385160Y669631D01*
Y667369D01*
X1385575Y665819D01*
X1359330Y639574D01*
X1334816D01*
X1333643Y641606D01*
X1333988Y642203D01*
X1334570Y644375D01*
Y646624D01*
X1333988Y648796D01*
X1332864Y650743D01*
X1331273Y652333D01*
X1329326Y653457D01*
X1327154Y654040D01*
X1324906D01*
X1322733Y653457D01*
X1320786Y652333D01*
X1319196Y650743D01*
X1318072Y648796D01*
X1317490Y646624D01*
Y644375D01*
X1318072Y642203D01*
X1318417Y641606D01*
X1317243Y639574D01*
X1285846D01*
X1284673Y641606D01*
X1285018Y642203D01*
X1285600Y644375D01*
Y646624D01*
X1285018Y648796D01*
X1283894Y650743D01*
X1282304Y652333D01*
X1280356Y653457D01*
X1278184Y654040D01*
X1275936D01*
X1273764Y653457D01*
X1271816Y652333D01*
X1270226Y650743D01*
X1269102Y648796D01*
X1268520Y646624D01*
Y644375D01*
X1269102Y642203D01*
X1269447Y641606D01*
X1268273Y639574D01*
X1239509D01*
X1236224Y642859D01*
X1236630Y644375D01*
Y646624D01*
X1236048Y648796D01*
X1234924Y650743D01*
X1233334Y652333D01*
X1231386Y653457D01*
X1229214Y654040D01*
X1226966D01*
X1224794Y653457D01*
X1222846Y652333D01*
X1221256Y650743D01*
X1220132Y648796D01*
X1219550Y646624D01*
Y644375D01*
X1220132Y642203D01*
X1221256Y640256D01*
X1222846Y638666D01*
X1224205Y637881D01*
Y622910D01*
X1224501Y621423D01*
X1225343Y620163D01*
X1243080Y602426D01*
X1242610Y600670D01*
Y598330D01*
X1243216Y596069D01*
X1244386Y594041D01*
X1246041Y592386D01*
X1248069Y591216D01*
X1250330Y590610D01*
X1252670D01*
X1254931Y591216D01*
X1256959Y592386D01*
X1258614Y594041D01*
X1259784Y596069D01*
X1260390Y598330D01*
Y600670D01*
X1259784Y602931D01*
X1258614Y604959D01*
X1256959Y606614D01*
X1254931Y607784D01*
X1252670Y608390D01*
X1250330D01*
X1248574Y607920D01*
X1231974Y624519D01*
Y633466D01*
X1233852Y634244D01*
X1235153Y632943D01*
X1236413Y632101D01*
X1237900Y631805D01*
X1360939D01*
X1362426Y632101D01*
X1363686Y632943D01*
X1391069Y660325D01*
X1392619Y659910D01*
X1394881D01*
X1397066Y660495D01*
X1399024Y661626D01*
X1400624Y663226D01*
X1401755Y665184D01*
X1402340Y667369D01*
Y669631D01*
X1401755Y671816D01*
X1400624Y673774D01*
X1399024Y675374D01*
X1397066Y676505D01*
X1394881Y677090D01*
D02*
G37*
G36*
X1138651Y644230D02*
X1131420D01*
Y636999D01*
X1133446Y637542D01*
X1135394Y638666D01*
X1136984Y640256D01*
X1138108Y642203D01*
X1138651Y644230D01*
D02*
G37*
G36*
X768280Y750080D02*
X748120D01*
Y729920D01*
X760955D01*
X849038Y641837D01*
X850718Y640714D01*
X852701Y640320D01*
X1025339D01*
X1025376Y640256D01*
X1026966Y638666D01*
X1028914Y637542D01*
X1031086Y636959D01*
X1033334D01*
X1035506Y637542D01*
X1037454Y638666D01*
X1039044Y640256D01*
X1040168Y642203D01*
X1040750Y644375D01*
Y646624D01*
X1040168Y648796D01*
X1039044Y650743D01*
X1037454Y652333D01*
X1035506Y653457D01*
X1033334Y654040D01*
X1031086D01*
X1028914Y653457D01*
X1026966Y652333D01*
X1025376Y650743D01*
X1025339Y650679D01*
X854846D01*
X768280Y737245D01*
Y750080D01*
D02*
G37*
G36*
X1524790Y637540D02*
X1514520D01*
Y627270D01*
X1524790D01*
Y637540D01*
D02*
G37*
G36*
X1511980D02*
X1501710D01*
Y627270D01*
X1511980D01*
Y637540D01*
D02*
G37*
G36*
X1128880Y644230D02*
X1121555D01*
X1102838Y625512D01*
X1101715Y623832D01*
X1101320Y621850D01*
Y539750D01*
X1101715Y537768D01*
X1102838Y536087D01*
X1140338Y498587D01*
X1142018Y497465D01*
X1144000Y497071D01*
X1414500D01*
X1416482Y497465D01*
X1418163Y498587D01*
X1502832Y583257D01*
X1503955Y584938D01*
X1504350Y586920D01*
Y590614D01*
X1504619Y590726D01*
X1506382Y591240D01*
X1508796Y589846D01*
X1511731Y589060D01*
X1514769D01*
X1517704Y589846D01*
X1520336Y591366D01*
X1522484Y593514D01*
X1524004Y596146D01*
X1524790Y599081D01*
Y602119D01*
X1524004Y605054D01*
X1522484Y607686D01*
X1520336Y609834D01*
X1517704Y611353D01*
X1515426Y611964D01*
X1514378Y613516D01*
X1514192Y614172D01*
X1514322Y614460D01*
X1524790D01*
Y624730D01*
X1513250D01*
X1501710D01*
Y620040D01*
X1501611Y619540D01*
Y616198D01*
X1495508Y610095D01*
X1494385Y608414D01*
X1493990Y606432D01*
Y589065D01*
X1412355Y507430D01*
X1146145D01*
X1128569Y525006D01*
X1128751Y525786D01*
X1129489Y526960D01*
X1131274D01*
X1133446Y527542D01*
X1135394Y528666D01*
X1136984Y530256D01*
X1138108Y532203D01*
X1138690Y534375D01*
Y536624D01*
X1138108Y538796D01*
X1136984Y540743D01*
X1135394Y542333D01*
X1133446Y543457D01*
X1131274Y544039D01*
X1129026D01*
X1126854Y543457D01*
X1124906Y542333D01*
X1123316Y540743D01*
X1122192Y538796D01*
X1121610Y536624D01*
Y534839D01*
X1120436Y534101D01*
X1119656Y533919D01*
X1111680Y541895D01*
Y619704D01*
X1128880Y636905D01*
Y644230D01*
D02*
G37*
G36*
X1429174Y581165D02*
X1426826D01*
X1424559Y580558D01*
X1422526Y579384D01*
X1420866Y577724D01*
X1419693Y575691D01*
X1419085Y573424D01*
Y571076D01*
X1419693Y568809D01*
X1420866Y566776D01*
X1422526Y565116D01*
X1424559Y563943D01*
X1426826Y563335D01*
X1429174D01*
X1431441Y563943D01*
X1433474Y565116D01*
X1435134Y566776D01*
X1436307Y568809D01*
X1436915Y571076D01*
Y573424D01*
X1436307Y575691D01*
X1435134Y577724D01*
X1433474Y579384D01*
X1431441Y580558D01*
X1429174Y581165D01*
D02*
G37*
G36*
X1401915D02*
X1384085D01*
Y563335D01*
X1401915D01*
Y581165D01*
D02*
G37*
G36*
X1180244Y544039D02*
X1177996D01*
X1175824Y543457D01*
X1173876Y542333D01*
X1172286Y540743D01*
X1171162Y538796D01*
X1170580Y536624D01*
Y534375D01*
X1171162Y532203D01*
X1172286Y530256D01*
X1173876Y528666D01*
X1175824Y527542D01*
X1177996Y526960D01*
X1180244D01*
X1182416Y527542D01*
X1184364Y528666D01*
X1185954Y530256D01*
X1187078Y532203D01*
X1187660Y534375D01*
Y536624D01*
X1187078Y538796D01*
X1185954Y540743D01*
X1184364Y542333D01*
X1182416Y543457D01*
X1180244Y544039D01*
D02*
G37*
G36*
X1082304D02*
X1080056D01*
X1077884Y543457D01*
X1075936Y542333D01*
X1074346Y540743D01*
X1073222Y538796D01*
X1072640Y536624D01*
Y534375D01*
X1073222Y532203D01*
X1074346Y530256D01*
X1075936Y528666D01*
X1077884Y527542D01*
X1080056Y526960D01*
X1082304D01*
X1084476Y527542D01*
X1086424Y528666D01*
X1088014Y530256D01*
X1089138Y532203D01*
X1089720Y534375D01*
Y536624D01*
X1089138Y538796D01*
X1088014Y540743D01*
X1086424Y542333D01*
X1084476Y543457D01*
X1082304Y544039D01*
D02*
G37*
G36*
X1033334D02*
X1031086D01*
X1028914Y543457D01*
X1026966Y542333D01*
X1025376Y540743D01*
X1024252Y538796D01*
X1023670Y536624D01*
Y534375D01*
X1024076Y532859D01*
X999503Y508286D01*
X998661Y507026D01*
X998365Y505540D01*
Y482523D01*
X996791Y481614D01*
X995136Y479959D01*
X993966Y477931D01*
X993360Y475670D01*
Y473330D01*
X993966Y471069D01*
X995136Y469041D01*
X996791Y467386D01*
X998819Y466216D01*
X1001080Y465610D01*
X1003420D01*
X1005681Y466216D01*
X1007709Y467386D01*
X1009364Y469041D01*
X1010534Y471069D01*
X1011140Y473330D01*
Y475670D01*
X1010534Y477931D01*
X1009364Y479959D01*
X1007709Y481614D01*
X1006135Y482523D01*
Y503931D01*
X1029570Y527366D01*
X1031086Y526960D01*
X1033334D01*
X1035506Y527542D01*
X1037454Y528666D01*
X1039044Y530256D01*
X1040168Y532203D01*
X1040750Y534375D01*
Y536624D01*
X1040168Y538796D01*
X1039044Y540743D01*
X1037454Y542333D01*
X1035506Y543457D01*
X1033334Y544039D01*
D02*
G37*
G36*
X985729Y540865D02*
X982671D01*
X979717Y540073D01*
X977068Y538544D01*
X974906Y536382D01*
X973376Y533733D01*
X972585Y530779D01*
Y527721D01*
X973376Y524767D01*
X974906Y522118D01*
X977068Y519956D01*
X979717Y518427D01*
X982671Y517635D01*
X985729D01*
X988683Y518427D01*
X991332Y519956D01*
X993494Y522118D01*
X995023Y524767D01*
X995815Y527721D01*
Y530779D01*
X995023Y533733D01*
X993494Y536382D01*
X991332Y538544D01*
X988683Y540073D01*
X985729Y540865D01*
D02*
G37*
G36*
X908027Y532540D02*
X904573D01*
X901184Y531866D01*
X897992Y530544D01*
X895119Y528624D01*
X892676Y526181D01*
X890756Y523308D01*
X889434Y520116D01*
X888760Y516727D01*
Y513273D01*
X889434Y509884D01*
X890756Y506692D01*
X892676Y503819D01*
X895119Y501376D01*
X897992Y499456D01*
X901184Y498134D01*
X904573Y497460D01*
X908027D01*
X911416Y498134D01*
X914608Y499456D01*
X917481Y501376D01*
X919924Y503819D01*
X921844Y506692D01*
X923166Y509884D01*
X923840Y513273D01*
Y516727D01*
X923166Y520116D01*
X921844Y523308D01*
X919924Y526181D01*
X917481Y528624D01*
X914608Y530544D01*
X911416Y531866D01*
X908027Y532540D01*
D02*
G37*
G36*
X688027D02*
X684573D01*
X681184Y531866D01*
X677992Y530544D01*
X675119Y528624D01*
X672676Y526181D01*
X670756Y523308D01*
X669434Y520116D01*
X668760Y516727D01*
Y513273D01*
X669434Y509884D01*
X670756Y506692D01*
X672676Y503819D01*
X675119Y501376D01*
X677992Y499456D01*
X681184Y498134D01*
X684573Y497460D01*
X688027D01*
X691416Y498134D01*
X694608Y499456D01*
X697481Y501376D01*
X699924Y503819D01*
X701844Y506692D01*
X703166Y509884D01*
X703840Y513273D01*
Y516727D01*
X703166Y520116D01*
X701844Y523308D01*
X699924Y526181D01*
X697481Y528624D01*
X694608Y530544D01*
X691416Y531866D01*
X688027Y532540D01*
D02*
G37*
G36*
X970415Y540865D02*
X947185D01*
Y517635D01*
X955865D01*
Y494523D01*
X954291Y493614D01*
X952636Y491959D01*
X951466Y489931D01*
X950860Y487670D01*
Y485330D01*
X951466Y483069D01*
X952636Y481041D01*
X954291Y479386D01*
X956319Y478216D01*
X958580Y477610D01*
X960920D01*
X963181Y478216D01*
X965209Y479386D01*
X966864Y481041D01*
X968034Y483069D01*
X968640Y485330D01*
Y487670D01*
X968034Y489931D01*
X966864Y491959D01*
X965209Y493614D01*
X963635Y494523D01*
Y517635D01*
X970415D01*
Y540865D01*
D02*
G37*
G36*
X1527561Y507540D02*
X1522439D01*
X1517380Y506739D01*
X1512509Y505156D01*
X1507945Y502831D01*
X1503802Y499820D01*
X1500180Y496198D01*
X1497169Y492055D01*
X1494844Y487491D01*
X1493261Y482620D01*
X1492460Y477561D01*
Y472439D01*
X1493261Y467380D01*
X1494844Y462509D01*
X1497169Y457945D01*
X1500180Y453802D01*
X1503802Y450180D01*
X1507945Y447169D01*
X1512509Y444844D01*
X1517380Y443261D01*
X1522439Y442460D01*
X1527561D01*
X1532620Y443261D01*
X1537491Y444844D01*
X1542055Y447169D01*
X1546198Y450180D01*
X1549820Y453802D01*
X1552831Y457945D01*
X1555156Y462509D01*
X1556739Y467380D01*
X1557540Y472439D01*
Y477561D01*
X1556739Y482620D01*
X1555156Y487491D01*
X1552831Y492055D01*
X1549820Y496198D01*
X1546198Y499820D01*
X1542055Y502831D01*
X1537491Y505156D01*
X1532620Y506739D01*
X1527561Y507540D01*
D02*
G37*
G36*
X627561D02*
X622439D01*
X617380Y506739D01*
X612509Y505156D01*
X607945Y502831D01*
X603802Y499820D01*
X600180Y496198D01*
X597169Y492055D01*
X594844Y487491D01*
X593261Y482620D01*
X592460Y477561D01*
Y472439D01*
X593261Y467380D01*
X594844Y462509D01*
X597169Y457945D01*
X600180Y453802D01*
X603802Y450180D01*
X607945Y447169D01*
X612509Y444844D01*
X617380Y443261D01*
X622439Y442460D01*
X627561D01*
X632620Y443261D01*
X637491Y444844D01*
X642055Y447169D01*
X646198Y450180D01*
X649820Y453802D01*
X652831Y457945D01*
X655156Y462509D01*
X656739Y467380D01*
X657540Y472439D01*
Y477561D01*
X656739Y482620D01*
X655156Y487491D01*
X652831Y492055D01*
X649820Y496198D01*
X646198Y499820D01*
X642055Y502831D01*
X637491Y505156D01*
X632620Y506739D01*
X627561Y507540D01*
D02*
G37*
%LPD*%
D13*
X1125750Y683750D02*
X1271133Y538367D01*
X1125750Y683750D02*
Y756750D01*
X1271133Y538367D02*
X1271633D01*
X1274500Y535499D02*
X1277060D01*
X1271633Y538367D02*
X1274500Y535499D01*
X1228090Y622910D02*
X1251500Y599500D01*
X1228090Y622910D02*
Y645499D01*
X1237900Y635690D01*
X823750Y795100D02*
X835250Y783600D01*
X823750Y837500D02*
X849250Y863000D01*
X823750Y795100D02*
Y837500D01*
X849250Y863000D02*
X860650D01*
X1237900Y635690D02*
X1360939D01*
X1393750Y668500D01*
X1080782Y645897D02*
X1081180Y645499D01*
X1080782Y645897D02*
Y697352D01*
X1080384Y697750D02*
X1080782Y697352D01*
X1002250Y505540D02*
X1032210Y535499D01*
X1002250Y474500D02*
Y505540D01*
X958800Y529250D02*
X959750Y528300D01*
Y486500D02*
Y528300D01*
D14*
X747500Y875250D02*
D03*
Y900650D02*
D03*
X747500Y816500D02*
D03*
Y791100D02*
D03*
X1393750Y668500D02*
D03*
X1419150D02*
D03*
D15*
X930500Y905000D02*
D03*
X820500D02*
D03*
X1326030Y645499D02*
D03*
Y535499D02*
D03*
X1277060Y645499D02*
D03*
Y535499D02*
D03*
X1228090Y645499D02*
D03*
Y535499D02*
D03*
X1179120Y645499D02*
D03*
Y535499D02*
D03*
X1130150Y645499D02*
D03*
Y535499D02*
D03*
X1081180Y645499D02*
D03*
Y535499D02*
D03*
X1032210Y645499D02*
D03*
Y535499D02*
D03*
D16*
X911450Y783600D02*
D03*
X886050D02*
D03*
X860650D02*
D03*
X835250D02*
D03*
Y863000D02*
D03*
X860650D02*
D03*
X886050D02*
D03*
D17*
X911450D02*
D03*
D19*
X1513250Y600600D02*
D03*
D20*
Y626000D02*
D03*
D21*
X906000Y970750D02*
D03*
X852000D02*
D03*
D22*
X1484750Y1006550D02*
D03*
Y761450D02*
D03*
X1015250D02*
D03*
Y1006550D02*
D03*
X686300Y735000D02*
D03*
X906300D02*
D03*
Y515000D02*
D03*
X686300D02*
D03*
D23*
X1049550Y756750D02*
D03*
X1074950D02*
D03*
X1100350D02*
D03*
X1125750D02*
D03*
X1151150D02*
D03*
X1176550D02*
D03*
X1201950D02*
D03*
X1227350D02*
D03*
X1252750D02*
D03*
X1278150D02*
D03*
X1303550D02*
D03*
X1328950D02*
D03*
X1354350D02*
D03*
X1379750D02*
D03*
X1405150D02*
D03*
X1049550Y1010750D02*
D03*
X1074950D02*
D03*
X1100350D02*
D03*
X1125750D02*
D03*
X1151150D02*
D03*
X1176550D02*
D03*
X1201950D02*
D03*
X1227350D02*
D03*
X1252750D02*
D03*
X1278150D02*
D03*
X1303550D02*
D03*
X1328950D02*
D03*
X1354350D02*
D03*
X1379750D02*
D03*
D24*
X1405150D02*
D03*
D25*
X1393000Y572250D02*
D03*
D26*
X1428000D02*
D03*
D27*
X758200Y740000D02*
D03*
D28*
X783600D02*
D03*
X809000D02*
D03*
X834400D02*
D03*
D29*
X984200Y529250D02*
D03*
D30*
X958800D02*
D03*
D31*
X744770Y961100D02*
D03*
Y986500D02*
D03*
X757470Y973800D02*
D03*
D32*
X1251500Y599500D02*
D03*
X847470Y837220D02*
D03*
X853250Y766500D02*
D03*
X1080384Y697750D02*
D03*
X1379750Y707900D02*
D03*
X1002250Y474500D02*
D03*
X959750Y486500D02*
D03*
D33*
X1228090Y535499D02*
X1243089Y520500D01*
X1404750D01*
X1450500Y566250D01*
Y965400D01*
X1405150Y1010750D02*
X1450500Y965400D01*
D34*
X1414500Y502250D02*
X1499170Y586920D01*
X1506790Y614052D02*
Y619540D01*
X1513250Y626000D01*
X1499170Y586920D02*
Y606432D01*
X1144000Y502250D02*
X1414500D01*
X1499170Y606432D02*
X1506790Y614052D01*
X1086000Y710750D02*
X1130150Y666600D01*
Y645499D02*
Y666600D01*
X984300Y710750D02*
X1086000D01*
X1106500Y539750D02*
Y621850D01*
Y539750D02*
X1144000Y502250D01*
X1106500Y621850D02*
X1130150Y645499D01*
X813969Y766500D02*
X853250D01*
X911450Y783600D02*
X984300Y710750D01*
X789369Y791100D02*
X813969Y766500D01*
X747500Y791100D02*
X789369D01*
X852701Y645499D02*
X1032210D01*
X758200Y740000D02*
X852701Y645499D01*
X835250Y954000D02*
X852000Y970750D01*
X835250Y863000D02*
Y954000D01*
D35*
X625000Y1075000D02*
D03*
X1525000D02*
D03*
Y475000D02*
D03*
X625000D02*
D03*
M02*
