G04*
G04 #@! TF.GenerationSoftware,Altium Limited,Altium Designer,26.8.1 (31)*
G04*
G04 Layer_Color=8388736*
G04 Board_Origin=0|0*
%FSLAX44Y44*%
%MOMM*%
G71*
G04*
G04 #@! TF.SameCoordinates,925F5AF1-14A6-441F-BD70-3B09AEF2B194*
G04*
G04*
G04 #@! TF.FilePolarity,Negative*
G04*
G01*
G75*
%ADD14C,1.2100*%
%ADD15C,1.2000*%
%ADD16C,1.1300*%
%ADD17R,1.1300X1.1300*%
%ADD18C,7.3000*%
%ADD19C,1.8000*%
%ADD20R,1.8000X1.8000*%
%ADD21C,1.2690*%
%ADD22C,3.0000*%
%ADD23C,2.0000*%
%ADD24R,2.0000X2.0000*%
%ADD25R,1.2750X1.2750*%
%ADD26C,1.2750*%
%ADD27R,1.5080X1.5080*%
%ADD28C,1.5080*%
%ADD29C,1.8150*%
%ADD30R,1.8150X1.8150*%
%ADD31C,1.1000*%
%ADD32C,1.2700*%
D14*
X747500Y875250D02*
D03*
Y900650D02*
D03*
X747500Y816500D02*
D03*
Y791100D02*
D03*
X1393750Y668500D02*
D03*
X1419150D02*
D03*
D15*
X930500Y905000D02*
D03*
X820500D02*
D03*
X1326030Y645499D02*
D03*
Y535499D02*
D03*
X1277060Y645499D02*
D03*
Y535499D02*
D03*
X1228090Y645499D02*
D03*
Y535499D02*
D03*
X1179120Y645499D02*
D03*
Y535499D02*
D03*
X1130150Y645499D02*
D03*
Y535499D02*
D03*
X1081180Y645499D02*
D03*
Y535499D02*
D03*
X1032210Y645499D02*
D03*
Y535499D02*
D03*
D16*
X911450Y783600D02*
D03*
X886050D02*
D03*
X860650D02*
D03*
X835250D02*
D03*
Y863000D02*
D03*
X860650D02*
D03*
X886050D02*
D03*
D17*
X911450D02*
D03*
D18*
X625000Y1075000D02*
D03*
X1525000D02*
D03*
Y475000D02*
D03*
X625000D02*
D03*
D19*
X1513250Y600600D02*
D03*
D20*
Y626000D02*
D03*
D21*
X906000Y970750D02*
D03*
X852000D02*
D03*
D22*
X1484750Y1006550D02*
D03*
Y761450D02*
D03*
X1015250D02*
D03*
Y1006550D02*
D03*
X686300Y735000D02*
D03*
X906300D02*
D03*
Y515000D02*
D03*
X686300D02*
D03*
D23*
X1049550Y756750D02*
D03*
X1074950D02*
D03*
X1100350D02*
D03*
X1125750D02*
D03*
X1151150D02*
D03*
X1176550D02*
D03*
X1201950D02*
D03*
X1227350D02*
D03*
X1252750D02*
D03*
X1278150D02*
D03*
X1303550D02*
D03*
X1328950D02*
D03*
X1354350D02*
D03*
X1379750D02*
D03*
X1405150D02*
D03*
X1049550Y1010750D02*
D03*
X1074950D02*
D03*
X1100350D02*
D03*
X1125750D02*
D03*
X1151150D02*
D03*
X1176550D02*
D03*
X1201950D02*
D03*
X1227350D02*
D03*
X1252750D02*
D03*
X1278150D02*
D03*
X1303550D02*
D03*
X1328950D02*
D03*
X1354350D02*
D03*
X1379750D02*
D03*
D24*
X1405150D02*
D03*
D25*
X1393000Y572250D02*
D03*
D26*
X1428000D02*
D03*
D27*
X758200Y740000D02*
D03*
D28*
X783600D02*
D03*
X809000D02*
D03*
X834400D02*
D03*
D29*
X984200Y529250D02*
D03*
D30*
X958800D02*
D03*
D31*
X744770Y961100D02*
D03*
Y986500D02*
D03*
X757470Y973800D02*
D03*
D32*
X1251500Y599500D02*
D03*
X847470Y837220D02*
D03*
X853250Y766500D02*
D03*
X1080384Y697750D02*
D03*
X1379750Y707900D02*
D03*
X1002250Y474500D02*
D03*
X959750Y486500D02*
D03*
M02*
