G04*
G04 #@! TF.GenerationSoftware,Altium Limited,Altium Designer,26.8.1 (31)*
G04*
G04 Layer_Color=65535*
G04 Board_Origin=0|0*
%FSLAX44Y44*%
%MOMM*%
G71*
G04*
G04 #@! TF.SameCoordinates,925F5AF1-14A6-441F-BD70-3B09AEF2B194*
G04*
G04*
G04 #@! TF.FilePolarity,Positive*
G04*
G01*
G75*
%ADD10C,0.2000*%
%ADD11C,0.1270*%
%ADD12C,0.1000*%
%ADD13C,0.2540*%
G36*
X1291063Y1080527D02*
X1291396Y1080493D01*
X1291796Y1080460D01*
X1292229Y1080393D01*
X1292696Y1080327D01*
X1293696Y1080093D01*
X1294229Y1079927D01*
X1294795Y1079727D01*
X1295328Y1079494D01*
X1295862Y1079260D01*
X1296395Y1078927D01*
X1296895Y1078594D01*
X1296928Y1078560D01*
X1296995Y1078494D01*
X1297161Y1078394D01*
X1297328Y1078227D01*
X1297528Y1078027D01*
X1297794Y1077794D01*
X1298061Y1077494D01*
X1298361Y1077161D01*
X1298661Y1076794D01*
X1298961Y1076394D01*
X1299261Y1075928D01*
X1299561Y1075461D01*
X1299861Y1074928D01*
X1300127Y1074362D01*
X1300394Y1073728D01*
X1300594Y1073095D01*
X1297261Y1072295D01*
Y1072329D01*
X1297228Y1072429D01*
X1297161Y1072562D01*
X1297095Y1072762D01*
X1296995Y1072995D01*
X1296895Y1073262D01*
X1296595Y1073862D01*
X1296228Y1074528D01*
X1295795Y1075195D01*
X1295262Y1075828D01*
X1294962Y1076095D01*
X1294662Y1076361D01*
X1294629D01*
X1294595Y1076428D01*
X1294495Y1076494D01*
X1294362Y1076561D01*
X1294195Y1076661D01*
X1293995Y1076761D01*
X1293496Y1077028D01*
X1292862Y1077261D01*
X1292129Y1077461D01*
X1291296Y1077594D01*
X1290363Y1077661D01*
X1290063D01*
X1289863Y1077627D01*
X1289630D01*
X1289330Y1077594D01*
X1288997Y1077527D01*
X1288630Y1077494D01*
X1287864Y1077327D01*
X1287030Y1077061D01*
X1286197Y1076694D01*
X1285797Y1076494D01*
X1285398Y1076228D01*
X1285364D01*
X1285298Y1076161D01*
X1285198Y1076095D01*
X1285064Y1075961D01*
X1284731Y1075661D01*
X1284331Y1075228D01*
X1283865Y1074695D01*
X1283398Y1074028D01*
X1282965Y1073295D01*
X1282632Y1072429D01*
Y1072395D01*
X1282598Y1072329D01*
X1282565Y1072196D01*
X1282498Y1072029D01*
X1282432Y1071796D01*
X1282365Y1071529D01*
X1282298Y1071229D01*
X1282232Y1070929D01*
X1282099Y1070163D01*
X1281965Y1069330D01*
X1281865Y1068430D01*
X1281832Y1067497D01*
Y1067463D01*
Y1067363D01*
Y1067197D01*
Y1066964D01*
X1281865Y1066664D01*
X1281898Y1066330D01*
Y1065964D01*
X1281965Y1065564D01*
X1282065Y1064664D01*
X1282232Y1063731D01*
X1282465Y1062731D01*
X1282765Y1061798D01*
Y1061765D01*
X1282798Y1061698D01*
X1282865Y1061565D01*
X1282965Y1061398D01*
X1283065Y1061198D01*
X1283165Y1060965D01*
X1283498Y1060432D01*
X1283931Y1059832D01*
X1284431Y1059232D01*
X1285031Y1058666D01*
X1285731Y1058166D01*
X1285764D01*
X1285831Y1058099D01*
X1285931Y1058066D01*
X1286098Y1057966D01*
X1286264Y1057899D01*
X1286497Y1057799D01*
X1287030Y1057566D01*
X1287697Y1057333D01*
X1288430Y1057166D01*
X1289230Y1057033D01*
X1290096Y1056966D01*
X1290363D01*
X1290563Y1056999D01*
X1290830Y1057033D01*
X1291096Y1057066D01*
X1291429Y1057099D01*
X1291763Y1057166D01*
X1292529Y1057366D01*
X1293329Y1057666D01*
X1293762Y1057832D01*
X1294162Y1058066D01*
X1294562Y1058299D01*
X1294928Y1058599D01*
X1294962Y1058632D01*
X1295029Y1058666D01*
X1295128Y1058766D01*
X1295262Y1058899D01*
X1295395Y1059065D01*
X1295595Y1059299D01*
X1295795Y1059532D01*
X1295995Y1059832D01*
X1296228Y1060132D01*
X1296461Y1060499D01*
X1296661Y1060898D01*
X1296895Y1061332D01*
X1297095Y1061832D01*
X1297295Y1062331D01*
X1297461Y1062865D01*
X1297628Y1063464D01*
X1301027Y1062598D01*
Y1062565D01*
X1300960Y1062431D01*
X1300894Y1062198D01*
X1300827Y1061898D01*
X1300694Y1061565D01*
X1300527Y1061165D01*
X1300361Y1060732D01*
X1300127Y1060232D01*
X1299894Y1059732D01*
X1299594Y1059199D01*
X1299294Y1058699D01*
X1298927Y1058166D01*
X1298561Y1057633D01*
X1298128Y1057133D01*
X1297661Y1056666D01*
X1297161Y1056233D01*
X1297128Y1056200D01*
X1297028Y1056133D01*
X1296895Y1056033D01*
X1296661Y1055900D01*
X1296395Y1055733D01*
X1296062Y1055533D01*
X1295695Y1055366D01*
X1295295Y1055166D01*
X1294795Y1054933D01*
X1294295Y1054767D01*
X1293729Y1054567D01*
X1293129Y1054400D01*
X1292496Y1054267D01*
X1291829Y1054167D01*
X1291129Y1054100D01*
X1290396Y1054067D01*
X1289996D01*
X1289697Y1054100D01*
X1289363Y1054133D01*
X1288930Y1054167D01*
X1288497Y1054200D01*
X1287997Y1054267D01*
X1286931Y1054467D01*
X1285797Y1054767D01*
X1285231Y1054967D01*
X1284664Y1055200D01*
X1284131Y1055433D01*
X1283631Y1055733D01*
X1283598Y1055766D01*
X1283531Y1055800D01*
X1283398Y1055900D01*
X1283198Y1056066D01*
X1282998Y1056233D01*
X1282732Y1056433D01*
X1282465Y1056699D01*
X1282165Y1056999D01*
X1281832Y1057299D01*
X1281532Y1057666D01*
X1281199Y1058066D01*
X1280865Y1058532D01*
X1280532Y1058999D01*
X1280232Y1059499D01*
X1279932Y1060065D01*
X1279666Y1060632D01*
Y1060665D01*
X1279599Y1060765D01*
X1279532Y1060965D01*
X1279466Y1061198D01*
X1279366Y1061498D01*
X1279232Y1061832D01*
X1279133Y1062231D01*
X1278999Y1062698D01*
X1278866Y1063198D01*
X1278766Y1063731D01*
X1278633Y1064297D01*
X1278533Y1064864D01*
X1278399Y1066164D01*
X1278333Y1067497D01*
Y1067530D01*
Y1067663D01*
Y1067897D01*
X1278366Y1068163D01*
Y1068530D01*
X1278399Y1068930D01*
X1278466Y1069363D01*
X1278533Y1069863D01*
X1278599Y1070396D01*
X1278699Y1070963D01*
X1278966Y1072129D01*
X1279333Y1073295D01*
X1279566Y1073895D01*
X1279832Y1074462D01*
X1279866Y1074495D01*
X1279899Y1074595D01*
X1279999Y1074762D01*
X1280132Y1074961D01*
X1280266Y1075195D01*
X1280466Y1075495D01*
X1280699Y1075795D01*
X1280965Y1076161D01*
X1281565Y1076894D01*
X1282332Y1077627D01*
X1283198Y1078361D01*
X1283698Y1078694D01*
X1284198Y1078994D01*
X1284231Y1079027D01*
X1284331Y1079060D01*
X1284498Y1079127D01*
X1284698Y1079227D01*
X1284964Y1079360D01*
X1285264Y1079494D01*
X1285631Y1079627D01*
X1286031Y1079793D01*
X1286497Y1079927D01*
X1286964Y1080060D01*
X1288030Y1080327D01*
X1289197Y1080493D01*
X1289796Y1080560D01*
X1290796D01*
X1291063Y1080527D01*
D02*
G37*
G36*
X1183990Y1062198D02*
X1174326D01*
Y1065364D01*
X1183990D01*
Y1062198D01*
D02*
G37*
G36*
X1349814Y1054500D02*
X1346282D01*
X1336351Y1080127D01*
X1340050D01*
X1346715Y1061498D01*
Y1061465D01*
X1346749Y1061398D01*
X1346782Y1061265D01*
X1346849Y1061132D01*
X1346915Y1060932D01*
X1346982Y1060698D01*
X1347182Y1060132D01*
X1347382Y1059499D01*
X1347615Y1058799D01*
X1347848Y1058032D01*
X1348048Y1057299D01*
Y1057333D01*
X1348082Y1057399D01*
X1348115Y1057499D01*
X1348148Y1057666D01*
X1348215Y1057866D01*
X1348282Y1058066D01*
X1348448Y1058599D01*
X1348648Y1059232D01*
X1348881Y1059965D01*
X1349148Y1060732D01*
X1349448Y1061498D01*
X1356380Y1080127D01*
X1359812D01*
X1349814Y1054500D01*
D02*
G37*
G36*
X1398969Y1080093D02*
X1399268D01*
X1399635Y1080060D01*
X1400035Y1080027D01*
X1400868Y1079960D01*
X1401734Y1079827D01*
X1402568Y1079660D01*
X1402968Y1079560D01*
X1403301Y1079427D01*
X1403334D01*
X1403367Y1079394D01*
X1403467Y1079360D01*
X1403601Y1079294D01*
X1403934Y1079127D01*
X1404334Y1078860D01*
X1404800Y1078527D01*
X1405267Y1078094D01*
X1405733Y1077561D01*
X1406167Y1076961D01*
Y1076928D01*
X1406200Y1076894D01*
X1406267Y1076794D01*
X1406333Y1076661D01*
X1406500Y1076294D01*
X1406700Y1075828D01*
X1406900Y1075261D01*
X1407066Y1074595D01*
X1407200Y1073862D01*
X1407233Y1073095D01*
Y1073062D01*
Y1072962D01*
Y1072829D01*
X1407200Y1072629D01*
X1407166Y1072395D01*
X1407133Y1072129D01*
X1407000Y1071496D01*
X1406800Y1070762D01*
X1406500Y1069996D01*
X1406300Y1069630D01*
X1406067Y1069230D01*
X1405767Y1068863D01*
X1405467Y1068496D01*
X1405434Y1068463D01*
X1405400Y1068430D01*
X1405267Y1068330D01*
X1405134Y1068196D01*
X1404934Y1068063D01*
X1404700Y1067897D01*
X1404434Y1067697D01*
X1404134Y1067497D01*
X1403767Y1067297D01*
X1403367Y1067097D01*
X1402901Y1066897D01*
X1402401Y1066697D01*
X1401868Y1066530D01*
X1401301Y1066364D01*
X1400668Y1066230D01*
X1400002Y1066130D01*
X1400068Y1066097D01*
X1400235Y1066030D01*
X1400468Y1065897D01*
X1400768Y1065731D01*
X1401435Y1065297D01*
X1401734Y1065064D01*
X1402034Y1064831D01*
X1402068D01*
X1402101Y1064764D01*
X1402301Y1064597D01*
X1402568Y1064297D01*
X1402968Y1063898D01*
X1403401Y1063431D01*
X1403867Y1062831D01*
X1404367Y1062165D01*
X1404867Y1061432D01*
X1409299Y1054500D01*
X1405034D01*
X1401668Y1059799D01*
Y1059832D01*
X1401601Y1059899D01*
X1401535Y1060032D01*
X1401435Y1060165D01*
X1401301Y1060365D01*
X1401135Y1060598D01*
X1400801Y1061098D01*
X1400401Y1061665D01*
X1400002Y1062231D01*
X1399602Y1062798D01*
X1399202Y1063298D01*
X1399169Y1063364D01*
X1399035Y1063498D01*
X1398869Y1063731D01*
X1398635Y1063964D01*
X1398369Y1064264D01*
X1398069Y1064564D01*
X1397769Y1064797D01*
X1397469Y1065031D01*
X1397436Y1065064D01*
X1397336Y1065097D01*
X1397202Y1065197D01*
X1397002Y1065297D01*
X1396769Y1065431D01*
X1396503Y1065530D01*
X1395936Y1065731D01*
X1395903D01*
X1395836Y1065764D01*
X1395703D01*
X1395503Y1065797D01*
X1395236Y1065830D01*
X1394903D01*
X1394536Y1065864D01*
X1390137D01*
Y1054500D01*
X1386738D01*
Y1080127D01*
X1398669D01*
X1398969Y1080093D01*
D02*
G37*
G36*
X1381406Y1077094D02*
X1366310D01*
Y1069296D01*
X1380440D01*
Y1066264D01*
X1366310D01*
Y1057533D01*
X1382006D01*
Y1054500D01*
X1362911D01*
Y1080127D01*
X1381406D01*
Y1077094D01*
D02*
G37*
G36*
X1333019Y1054500D02*
X1329620D01*
Y1080127D01*
X1333019D01*
Y1054500D01*
D02*
G37*
G36*
X1323754Y1077094D02*
X1308658D01*
Y1069296D01*
X1322788D01*
Y1066264D01*
X1308658D01*
Y1057533D01*
X1324354D01*
Y1054500D01*
X1305259D01*
Y1080127D01*
X1323754D01*
Y1077094D01*
D02*
G37*
G36*
X1274034D02*
X1258938D01*
Y1069296D01*
X1273067D01*
Y1066264D01*
X1258938D01*
Y1057533D01*
X1274634D01*
Y1054500D01*
X1255539D01*
Y1080127D01*
X1274034D01*
Y1077094D01*
D02*
G37*
G36*
X1241875Y1080093D02*
X1242175D01*
X1242542Y1080060D01*
X1242942Y1080027D01*
X1243775Y1079960D01*
X1244641Y1079827D01*
X1245474Y1079660D01*
X1245874Y1079560D01*
X1246208Y1079427D01*
X1246241D01*
X1246274Y1079394D01*
X1246374Y1079360D01*
X1246508Y1079294D01*
X1246841Y1079127D01*
X1247241Y1078860D01*
X1247707Y1078527D01*
X1248174Y1078094D01*
X1248640Y1077561D01*
X1249074Y1076961D01*
Y1076928D01*
X1249107Y1076894D01*
X1249174Y1076794D01*
X1249240Y1076661D01*
X1249407Y1076294D01*
X1249607Y1075828D01*
X1249807Y1075261D01*
X1249973Y1074595D01*
X1250107Y1073862D01*
X1250140Y1073095D01*
Y1073062D01*
Y1072962D01*
Y1072829D01*
X1250107Y1072629D01*
X1250073Y1072395D01*
X1250040Y1072129D01*
X1249907Y1071496D01*
X1249707Y1070762D01*
X1249407Y1069996D01*
X1249207Y1069630D01*
X1248974Y1069230D01*
X1248674Y1068863D01*
X1248374Y1068496D01*
X1248341Y1068463D01*
X1248307Y1068430D01*
X1248174Y1068330D01*
X1248040Y1068196D01*
X1247841Y1068063D01*
X1247607Y1067897D01*
X1247341Y1067697D01*
X1247041Y1067497D01*
X1246674Y1067297D01*
X1246274Y1067097D01*
X1245808Y1066897D01*
X1245308Y1066697D01*
X1244775Y1066530D01*
X1244208Y1066364D01*
X1243575Y1066230D01*
X1242908Y1066130D01*
X1242975Y1066097D01*
X1243142Y1066030D01*
X1243375Y1065897D01*
X1243675Y1065731D01*
X1244342Y1065297D01*
X1244641Y1065064D01*
X1244941Y1064831D01*
X1244975D01*
X1245008Y1064764D01*
X1245208Y1064597D01*
X1245474Y1064297D01*
X1245874Y1063898D01*
X1246308Y1063431D01*
X1246774Y1062831D01*
X1247274Y1062165D01*
X1247774Y1061432D01*
X1252206Y1054500D01*
X1247941D01*
X1244575Y1059799D01*
Y1059832D01*
X1244508Y1059899D01*
X1244442Y1060032D01*
X1244342Y1060165D01*
X1244208Y1060365D01*
X1244042Y1060598D01*
X1243708Y1061098D01*
X1243308Y1061665D01*
X1242908Y1062231D01*
X1242509Y1062798D01*
X1242109Y1063298D01*
X1242075Y1063364D01*
X1241942Y1063498D01*
X1241776Y1063731D01*
X1241542Y1063964D01*
X1241276Y1064264D01*
X1240976Y1064564D01*
X1240676Y1064797D01*
X1240376Y1065031D01*
X1240342Y1065064D01*
X1240242Y1065097D01*
X1240109Y1065197D01*
X1239909Y1065297D01*
X1239676Y1065431D01*
X1239409Y1065530D01*
X1238843Y1065731D01*
X1238810D01*
X1238743Y1065764D01*
X1238610D01*
X1238410Y1065797D01*
X1238143Y1065830D01*
X1237810D01*
X1237443Y1065864D01*
X1233044D01*
Y1054500D01*
X1229645D01*
Y1080127D01*
X1241575D01*
X1241875Y1080093D01*
D02*
G37*
G36*
X1213716Y1054500D02*
X1210317D01*
Y1080127D01*
X1213716D01*
Y1054500D01*
D02*
G37*
G36*
X1205351Y1077094D02*
X1191455D01*
Y1069163D01*
X1203485D01*
Y1066130D01*
X1191455D01*
Y1054500D01*
X1188056D01*
Y1080127D01*
X1205351D01*
Y1077094D01*
D02*
G37*
G36*
X1169994Y1054500D02*
X1166595D01*
Y1080127D01*
X1169994D01*
Y1054500D01*
D02*
G37*
G36*
X1149399Y1057533D02*
X1161996D01*
Y1054500D01*
X1146000D01*
Y1080127D01*
X1149399D01*
Y1057533D01*
D02*
G37*
G36*
X1202069Y899460D02*
X1202222D01*
X1202412Y899441D01*
X1202622Y899422D01*
X1203060Y899346D01*
X1203536Y899251D01*
X1204031Y899117D01*
X1204508Y898946D01*
X1204527D01*
X1204565Y898927D01*
X1204622Y898889D01*
X1204717Y898851D01*
X1204946Y898717D01*
X1205212Y898546D01*
X1205536Y898336D01*
X1205841Y898070D01*
X1206165Y897746D01*
X1206432Y897384D01*
Y897365D01*
X1206470Y897346D01*
X1206489Y897289D01*
X1206546Y897212D01*
X1206584Y897117D01*
X1206641Y897003D01*
X1206774Y896717D01*
X1206908Y896374D01*
X1207022Y895993D01*
X1207117Y895555D01*
X1207155Y895098D01*
X1205288Y894965D01*
Y894984D01*
Y895022D01*
X1205269Y895098D01*
X1205250Y895193D01*
X1205231Y895307D01*
X1205193Y895441D01*
X1205098Y895745D01*
X1204965Y896069D01*
X1204793Y896412D01*
X1204565Y896755D01*
X1204260Y897041D01*
X1204222Y897079D01*
X1204165Y897098D01*
X1204107Y897155D01*
X1204012Y897212D01*
X1203898Y897270D01*
X1203764Y897327D01*
X1203631Y897403D01*
X1203460Y897460D01*
X1203269Y897517D01*
X1203060Y897574D01*
X1202831Y897632D01*
X1202583Y897689D01*
X1202317Y897708D01*
X1202031Y897746D01*
X1201440D01*
X1201288Y897727D01*
X1201136Y897708D01*
X1200755Y897670D01*
X1200335Y897593D01*
X1199916Y897479D01*
X1199516Y897308D01*
X1199326Y897212D01*
X1199174Y897098D01*
X1199135Y897060D01*
X1199040Y896984D01*
X1198926Y896850D01*
X1198773Y896660D01*
X1198621Y896431D01*
X1198507Y896165D01*
X1198411Y895860D01*
X1198373Y895536D01*
Y895498D01*
Y895403D01*
X1198411Y895269D01*
X1198450Y895079D01*
X1198507Y894869D01*
X1198602Y894660D01*
X1198735Y894450D01*
X1198926Y894241D01*
X1198964Y894221D01*
X1199002Y894183D01*
X1199059Y894164D01*
X1199135Y894107D01*
X1199231Y894050D01*
X1199364Y893993D01*
X1199497Y893936D01*
X1199688Y893860D01*
X1199897Y893764D01*
X1200126Y893688D01*
X1200393Y893593D01*
X1200697Y893498D01*
X1201040Y893402D01*
X1201421Y893307D01*
X1201841Y893212D01*
X1201860D01*
X1201936Y893193D01*
X1202069Y893155D01*
X1202222Y893117D01*
X1202412Y893079D01*
X1202641Y893021D01*
X1202869Y892964D01*
X1203136Y892888D01*
X1203669Y892755D01*
X1204203Y892602D01*
X1204450Y892507D01*
X1204698Y892431D01*
X1204908Y892355D01*
X1205079Y892278D01*
X1205098D01*
X1205136Y892259D01*
X1205193Y892221D01*
X1205288Y892164D01*
X1205517Y892050D01*
X1205803Y891878D01*
X1206108Y891650D01*
X1206413Y891402D01*
X1206717Y891097D01*
X1206965Y890773D01*
Y890754D01*
X1206984Y890735D01*
X1207022Y890678D01*
X1207060Y890621D01*
X1207155Y890431D01*
X1207289Y890183D01*
X1207403Y889878D01*
X1207498Y889516D01*
X1207574Y889135D01*
X1207594Y888697D01*
Y888678D01*
Y888640D01*
Y888583D01*
X1207574Y888506D01*
Y888392D01*
X1207555Y888278D01*
X1207517Y887992D01*
X1207422Y887649D01*
X1207308Y887287D01*
X1207136Y886887D01*
X1206908Y886506D01*
Y886487D01*
X1206870Y886468D01*
X1206832Y886411D01*
X1206794Y886335D01*
X1206622Y886144D01*
X1206413Y885916D01*
X1206146Y885668D01*
X1205822Y885401D01*
X1205422Y885135D01*
X1204984Y884906D01*
X1204965D01*
X1204927Y884887D01*
X1204850Y884849D01*
X1204774Y884811D01*
X1204641Y884773D01*
X1204508Y884735D01*
X1204355Y884678D01*
X1204165Y884620D01*
X1203764Y884525D01*
X1203288Y884430D01*
X1202755Y884354D01*
X1202183Y884335D01*
X1201993D01*
X1201860Y884354D01*
X1201688D01*
X1201479Y884373D01*
X1201269Y884392D01*
X1201021Y884411D01*
X1200507Y884468D01*
X1199936Y884582D01*
X1199383Y884716D01*
X1198850Y884906D01*
X1198831D01*
X1198792Y884925D01*
X1198716Y884963D01*
X1198621Y885020D01*
X1198526Y885078D01*
X1198392Y885154D01*
X1198088Y885344D01*
X1197745Y885592D01*
X1197402Y885897D01*
X1197059Y886259D01*
X1196754Y886659D01*
Y886678D01*
X1196716Y886716D01*
X1196678Y886773D01*
X1196640Y886868D01*
X1196583Y886982D01*
X1196507Y887097D01*
X1196449Y887249D01*
X1196373Y887421D01*
X1196221Y887821D01*
X1196087Y888259D01*
X1195992Y888773D01*
X1195954Y889307D01*
X1197783Y889459D01*
Y889440D01*
Y889402D01*
X1197802Y889345D01*
Y889268D01*
X1197840Y889078D01*
X1197897Y888811D01*
X1197973Y888526D01*
X1198088Y888221D01*
X1198221Y887916D01*
X1198373Y887630D01*
X1198392Y887592D01*
X1198469Y887516D01*
X1198583Y887383D01*
X1198735Y887230D01*
X1198945Y887040D01*
X1199193Y886849D01*
X1199497Y886659D01*
X1199840Y886487D01*
X1199859D01*
X1199878Y886468D01*
X1199936Y886449D01*
X1200012Y886430D01*
X1200107Y886392D01*
X1200221Y886354D01*
X1200507Y886278D01*
X1200831Y886201D01*
X1201212Y886125D01*
X1201631Y886087D01*
X1202088Y886068D01*
X1202279D01*
X1202488Y886087D01*
X1202755Y886106D01*
X1203041Y886144D01*
X1203383Y886201D01*
X1203707Y886278D01*
X1204031Y886392D01*
X1204050D01*
X1204069Y886411D01*
X1204165Y886449D01*
X1204317Y886525D01*
X1204508Y886621D01*
X1204717Y886754D01*
X1204927Y886906D01*
X1205136Y887078D01*
X1205308Y887287D01*
X1205327Y887306D01*
X1205365Y887383D01*
X1205441Y887516D01*
X1205517Y887668D01*
X1205593Y887859D01*
X1205669Y888068D01*
X1205708Y888297D01*
X1205727Y888545D01*
Y888583D01*
Y888659D01*
X1205708Y888792D01*
X1205669Y888945D01*
X1205631Y889135D01*
X1205555Y889345D01*
X1205441Y889554D01*
X1205308Y889745D01*
X1205288Y889764D01*
X1205231Y889840D01*
X1205136Y889935D01*
X1205003Y890050D01*
X1204812Y890183D01*
X1204584Y890316D01*
X1204317Y890469D01*
X1203993Y890602D01*
X1203955Y890621D01*
X1203879Y890640D01*
X1203803Y890678D01*
X1203707Y890697D01*
X1203593Y890735D01*
X1203441Y890773D01*
X1203288Y890831D01*
X1203098Y890869D01*
X1202888Y890926D01*
X1202641Y891002D01*
X1202374Y891059D01*
X1202069Y891135D01*
X1201745Y891212D01*
X1201383Y891307D01*
X1201364D01*
X1201288Y891326D01*
X1201193Y891364D01*
X1201059Y891383D01*
X1200888Y891440D01*
X1200716Y891478D01*
X1200278Y891612D01*
X1199821Y891745D01*
X1199345Y891917D01*
X1198926Y892069D01*
X1198735Y892164D01*
X1198564Y892240D01*
X1198545D01*
X1198526Y892259D01*
X1198469Y892298D01*
X1198392Y892336D01*
X1198202Y892450D01*
X1197973Y892621D01*
X1197726Y892812D01*
X1197459Y893040D01*
X1197211Y893307D01*
X1197002Y893593D01*
Y893612D01*
X1196983Y893631D01*
X1196926Y893745D01*
X1196849Y893898D01*
X1196754Y894126D01*
X1196659Y894393D01*
X1196583Y894717D01*
X1196525Y895060D01*
X1196507Y895422D01*
Y895441D01*
Y895479D01*
Y895536D01*
X1196525Y895612D01*
X1196545Y895822D01*
X1196583Y896107D01*
X1196659Y896431D01*
X1196773Y896774D01*
X1196926Y897136D01*
X1197135Y897498D01*
Y897517D01*
X1197173Y897536D01*
X1197249Y897651D01*
X1197402Y897841D01*
X1197592Y898051D01*
X1197859Y898279D01*
X1198164Y898527D01*
X1198545Y898755D01*
X1198964Y898965D01*
X1198983D01*
X1199021Y898984D01*
X1199078Y899022D01*
X1199174Y899041D01*
X1199288Y899079D01*
X1199421Y899136D01*
X1199574Y899174D01*
X1199745Y899232D01*
X1200145Y899308D01*
X1200602Y899403D01*
X1201117Y899460D01*
X1201650Y899479D01*
X1201917D01*
X1202069Y899460D01*
D02*
G37*
G36*
X1228034Y899270D02*
X1228168D01*
X1228453Y899232D01*
X1228796Y899156D01*
X1229158Y899079D01*
X1229539Y898946D01*
X1229920Y898774D01*
X1229939D01*
X1229958Y898755D01*
X1230015Y898717D01*
X1230092Y898679D01*
X1230263Y898565D01*
X1230492Y898412D01*
X1230739Y898203D01*
X1231006Y897955D01*
X1231254Y897689D01*
X1231463Y897365D01*
Y897346D01*
X1231482Y897327D01*
X1231559Y897212D01*
X1231635Y897022D01*
X1231749Y896793D01*
X1231844Y896507D01*
X1231939Y896184D01*
X1231997Y895841D01*
X1232016Y895479D01*
Y895460D01*
Y895441D01*
Y895326D01*
X1231997Y895136D01*
X1231958Y894907D01*
X1231882Y894641D01*
X1231806Y894355D01*
X1231673Y894050D01*
X1231501Y893745D01*
X1231482Y893707D01*
X1231406Y893612D01*
X1231292Y893479D01*
X1231120Y893307D01*
X1230911Y893098D01*
X1230644Y892888D01*
X1230339Y892698D01*
X1229996Y892507D01*
X1230015D01*
X1230053Y892488D01*
X1230130Y892469D01*
X1230206Y892450D01*
X1230320Y892412D01*
X1230454Y892355D01*
X1230739Y892240D01*
X1231063Y892069D01*
X1231387Y891840D01*
X1231730Y891574D01*
X1232016Y891250D01*
Y891231D01*
X1232054Y891212D01*
X1232092Y891154D01*
X1232130Y891078D01*
X1232187Y890983D01*
X1232244Y890888D01*
X1232378Y890602D01*
X1232511Y890259D01*
X1232625Y889859D01*
X1232701Y889421D01*
X1232740Y888907D01*
Y888887D01*
Y888830D01*
Y888716D01*
X1232720Y888583D01*
X1232701Y888411D01*
X1232663Y888221D01*
X1232625Y888011D01*
X1232568Y887783D01*
X1232492Y887535D01*
X1232397Y887268D01*
X1232282Y887002D01*
X1232149Y886716D01*
X1231978Y886449D01*
X1231787Y886163D01*
X1231578Y885897D01*
X1231330Y885649D01*
X1231311Y885630D01*
X1231273Y885592D01*
X1231197Y885535D01*
X1231082Y885440D01*
X1230949Y885344D01*
X1230777Y885230D01*
X1230587Y885116D01*
X1230377Y885001D01*
X1230130Y884868D01*
X1229863Y884754D01*
X1229577Y884639D01*
X1229253Y884544D01*
X1228930Y884449D01*
X1228568Y884392D01*
X1228206Y884354D01*
X1227806Y884335D01*
X1227615D01*
X1227482Y884354D01*
X1227329Y884373D01*
X1227139Y884392D01*
X1226910Y884430D01*
X1226682Y884487D01*
X1226186Y884620D01*
X1225920Y884716D01*
X1225653Y884811D01*
X1225367Y884944D01*
X1225100Y885097D01*
X1224853Y885268D01*
X1224605Y885478D01*
X1224586Y885497D01*
X1224548Y885535D01*
X1224491Y885592D01*
X1224396Y885687D01*
X1224300Y885801D01*
X1224186Y885935D01*
X1224072Y886106D01*
X1223939Y886278D01*
X1223824Y886487D01*
X1223691Y886716D01*
X1223577Y886964D01*
X1223462Y887230D01*
X1223348Y887516D01*
X1223272Y887802D01*
X1223195Y888126D01*
X1223157Y888468D01*
X1224948Y888716D01*
Y888697D01*
X1224967Y888640D01*
X1224986Y888564D01*
X1225005Y888468D01*
X1225043Y888335D01*
X1225081Y888202D01*
X1225196Y887859D01*
X1225329Y887497D01*
X1225520Y887135D01*
X1225729Y886773D01*
X1225844Y886621D01*
X1225977Y886487D01*
X1226015Y886468D01*
X1226110Y886392D01*
X1226263Y886278D01*
X1226491Y886163D01*
X1226758Y886030D01*
X1227063Y885935D01*
X1227425Y885859D01*
X1227806Y885820D01*
X1227939D01*
X1228015Y885839D01*
X1228130D01*
X1228263Y885859D01*
X1228549Y885935D01*
X1228892Y886030D01*
X1229253Y886182D01*
X1229615Y886411D01*
X1229787Y886544D01*
X1229958Y886697D01*
X1229977Y886716D01*
X1229996Y886735D01*
X1230034Y886792D01*
X1230092Y886849D01*
X1230244Y887040D01*
X1230396Y887306D01*
X1230549Y887611D01*
X1230701Y887992D01*
X1230797Y888411D01*
X1230835Y888640D01*
Y888868D01*
Y888887D01*
Y888926D01*
Y888983D01*
X1230816Y889078D01*
Y889173D01*
X1230797Y889307D01*
X1230739Y889592D01*
X1230644Y889916D01*
X1230492Y890259D01*
X1230282Y890583D01*
X1230168Y890754D01*
X1230015Y890907D01*
X1229977Y890945D01*
X1229863Y891040D01*
X1229692Y891154D01*
X1229463Y891307D01*
X1229158Y891459D01*
X1228815Y891574D01*
X1228415Y891669D01*
X1227958Y891707D01*
X1227748D01*
X1227615Y891688D01*
X1227425Y891669D01*
X1227196Y891631D01*
X1226948Y891574D01*
X1226682Y891516D01*
X1226891Y893098D01*
X1226929D01*
X1226986Y893079D01*
X1227082Y893059D01*
X1227291D01*
X1227367Y893079D01*
X1227596Y893098D01*
X1227863Y893136D01*
X1228187Y893212D01*
X1228530Y893307D01*
X1228892Y893459D01*
X1229234Y893650D01*
X1229253D01*
X1229273Y893688D01*
X1229387Y893764D01*
X1229539Y893917D01*
X1229711Y894107D01*
X1229882Y894374D01*
X1230015Y894698D01*
X1230130Y895079D01*
X1230149Y895288D01*
X1230168Y895517D01*
Y895536D01*
Y895555D01*
X1230149Y895688D01*
X1230130Y895860D01*
X1230092Y896088D01*
X1229996Y896336D01*
X1229882Y896603D01*
X1229711Y896889D01*
X1229482Y897136D01*
X1229444Y897174D01*
X1229368Y897251D01*
X1229215Y897346D01*
X1229025Y897479D01*
X1228777Y897593D01*
X1228472Y897708D01*
X1228148Y897784D01*
X1227767Y897803D01*
X1227672D01*
X1227596Y897784D01*
X1227386Y897765D01*
X1227139Y897727D01*
X1226872Y897632D01*
X1226567Y897517D01*
X1226282Y897365D01*
X1225996Y897136D01*
X1225958Y897098D01*
X1225882Y897022D01*
X1225767Y896870D01*
X1225634Y896641D01*
X1225481Y896374D01*
X1225329Y896031D01*
X1225215Y895631D01*
X1225120Y895174D01*
X1223329Y895498D01*
Y895517D01*
X1223348Y895574D01*
X1223367Y895669D01*
X1223405Y895803D01*
X1223443Y895936D01*
X1223500Y896126D01*
X1223558Y896317D01*
X1223634Y896527D01*
X1223843Y896965D01*
X1224091Y897422D01*
X1224415Y897879D01*
X1224605Y898089D01*
X1224815Y898279D01*
X1224834Y898298D01*
X1224872Y898317D01*
X1224929Y898374D01*
X1225024Y898432D01*
X1225139Y898508D01*
X1225272Y898603D01*
X1225443Y898698D01*
X1225615Y898793D01*
X1225824Y898870D01*
X1226034Y898965D01*
X1226529Y899136D01*
X1227101Y899251D01*
X1227406Y899270D01*
X1227729Y899289D01*
X1227939D01*
X1228034Y899270D01*
D02*
G37*
G36*
X1299986Y893269D02*
X1306406Y884582D01*
X1303834D01*
X1298615Y891955D01*
X1296233Y889650D01*
Y884582D01*
X1294290D01*
Y899232D01*
X1296233D01*
Y891974D01*
X1303510Y899232D01*
X1306139D01*
X1299986Y893269D01*
D02*
G37*
G36*
X1338048Y884582D02*
X1336029D01*
X1330352Y899232D01*
X1332466D01*
X1336276Y888583D01*
Y888564D01*
X1336295Y888526D01*
X1336314Y888449D01*
X1336353Y888373D01*
X1336391Y888259D01*
X1336429Y888126D01*
X1336543Y887802D01*
X1336657Y887440D01*
X1336791Y887040D01*
X1336924Y886601D01*
X1337038Y886182D01*
Y886201D01*
X1337057Y886240D01*
X1337076Y886297D01*
X1337095Y886392D01*
X1337134Y886506D01*
X1337172Y886621D01*
X1337267Y886925D01*
X1337381Y887287D01*
X1337515Y887706D01*
X1337667Y888145D01*
X1337838Y888583D01*
X1341801Y899232D01*
X1343763D01*
X1338048Y884582D01*
D02*
G37*
G36*
X1286918D02*
X1284899D01*
X1279222Y899232D01*
X1281336D01*
X1285146Y888583D01*
Y888564D01*
X1285165Y888526D01*
X1285184Y888449D01*
X1285222Y888373D01*
X1285260Y888259D01*
X1285298Y888126D01*
X1285413Y887802D01*
X1285527Y887440D01*
X1285661Y887040D01*
X1285794Y886601D01*
X1285908Y886182D01*
Y886201D01*
X1285927Y886240D01*
X1285946Y886297D01*
X1285965Y886392D01*
X1286003Y886506D01*
X1286042Y886621D01*
X1286137Y886925D01*
X1286251Y887287D01*
X1286384Y887706D01*
X1286537Y888145D01*
X1286708Y888583D01*
X1290671Y899232D01*
X1292633D01*
X1286918Y884582D01*
D02*
G37*
G36*
X1351535D02*
X1349745D01*
Y896031D01*
X1349707Y896012D01*
X1349630Y895936D01*
X1349478Y895803D01*
X1349288Y895650D01*
X1349040Y895460D01*
X1348735Y895250D01*
X1348411Y895022D01*
X1348030Y894793D01*
X1348011D01*
X1347992Y894774D01*
X1347935Y894736D01*
X1347859Y894698D01*
X1347649Y894584D01*
X1347401Y894450D01*
X1347116Y894298D01*
X1346792Y894145D01*
X1346468Y893993D01*
X1346144Y893860D01*
Y895612D01*
X1346163D01*
X1346220Y895650D01*
X1346297Y895688D01*
X1346392Y895745D01*
X1346525Y895803D01*
X1346678Y895898D01*
X1347040Y896088D01*
X1347440Y896336D01*
X1347897Y896641D01*
X1348335Y896965D01*
X1348773Y897327D01*
X1348792Y897346D01*
X1348830Y897365D01*
X1348887Y897422D01*
X1348964Y897498D01*
X1349154Y897689D01*
X1349402Y897955D01*
X1349649Y898241D01*
X1349916Y898584D01*
X1350164Y898927D01*
X1350373Y899289D01*
X1351535D01*
Y884582D01*
D02*
G37*
G36*
X1324160Y897498D02*
X1319341D01*
Y884582D01*
X1317398D01*
Y897498D01*
X1312578D01*
Y899232D01*
X1324160D01*
Y897498D01*
D02*
G37*
G36*
X1310273Y884582D02*
X1308330D01*
Y899232D01*
X1310273D01*
Y884582D01*
D02*
G37*
G36*
X1277698Y897498D02*
X1269068D01*
Y893040D01*
X1277145D01*
Y891307D01*
X1269068D01*
Y886316D01*
X1278040D01*
Y884582D01*
X1267125D01*
Y899232D01*
X1277698D01*
Y897498D01*
D02*
G37*
G36*
X1257943Y899213D02*
X1258305D01*
X1258724Y899174D01*
X1259162Y899136D01*
X1259581Y899079D01*
X1259943Y899003D01*
X1259962D01*
X1260000Y898984D01*
X1260076Y898965D01*
X1260153Y898946D01*
X1260267Y898908D01*
X1260400Y898870D01*
X1260686Y898774D01*
X1261029Y898622D01*
X1261391Y898451D01*
X1261753Y898222D01*
X1262096Y897955D01*
X1262115Y897936D01*
X1262153Y897917D01*
X1262210Y897860D01*
X1262286Y897784D01*
X1262381Y897689D01*
X1262496Y897574D01*
X1262610Y897441D01*
X1262743Y897289D01*
X1263029Y896927D01*
X1263315Y896488D01*
X1263601Y896012D01*
X1263829Y895460D01*
Y895441D01*
X1263848Y895384D01*
X1263886Y895307D01*
X1263924Y895193D01*
X1263962Y895041D01*
X1264020Y894869D01*
X1264077Y894679D01*
X1264134Y894450D01*
X1264172Y894202D01*
X1264229Y893936D01*
X1264286Y893650D01*
X1264324Y893345D01*
X1264401Y892679D01*
X1264420Y891974D01*
Y891955D01*
Y891897D01*
Y891821D01*
Y891688D01*
X1264401Y891554D01*
Y891383D01*
X1264382Y891193D01*
X1264363Y890983D01*
X1264324Y890526D01*
X1264248Y890031D01*
X1264153Y889516D01*
X1264020Y889021D01*
Y889002D01*
X1264001Y888964D01*
X1263982Y888887D01*
X1263943Y888811D01*
X1263905Y888697D01*
X1263867Y888564D01*
X1263753Y888278D01*
X1263620Y887935D01*
X1263448Y887573D01*
X1263239Y887211D01*
X1263029Y886887D01*
X1263010Y886849D01*
X1262915Y886754D01*
X1262801Y886601D01*
X1262629Y886411D01*
X1262439Y886201D01*
X1262210Y885973D01*
X1261943Y885763D01*
X1261676Y885554D01*
X1261638Y885535D01*
X1261543Y885478D01*
X1261391Y885382D01*
X1261181Y885287D01*
X1260934Y885173D01*
X1260629Y885039D01*
X1260286Y884925D01*
X1259924Y884830D01*
X1259905D01*
X1259886Y884811D01*
X1259829D01*
X1259753Y884792D01*
X1259657Y884773D01*
X1259543Y884754D01*
X1259257Y884716D01*
X1258914Y884658D01*
X1258514Y884620D01*
X1258057Y884601D01*
X1257581Y884582D01*
X1252304D01*
Y899232D01*
X1257771D01*
X1257943Y899213D01*
D02*
G37*
G36*
X1239693Y899270D02*
X1239883Y899251D01*
X1240093Y899232D01*
X1240322Y899194D01*
X1240569Y899136D01*
X1241103Y899003D01*
X1241369Y898908D01*
X1241655Y898793D01*
X1241941Y898660D01*
X1242207Y898489D01*
X1242455Y898317D01*
X1242703Y898108D01*
X1242722Y898089D01*
X1242760Y898051D01*
X1242817Y897993D01*
X1242893Y897898D01*
X1242989Y897784D01*
X1243103Y897651D01*
X1243198Y897498D01*
X1243331Y897308D01*
X1243446Y897117D01*
X1243541Y896889D01*
X1243751Y896393D01*
X1243827Y896126D01*
X1243884Y895841D01*
X1243922Y895536D01*
X1243941Y895212D01*
Y895174D01*
Y895060D01*
X1243922Y894888D01*
X1243903Y894660D01*
X1243846Y894412D01*
X1243789Y894107D01*
X1243693Y893802D01*
X1243579Y893479D01*
X1243560Y893440D01*
X1243503Y893326D01*
X1243427Y893155D01*
X1243293Y892945D01*
X1243122Y892679D01*
X1242912Y892374D01*
X1242665Y892031D01*
X1242379Y891688D01*
Y891669D01*
X1242341Y891650D01*
X1242284Y891593D01*
X1242226Y891516D01*
X1242131Y891421D01*
X1242017Y891307D01*
X1241884Y891173D01*
X1241712Y891021D01*
X1241541Y890850D01*
X1241331Y890659D01*
X1241103Y890431D01*
X1240855Y890202D01*
X1240569Y889954D01*
X1240283Y889707D01*
X1239940Y889421D01*
X1239598Y889116D01*
X1239578Y889097D01*
X1239521Y889059D01*
X1239445Y888983D01*
X1239331Y888907D01*
X1239217Y888792D01*
X1239064Y888659D01*
X1238740Y888373D01*
X1238378Y888068D01*
X1238036Y887764D01*
X1237883Y887630D01*
X1237750Y887497D01*
X1237616Y887364D01*
X1237521Y887268D01*
X1237502Y887249D01*
X1237445Y887192D01*
X1237369Y887097D01*
X1237254Y886964D01*
X1237140Y886830D01*
X1237007Y886659D01*
X1236759Y886316D01*
X1243960D01*
Y884582D01*
X1234264D01*
Y884620D01*
Y884697D01*
Y884811D01*
X1234283Y884982D01*
X1234302Y885173D01*
X1234340Y885382D01*
X1234397Y885592D01*
X1234473Y885820D01*
Y885839D01*
X1234492Y885859D01*
X1234511Y885916D01*
X1234549Y885992D01*
X1234625Y886182D01*
X1234759Y886430D01*
X1234930Y886735D01*
X1235121Y887059D01*
X1235368Y887402D01*
X1235654Y887764D01*
X1235673Y887783D01*
X1235692Y887802D01*
X1235750Y887859D01*
X1235807Y887935D01*
X1235997Y888145D01*
X1236264Y888411D01*
X1236588Y888735D01*
X1236988Y889116D01*
X1237464Y889535D01*
X1238016Y889992D01*
X1238036Y890012D01*
X1238112Y890088D01*
X1238245Y890183D01*
X1238397Y890316D01*
X1238588Y890488D01*
X1238817Y890678D01*
X1239064Y890888D01*
X1239312Y891116D01*
X1239845Y891612D01*
X1240379Y892126D01*
X1240626Y892393D01*
X1240855Y892640D01*
X1241064Y892869D01*
X1241236Y893098D01*
X1241255Y893117D01*
X1241274Y893155D01*
X1241312Y893212D01*
X1241369Y893288D01*
X1241426Y893402D01*
X1241503Y893517D01*
X1241674Y893802D01*
X1241826Y894126D01*
X1241960Y894488D01*
X1242055Y894888D01*
X1242093Y895079D01*
Y895269D01*
Y895288D01*
Y895326D01*
Y895365D01*
X1242074Y895441D01*
X1242055Y895650D01*
X1241998Y895898D01*
X1241903Y896184D01*
X1241769Y896469D01*
X1241579Y896774D01*
X1241312Y897060D01*
X1241274Y897098D01*
X1241179Y897174D01*
X1241007Y897289D01*
X1240779Y897441D01*
X1240493Y897574D01*
X1240150Y897689D01*
X1239750Y897765D01*
X1239312Y897803D01*
X1239178D01*
X1239102Y897784D01*
X1238988D01*
X1238855Y897765D01*
X1238569Y897708D01*
X1238245Y897612D01*
X1237883Y897479D01*
X1237540Y897289D01*
X1237235Y897022D01*
X1237197Y896984D01*
X1237121Y896889D01*
X1236988Y896698D01*
X1236854Y896469D01*
X1236702Y896146D01*
X1236569Y895784D01*
X1236492Y895365D01*
X1236454Y894869D01*
X1234606Y895060D01*
Y895079D01*
X1234625Y895155D01*
Y895250D01*
X1234645Y895403D01*
X1234683Y895574D01*
X1234721Y895765D01*
X1234778Y895993D01*
X1234854Y896222D01*
X1235026Y896736D01*
X1235140Y897003D01*
X1235273Y897251D01*
X1235426Y897517D01*
X1235597Y897765D01*
X1235788Y897993D01*
X1236016Y898203D01*
X1236035Y898222D01*
X1236073Y898241D01*
X1236150Y898298D01*
X1236245Y898374D01*
X1236378Y898451D01*
X1236531Y898546D01*
X1236702Y898641D01*
X1236911Y898755D01*
X1237140Y898851D01*
X1237388Y898946D01*
X1237654Y899041D01*
X1237959Y899117D01*
X1238264Y899194D01*
X1238607Y899251D01*
X1238969Y899270D01*
X1239350Y899289D01*
X1239559D01*
X1239693Y899270D01*
D02*
G37*
G36*
X1216585Y899213D02*
X1216928Y899194D01*
X1217309Y899174D01*
X1217671Y899136D01*
X1217976Y899079D01*
X1218033D01*
X1218071Y899060D01*
X1218147Y899041D01*
X1218357Y899003D01*
X1218605Y898927D01*
X1218890Y898832D01*
X1219176Y898717D01*
X1219481Y898565D01*
X1219766Y898393D01*
X1219805Y898374D01*
X1219881Y898298D01*
X1220033Y898184D01*
X1220186Y898031D01*
X1220376Y897841D01*
X1220586Y897593D01*
X1220776Y897308D01*
X1220948Y896984D01*
Y896965D01*
X1220967Y896946D01*
X1220986Y896889D01*
X1221024Y896831D01*
X1221100Y896641D01*
X1221176Y896393D01*
X1221252Y896088D01*
X1221329Y895745D01*
X1221386Y895384D01*
X1221405Y894984D01*
Y894965D01*
Y894907D01*
Y894812D01*
X1221386Y894679D01*
X1221367Y894507D01*
X1221348Y894317D01*
X1221310Y894107D01*
X1221252Y893898D01*
X1221119Y893383D01*
X1221024Y893136D01*
X1220891Y892869D01*
X1220757Y892602D01*
X1220605Y892336D01*
X1220414Y892069D01*
X1220205Y891821D01*
X1220186Y891802D01*
X1220147Y891764D01*
X1220071Y891707D01*
X1219976Y891612D01*
X1219843Y891516D01*
X1219671Y891421D01*
X1219462Y891288D01*
X1219233Y891173D01*
X1218947Y891059D01*
X1218643Y890945D01*
X1218281Y890831D01*
X1217900Y890735D01*
X1217461Y890640D01*
X1216985Y890583D01*
X1216471Y890545D01*
X1215918Y890526D01*
X1212185D01*
Y884582D01*
X1210241D01*
Y899232D01*
X1216261D01*
X1216585Y899213D01*
D02*
G37*
G36*
X1193573Y897498D02*
X1184943D01*
Y893040D01*
X1193020D01*
Y891307D01*
X1184943D01*
Y886316D01*
X1193916D01*
Y884582D01*
X1183000D01*
Y899232D01*
X1193573D01*
Y897498D01*
D02*
G37*
%LPC*%
G36*
X1398735Y1077294D02*
X1390137D01*
Y1068796D01*
X1397969D01*
X1398202Y1068830D01*
X1398735Y1068863D01*
X1399302Y1068896D01*
X1399935Y1068996D01*
X1400502Y1069096D01*
X1401035Y1069263D01*
X1401101Y1069296D01*
X1401268Y1069363D01*
X1401501Y1069463D01*
X1401801Y1069630D01*
X1402101Y1069829D01*
X1402434Y1070096D01*
X1402768Y1070429D01*
X1403034Y1070796D01*
X1403067Y1070829D01*
X1403134Y1070996D01*
X1403267Y1071196D01*
X1403401Y1071496D01*
X1403501Y1071829D01*
X1403634Y1072229D01*
X1403701Y1072629D01*
X1403734Y1073095D01*
Y1073129D01*
Y1073162D01*
Y1073262D01*
X1403701Y1073395D01*
X1403667Y1073728D01*
X1403567Y1074162D01*
X1403401Y1074628D01*
X1403168Y1075128D01*
X1402834Y1075628D01*
X1402401Y1076095D01*
X1402334Y1076161D01*
X1402134Y1076294D01*
X1401835Y1076461D01*
X1401368Y1076694D01*
X1401101Y1076794D01*
X1400801Y1076928D01*
X1400468Y1077028D01*
X1400068Y1077094D01*
X1399668Y1077194D01*
X1399235Y1077227D01*
X1398735Y1077294D01*
D02*
G37*
G36*
X1241642D02*
X1233044D01*
Y1068796D01*
X1240876D01*
X1241109Y1068830D01*
X1241642Y1068863D01*
X1242209Y1068896D01*
X1242842Y1068996D01*
X1243408Y1069096D01*
X1243942Y1069263D01*
X1244008Y1069296D01*
X1244175Y1069363D01*
X1244408Y1069463D01*
X1244708Y1069630D01*
X1245008Y1069829D01*
X1245341Y1070096D01*
X1245675Y1070429D01*
X1245941Y1070796D01*
X1245974Y1070829D01*
X1246041Y1070996D01*
X1246174Y1071196D01*
X1246308Y1071496D01*
X1246408Y1071829D01*
X1246541Y1072229D01*
X1246608Y1072629D01*
X1246641Y1073095D01*
Y1073129D01*
Y1073162D01*
Y1073262D01*
X1246608Y1073395D01*
X1246574Y1073728D01*
X1246474Y1074162D01*
X1246308Y1074628D01*
X1246074Y1075128D01*
X1245741Y1075628D01*
X1245308Y1076095D01*
X1245241Y1076161D01*
X1245041Y1076294D01*
X1244741Y1076461D01*
X1244275Y1076694D01*
X1244008Y1076794D01*
X1243708Y1076928D01*
X1243375Y1077028D01*
X1242975Y1077094D01*
X1242575Y1077194D01*
X1242142Y1077227D01*
X1241642Y1077294D01*
D02*
G37*
G36*
X1257638Y897498D02*
X1254247D01*
Y886316D01*
X1257733D01*
X1257867Y886335D01*
X1258190Y886354D01*
X1258552Y886373D01*
X1258933Y886430D01*
X1259314Y886487D01*
X1259638Y886582D01*
X1259657D01*
X1259676Y886601D01*
X1259771Y886640D01*
X1259924Y886697D01*
X1260114Y886773D01*
X1260324Y886887D01*
X1260534Y887002D01*
X1260762Y887154D01*
X1260953Y887325D01*
X1260991Y887364D01*
X1261067Y887459D01*
X1261181Y887611D01*
X1261353Y887821D01*
X1261524Y888087D01*
X1261696Y888411D01*
X1261867Y888773D01*
X1262019Y889192D01*
Y889211D01*
X1262038Y889249D01*
X1262057Y889307D01*
X1262077Y889402D01*
X1262115Y889516D01*
X1262153Y889650D01*
X1262191Y889802D01*
X1262229Y889973D01*
X1262248Y890183D01*
X1262286Y890393D01*
X1262362Y890869D01*
X1262400Y891421D01*
X1262420Y892012D01*
Y892031D01*
Y892107D01*
Y892240D01*
X1262400Y892393D01*
Y892583D01*
X1262381Y892793D01*
X1262362Y893040D01*
X1262324Y893307D01*
X1262229Y893879D01*
X1262096Y894469D01*
X1261905Y895022D01*
X1261791Y895288D01*
X1261657Y895536D01*
Y895555D01*
X1261619Y895593D01*
X1261581Y895650D01*
X1261524Y895745D01*
X1261353Y895955D01*
X1261143Y896203D01*
X1260876Y896488D01*
X1260572Y896755D01*
X1260210Y897003D01*
X1260019Y897098D01*
X1259829Y897193D01*
X1259791Y897212D01*
X1259753Y897231D01*
X1259676Y897251D01*
X1259600Y897270D01*
X1259486Y897289D01*
X1259371Y897327D01*
X1259219Y897346D01*
X1259067Y897384D01*
X1258876Y897403D01*
X1258667Y897422D01*
X1258438Y897460D01*
X1258190Y897479D01*
X1257924D01*
X1257638Y897498D01*
D02*
G37*
G36*
X1216376D02*
X1212185D01*
Y892259D01*
X1216128D01*
X1216261Y892278D01*
X1216414D01*
X1216585Y892298D01*
X1216985Y892355D01*
X1217423Y892431D01*
X1217861Y892545D01*
X1218262Y892717D01*
X1218452Y892831D01*
X1218605Y892945D01*
X1218643Y892983D01*
X1218738Y893079D01*
X1218852Y893231D01*
X1219005Y893459D01*
X1219157Y893745D01*
X1219271Y894088D01*
X1219367Y894469D01*
X1219405Y894926D01*
Y894945D01*
Y894965D01*
Y895079D01*
X1219386Y895250D01*
X1219347Y895460D01*
X1219290Y895707D01*
X1219195Y895974D01*
X1219081Y896241D01*
X1218928Y896488D01*
X1218909Y896527D01*
X1218852Y896603D01*
X1218738Y896717D01*
X1218605Y896850D01*
X1218433Y897003D01*
X1218223Y897136D01*
X1217976Y897270D01*
X1217709Y897365D01*
X1217690D01*
X1217614Y897384D01*
X1217480Y897403D01*
X1217309Y897441D01*
X1217061Y897460D01*
X1216757Y897479D01*
X1216376Y897498D01*
D02*
G37*
%LPD*%
D10*
X1514250Y648500D02*
G03*
X1514250Y648500I-1000J0D01*
G01*
X917000Y971750D02*
G03*
X917000Y969750I0J-1000D01*
G01*
D02*
G03*
X917000Y971750I0J1000D01*
G01*
X1406150Y1032250D02*
G03*
X1406150Y1032250I-1000J0D01*
G01*
X1450500Y572250D02*
G03*
X1450500Y572250I-40000J0D01*
G01*
X757300Y760000D02*
G03*
X757300Y760000I-1000J0D01*
G01*
X940500Y529250D02*
G03*
X940500Y529250I-1000J0D01*
G01*
X772500Y973682D02*
G03*
X717040Y973778I-27730J48D01*
G01*
D02*
G03*
X772500Y973682I27730J-48D01*
G01*
X777470Y974800D02*
G03*
X777470Y972800I0J-1000D01*
G01*
D02*
G03*
X777470Y974800I0J1000D01*
G01*
X717040Y973800D02*
G03*
X772500Y973800I27730J0D01*
G01*
D02*
G03*
X717040Y973800I-27730J0D01*
G01*
X731600Y862550D02*
Y913350D01*
X763400D01*
Y862550D02*
Y913350D01*
X731600Y862550D02*
X763400D01*
Y778400D02*
Y829200D01*
X731600Y778400D02*
X763400D01*
X731600D02*
Y829200D01*
X763400D01*
X822550Y790300D02*
Y856300D01*
X924150Y790300D02*
Y868650D01*
X1431850Y652600D02*
Y684400D01*
X1381050D02*
X1431850D01*
X1381050Y652600D02*
Y684400D01*
Y652600D02*
X1431850D01*
D11*
X946500Y513590D02*
G03*
X946500Y544910I25061J15660D01*
G01*
X909500Y892000D02*
Y905000D01*
Y918000D01*
X841500D02*
X909500D01*
X841500Y905000D02*
Y918000D01*
Y892000D02*
Y905000D01*
Y892000D02*
X909500D01*
Y905000D02*
X921300D01*
X829700D02*
X841500D01*
X1480750Y641000D02*
X1545750D01*
X1480750Y585600D02*
Y641000D01*
Y585600D02*
X1545750D01*
Y641000D01*
X995250Y741450D02*
Y795950D01*
Y972850D01*
Y1026550D01*
Y741450D02*
X1504750D01*
X995250Y1026550D02*
X1504750D01*
Y741450D02*
Y848750D01*
Y915860D01*
Y1026550D01*
X995250D02*
X1504750D01*
Y741450D02*
Y1026550D01*
X995250Y741450D02*
Y1026550D01*
Y741450D02*
X1504750D01*
X1326030Y624500D02*
Y636300D01*
Y544700D02*
Y556499D01*
X1313030D02*
Y624500D01*
X1326030D01*
X1339030D01*
Y556499D02*
Y624500D01*
X1326030Y556499D02*
X1339030D01*
X1313030D02*
X1326030D01*
X1277060Y624500D02*
Y636300D01*
Y544700D02*
Y556499D01*
X1264060D02*
Y624500D01*
X1277060D01*
X1290060D01*
Y556499D02*
Y624500D01*
X1277060Y556499D02*
X1290060D01*
X1264060D02*
X1277060D01*
X1228090Y624500D02*
Y636300D01*
Y544700D02*
Y556499D01*
X1215090D02*
Y624500D01*
X1228090D01*
X1241090D01*
Y556499D02*
Y624500D01*
X1228090Y556499D02*
X1241090D01*
X1215090D02*
X1228090D01*
X1179120Y624500D02*
Y636300D01*
Y544700D02*
Y556499D01*
X1166120D02*
Y624500D01*
X1179120D01*
X1192120D01*
Y556499D02*
Y624500D01*
X1179120Y556499D02*
X1192120D01*
X1166120D02*
X1179120D01*
X1130150Y624500D02*
Y636300D01*
Y544700D02*
Y556499D01*
X1117150D02*
Y624500D01*
X1130150D01*
X1143150D01*
Y556499D02*
Y624500D01*
X1130150Y556499D02*
X1143150D01*
X1117150D02*
X1130150D01*
X666300Y755000D02*
X926300D01*
Y495000D02*
Y755000D01*
X866300Y495000D02*
X926300D01*
X866300D02*
Y515000D01*
X726300D02*
X866300D01*
X726300Y495000D02*
Y515000D01*
X666300Y495000D02*
X726300D01*
X666300D02*
Y755000D01*
X946500Y513590D02*
Y544910D01*
X1081180Y624500D02*
Y636300D01*
Y544700D02*
Y556499D01*
X1068180D02*
Y624500D01*
X1081180D01*
X1094180D01*
Y556499D02*
Y624500D01*
X1081180Y556499D02*
X1094180D01*
X1068180D02*
X1081180D01*
X1032210Y624500D02*
Y636300D01*
Y544700D02*
Y556499D01*
X1019210D02*
Y624500D01*
X1032210D01*
X1045210D01*
Y556499D02*
Y624500D01*
X1032210Y556499D02*
X1045210D01*
X1019210D02*
X1032210D01*
D12*
X900500Y950750D02*
Y960750D01*
X857500Y950750D02*
X900500D01*
X857500D02*
Y960750D01*
X900500Y980750D02*
Y990750D01*
X857500D02*
X900500D01*
X857500Y980750D02*
Y990750D01*
D13*
X709000Y921578D02*
X706461Y924118D01*
X701383D01*
X698843Y921578D01*
Y911422D01*
X701383Y908883D01*
X706461D01*
X709000Y911422D01*
X714078Y908883D02*
X719157D01*
X716618D01*
Y924118D01*
X714078Y921578D01*
X706461Y840078D02*
X703922Y842617D01*
X698843D01*
X696304Y840078D01*
Y829922D01*
X698843Y827383D01*
X703922D01*
X706461Y829922D01*
X721696Y827383D02*
X711539D01*
X721696Y837539D01*
Y840078D01*
X719157Y842617D01*
X714078D01*
X711539Y840078D01*
X946593Y895632D02*
Y910867D01*
X954211D01*
X956750Y908328D01*
Y903250D01*
X954211Y900711D01*
X946593D01*
X951672D02*
X956750Y895632D01*
X961828D02*
X966907D01*
X964368D01*
Y910867D01*
X961828Y908328D01*
X933845Y860667D02*
X938924D01*
X936385D01*
Y845433D01*
X933845D01*
X938924D01*
X956698Y858128D02*
X954159Y860667D01*
X949080D01*
X946541Y858128D01*
Y847972D01*
X949080Y845433D01*
X954159D01*
X956698Y847972D01*
X961776Y845433D02*
X966855D01*
X964315D01*
Y860667D01*
X961776Y858128D01*
X1504697Y561736D02*
X1502157Y564275D01*
X1497079D01*
X1494540Y561736D01*
Y551579D01*
X1497079Y549040D01*
X1502157D01*
X1504697Y551579D01*
Y556657D01*
X1499618D01*
X1509775Y549040D02*
Y564275D01*
X1519932Y549040D01*
Y564275D01*
X1525010D02*
Y549040D01*
X1532628D01*
X1535167Y551579D01*
Y561736D01*
X1532628Y564275D01*
X1525010D01*
X1494290Y669658D02*
X1504447D01*
X1499368Y674736D02*
Y664579D01*
X1519682Y677275D02*
X1509525D01*
Y669658D01*
X1514603Y672197D01*
X1517143D01*
X1519682Y669658D01*
Y664579D01*
X1517143Y662040D01*
X1512064D01*
X1509525Y664579D01*
X1524760Y677275D02*
Y667118D01*
X1529839Y662040D01*
X1534917Y667118D01*
Y677275D01*
X1567460Y577040D02*
X1552225D01*
Y584658D01*
X1554764Y587197D01*
X1559842D01*
X1562381Y584658D01*
Y577040D01*
X1552225Y599893D02*
Y594814D01*
X1554764Y592275D01*
X1564921D01*
X1567460Y594814D01*
Y599893D01*
X1564921Y602432D01*
X1554764D01*
X1552225Y599893D01*
Y607510D02*
X1567460D01*
X1562381Y612589D01*
X1567460Y617667D01*
X1552225D01*
Y632902D02*
Y622745D01*
X1567460D01*
Y632902D01*
X1559842Y622745D02*
Y627823D01*
X1567460Y637980D02*
X1552225D01*
Y645598D01*
X1554764Y648137D01*
X1559842D01*
X1562381Y645598D01*
Y637980D01*
Y643059D02*
X1567460Y648137D01*
X792540Y1017790D02*
Y1033025D01*
X800157D01*
X802697Y1030486D01*
Y1025407D01*
X800157Y1022868D01*
X792540D01*
X807775Y1033025D02*
Y1017790D01*
Y1025407D01*
X810314Y1027947D01*
X815393D01*
X817932Y1025407D01*
Y1017790D01*
X825549D02*
X830628D01*
X833167Y1020329D01*
Y1025407D01*
X830628Y1027947D01*
X825549D01*
X823010Y1025407D01*
Y1020329D01*
X825549Y1017790D01*
X840784Y1030486D02*
Y1027947D01*
X838245D01*
X843324D01*
X840784D01*
Y1020329D01*
X843324Y1017790D01*
X853480D02*
X858559D01*
X861098Y1020329D01*
Y1025407D01*
X858559Y1027947D01*
X853480D01*
X850941Y1025407D01*
Y1020329D01*
X853480Y1017790D01*
X876333Y1033025D02*
Y1017790D01*
X868715D01*
X866176Y1020329D01*
Y1025407D01*
X868715Y1027947D01*
X876333D01*
X889029Y1017790D02*
X883950D01*
X881411Y1020329D01*
Y1025407D01*
X883950Y1027947D01*
X889029D01*
X891568Y1025407D01*
Y1022868D01*
X881411D01*
X899185Y1030486D02*
Y1027947D01*
X896646D01*
X901725D01*
X899185D01*
Y1020329D01*
X901725Y1017790D01*
X916960D02*
X911881D01*
X909342Y1020329D01*
Y1025407D01*
X911881Y1027947D01*
X916960D01*
X919499Y1025407D01*
Y1022868D01*
X909342D01*
X934734Y1027947D02*
X927116D01*
X924577Y1025407D01*
Y1020329D01*
X927116Y1017790D01*
X934734D01*
X942352Y1030486D02*
Y1027947D01*
X939812D01*
X944891D01*
X942352D01*
Y1020329D01*
X944891Y1017790D01*
X955047D02*
X960126D01*
X962665Y1020329D01*
Y1025407D01*
X960126Y1027947D01*
X955047D01*
X952508Y1025407D01*
Y1020329D01*
X955047Y1017790D01*
X967743Y1027947D02*
Y1017790D01*
Y1022868D01*
X970283Y1025407D01*
X972822Y1027947D01*
X975361D01*
X739790Y474353D02*
Y459118D01*
X747408D01*
X749947Y461657D01*
Y471814D01*
X747408Y474353D01*
X739790D01*
X755025Y459118D02*
X760103D01*
X757564D01*
Y469275D01*
X755025D01*
X767721Y459118D02*
X775339D01*
X777878Y461657D01*
X775339Y464197D01*
X770260D01*
X767721Y466736D01*
X770260Y469275D01*
X777878D01*
X782956Y454040D02*
Y469275D01*
X790574D01*
X793113Y466736D01*
Y461657D01*
X790574Y459118D01*
X782956D01*
X798191D02*
X803270D01*
X800730D01*
Y474353D01*
X798191D01*
X813426Y469275D02*
X818504D01*
X821044Y466736D01*
Y459118D01*
X813426D01*
X810887Y461657D01*
X813426Y464197D01*
X821044D01*
X826122Y469275D02*
Y461657D01*
X828661Y459118D01*
X836279D01*
Y456579D01*
X833740Y454040D01*
X831200D01*
X836279Y459118D02*
Y469275D01*
X665988Y784855D02*
Y772159D01*
X668527Y769620D01*
X673605D01*
X676145Y772159D01*
Y784855D01*
X691380Y769620D02*
X681223D01*
X691380Y779777D01*
Y782316D01*
X688841Y784855D01*
X683762D01*
X681223Y782316D01*
X993648Y1057003D02*
Y1044308D01*
X996187Y1041768D01*
X1001265D01*
X1003805Y1044308D01*
Y1057003D01*
X1008883Y1041768D02*
X1013961D01*
X1011422D01*
Y1057003D01*
X1008883Y1054464D01*
X1019048Y661822D02*
Y677057D01*
X1026665D01*
X1029205Y674517D01*
Y669439D01*
X1026665Y666900D01*
X1019048D01*
X1024126D02*
X1029205Y661822D01*
X1034283Y674517D02*
X1036822Y677057D01*
X1041901D01*
X1044440Y674517D01*
Y671978D01*
X1041901Y669439D01*
X1044440Y666900D01*
Y664361D01*
X1041901Y661822D01*
X1036822D01*
X1034283Y664361D01*
Y666900D01*
X1036822Y669439D01*
X1034283Y671978D01*
Y674517D01*
X1036822Y669439D02*
X1041901D01*
X1068070Y661822D02*
Y677057D01*
X1075687D01*
X1078227Y674517D01*
Y669439D01*
X1075687Y666900D01*
X1068070D01*
X1073148D02*
X1078227Y661822D01*
X1083305Y677057D02*
X1093462D01*
Y674517D01*
X1083305Y664361D01*
Y661822D01*
X1116838D02*
Y677057D01*
X1124455D01*
X1126995Y674517D01*
Y669439D01*
X1124455Y666900D01*
X1116838D01*
X1121916D02*
X1126995Y661822D01*
X1142230Y677057D02*
X1137151Y674517D01*
X1132073Y669439D01*
Y664361D01*
X1134612Y661822D01*
X1139691D01*
X1142230Y664361D01*
Y666900D01*
X1139691Y669439D01*
X1132073D01*
X1165860Y661822D02*
Y677057D01*
X1173477D01*
X1176017Y674517D01*
Y669439D01*
X1173477Y666900D01*
X1165860D01*
X1170938D02*
X1176017Y661822D01*
X1191252Y677057D02*
X1181095D01*
Y669439D01*
X1186173Y671978D01*
X1188713D01*
X1191252Y669439D01*
Y664361D01*
X1188713Y661822D01*
X1183634D01*
X1181095Y664361D01*
X1214882Y661822D02*
Y677057D01*
X1222499D01*
X1225039Y674517D01*
Y669439D01*
X1222499Y666900D01*
X1214882D01*
X1219960D02*
X1225039Y661822D01*
X1237735D02*
Y677057D01*
X1230117Y669439D01*
X1240274D01*
X1263904Y661822D02*
Y677057D01*
X1271522D01*
X1274061Y674517D01*
Y669439D01*
X1271522Y666900D01*
X1263904D01*
X1268982D02*
X1274061Y661822D01*
X1279139Y674517D02*
X1281678Y677057D01*
X1286757D01*
X1289296Y674517D01*
Y671978D01*
X1286757Y669439D01*
X1284217D01*
X1286757D01*
X1289296Y666900D01*
Y664361D01*
X1286757Y661822D01*
X1281678D01*
X1279139Y664361D01*
X1312926Y661822D02*
Y677057D01*
X1320544D01*
X1323083Y674517D01*
Y669439D01*
X1320544Y666900D01*
X1312926D01*
X1318004D02*
X1323083Y661822D01*
X1338318D02*
X1328161D01*
X1338318Y671978D01*
Y674517D01*
X1335779Y677057D01*
X1330700D01*
X1328161Y674517D01*
X719311Y1022095D02*
Y1032252D01*
X716771Y1034791D01*
X711693D01*
X709154Y1032252D01*
Y1022095D01*
X711693Y1019556D01*
X716771D01*
X714232Y1024634D02*
X719311Y1019556D01*
X716771D02*
X719311Y1022095D01*
X724389Y1019556D02*
X729467D01*
X726928D01*
Y1034791D01*
X724389Y1032252D01*
X1465250Y587467D02*
X1460172D01*
X1462711D01*
Y574772D01*
X1460172Y572233D01*
X1457632D01*
X1455093Y574772D01*
X1470328Y572233D02*
X1475407D01*
X1472868D01*
Y587467D01*
X1470328Y584928D01*
X940054Y584449D02*
Y569214D01*
X947672D01*
X950211Y571753D01*
Y581910D01*
X947672Y584449D01*
X940054D01*
X965446Y569214D02*
X955289D01*
X965446Y579371D01*
Y581910D01*
X962907Y584449D01*
X957828D01*
X955289Y581910D01*
X934093Y958118D02*
Y942883D01*
X941711D01*
X944250Y945422D01*
Y955578D01*
X941711Y958118D01*
X934093D01*
X949328Y942883D02*
X954407D01*
X951868D01*
Y958118D01*
X949328Y955578D01*
X1392679Y705608D02*
X1390139Y708147D01*
X1385061D01*
X1382522Y705608D01*
Y695451D01*
X1385061Y692912D01*
X1390139D01*
X1392679Y695451D01*
X1405375Y692912D02*
Y708147D01*
X1397757Y700529D01*
X1407914D01*
X1377947Y637790D02*
X1375408Y640329D01*
X1370329D01*
X1367790Y637790D01*
Y627633D01*
X1370329Y625094D01*
X1375408D01*
X1377947Y627633D01*
X1383025Y637790D02*
X1385564Y640329D01*
X1390643D01*
X1393182Y637790D01*
Y635251D01*
X1390643Y632711D01*
X1388103D01*
X1390643D01*
X1393182Y630172D01*
Y627633D01*
X1390643Y625094D01*
X1385564D01*
X1383025Y627633D01*
M02*
