G04*
G04 #@! TF.GenerationSoftware,Altium Limited,Altium Designer,26.8.1 (31)*
G04*
G04 Layer_Physical_Order=1*
G04 Layer_Color=255*
G04 Board_Origin=0|0*
%FSLAX44Y44*%
%MOMM*%
G71*
G04*
G04 #@! TF.SameCoordinates,925F5AF1-14A6-441F-BD70-3B09AEF2B194*
G04*
G04*
G04 #@! TF.FilePolarity,Positive*
G04*
G01*
G75*
%ADD13C,0.2540*%
%ADD14C,1.2100*%
%ADD15C,1.2000*%
%ADD16C,1.1300*%
%ADD17R,1.1300X1.1300*%
%ADD19C,1.8000*%
%ADD20R,1.8000X1.8000*%
%ADD21C,1.2690*%
%ADD22C,3.0000*%
%ADD23C,2.0000*%
%ADD24R,2.0000X2.0000*%
%ADD25R,1.2750X1.2750*%
%ADD26C,1.2750*%
%ADD27R,1.5080X1.5080*%
%ADD28C,1.5080*%
%ADD29C,1.8150*%
%ADD30R,1.8150X1.8150*%
%ADD31C,1.1000*%
%ADD32C,1.2700*%
%ADD33C,0.3810*%
%ADD34C,0.5080*%
%ADD35C,6.0000*%
G36*
X1525000Y1121115D02*
Y1121115D01*
X1526997Y1121031D01*
X1531025Y1120767D01*
X1536947Y1119589D01*
X1542665Y1117648D01*
X1548081Y1114977D01*
X1553102Y1111623D01*
X1557641Y1107641D01*
X1561623Y1103102D01*
X1564977Y1098081D01*
X1567648Y1092665D01*
X1569589Y1086947D01*
X1570767Y1081025D01*
X1571150Y1075176D01*
X1571115Y1075000D01*
Y477032D01*
X1571115Y477009D01*
X1571115Y475000D01*
X1571031Y473003D01*
X1570767Y468975D01*
X1569589Y463052D01*
X1567648Y457335D01*
X1564977Y451919D01*
X1561623Y446898D01*
X1557641Y442359D01*
X1553102Y438377D01*
X1548081Y435023D01*
X1542665Y432352D01*
X1536947Y430411D01*
X1531025Y429233D01*
X1525176Y428850D01*
X1525000Y428885D01*
X625000D01*
X624824Y428850D01*
X618975Y429233D01*
X613052Y430411D01*
X607335Y432352D01*
X601919Y435023D01*
X596898Y438377D01*
X592359Y442359D01*
X588377Y446898D01*
X585023Y451919D01*
X582352Y457335D01*
X580411Y463052D01*
X579233Y468975D01*
X578969Y473003D01*
X578885Y475000D01*
X578885Y475000D01*
X578885Y477009D01*
Y1075000D01*
X578850Y1075176D01*
X579233Y1081025D01*
X580411Y1086947D01*
X582352Y1092665D01*
X585023Y1098081D01*
X588377Y1103102D01*
X592359Y1107641D01*
X596898Y1111623D01*
X601919Y1114977D01*
X607335Y1117648D01*
X613052Y1119589D01*
X618975Y1120767D01*
X623003Y1121031D01*
X625000Y1121115D01*
Y1121115D01*
X627003Y1121115D01*
X1522997D01*
X1525000Y1121115D01*
D02*
G37*
%LPC*%
G36*
X1527561Y1107540D02*
X1522439D01*
X1517380Y1106739D01*
X1512509Y1105156D01*
X1507945Y1102831D01*
X1503802Y1099820D01*
X1500180Y1096198D01*
X1497169Y1092055D01*
X1494844Y1087491D01*
X1493261Y1082620D01*
X1492460Y1077561D01*
Y1072439D01*
X1493261Y1067380D01*
X1494844Y1062509D01*
X1497169Y1057945D01*
X1500180Y1053802D01*
X1503802Y1050180D01*
X1507945Y1047169D01*
X1512509Y1044844D01*
X1517380Y1043261D01*
X1522439Y1042460D01*
X1527561D01*
X1532620Y1043261D01*
X1537491Y1044844D01*
X1542055Y1047169D01*
X1546198Y1050180D01*
X1549820Y1053802D01*
X1552831Y1057945D01*
X1555156Y1062509D01*
X1556739Y1067380D01*
X1557540Y1072439D01*
Y1077561D01*
X1556739Y1082620D01*
X1555156Y1087491D01*
X1552831Y1092055D01*
X1549820Y1096198D01*
X1546198Y1099820D01*
X1542055Y1102831D01*
X1537491Y1105156D01*
X1532620Y1106739D01*
X1527561Y1107540D01*
D02*
G37*
G36*
X627561D02*
X622439D01*
X617380Y1106739D01*
X612509Y1105156D01*
X607945Y1102831D01*
X603802Y1099820D01*
X600180Y1096198D01*
X597169Y1092055D01*
X594844Y1087491D01*
X593261Y1082620D01*
X592460Y1077561D01*
Y1072439D01*
X593261Y1067380D01*
X594844Y1062509D01*
X597169Y1057945D01*
X600180Y1053802D01*
X603802Y1050180D01*
X607945Y1047169D01*
X612509Y1044844D01*
X617380Y1043261D01*
X622439Y1042460D01*
X627561D01*
X632620Y1043261D01*
X637491Y1044844D01*
X642055Y1047169D01*
X646198Y1050180D01*
X649820Y1053802D01*
X652831Y1057945D01*
X655156Y1062509D01*
X656739Y1067380D01*
X657540Y1072439D01*
Y1077561D01*
X656739Y1082620D01*
X655156Y1087491D01*
X652831Y1092055D01*
X649820Y1096198D01*
X646198Y1099820D01*
X642055Y1102831D01*
X637491Y1105156D01*
X632620Y1106739D01*
X627561Y1107540D01*
D02*
G37*
G36*
X1486478Y1024090D02*
X1483022D01*
X1479634Y1023416D01*
X1476442Y1022094D01*
X1473569Y1020175D01*
X1471126Y1017731D01*
X1469206Y1014859D01*
X1467884Y1011667D01*
X1467210Y1008278D01*
Y1004823D01*
X1467884Y1001434D01*
X1469206Y998242D01*
X1471126Y995369D01*
X1473569Y992926D01*
X1476442Y991007D01*
X1479634Y989685D01*
X1483022Y989010D01*
X1486478D01*
X1489866Y989685D01*
X1493058Y991007D01*
X1495931Y992926D01*
X1498374Y995369D01*
X1500294Y998242D01*
X1501616Y1001434D01*
X1502290Y1004823D01*
Y1008278D01*
X1501616Y1011667D01*
X1500294Y1014859D01*
X1498374Y1017731D01*
X1495931Y1020175D01*
X1493058Y1022094D01*
X1489866Y1023416D01*
X1486478Y1024090D01*
D02*
G37*
G36*
X853270Y979608D02*
Y972020D01*
X860858D01*
X860279Y974180D01*
X859110Y976206D01*
X857456Y977860D01*
X855430Y979029D01*
X853270Y979608D01*
D02*
G37*
G36*
X1016977Y1024090D02*
X1013522D01*
X1010134Y1023416D01*
X1006942Y1022094D01*
X1004069Y1020175D01*
X1001626Y1017731D01*
X999706Y1014859D01*
X998384Y1011667D01*
X997710Y1008278D01*
Y1004823D01*
X998384Y1001434D01*
X999706Y998242D01*
X1001626Y995369D01*
X1004069Y992926D01*
X1004083Y992917D01*
X1003467Y990885D01*
X988750D01*
X987263Y990589D01*
X986003Y989747D01*
X964253Y967997D01*
X963411Y966737D01*
X963115Y965250D01*
Y903471D01*
X921517Y861873D01*
X919640Y862651D01*
Y871190D01*
X915335D01*
Y884341D01*
X927860Y896866D01*
X929376Y896460D01*
X931624D01*
X933796Y897042D01*
X935744Y898166D01*
X937334Y899756D01*
X938458Y901704D01*
X939040Y903876D01*
Y906124D01*
X938458Y908296D01*
X937334Y910244D01*
X935744Y911834D01*
X933796Y912958D01*
X931624Y913540D01*
X929376D01*
X927204Y912958D01*
X925256Y911834D01*
X923666Y910244D01*
X922542Y908296D01*
X921960Y906124D01*
Y903876D01*
X922366Y902360D01*
X908703Y888697D01*
X907861Y887437D01*
X907565Y885950D01*
Y871190D01*
X903260D01*
Y860304D01*
X884061Y841104D01*
X855492D01*
X854583Y842678D01*
X852928Y844333D01*
X851354Y845242D01*
Y858657D01*
X853386Y859201D01*
X854096Y857971D01*
X855621Y856446D01*
X857489Y855368D01*
X859572Y854810D01*
X861728D01*
X863811Y855368D01*
X865679Y856446D01*
X867204Y857971D01*
X868282Y859839D01*
X868840Y861922D01*
Y864078D01*
X868282Y866161D01*
X867204Y868029D01*
X865679Y869554D01*
X863811Y870632D01*
X861728Y871190D01*
X859572D01*
X857489Y870632D01*
X855621Y869554D01*
X854096Y868029D01*
X853386Y866799D01*
X851354Y867343D01*
Y868030D01*
X851059Y869517D01*
X850217Y870777D01*
X842997Y877997D01*
X841737Y878839D01*
X840250Y879135D01*
X755176D01*
X754374Y880524D01*
X752774Y882124D01*
X750816Y883255D01*
X748631Y883840D01*
X746369D01*
X744184Y883255D01*
X742226Y882124D01*
X740626Y880524D01*
X739495Y878566D01*
X738910Y876381D01*
Y874119D01*
X739495Y871934D01*
X740626Y869976D01*
X742226Y868376D01*
X744184Y867245D01*
X746369Y866660D01*
X748631D01*
X750816Y867245D01*
X752774Y868376D01*
X754374Y869976D01*
X755176Y871365D01*
X829295D01*
X829858Y870264D01*
X830001Y869333D01*
X828696Y868029D01*
X827618Y866161D01*
X827111Y864270D01*
X835250D01*
Y863000D01*
X836520D01*
Y854861D01*
X838411Y855368D01*
X840279Y856446D01*
X841553Y857721D01*
X842589Y857540D01*
X843585Y856993D01*
Y845242D01*
X842011Y844333D01*
X840356Y842678D01*
X839447Y841104D01*
X836970D01*
X835483Y840809D01*
X834223Y839967D01*
X793253Y798997D01*
X792411Y797737D01*
X792115Y796250D01*
Y748614D01*
X790083Y747772D01*
X789789Y748066D01*
X787491Y749393D01*
X784927Y750080D01*
X782273D01*
X779709Y749393D01*
X777411Y748066D01*
X775534Y746189D01*
X774207Y743891D01*
X773520Y741327D01*
Y738673D01*
X774207Y736109D01*
X775534Y733811D01*
X777411Y731934D01*
X779068Y730977D01*
Y676400D01*
X779413Y674666D01*
X780395Y673195D01*
X955545Y498045D01*
X957003Y497071D01*
X957017Y497001D01*
X957059Y494982D01*
X956319Y494784D01*
X954291Y493614D01*
X952636Y491959D01*
X951728Y490385D01*
X909808D01*
X904764Y495428D01*
X905606Y497460D01*
X908027D01*
X911416Y498134D01*
X914608Y499456D01*
X917481Y501376D01*
X919924Y503819D01*
X921844Y506692D01*
X923166Y509884D01*
X923840Y513273D01*
Y516727D01*
X923166Y520116D01*
X921844Y523308D01*
X919924Y526181D01*
X917481Y528624D01*
X914608Y530544D01*
X911416Y531866D01*
X908027Y532540D01*
X904573D01*
X901184Y531866D01*
X897992Y530544D01*
X895119Y528624D01*
X892676Y526181D01*
X890756Y523308D01*
X889434Y520116D01*
X888760Y516727D01*
Y514306D01*
X886728Y513464D01*
X722135Y678058D01*
Y883735D01*
X737041Y898642D01*
X739308Y898035D01*
X739495Y897334D01*
X740626Y895376D01*
X742226Y893776D01*
X744184Y892645D01*
X746369Y892060D01*
X748631D01*
X750816Y892645D01*
X752774Y893776D01*
X754374Y895376D01*
X755176Y896765D01*
X813590D01*
X815077Y897061D01*
X816047Y897710D01*
X817204Y897042D01*
X819376Y896460D01*
X821624D01*
X823796Y897042D01*
X825744Y898166D01*
X827334Y899756D01*
X828118Y901115D01*
X842441D01*
X878202Y865354D01*
X877860Y864078D01*
Y861922D01*
X878418Y859839D01*
X879496Y857971D01*
X881021Y856446D01*
X882889Y855368D01*
X884972Y854810D01*
X887128D01*
X889211Y855368D01*
X891079Y856446D01*
X892604Y857971D01*
X893682Y859839D01*
X894240Y861922D01*
Y864078D01*
X893682Y866161D01*
X892604Y868029D01*
X891079Y869554D01*
X889935Y870214D01*
Y949191D01*
X903078Y962335D01*
X904830Y961865D01*
X907170D01*
X909429Y962470D01*
X911456Y963640D01*
X913110Y965294D01*
X914279Y967320D01*
X914885Y969580D01*
Y971920D01*
X914279Y974180D01*
X913110Y976206D01*
X911456Y977860D01*
X909429Y979029D01*
X907170Y979635D01*
X904830D01*
X902570Y979029D01*
X900545Y977860D01*
X898890Y976206D01*
X897720Y974180D01*
X897115Y971920D01*
Y969580D01*
X897585Y967828D01*
X883303Y953547D01*
X882461Y952287D01*
X882165Y950800D01*
Y875033D01*
X880288Y874256D01*
X846797Y907747D01*
X845537Y908589D01*
X844050Y908885D01*
X828118D01*
X827334Y910244D01*
X825744Y911834D01*
X823796Y912958D01*
X821624Y913540D01*
X819376D01*
X817204Y912958D01*
X815256Y911834D01*
X813666Y910244D01*
X812542Y908296D01*
X811960Y906124D01*
Y904535D01*
X755176D01*
X754374Y905924D01*
X752774Y907524D01*
X750816Y908655D01*
X750116Y908842D01*
X749508Y911109D01*
X777747Y939347D01*
X778589Y940608D01*
X778885Y942094D01*
Y978500D01*
X778589Y979987D01*
X777747Y981247D01*
X769747Y989247D01*
X768487Y990089D01*
X767000Y990385D01*
X751811D01*
X751204Y991437D01*
X749707Y992934D01*
X747873Y993992D01*
X745828Y994540D01*
X743711D01*
X742383Y994184D01*
X741331Y996006D01*
X743645Y998320D01*
X817105D01*
X843197Y972228D01*
X843142Y972020D01*
X850730D01*
Y979608D01*
X850522Y979553D01*
X822913Y1007162D01*
X821232Y1008285D01*
X819250Y1008680D01*
X741500D01*
X739518Y1008285D01*
X737838Y1007162D01*
X722588Y991913D01*
X721465Y990232D01*
X721070Y988250D01*
Y979620D01*
X721465Y977638D01*
X722588Y975957D01*
X736175Y962370D01*
X743500D01*
Y969695D01*
X731430Y981765D01*
Y986105D01*
X735264Y989939D01*
X737086Y988887D01*
X736730Y987559D01*
Y985442D01*
X737278Y983397D01*
X738336Y981563D01*
X739833Y980066D01*
X741667Y979008D01*
X743711Y978460D01*
X745828D01*
X747873Y979008D01*
X749508Y979951D01*
X750295Y979325D01*
X750921Y978538D01*
X749978Y976903D01*
X749430Y974858D01*
Y972741D01*
X749978Y970697D01*
X750921Y969062D01*
X750295Y968275D01*
X749508Y967648D01*
X747873Y968592D01*
X746040Y969083D01*
Y961100D01*
Y953117D01*
X747873Y953608D01*
X749707Y954666D01*
X751204Y956163D01*
X751553Y956769D01*
X753585Y956225D01*
Y944079D01*
X704503Y894997D01*
X703661Y893737D01*
X703365Y892250D01*
Y744689D01*
X701333Y744072D01*
X699924Y746181D01*
X697481Y748624D01*
X694608Y750544D01*
X691416Y751866D01*
X688027Y752540D01*
X684573D01*
X681184Y751866D01*
X677992Y750544D01*
X675119Y748624D01*
X672676Y746181D01*
X670756Y743308D01*
X669434Y740116D01*
X668760Y736728D01*
Y733272D01*
X669434Y729884D01*
X670756Y726692D01*
X672676Y723819D01*
X675119Y721376D01*
X677992Y719456D01*
X681184Y718134D01*
X684573Y717460D01*
X688027D01*
X691416Y718134D01*
X694608Y719456D01*
X697481Y721376D01*
X699924Y723819D01*
X701333Y725928D01*
X703365Y725312D01*
Y672500D01*
X703661Y671013D01*
X704503Y669753D01*
X902503Y471753D01*
X903763Y470911D01*
X905250Y470615D01*
X994228D01*
X995136Y469041D01*
X996791Y467386D01*
X998819Y466216D01*
X1001080Y465610D01*
X1003420D01*
X1005681Y466216D01*
X1007709Y467386D01*
X1009364Y469041D01*
X1010534Y471069D01*
X1011140Y473330D01*
Y475670D01*
X1010534Y477931D01*
X1009364Y479959D01*
X1007709Y481614D01*
X1005681Y482784D01*
X1003420Y483390D01*
X1001080D01*
X998819Y482784D01*
X996791Y481614D01*
X995136Y479959D01*
X994228Y478385D01*
X967081D01*
X966239Y480417D01*
X966864Y481041D01*
X968034Y483069D01*
X968640Y485330D01*
Y487670D01*
X968034Y489931D01*
X966864Y491959D01*
X965209Y493614D01*
X964955Y493760D01*
X964238Y496463D01*
X964387Y496718D01*
X1193840D01*
X1195575Y497063D01*
X1197045Y498045D01*
X1226172Y527172D01*
X1226966Y526960D01*
X1229214D01*
X1231386Y527542D01*
X1233334Y528666D01*
X1234924Y530256D01*
X1236048Y532203D01*
X1236630Y534375D01*
Y536624D01*
X1236048Y538796D01*
X1234924Y540743D01*
X1233334Y542333D01*
X1231386Y543457D01*
X1229214Y544039D01*
X1226966D01*
X1224794Y543457D01*
X1222846Y542333D01*
X1221256Y540743D01*
X1220132Y538796D01*
X1219550Y536624D01*
Y534375D01*
X1219763Y533582D01*
X1191963Y505782D01*
X960627D01*
X950652Y515758D01*
X951429Y517635D01*
X970415D01*
Y540865D01*
X947185D01*
Y521879D01*
X945308Y521102D01*
X788132Y678277D01*
Y730977D01*
X789789Y731934D01*
X790083Y732228D01*
X792115Y731386D01*
Y727000D01*
X792411Y725513D01*
X793253Y724253D01*
X903753Y613753D01*
X905013Y612911D01*
X906500Y612615D01*
X1308000D01*
X1309487Y612911D01*
X1310747Y613753D01*
X1328777Y631783D01*
X1329619Y633043D01*
X1329915Y634530D01*
Y637881D01*
X1331273Y638666D01*
X1332864Y640256D01*
X1333988Y642203D01*
X1334570Y644375D01*
Y646624D01*
X1333988Y648796D01*
X1332864Y650743D01*
X1331273Y652333D01*
X1329326Y653457D01*
X1327154Y654040D01*
X1324906D01*
X1322733Y653457D01*
X1320786Y652333D01*
X1319196Y650743D01*
X1318072Y648796D01*
X1317490Y646624D01*
Y644375D01*
X1318072Y642203D01*
X1319196Y640256D01*
X1320786Y638666D01*
X1321853Y638050D01*
X1322012Y636005D01*
X1306391Y620385D01*
X1163894D01*
X1163277Y622417D01*
X1163533Y622588D01*
X1177850Y636905D01*
Y644230D01*
X1170525D01*
X1157725Y631429D01*
X1053605D01*
X1040805Y644230D01*
X1033480D01*
Y636904D01*
X1047797Y622588D01*
X1048053Y622417D01*
X1047436Y620385D01*
X908109D01*
X799885Y728609D01*
Y731986D01*
X801917Y732828D01*
X802811Y731934D01*
X805109Y730607D01*
X807673Y729920D01*
X810327D01*
X812891Y730607D01*
X815189Y731934D01*
X817066Y733811D01*
X818393Y736109D01*
X819080Y738673D01*
Y741327D01*
X818393Y743891D01*
X817066Y746189D01*
X815189Y748066D01*
X812891Y749393D01*
X812885Y749395D01*
Y753943D01*
X812996Y753988D01*
X814917Y754281D01*
X815503Y753403D01*
X825010Y743896D01*
X825007Y743891D01*
X824320Y741327D01*
Y738673D01*
X825007Y736109D01*
X826334Y733811D01*
X828211Y731934D01*
X830509Y730607D01*
X833073Y729920D01*
X835727D01*
X838291Y730607D01*
X840589Y731934D01*
X842466Y733811D01*
X843793Y736109D01*
X844480Y738673D01*
Y741327D01*
X843793Y743891D01*
X842466Y746189D01*
X840589Y748066D01*
X838291Y749393D01*
X835727Y750080D01*
X833073D01*
X830509Y749393D01*
X830504Y749390D01*
X822135Y757759D01*
Y792023D01*
X831977Y801865D01*
X887750D01*
X889237Y802161D01*
X890497Y803003D01*
X978497Y891003D01*
X979339Y892263D01*
X979635Y893750D01*
Y957130D01*
X990783Y968278D01*
X992660Y967500D01*
Y795950D01*
X992857Y794959D01*
X993419Y794119D01*
X994259Y793558D01*
X995250Y793361D01*
X1012410D01*
X1013188Y791483D01*
X993693Y771989D01*
X992851Y770728D01*
X992555Y769242D01*
Y753659D01*
X992851Y752172D01*
X993693Y750912D01*
X1049602Y695003D01*
X1050863Y694161D01*
X1052349Y693865D01*
X1072362D01*
X1073270Y692291D01*
X1074395Y691167D01*
X1073645Y689135D01*
X921741D01*
X855169Y755707D01*
X855776Y757973D01*
X856681Y758216D01*
X858709Y759386D01*
X860364Y761041D01*
X860525Y761320D01*
X894350D01*
X896332Y761715D01*
X898012Y762838D01*
X910585Y775410D01*
X912528D01*
X914611Y775968D01*
X916479Y777046D01*
X918004Y778571D01*
X919082Y780439D01*
X919640Y782522D01*
Y784678D01*
X919082Y786761D01*
X918004Y788629D01*
X916479Y790154D01*
X914611Y791232D01*
X912528Y791790D01*
X910372D01*
X908289Y791232D01*
X906421Y790154D01*
X904896Y788629D01*
X903818Y786761D01*
X903260Y784678D01*
Y782735D01*
X892205Y771680D01*
X860525D01*
X860364Y771959D01*
X858813Y773510D01*
X858806Y773695D01*
X859880Y775410D01*
X861728D01*
X863811Y775968D01*
X865679Y777046D01*
X867204Y778571D01*
X867864Y779715D01*
X878836D01*
X879496Y778571D01*
X881021Y777046D01*
X882889Y775968D01*
X884972Y775410D01*
X887128D01*
X889211Y775968D01*
X891079Y777046D01*
X892604Y778571D01*
X893682Y780439D01*
X894240Y782522D01*
Y784678D01*
X893682Y786761D01*
X892604Y788629D01*
X891079Y790154D01*
X889211Y791232D01*
X887128Y791790D01*
X884972D01*
X882889Y791232D01*
X881021Y790154D01*
X879496Y788629D01*
X878836Y787485D01*
X867864D01*
X867204Y788629D01*
X865679Y790154D01*
X863811Y791232D01*
X861728Y791790D01*
X859572D01*
X857489Y791232D01*
X855621Y790154D01*
X854096Y788629D01*
X853018Y786761D01*
X852460Y784678D01*
Y782522D01*
X853018Y780439D01*
X854096Y778571D01*
X855450Y777218D01*
X855433Y777046D01*
X854420Y775390D01*
X852080D01*
X849819Y774784D01*
X847791Y773614D01*
X846136Y771959D01*
X844966Y769931D01*
X844723Y769026D01*
X842457Y768419D01*
X839135Y771741D01*
Y776386D01*
X840279Y777046D01*
X841804Y778571D01*
X842882Y780439D01*
X843440Y782522D01*
Y784678D01*
X842882Y786761D01*
X841804Y788629D01*
X840279Y790154D01*
X838411Y791232D01*
X836328Y791790D01*
X834172D01*
X832089Y791232D01*
X830221Y790154D01*
X828696Y788629D01*
X827618Y786761D01*
X827060Y784678D01*
Y782522D01*
X827618Y780439D01*
X828696Y778571D01*
X830221Y777046D01*
X831365Y776386D01*
Y770132D01*
X831661Y768645D01*
X832503Y767385D01*
X917385Y682503D01*
X918645Y681661D01*
X920132Y681365D01*
X1186730D01*
X1219956Y648140D01*
X1219550Y646624D01*
Y644375D01*
X1220132Y642203D01*
X1221256Y640256D01*
X1222846Y638666D01*
X1223200Y638461D01*
X1222656Y636429D01*
X1195515D01*
X1187715Y644230D01*
X1180390D01*
Y636904D01*
X1189707Y627588D01*
X1191387Y626465D01*
X1193369Y626071D01*
X1262810D01*
X1264792Y626465D01*
X1266473Y627588D01*
X1275790Y636905D01*
Y644230D01*
X1268465D01*
X1260665Y636429D01*
X1233524D01*
X1232980Y638461D01*
X1233334Y638666D01*
X1234924Y640256D01*
X1236048Y642203D01*
X1236630Y644375D01*
Y646624D01*
X1236048Y648796D01*
X1234924Y650743D01*
X1233334Y652333D01*
X1231386Y653457D01*
X1229214Y654040D01*
X1226966D01*
X1225450Y653633D01*
X1191086Y687997D01*
X1189826Y688839D01*
X1188339Y689135D01*
X1087123D01*
X1086373Y691167D01*
X1087498Y692291D01*
X1088668Y694319D01*
X1089274Y696580D01*
Y698920D01*
X1088668Y701181D01*
X1087498Y703209D01*
X1085843Y704864D01*
X1083816Y706034D01*
X1081555Y706640D01*
X1079214D01*
X1076953Y706034D01*
X1074926Y704864D01*
X1073270Y703209D01*
X1072362Y701635D01*
X1053958D01*
X1013714Y741878D01*
X1014556Y743910D01*
X1016977D01*
X1020366Y744585D01*
X1023558Y745907D01*
X1026431Y747826D01*
X1028874Y750269D01*
X1030794Y753142D01*
X1032116Y756334D01*
X1032790Y759723D01*
Y763178D01*
X1032116Y766567D01*
X1030794Y769759D01*
X1028874Y772632D01*
X1026431Y775075D01*
X1023558Y776994D01*
X1020366Y778316D01*
X1016977Y778990D01*
X1014556D01*
X1013714Y781022D01*
X1020948Y788256D01*
X1061728D01*
X1063215Y788551D01*
X1064475Y789394D01*
X1132915Y857834D01*
X1133758Y859094D01*
X1134053Y860581D01*
Y937360D01*
X1196253Y999560D01*
X1197110Y999065D01*
X1200299Y998210D01*
X1203601D01*
X1206790Y999065D01*
X1209650Y1000716D01*
X1211984Y1003051D01*
X1213585Y1005822D01*
X1213995Y1005910D01*
X1215305D01*
X1215715Y1005822D01*
X1217316Y1003051D01*
X1219650Y1000716D01*
X1222510Y999065D01*
X1225699Y998210D01*
X1229001D01*
X1232190Y999065D01*
X1235050Y1000716D01*
X1237384Y1003051D01*
X1238985Y1005822D01*
X1239395Y1005910D01*
X1240705D01*
X1241115Y1005822D01*
X1242716Y1003051D01*
X1245050Y1000716D01*
X1247910Y999065D01*
X1251099Y998210D01*
X1254401D01*
X1257590Y999065D01*
X1260450Y1000716D01*
X1262785Y1003051D01*
X1264385Y1005822D01*
X1264795Y1005910D01*
X1266105D01*
X1266516Y1005822D01*
X1268115Y1003051D01*
X1270450Y1000716D01*
X1273310Y999065D01*
X1276499Y998210D01*
X1279801D01*
X1282990Y999065D01*
X1285850Y1000716D01*
X1288185Y1003051D01*
X1289785Y1005822D01*
X1290195Y1005910D01*
X1291505D01*
X1291915Y1005822D01*
X1293515Y1003051D01*
X1295850Y1000716D01*
X1298710Y999065D01*
X1301899Y998210D01*
X1305201D01*
X1308390Y999065D01*
X1311250Y1000716D01*
X1313584Y1003051D01*
X1315184Y1005822D01*
X1315595Y1005910D01*
X1316905D01*
X1317316Y1005822D01*
X1318916Y1003051D01*
X1321250Y1000716D01*
X1324110Y999065D01*
X1327299Y998210D01*
X1330601D01*
X1333790Y999065D01*
X1336650Y1000716D01*
X1338985Y1003051D01*
X1340585Y1005822D01*
X1340995Y1005910D01*
X1342305D01*
X1342715Y1005822D01*
X1344315Y1003051D01*
X1346650Y1000716D01*
X1349510Y999065D01*
X1352699Y998210D01*
X1356001D01*
X1359190Y999065D01*
X1362050Y1000716D01*
X1364384Y1003051D01*
X1365984Y1005822D01*
X1366395Y1005910D01*
X1367705D01*
X1368116Y1005822D01*
X1369716Y1003051D01*
X1372050Y1000716D01*
X1374570Y999261D01*
Y768240D01*
X1372050Y766785D01*
X1369716Y764450D01*
X1368116Y761679D01*
X1367705Y761591D01*
X1366395D01*
X1365984Y761679D01*
X1364384Y764450D01*
X1362050Y766785D01*
X1359190Y768436D01*
X1356001Y769290D01*
X1352699D01*
X1349510Y768436D01*
X1346650Y766785D01*
X1344315Y764450D01*
X1342715Y761679D01*
X1342305Y761591D01*
X1340995D01*
X1340585Y761679D01*
X1338985Y764450D01*
X1336650Y766785D01*
X1333790Y768436D01*
X1330601Y769290D01*
X1327299D01*
X1324110Y768436D01*
X1321250Y766785D01*
X1318916Y764450D01*
X1317316Y761679D01*
X1316905Y761591D01*
X1315595D01*
X1315184Y761679D01*
X1313584Y764450D01*
X1311250Y766785D01*
X1308390Y768436D01*
X1305201Y769290D01*
X1301899D01*
X1298710Y768436D01*
X1295850Y766785D01*
X1293515Y764450D01*
X1291915Y761679D01*
X1291505Y761591D01*
X1290195D01*
X1289785Y761679D01*
X1288185Y764450D01*
X1285850Y766785D01*
X1282990Y768436D01*
X1279801Y769290D01*
X1276499D01*
X1273310Y768436D01*
X1270450Y766785D01*
X1268115Y764450D01*
X1266516Y761679D01*
X1266105Y761591D01*
X1264795D01*
X1264385Y761679D01*
X1262785Y764450D01*
X1260450Y766785D01*
X1257590Y768436D01*
X1254401Y769290D01*
X1251099D01*
X1247910Y768436D01*
X1245050Y766785D01*
X1242716Y764450D01*
X1241115Y761679D01*
X1240705Y761591D01*
X1239395D01*
X1238985Y761679D01*
X1237384Y764450D01*
X1235050Y766785D01*
X1232190Y768436D01*
X1229001Y769290D01*
X1225699D01*
X1222510Y768436D01*
X1219650Y766785D01*
X1217316Y764450D01*
X1215715Y761679D01*
X1215305Y761591D01*
X1213995D01*
X1213585Y761679D01*
X1211984Y764450D01*
X1209650Y766785D01*
X1206790Y768436D01*
X1203601Y769290D01*
X1200299D01*
X1197110Y768436D01*
X1194250Y766785D01*
X1191916Y764450D01*
X1190315Y761679D01*
X1189905Y761591D01*
X1188595D01*
X1188185Y761679D01*
X1186584Y764450D01*
X1184250Y766785D01*
X1181390Y768436D01*
X1178201Y769290D01*
X1174899D01*
X1171710Y768436D01*
X1168850Y766785D01*
X1166516Y764450D01*
X1164915Y761679D01*
X1164505Y761591D01*
X1163195D01*
X1162785Y761679D01*
X1161184Y764450D01*
X1158850Y766785D01*
X1155990Y768436D01*
X1152801Y769290D01*
X1149499D01*
X1146310Y768436D01*
X1143450Y766785D01*
X1141115Y764450D01*
X1139516Y761679D01*
X1139105Y761591D01*
X1137795D01*
X1137384Y761679D01*
X1135785Y764450D01*
X1133450Y766785D01*
X1130590Y768436D01*
X1127401Y769290D01*
X1124099D01*
X1120910Y768436D01*
X1118050Y766785D01*
X1115715Y764450D01*
X1114116Y761679D01*
X1113705Y761591D01*
X1112395D01*
X1111984Y761679D01*
X1110385Y764450D01*
X1108050Y766785D01*
X1105190Y768436D01*
X1102001Y769290D01*
X1098699D01*
X1095510Y768436D01*
X1092650Y766785D01*
X1090315Y764450D01*
X1088716Y761679D01*
X1088305Y761591D01*
X1086995D01*
X1086584Y761679D01*
X1084985Y764450D01*
X1082650Y766785D01*
X1079790Y768436D01*
X1076601Y769290D01*
X1073299D01*
X1070110Y768436D01*
X1067250Y766785D01*
X1064915Y764450D01*
X1063316Y761679D01*
X1062905Y761591D01*
X1061595D01*
X1061184Y761679D01*
X1059585Y764450D01*
X1057250Y766785D01*
X1054390Y768436D01*
X1051201Y769290D01*
X1047899D01*
X1044710Y768436D01*
X1041850Y766785D01*
X1039516Y764450D01*
X1037865Y761591D01*
X1037010Y758401D01*
Y755099D01*
X1037865Y751910D01*
X1039516Y749051D01*
X1041850Y746716D01*
X1044710Y745065D01*
X1047899Y744210D01*
X1051201D01*
X1054390Y745065D01*
X1057250Y746716D01*
X1059585Y749051D01*
X1061184Y751822D01*
X1061595Y751910D01*
X1062905D01*
X1063316Y751822D01*
X1064915Y749051D01*
X1067250Y746716D01*
X1070110Y745065D01*
X1073299Y744210D01*
X1076601D01*
X1079790Y745065D01*
X1082650Y746716D01*
X1084985Y749051D01*
X1086584Y751822D01*
X1086995Y751910D01*
X1088305D01*
X1088716Y751822D01*
X1090315Y749051D01*
X1092650Y746716D01*
X1095510Y745065D01*
X1098699Y744210D01*
X1102001D01*
X1105190Y745065D01*
X1108050Y746716D01*
X1110385Y749051D01*
X1111984Y751822D01*
X1112395Y751910D01*
X1113705D01*
X1114116Y751822D01*
X1115715Y749051D01*
X1118050Y746716D01*
X1120910Y745065D01*
X1124099Y744210D01*
X1127401D01*
X1130590Y745065D01*
X1133450Y746716D01*
X1135785Y749051D01*
X1137384Y751822D01*
X1137795Y751910D01*
X1139105D01*
X1139516Y751822D01*
X1141115Y749051D01*
X1143450Y746716D01*
X1146310Y745065D01*
X1149499Y744210D01*
X1152801D01*
X1155990Y745065D01*
X1158850Y746716D01*
X1161184Y749051D01*
X1162785Y751822D01*
X1163195Y751910D01*
X1164505D01*
X1164915Y751822D01*
X1166516Y749051D01*
X1168850Y746716D01*
X1171710Y745065D01*
X1174899Y744210D01*
X1178201D01*
X1181390Y745065D01*
X1184250Y746716D01*
X1186584Y749051D01*
X1188185Y751822D01*
X1188595Y751910D01*
X1189905D01*
X1190315Y751822D01*
X1191916Y749051D01*
X1194250Y746716D01*
X1197110Y745065D01*
X1200299Y744210D01*
X1203601D01*
X1206790Y745065D01*
X1209650Y746716D01*
X1211984Y749051D01*
X1213585Y751822D01*
X1213995Y751910D01*
X1215305D01*
X1215715Y751822D01*
X1217316Y749051D01*
X1219650Y746716D01*
X1222510Y745065D01*
X1225699Y744210D01*
X1229001D01*
X1232190Y745065D01*
X1235050Y746716D01*
X1237384Y749051D01*
X1238985Y751822D01*
X1239395Y751910D01*
X1240705D01*
X1241115Y751822D01*
X1242716Y749051D01*
X1245050Y746716D01*
X1247910Y745065D01*
X1251099Y744210D01*
X1254401D01*
X1257590Y745065D01*
X1260450Y746716D01*
X1262785Y749051D01*
X1264385Y751822D01*
X1264795Y751910D01*
X1266105D01*
X1266516Y751822D01*
X1268115Y749051D01*
X1270450Y746716D01*
X1273310Y745065D01*
X1276499Y744210D01*
X1279801D01*
X1282990Y745065D01*
X1285850Y746716D01*
X1288185Y749051D01*
X1289785Y751822D01*
X1290195Y751910D01*
X1291505D01*
X1291915Y751822D01*
X1293515Y749051D01*
X1295850Y746716D01*
X1298710Y745065D01*
X1301899Y744210D01*
X1305201D01*
X1308390Y745065D01*
X1311250Y746716D01*
X1313584Y749051D01*
X1315184Y751822D01*
X1315595Y751910D01*
X1316905D01*
X1317316Y751822D01*
X1318916Y749051D01*
X1321250Y746716D01*
X1324110Y745065D01*
X1327299Y744210D01*
X1330601D01*
X1333790Y745065D01*
X1336650Y746716D01*
X1338985Y749051D01*
X1340585Y751822D01*
X1340995Y751910D01*
X1342305D01*
X1342715Y751822D01*
X1344315Y749051D01*
X1346650Y746716D01*
X1349510Y745065D01*
X1352699Y744210D01*
X1356001D01*
X1359190Y745065D01*
X1362050Y746716D01*
X1364384Y749051D01*
X1365984Y751822D01*
X1366395Y751910D01*
X1367705D01*
X1368116Y751822D01*
X1369716Y749051D01*
X1372050Y746716D01*
X1374570Y745261D01*
Y715175D01*
X1374291Y715014D01*
X1372636Y713359D01*
X1372475Y713080D01*
X1339460D01*
X1337478Y712685D01*
X1335798Y711562D01*
X1335798Y711562D01*
X1278330Y654094D01*
Y646769D01*
X1285655D01*
X1341606Y702720D01*
X1372475D01*
X1372636Y702441D01*
X1374291Y700786D01*
X1376319Y699616D01*
X1378480Y699037D01*
Y707900D01*
X1379750D01*
Y709170D01*
X1388613D01*
X1388034Y711331D01*
X1386864Y713359D01*
X1385209Y715014D01*
X1384930Y715175D01*
Y745261D01*
X1387450Y746716D01*
X1389785Y749051D01*
X1391384Y751822D01*
X1391795Y751910D01*
X1393105D01*
X1393515Y751822D01*
X1395116Y749051D01*
X1397450Y746716D01*
X1399971Y745261D01*
Y734100D01*
X1400365Y732118D01*
X1401487Y730437D01*
X1501710Y630215D01*
Y614460D01*
X1524790D01*
Y637540D01*
X1509035D01*
X1410329Y736245D01*
Y745261D01*
X1412850Y746716D01*
X1415184Y749051D01*
X1416835Y751910D01*
X1417690Y755099D01*
Y758401D01*
X1416835Y761591D01*
X1415184Y764450D01*
X1412850Y766785D01*
X1409990Y768436D01*
X1406801Y769290D01*
X1403499D01*
X1400310Y768436D01*
X1397450Y766785D01*
X1395116Y764450D01*
X1393515Y761679D01*
X1393105Y761591D01*
X1391795D01*
X1391384Y761679D01*
X1389785Y764450D01*
X1387450Y766785D01*
X1384930Y768240D01*
Y999261D01*
X1387450Y1000716D01*
X1389785Y1003051D01*
X1390578Y1004425D01*
X1392610Y1003881D01*
Y998210D01*
X1417690D01*
Y1023290D01*
X1392610D01*
Y1017620D01*
X1390578Y1017076D01*
X1389785Y1018450D01*
X1387450Y1020785D01*
X1384590Y1022436D01*
X1381401Y1023290D01*
X1381020D01*
Y1010750D01*
X1378480D01*
Y1023290D01*
X1378099D01*
X1374910Y1022436D01*
X1372050Y1020785D01*
X1369716Y1018450D01*
X1368116Y1015679D01*
X1367705Y1015591D01*
X1366395D01*
X1365984Y1015679D01*
X1364384Y1018450D01*
X1362050Y1020785D01*
X1359190Y1022436D01*
X1356001Y1023290D01*
X1352699D01*
X1349510Y1022436D01*
X1346650Y1020785D01*
X1344315Y1018450D01*
X1342715Y1015679D01*
X1342305Y1015591D01*
X1340995D01*
X1340585Y1015679D01*
X1338985Y1018450D01*
X1336650Y1020785D01*
X1333790Y1022436D01*
X1330601Y1023290D01*
X1327299D01*
X1324110Y1022436D01*
X1321250Y1020785D01*
X1318916Y1018450D01*
X1317316Y1015679D01*
X1316905Y1015591D01*
X1315595D01*
X1315184Y1015679D01*
X1313584Y1018450D01*
X1311250Y1020785D01*
X1308390Y1022436D01*
X1305201Y1023290D01*
X1301899D01*
X1298710Y1022436D01*
X1295850Y1020785D01*
X1293515Y1018450D01*
X1291915Y1015679D01*
X1291505Y1015591D01*
X1290195D01*
X1289785Y1015679D01*
X1288185Y1018450D01*
X1285850Y1020785D01*
X1282990Y1022436D01*
X1279801Y1023290D01*
X1276499D01*
X1273310Y1022436D01*
X1270450Y1020785D01*
X1268115Y1018450D01*
X1266516Y1015679D01*
X1266105Y1015591D01*
X1264795D01*
X1264385Y1015679D01*
X1262785Y1018450D01*
X1260450Y1020785D01*
X1257590Y1022436D01*
X1254401Y1023290D01*
X1251099D01*
X1247910Y1022436D01*
X1245050Y1020785D01*
X1242716Y1018450D01*
X1241115Y1015679D01*
X1240705Y1015591D01*
X1239395D01*
X1238985Y1015679D01*
X1237384Y1018450D01*
X1235050Y1020785D01*
X1232190Y1022436D01*
X1229001Y1023290D01*
X1225699D01*
X1222510Y1022436D01*
X1219650Y1020785D01*
X1217316Y1018450D01*
X1215715Y1015679D01*
X1215305Y1015591D01*
X1213995D01*
X1213585Y1015679D01*
X1211984Y1018450D01*
X1209650Y1020785D01*
X1206790Y1022436D01*
X1203601Y1023290D01*
X1200299D01*
X1197110Y1022436D01*
X1194250Y1020785D01*
X1191916Y1018450D01*
X1190315Y1015679D01*
X1189905Y1015591D01*
X1188595D01*
X1188185Y1015679D01*
X1186584Y1018450D01*
X1184250Y1020785D01*
X1181390Y1022436D01*
X1178201Y1023290D01*
X1174899D01*
X1171710Y1022436D01*
X1168850Y1020785D01*
X1166516Y1018450D01*
X1164915Y1015679D01*
X1164505Y1015591D01*
X1163195D01*
X1162785Y1015679D01*
X1161184Y1018450D01*
X1158850Y1020785D01*
X1155990Y1022436D01*
X1152801Y1023290D01*
X1149499D01*
X1146310Y1022436D01*
X1143450Y1020785D01*
X1141115Y1018450D01*
X1139516Y1015679D01*
X1139105Y1015591D01*
X1137795D01*
X1137384Y1015679D01*
X1135785Y1018450D01*
X1133450Y1020785D01*
X1130590Y1022436D01*
X1127401Y1023290D01*
X1124099D01*
X1120910Y1022436D01*
X1118050Y1020785D01*
X1115715Y1018450D01*
X1114116Y1015679D01*
X1113705Y1015591D01*
X1112395D01*
X1111984Y1015679D01*
X1110385Y1018450D01*
X1108050Y1020785D01*
X1105190Y1022436D01*
X1102001Y1023290D01*
X1098699D01*
X1095510Y1022436D01*
X1092650Y1020785D01*
X1090315Y1018450D01*
X1088716Y1015679D01*
X1088305Y1015591D01*
X1086995D01*
X1086584Y1015679D01*
X1084985Y1018450D01*
X1082650Y1020785D01*
X1079790Y1022436D01*
X1076601Y1023290D01*
X1073299D01*
X1070110Y1022436D01*
X1067250Y1020785D01*
X1064915Y1018450D01*
X1063316Y1015679D01*
X1062905Y1015591D01*
X1061595D01*
X1061184Y1015679D01*
X1059585Y1018450D01*
X1057250Y1020785D01*
X1054390Y1022436D01*
X1051201Y1023290D01*
X1047899D01*
X1044710Y1022436D01*
X1041850Y1020785D01*
X1039516Y1018450D01*
X1037865Y1015591D01*
X1037010Y1012401D01*
Y1009100D01*
X1037865Y1005910D01*
X1039516Y1003051D01*
X1041850Y1000716D01*
X1044710Y999065D01*
X1047899Y998210D01*
X1051201D01*
X1054390Y999065D01*
X1055590Y999758D01*
X1056837Y998131D01*
X1049591Y990885D01*
X1027033D01*
X1026417Y992917D01*
X1026431Y992926D01*
X1028874Y995369D01*
X1030794Y998242D01*
X1032116Y1001434D01*
X1032790Y1004823D01*
Y1008278D01*
X1032116Y1011667D01*
X1030794Y1014859D01*
X1028874Y1017731D01*
X1026431Y1020175D01*
X1023558Y1022094D01*
X1020366Y1023416D01*
X1016977Y1024090D01*
D02*
G37*
G36*
X860858Y969480D02*
X853270D01*
Y961892D01*
X855430Y962470D01*
X857456Y963640D01*
X859110Y965294D01*
X860279Y967320D01*
X860858Y969480D01*
D02*
G37*
G36*
X850730D02*
X843142D01*
X843720Y967320D01*
X844890Y965294D01*
X846544Y963640D01*
X848570Y962470D01*
X850730Y961892D01*
Y969480D01*
D02*
G37*
G36*
X743500Y959830D02*
X736787D01*
X737278Y957997D01*
X738336Y956163D01*
X739833Y954666D01*
X741667Y953608D01*
X743500Y953117D01*
Y959830D01*
D02*
G37*
G36*
X833980Y861730D02*
X826655D01*
X786605Y821680D01*
X754428D01*
X754374Y821774D01*
X752774Y823374D01*
X750816Y824505D01*
X748770Y825053D01*
Y816500D01*
Y807947D01*
X750816Y808495D01*
X752774Y809626D01*
X754374Y811226D01*
X754428Y811320D01*
X788750D01*
X790732Y811715D01*
X792412Y812838D01*
X833980Y854405D01*
Y861730D01*
D02*
G37*
G36*
X746230Y825053D02*
X744184Y824505D01*
X742226Y823374D01*
X740626Y821774D01*
X739495Y819816D01*
X738947Y817770D01*
X746230D01*
Y825053D01*
D02*
G37*
G36*
X748631Y799690D02*
X746369D01*
X744184Y799105D01*
X742226Y797974D01*
X740626Y796374D01*
X739495Y794416D01*
X738910Y792231D01*
Y789969D01*
X739495Y787784D01*
X740626Y785826D01*
X742226Y784226D01*
X744184Y783095D01*
X746369Y782510D01*
X748631D01*
X750816Y783095D01*
X752774Y784226D01*
X754374Y785826D01*
X755505Y787784D01*
X756090Y789969D01*
Y792231D01*
X755505Y794416D01*
X754374Y796374D01*
X752774Y797974D01*
X750816Y799105D01*
X748631Y799690D01*
D02*
G37*
G36*
X1486478Y778990D02*
X1483022D01*
X1479634Y778316D01*
X1476442Y776994D01*
X1473569Y775075D01*
X1471126Y772632D01*
X1469206Y769759D01*
X1467884Y766567D01*
X1467210Y763178D01*
Y759723D01*
X1467884Y756334D01*
X1469206Y753142D01*
X1471126Y750269D01*
X1473569Y747826D01*
X1476442Y745907D01*
X1479634Y744585D01*
X1483022Y743910D01*
X1486478D01*
X1489866Y744585D01*
X1493058Y745907D01*
X1495931Y747826D01*
X1498374Y750269D01*
X1500294Y753142D01*
X1501616Y756334D01*
X1502290Y759723D01*
Y763178D01*
X1501616Y766567D01*
X1500294Y769759D01*
X1498374Y772632D01*
X1495931Y775075D01*
X1493058Y776994D01*
X1489866Y778316D01*
X1486478Y778990D01*
D02*
G37*
G36*
X768280Y750080D02*
X759470D01*
Y741270D01*
X768280D01*
Y750080D01*
D02*
G37*
G36*
X746230Y815230D02*
X738905D01*
X727588Y803913D01*
X726465Y802232D01*
X726070Y800250D01*
Y766950D01*
X726465Y764968D01*
X727588Y763288D01*
X748120Y742755D01*
Y741270D01*
X756930D01*
Y750080D01*
X755445D01*
X736430Y769095D01*
Y798105D01*
X746230Y807905D01*
Y815230D01*
D02*
G37*
G36*
X768280Y738730D02*
X759470D01*
Y729920D01*
X768280D01*
Y738730D01*
D02*
G37*
G36*
X756930D02*
X748120D01*
Y729920D01*
X756930D01*
Y738730D01*
D02*
G37*
G36*
X908027Y752540D02*
X904573D01*
X901184Y751866D01*
X897992Y750544D01*
X895119Y748624D01*
X892676Y746181D01*
X890756Y743308D01*
X889434Y740116D01*
X888760Y736728D01*
Y733272D01*
X889434Y729884D01*
X890756Y726692D01*
X892676Y723819D01*
X895119Y721376D01*
X897992Y719456D01*
X901184Y718134D01*
X904573Y717460D01*
X908027D01*
X911416Y718134D01*
X914608Y719456D01*
X917481Y721376D01*
X919924Y723819D01*
X921844Y726692D01*
X923166Y729884D01*
X923840Y733272D01*
Y736728D01*
X923166Y740116D01*
X921844Y743308D01*
X919924Y746181D01*
X917481Y748624D01*
X914608Y750544D01*
X911416Y751866D01*
X908027Y752540D01*
D02*
G37*
G36*
X1420420Y677053D02*
Y669770D01*
X1427703D01*
X1427155Y671816D01*
X1426024Y673774D01*
X1424424Y675374D01*
X1422466Y676505D01*
X1420420Y677053D01*
D02*
G37*
G36*
X1388613Y706630D02*
X1381020D01*
Y699037D01*
X1381232Y699093D01*
X1410555Y669770D01*
X1417880D01*
Y677095D01*
X1388557Y706418D01*
X1388613Y706630D01*
D02*
G37*
G36*
X1417880Y667230D02*
X1410597D01*
X1411145Y665184D01*
X1412276Y663226D01*
X1413876Y661626D01*
X1415834Y660495D01*
X1417880Y659947D01*
Y667230D01*
D02*
G37*
G36*
X1180390Y654000D02*
Y646769D01*
X1187621D01*
X1187078Y648796D01*
X1185954Y650743D01*
X1184364Y652333D01*
X1182416Y653457D01*
X1180390Y654000D01*
D02*
G37*
G36*
X1033480D02*
Y646769D01*
X1040711D01*
X1040168Y648796D01*
X1039044Y650743D01*
X1037454Y652333D01*
X1035506Y653457D01*
X1033480Y654000D01*
D02*
G37*
G36*
X1275790D02*
X1273764Y653457D01*
X1271816Y652333D01*
X1270226Y650743D01*
X1269102Y648796D01*
X1268559Y646769D01*
X1275790D01*
Y654000D01*
D02*
G37*
G36*
X1177850D02*
X1175824Y653457D01*
X1173876Y652333D01*
X1172286Y650743D01*
X1171162Y648796D01*
X1170619Y646769D01*
X1177850D01*
Y654000D01*
D02*
G37*
G36*
X1030940D02*
X1028914Y653457D01*
X1026966Y652333D01*
X1025376Y650743D01*
X1024252Y648796D01*
X1023709Y646769D01*
X1030940D01*
Y654000D01*
D02*
G37*
G36*
X1285561Y644230D02*
X1278330D01*
Y636999D01*
X1280356Y637542D01*
X1282304Y638666D01*
X1283894Y640256D01*
X1285018Y642203D01*
X1285561Y644230D01*
D02*
G37*
G36*
X1030940D02*
X1023709D01*
X1024252Y642203D01*
X1025376Y640256D01*
X1026966Y638666D01*
X1028914Y637542D01*
X1030940Y636999D01*
Y644230D01*
D02*
G37*
G36*
X1131274Y654040D02*
X1129026D01*
X1126854Y653457D01*
X1124906Y652333D01*
X1123316Y650743D01*
X1122192Y648796D01*
X1121610Y646624D01*
Y644375D01*
X1122192Y642203D01*
X1123316Y640256D01*
X1124906Y638666D01*
X1126854Y637542D01*
X1129026Y636959D01*
X1131274D01*
X1133446Y637542D01*
X1135394Y638666D01*
X1136984Y640256D01*
X1138108Y642203D01*
X1138690Y644375D01*
Y646624D01*
X1138108Y648796D01*
X1136984Y650743D01*
X1135394Y652333D01*
X1133446Y653457D01*
X1131274Y654040D01*
D02*
G37*
G36*
X1082304D02*
X1080056D01*
X1077884Y653457D01*
X1075936Y652333D01*
X1074346Y650743D01*
X1073222Y648796D01*
X1072640Y646624D01*
Y644375D01*
X1073222Y642203D01*
X1074346Y640256D01*
X1075936Y638666D01*
X1077884Y637542D01*
X1080056Y636959D01*
X1082304D01*
X1084476Y637542D01*
X1086424Y638666D01*
X1088014Y640256D01*
X1089138Y642203D01*
X1089720Y644375D01*
Y646624D01*
X1089138Y648796D01*
X1088014Y650743D01*
X1086424Y652333D01*
X1084476Y653457D01*
X1082304Y654040D01*
D02*
G37*
G36*
X1514769Y612140D02*
X1514520D01*
Y601870D01*
X1524790D01*
Y602119D01*
X1524004Y605054D01*
X1522484Y607686D01*
X1520336Y609834D01*
X1517704Y611353D01*
X1514769Y612140D01*
D02*
G37*
G36*
X1252670Y608390D02*
X1250330D01*
X1248069Y607784D01*
X1246041Y606614D01*
X1244386Y604959D01*
X1243477Y603385D01*
X1243120D01*
X1241634Y603089D01*
X1240374Y602247D01*
X1181760Y543633D01*
X1180244Y544039D01*
X1177996D01*
X1175824Y543457D01*
X1173876Y542333D01*
X1172286Y540743D01*
X1171162Y538796D01*
X1170580Y536624D01*
Y534375D01*
X1171162Y532203D01*
X1172286Y530256D01*
X1173876Y528666D01*
X1175824Y527542D01*
X1177996Y526960D01*
X1180244D01*
X1182416Y527542D01*
X1184364Y528666D01*
X1185954Y530256D01*
X1187078Y532203D01*
X1187660Y534375D01*
Y536624D01*
X1187254Y538140D01*
X1243299Y594185D01*
X1244386Y594041D01*
X1246041Y592386D01*
X1248069Y591216D01*
X1250330Y590610D01*
X1252670D01*
X1254931Y591216D01*
X1256959Y592386D01*
X1258614Y594041D01*
X1259784Y596069D01*
X1260390Y598330D01*
Y600670D01*
X1259784Y602931D01*
X1258614Y604959D01*
X1256959Y606614D01*
X1254931Y607784D01*
X1252670Y608390D01*
D02*
G37*
G36*
X1524790Y599330D02*
X1514520D01*
Y589060D01*
X1514769D01*
X1517704Y589846D01*
X1520336Y591366D01*
X1522484Y593514D01*
X1524004Y596146D01*
X1524790Y599081D01*
Y599330D01*
D02*
G37*
G36*
X1427745Y667230D02*
X1420420D01*
Y659905D01*
X1422820Y657505D01*
Y579554D01*
X1422526Y579384D01*
X1420866Y577724D01*
X1419693Y575691D01*
X1419111Y573520D01*
X1436889D01*
X1436827Y573752D01*
X1458495Y595420D01*
X1502915D01*
X1504016Y593514D01*
X1506164Y591366D01*
X1508796Y589846D01*
X1511731Y589060D01*
X1511980D01*
Y600600D01*
Y612140D01*
X1511731D01*
X1508796Y611353D01*
X1506164Y609834D01*
X1504016Y607686D01*
X1502915Y605779D01*
X1456350D01*
X1454368Y605385D01*
X1452688Y604263D01*
X1435057Y586632D01*
X1433179Y587409D01*
Y659650D01*
X1432785Y661632D01*
X1431662Y663313D01*
X1427745Y667230D01*
D02*
G37*
G36*
X1436889Y570980D02*
X1429270D01*
Y563361D01*
X1431441Y563943D01*
X1433474Y565116D01*
X1435134Y566776D01*
X1436307Y568809D01*
X1436889Y570980D01*
D02*
G37*
G36*
X1426730D02*
X1419111D01*
X1419693Y568809D01*
X1420866Y566776D01*
X1422526Y565116D01*
X1424559Y563943D01*
X1426730Y563361D01*
Y570980D01*
D02*
G37*
G36*
X1394881Y677090D02*
X1392619D01*
X1390434Y676505D01*
X1388476Y675374D01*
X1386876Y673774D01*
X1385745Y671816D01*
X1385160Y669631D01*
Y667369D01*
X1385745Y665184D01*
X1386876Y663226D01*
X1388476Y661626D01*
X1389865Y660824D01*
Y581165D01*
X1384085D01*
Y563335D01*
X1401915D01*
Y581165D01*
X1397635D01*
Y660824D01*
X1399024Y661626D01*
X1400624Y663226D01*
X1401755Y665184D01*
X1402340Y667369D01*
Y669631D01*
X1401755Y671816D01*
X1400624Y673774D01*
X1399024Y675374D01*
X1397066Y676505D01*
X1394881Y677090D01*
D02*
G37*
G36*
X1327154Y544039D02*
X1324906D01*
X1322733Y543457D01*
X1320786Y542333D01*
X1319196Y540743D01*
X1318412Y539384D01*
X1284678D01*
X1283894Y540743D01*
X1282304Y542333D01*
X1280356Y543457D01*
X1278184Y544039D01*
X1275936D01*
X1273764Y543457D01*
X1271816Y542333D01*
X1270226Y540743D01*
X1269102Y538796D01*
X1268520Y536624D01*
Y534375D01*
X1269102Y532203D01*
X1270226Y530256D01*
X1271816Y528666D01*
X1273764Y527542D01*
X1275936Y526960D01*
X1278184D01*
X1280356Y527542D01*
X1282304Y528666D01*
X1283894Y530256D01*
X1284678Y531615D01*
X1318412D01*
X1319196Y530256D01*
X1320786Y528666D01*
X1322733Y527542D01*
X1324906Y526960D01*
X1327154D01*
X1329326Y527542D01*
X1331273Y528666D01*
X1332864Y530256D01*
X1333988Y532203D01*
X1334570Y534375D01*
Y536624D01*
X1333988Y538796D01*
X1332864Y540743D01*
X1331273Y542333D01*
X1329326Y543457D01*
X1327154Y544039D01*
D02*
G37*
G36*
X1082304D02*
X1080056D01*
X1077884Y543457D01*
X1075936Y542333D01*
X1074346Y540743D01*
X1073562Y539384D01*
X1039828D01*
X1039044Y540743D01*
X1037454Y542333D01*
X1035506Y543457D01*
X1033334Y544039D01*
X1031086D01*
X1028914Y543457D01*
X1026966Y542333D01*
X1025376Y540743D01*
X1024252Y538796D01*
X1023670Y536624D01*
Y534375D01*
X1024252Y532203D01*
X1025376Y530256D01*
X1026966Y528666D01*
X1028914Y527542D01*
X1031086Y526960D01*
X1033334D01*
X1035506Y527542D01*
X1037454Y528666D01*
X1039044Y530256D01*
X1039828Y531615D01*
X1073562D01*
X1074346Y530256D01*
X1075936Y528666D01*
X1077884Y527542D01*
X1080056Y526960D01*
X1082304D01*
X1084476Y527542D01*
X1086424Y528666D01*
X1088014Y530256D01*
X1089138Y532203D01*
X1089720Y534375D01*
Y536624D01*
X1089138Y538796D01*
X1088014Y540743D01*
X1086424Y542333D01*
X1084476Y543457D01*
X1082304Y544039D01*
D02*
G37*
G36*
X1131274D02*
X1129026D01*
X1126854Y543457D01*
X1124906Y542333D01*
X1123316Y540743D01*
X1122192Y538796D01*
X1121610Y536624D01*
Y534375D01*
X1122016Y532859D01*
X1107791Y518635D01*
X1000309D01*
X994714Y524230D01*
X995023Y524767D01*
X995815Y527721D01*
Y530779D01*
X995023Y533733D01*
X993494Y536382D01*
X991332Y538544D01*
X988683Y540073D01*
X985729Y540865D01*
X982671D01*
X979717Y540073D01*
X977068Y538544D01*
X974906Y536382D01*
X973376Y533733D01*
X972585Y530779D01*
Y527721D01*
X973376Y524767D01*
X974906Y522118D01*
X977068Y519956D01*
X979717Y518427D01*
X982671Y517635D01*
X985729D01*
X988683Y518427D01*
X989220Y518736D01*
X995953Y512003D01*
X997213Y511161D01*
X998700Y510865D01*
X1109400D01*
X1110887Y511161D01*
X1112147Y512003D01*
X1127510Y527366D01*
X1129026Y526960D01*
X1131274D01*
X1133446Y527542D01*
X1135394Y528666D01*
X1136984Y530256D01*
X1138108Y532203D01*
X1138690Y534375D01*
Y536624D01*
X1138108Y538796D01*
X1136984Y540743D01*
X1135394Y542333D01*
X1133446Y543457D01*
X1131274Y544039D01*
D02*
G37*
G36*
X688027Y532540D02*
X684573D01*
X681184Y531866D01*
X677992Y530544D01*
X675119Y528624D01*
X672676Y526181D01*
X670756Y523308D01*
X669434Y520116D01*
X668760Y516727D01*
Y513273D01*
X669434Y509884D01*
X670756Y506692D01*
X672676Y503819D01*
X675119Y501376D01*
X677992Y499456D01*
X681184Y498134D01*
X684573Y497460D01*
X688027D01*
X691416Y498134D01*
X694608Y499456D01*
X697481Y501376D01*
X699924Y503819D01*
X701844Y506692D01*
X703166Y509884D01*
X703840Y513273D01*
Y516727D01*
X703166Y520116D01*
X701844Y523308D01*
X699924Y526181D01*
X697481Y528624D01*
X694608Y530544D01*
X691416Y531866D01*
X688027Y532540D01*
D02*
G37*
G36*
X1527561Y507540D02*
X1522439D01*
X1517380Y506739D01*
X1512509Y505156D01*
X1507945Y502831D01*
X1503802Y499820D01*
X1500180Y496198D01*
X1497169Y492055D01*
X1494844Y487491D01*
X1493261Y482620D01*
X1492460Y477561D01*
Y472439D01*
X1493261Y467380D01*
X1494844Y462509D01*
X1497169Y457945D01*
X1500180Y453802D01*
X1503802Y450180D01*
X1507945Y447169D01*
X1512509Y444844D01*
X1517380Y443261D01*
X1522439Y442460D01*
X1527561D01*
X1532620Y443261D01*
X1537491Y444844D01*
X1542055Y447169D01*
X1546198Y450180D01*
X1549820Y453802D01*
X1552831Y457945D01*
X1555156Y462509D01*
X1556739Y467380D01*
X1557540Y472439D01*
Y477561D01*
X1556739Y482620D01*
X1555156Y487491D01*
X1552831Y492055D01*
X1549820Y496198D01*
X1546198Y499820D01*
X1542055Y502831D01*
X1537491Y505156D01*
X1532620Y506739D01*
X1527561Y507540D01*
D02*
G37*
G36*
X627561D02*
X622439D01*
X617380Y506739D01*
X612509Y505156D01*
X607945Y502831D01*
X603802Y499820D01*
X600180Y496198D01*
X597169Y492055D01*
X594844Y487491D01*
X593261Y482620D01*
X592460Y477561D01*
Y472439D01*
X593261Y467380D01*
X594844Y462509D01*
X597169Y457945D01*
X600180Y453802D01*
X603802Y450180D01*
X607945Y447169D01*
X612509Y444844D01*
X617380Y443261D01*
X622439Y442460D01*
X627561D01*
X632620Y443261D01*
X637491Y444844D01*
X642055Y447169D01*
X646198Y450180D01*
X649820Y453802D01*
X652831Y457945D01*
X655156Y462509D01*
X656739Y467380D01*
X657540Y472439D01*
Y477561D01*
X656739Y482620D01*
X655156Y487491D01*
X652831Y492055D01*
X649820Y496198D01*
X646198Y499820D01*
X642055Y502831D01*
X637491Y505156D01*
X632620Y506739D01*
X627561Y507540D01*
D02*
G37*
%LPD*%
G36*
X1164915Y1005822D02*
X1166516Y1003051D01*
X1168850Y1000716D01*
X1171710Y999065D01*
X1174899Y998210D01*
X1178201D01*
X1181390Y999065D01*
X1182590Y999758D01*
X1183837Y998131D01*
X1127422Y941716D01*
X1126580Y940456D01*
X1126284Y938969D01*
Y862190D01*
X1064617Y800523D01*
X1062740Y801301D01*
Y972850D01*
X1064102Y974694D01*
X1064269Y974785D01*
X1119070D01*
X1120556Y975081D01*
X1121816Y975923D01*
X1145453Y999560D01*
X1146310Y999065D01*
X1149499Y998210D01*
X1152801D01*
X1155990Y999065D01*
X1158850Y1000716D01*
X1161184Y1003051D01*
X1162785Y1005822D01*
X1163195Y1005910D01*
X1164505D01*
X1164915Y1005822D01*
D02*
G37*
G36*
X1088716D02*
X1090315Y1003051D01*
X1092650Y1000716D01*
X1095510Y999065D01*
X1098699Y998210D01*
X1102001D01*
X1105190Y999065D01*
X1108050Y1000716D01*
X1110385Y1003051D01*
X1111984Y1005822D01*
X1112395Y1005910D01*
X1113705D01*
X1114116Y1005822D01*
X1115715Y1003051D01*
X1118050Y1000716D01*
X1120910Y999065D01*
X1124099Y998210D01*
X1127401D01*
X1130590Y999065D01*
X1131790Y999758D01*
X1133037Y998131D01*
X1117460Y982555D01*
X1055062D01*
X1054582Y983286D01*
X1054280Y984587D01*
X1069253Y999560D01*
X1070110Y999065D01*
X1073299Y998210D01*
X1076601D01*
X1079790Y999065D01*
X1082650Y1000716D01*
X1084985Y1003051D01*
X1086584Y1005822D01*
X1086995Y1005910D01*
X1088305D01*
X1088716Y1005822D01*
D02*
G37*
G36*
X912577Y852933D02*
X879279Y819635D01*
X833184D01*
X831698Y819339D01*
X830437Y818497D01*
X806253Y794313D01*
X805411Y793052D01*
X805115Y791566D01*
Y749395D01*
X805109Y749393D01*
X802811Y748066D01*
X801917Y747172D01*
X799885Y748014D01*
Y794641D01*
X837673Y832429D01*
X840125Y832161D01*
X840356Y831761D01*
X842011Y830106D01*
X844038Y828935D01*
X846299Y828330D01*
X848640D01*
X850901Y828935D01*
X852928Y830106D01*
X854583Y831761D01*
X855492Y833335D01*
X885670D01*
X887156Y833631D01*
X888417Y834473D01*
X908754Y854810D01*
X911799D01*
X912577Y852933D01*
D02*
G37*
G36*
X971865Y898628D02*
Y895359D01*
X886141Y809635D01*
X837446D01*
X836360Y811667D01*
X836493Y811865D01*
X880888D01*
X882375Y812161D01*
X883635Y813003D01*
X969747Y899115D01*
X969833Y899244D01*
X971865Y898628D01*
D02*
G37*
G36*
X771115Y976891D02*
Y943703D01*
X715503Y888091D01*
X714661Y886831D01*
X714365Y885344D01*
Y676449D01*
X714661Y674962D01*
X715503Y673702D01*
X905452Y483753D01*
X906712Y482911D01*
X908199Y482615D01*
X951728D01*
X952636Y481041D01*
X953261Y480417D01*
X952419Y478385D01*
X906859D01*
X711135Y674109D01*
Y890641D01*
X760217Y939723D01*
X761059Y940983D01*
X761355Y942470D01*
Y966759D01*
X762407Y967366D01*
X763904Y968863D01*
X764962Y970697D01*
X765510Y972741D01*
Y974858D01*
X764962Y976903D01*
X763904Y978737D01*
X762407Y980234D01*
X761801Y980583D01*
X762345Y982615D01*
X765391D01*
X771115Y976891D01*
D02*
G37*
D13*
X1525000Y425000D02*
G03*
X1575000Y475000I-0J50000D01*
G01*
X575000D02*
G03*
X625000Y425000I50000J0D01*
G01*
Y1125000D02*
G03*
X575000Y1075000I0J-50000D01*
G01*
X1575000D02*
G03*
X1525000Y1125000I-50000J-0D01*
G01*
X1243120Y599500D02*
X1251500D01*
X1179120Y535499D02*
X1243120Y599500D01*
X1308000Y616500D02*
X1326030Y634530D01*
X796000Y727000D02*
X906500Y616500D01*
X1308000D01*
X796000Y727000D02*
Y796250D01*
X836970Y837220D01*
X847470D01*
X885670D02*
X911450Y863000D01*
X847470Y837220D02*
X885670D01*
X847470D02*
Y868030D01*
X809000Y740000D02*
Y791566D01*
X833184Y815750D01*
X818250Y756150D02*
Y793632D01*
X830368Y805750D02*
X887750D01*
X833184Y815750D02*
X880888D01*
X818250Y793632D02*
X830368Y805750D01*
X1326030Y634530D02*
Y645499D01*
X920132Y685250D02*
X1188339D01*
X880888Y815750D02*
X967000Y901862D01*
X887750Y805750D02*
X975750Y893750D01*
X996440Y753659D02*
X1052349Y697750D01*
X1080384D01*
X1188339Y685250D02*
X1228090Y645499D01*
X835250Y770132D02*
X920132Y685250D01*
X996440Y753659D02*
Y769242D01*
X1019339Y792140D01*
X1061728D01*
X1130169Y860581D01*
Y938969D01*
X1201950Y1010750D01*
X835250Y770132D02*
Y783600D01*
X1393750Y573000D02*
Y668500D01*
X1393000Y572250D02*
X1393750Y573000D01*
X818250Y756150D02*
X834400Y740000D01*
X975750Y893750D02*
Y958739D01*
X967000Y901862D02*
Y965250D01*
X975750Y958739D02*
X995681Y978670D01*
X967000Y965250D02*
X988750Y987000D01*
X1051200D01*
X1074950Y1010750D01*
X1119070Y978670D02*
X1151150Y1010750D01*
X995681Y978670D02*
X1119070D01*
X747500Y875250D02*
X840250D01*
X847470Y868030D01*
X817940Y905000D02*
X820500D01*
X813590Y900650D02*
X817940Y905000D01*
X747500Y900650D02*
X813590D01*
X707250Y892250D02*
X757470Y942470D01*
X707250Y672500D02*
Y892250D01*
X718250Y676449D02*
X908199Y486500D01*
X718250Y676449D02*
Y885344D01*
X775000Y942094D01*
X905250Y474500D02*
X1002250D01*
X707250Y672500D02*
X905250Y474500D01*
X757470Y942470D02*
Y973800D01*
X908199Y486500D02*
X959750D01*
X767000Y986500D02*
X775000Y978500D01*
Y942094D02*
Y978500D01*
X744770Y986500D02*
X767000D01*
X1277060Y535499D02*
X1326030D01*
X1109400Y514750D02*
X1130150Y535499D01*
X998700Y514750D02*
X1109400D01*
X984200Y529250D02*
X998700Y514750D01*
X844050Y905000D02*
X886050Y863000D01*
X820500Y905000D02*
X844050D01*
X860650Y783600D02*
X886050D01*
X1032210Y535499D02*
X1081180D01*
X886050Y950800D02*
X906000Y970750D01*
X886050Y863000D02*
Y950800D01*
X911450Y885950D02*
X930500Y905000D01*
X911450Y863000D02*
Y885950D01*
X625000Y425000D02*
X1525000D01*
X1575000Y475000D02*
Y1075000D01*
X575000Y475000D02*
Y1075000D01*
X625000Y1125000D02*
X1525000D01*
D14*
X747500Y875250D02*
D03*
Y900650D02*
D03*
X747500Y816500D02*
D03*
Y791100D02*
D03*
X1393750Y668500D02*
D03*
X1419150D02*
D03*
D15*
X930500Y905000D02*
D03*
X820500D02*
D03*
X1326030Y645499D02*
D03*
Y535499D02*
D03*
X1277060Y645499D02*
D03*
Y535499D02*
D03*
X1228090Y645499D02*
D03*
Y535499D02*
D03*
X1179120Y645499D02*
D03*
Y535499D02*
D03*
X1130150Y645499D02*
D03*
Y535499D02*
D03*
X1081180Y645499D02*
D03*
Y535499D02*
D03*
X1032210Y645499D02*
D03*
Y535499D02*
D03*
D16*
X911450Y783600D02*
D03*
X886050D02*
D03*
X860650D02*
D03*
X835250D02*
D03*
Y863000D02*
D03*
X860650D02*
D03*
X886050D02*
D03*
D17*
X911450D02*
D03*
D19*
X1513250Y600600D02*
D03*
D20*
Y626000D02*
D03*
D21*
X906000Y970750D02*
D03*
X852000D02*
D03*
D22*
X1484750Y1006550D02*
D03*
Y761450D02*
D03*
X1015250D02*
D03*
Y1006550D02*
D03*
X686300Y735000D02*
D03*
X906300D02*
D03*
Y515000D02*
D03*
X686300D02*
D03*
D23*
X1049550Y756750D02*
D03*
X1074950D02*
D03*
X1100350D02*
D03*
X1125750D02*
D03*
X1151150D02*
D03*
X1176550D02*
D03*
X1201950D02*
D03*
X1227350D02*
D03*
X1252750D02*
D03*
X1278150D02*
D03*
X1303550D02*
D03*
X1328950D02*
D03*
X1354350D02*
D03*
X1379750D02*
D03*
X1405150D02*
D03*
X1049550Y1010750D02*
D03*
X1074950D02*
D03*
X1100350D02*
D03*
X1125750D02*
D03*
X1151150D02*
D03*
X1176550D02*
D03*
X1201950D02*
D03*
X1227350D02*
D03*
X1252750D02*
D03*
X1278150D02*
D03*
X1303550D02*
D03*
X1328950D02*
D03*
X1354350D02*
D03*
X1379750D02*
D03*
D24*
X1405150D02*
D03*
D25*
X1393000Y572250D02*
D03*
D26*
X1428000D02*
D03*
D27*
X758200Y740000D02*
D03*
D28*
X783600D02*
D03*
X809000D02*
D03*
X834400D02*
D03*
D29*
X984200Y529250D02*
D03*
D30*
X958800D02*
D03*
D31*
X744770Y961100D02*
D03*
Y986500D02*
D03*
X757470Y973800D02*
D03*
D32*
X1251500Y599500D02*
D03*
X847470Y837220D02*
D03*
X853250Y766500D02*
D03*
X1080384Y697750D02*
D03*
X1379750Y707900D02*
D03*
X1002250Y474500D02*
D03*
X959750Y486500D02*
D03*
D33*
X958750Y501250D02*
X1193840D01*
X783600Y676400D02*
Y740000D01*
Y676400D02*
X958750Y501250D01*
X1193840D02*
X1228090Y535499D01*
D34*
X1193369Y631250D02*
X1262810D01*
X1277060Y645499D01*
X1179120D02*
X1193369Y631250D01*
X1277060Y645499D02*
X1339460Y707900D01*
X1051460Y626250D02*
X1159870D01*
X853250Y766500D02*
X894350D01*
X1339460Y707900D02*
X1379750D01*
X894350Y766500D02*
X911450Y783600D01*
X1032210Y645499D02*
X1051460Y626250D01*
X1159870D02*
X1179120Y645499D01*
X788750Y816500D02*
X835250Y863000D01*
X747500Y816500D02*
X788750D01*
X731250Y766950D02*
X758200Y740000D01*
X731250Y800250D02*
X747500Y816500D01*
X731250Y766950D02*
Y800250D01*
X726250Y979620D02*
Y988250D01*
X741500Y1003500D02*
X819250D01*
X726250Y988250D02*
X741500Y1003500D01*
X819250D02*
X852000Y970750D01*
X726250Y979620D02*
X744770Y961100D01*
X1379750Y756750D02*
Y1010750D01*
Y707900D02*
Y756750D01*
Y707900D02*
X1419150Y668500D01*
X1428000Y659650D01*
Y572250D02*
Y659650D01*
Y572250D02*
X1456350Y600600D01*
X1513250D01*
X1405150Y734100D02*
Y756750D01*
Y734100D02*
X1513250Y626000D01*
D35*
X625000Y1075000D02*
D03*
X1525000D02*
D03*
Y475000D02*
D03*
X625000D02*
D03*
M02*
