%TF.GenerationSoftware,Altium Limited,Altium Designer,26.8.1 (31)*%
G04 Layer_Physical_Order=1*
G04 Layer_Color=255*
G04 Board_Origin=0|0*
%FSLAX45Y45*%
%MOMM*%
%TF.SameCoordinates,F87090A8-5265-4E4C-9D90-9F268F9AD881*%
%TF.FilePolarity,Positive*%
%TF.FileFunction,Copper,L1,Top,Signal*%
%TF.Part,Single*%
G01*
G75*
%TA.AperFunction,NonConductor*%
%ADD10C,0.25400*%
%TA.AperFunction,Conductor*%
%ADD11C,0.38100*%
%ADD12C,0.25400*%
%ADD13C,0.50800*%
%TA.AperFunction,ComponentPad*%
%ADD14C,1.21000*%
%ADD15C,1.20000*%
%ADD16C,1.13000*%
%ADD17R,1.13000X1.13000*%
%TA.AperFunction,WasherPad*%
%ADD18C,6.00000*%
%TA.AperFunction,ComponentPad*%
%ADD19C,1.80000*%
%ADD20R,1.80000X1.80000*%
%ADD21C,1.26900*%
%ADD22C,3.00000*%
%ADD23C,2.00000*%
%ADD24R,2.00000X2.00000*%
%ADD25R,1.27500X1.27500*%
%ADD26C,1.27500*%
%ADD27R,1.50800X1.50800*%
%ADD28C,1.50800*%
%ADD29C,1.81500*%
%ADD30R,1.81500X1.81500*%
%ADD31C,1.10000*%
%TA.AperFunction,ViaPad*%
%ADD32C,1.27000*%
G36*
X15250000Y11211153D02*
Y11211153D01*
X15269971Y11210309D01*
X15310252Y11207669D01*
X15369475Y11195889D01*
X15426654Y11176480D01*
X15480809Y11149773D01*
X15531015Y11116226D01*
X15576413Y11076413D01*
X15616226Y11031015D01*
X15649773Y10980809D01*
X15676480Y10926654D01*
X15695889Y10869475D01*
X15707669Y10810253D01*
X15711504Y10751758D01*
X15711153Y10750000D01*
Y4770319D01*
X15711153Y4770089D01*
X15711153Y4750000D01*
X15710309Y4730029D01*
X15707669Y4689747D01*
X15695889Y4630524D01*
X15676479Y4573346D01*
X15649773Y4519191D01*
X15616226Y4468984D01*
X15576413Y4423587D01*
X15531015Y4383774D01*
X15480809Y4350227D01*
X15426653Y4323520D01*
X15369475Y4304111D01*
X15310252Y4292331D01*
X15251758Y4288497D01*
X15250000Y4288846D01*
X6250000D01*
X6248242Y4288497D01*
X6189747Y4292331D01*
X6130525Y4304111D01*
X6073347Y4323520D01*
X6019191Y4350227D01*
X5968985Y4383774D01*
X5923587Y4423587D01*
X5883774Y4468984D01*
X5850227Y4519191D01*
X5823520Y4573346D01*
X5804111Y4630524D01*
X5792331Y4689747D01*
X5789691Y4730029D01*
X5788847Y4750000D01*
X5788847Y4750000D01*
X5788846Y4770089D01*
Y10750000D01*
X5788497Y10751758D01*
X5792331Y10810253D01*
X5804111Y10869475D01*
X5823520Y10926654D01*
X5850227Y10980809D01*
X5883774Y11031015D01*
X5923587Y11076413D01*
X5968985Y11116226D01*
X6019191Y11149773D01*
X6073346Y11176480D01*
X6130524Y11195889D01*
X6189747Y11207669D01*
X6230029Y11210309D01*
X6250000Y11211153D01*
Y11211153D01*
X6270027Y11211154D01*
X15229973D01*
X15250000Y11211153D01*
D02*
G37*
%LPC*%
G36*
X15275610Y11075400D02*
X15224390D01*
X15173802Y11067388D01*
X15125090Y11051560D01*
X15079453Y11028307D01*
X15038016Y10998201D01*
X15001799Y10961984D01*
X14971693Y10920547D01*
X14948441Y10874910D01*
X14932613Y10826198D01*
X14924600Y10775610D01*
Y10724391D01*
X14932613Y10673802D01*
X14948441Y10625090D01*
X14971693Y10579453D01*
X15001799Y10538016D01*
X15038016Y10501799D01*
X15079453Y10471693D01*
X15125090Y10448440D01*
X15173802Y10432613D01*
X15224390Y10424600D01*
X15275610D01*
X15326198Y10432613D01*
X15374910Y10448440D01*
X15420547Y10471693D01*
X15461984Y10501799D01*
X15498201Y10538016D01*
X15528307Y10579453D01*
X15551559Y10625090D01*
X15567387Y10673802D01*
X15575400Y10724391D01*
Y10775610D01*
X15567387Y10826198D01*
X15551559Y10874910D01*
X15528307Y10920547D01*
X15498201Y10961984D01*
X15461984Y10998201D01*
X15420547Y11028307D01*
X15374910Y11051560D01*
X15326198Y11067388D01*
X15275610Y11075400D01*
D02*
G37*
G36*
X6275609D02*
X6224390D01*
X6173802Y11067388D01*
X6125090Y11051560D01*
X6079453Y11028307D01*
X6038016Y10998201D01*
X6001799Y10961984D01*
X5971693Y10920547D01*
X5948440Y10874910D01*
X5932612Y10826198D01*
X5924600Y10775610D01*
Y10724391D01*
X5932612Y10673802D01*
X5948440Y10625090D01*
X5971693Y10579453D01*
X6001799Y10538016D01*
X6038016Y10501799D01*
X6079453Y10471693D01*
X6125090Y10448440D01*
X6173802Y10432613D01*
X6224390Y10424600D01*
X6275609D01*
X6326198Y10432613D01*
X6374910Y10448440D01*
X6420547Y10471693D01*
X6461984Y10501799D01*
X6498201Y10538016D01*
X6528307Y10579453D01*
X6551560Y10625090D01*
X6567387Y10673802D01*
X6575400Y10724391D01*
Y10775610D01*
X6567387Y10826198D01*
X6551560Y10874910D01*
X6528307Y10920547D01*
X6498201Y10961984D01*
X6461984Y10998201D01*
X6420547Y11028307D01*
X6374910Y11051560D01*
X6326198Y11067388D01*
X6275609Y11075400D01*
D02*
G37*
G36*
X14864775Y10240904D02*
X14830225D01*
X14796338Y10234164D01*
X14764417Y10220942D01*
X14735689Y10201746D01*
X14711258Y10177315D01*
X14692062Y10148587D01*
X14678841Y10116667D01*
X14672099Y10082780D01*
Y10048229D01*
X14678841Y10014342D01*
X14692062Y9982421D01*
X14711258Y9953694D01*
X14735689Y9929262D01*
X14764417Y9910067D01*
X14796338Y9896845D01*
X14830225Y9890104D01*
X14864775D01*
X14898662Y9896845D01*
X14930583Y9910067D01*
X14959311Y9929262D01*
X14983742Y9953694D01*
X15002937Y9982421D01*
X15016159Y10014342D01*
X15022900Y10048229D01*
Y10082780D01*
X15016159Y10116667D01*
X15002937Y10148587D01*
X14983742Y10177315D01*
X14959311Y10201746D01*
X14930583Y10220942D01*
X14898662Y10234164D01*
X14864775Y10240904D01*
D02*
G37*
G36*
X8532700Y9796081D02*
Y9720200D01*
X8608581D01*
X8602795Y9741795D01*
X8591098Y9762055D01*
X8574555Y9778598D01*
X8554295Y9790295D01*
X8532700Y9796081D01*
D02*
G37*
G36*
X10169775Y10240904D02*
X10135225D01*
X10101338Y10234164D01*
X10069417Y10220942D01*
X10040689Y10201746D01*
X10016258Y10177315D01*
X9997063Y10148587D01*
X9983841Y10116667D01*
X9977100Y10082780D01*
Y10048229D01*
X9983841Y10014342D01*
X9997063Y9982421D01*
X10016258Y9953694D01*
X10040689Y9929262D01*
X10040832Y9929167D01*
X10034668Y9908847D01*
X9887500D01*
X9872634Y9905890D01*
X9860032Y9897469D01*
X9642531Y9679968D01*
X9634111Y9667366D01*
X9631153Y9652500D01*
Y9034709D01*
X9215173Y8618729D01*
X9196400Y8626505D01*
Y8711900D01*
X9153346D01*
Y8843409D01*
X9278599Y8968662D01*
X9293757Y8964600D01*
X9316243D01*
X9337963Y8970420D01*
X9357437Y8981663D01*
X9373337Y8997563D01*
X9384580Y9017037D01*
X9390400Y9038757D01*
Y9061243D01*
X9384580Y9082963D01*
X9373337Y9102437D01*
X9357437Y9118337D01*
X9337963Y9129580D01*
X9316243Y9135400D01*
X9293757D01*
X9272037Y9129580D01*
X9252563Y9118337D01*
X9236663Y9102437D01*
X9225420Y9082963D01*
X9219600Y9061243D01*
Y9038757D01*
X9223662Y9023599D01*
X9087031Y8886969D01*
X9078610Y8874366D01*
X9075653Y8859500D01*
Y8711900D01*
X9032600D01*
Y8603037D01*
X8840606Y8411043D01*
X8554921D01*
X8545834Y8426782D01*
X8529282Y8443334D01*
X8513543Y8452421D01*
Y8586567D01*
X8533863Y8592011D01*
X8540964Y8579712D01*
X8556212Y8564464D01*
X8574888Y8553681D01*
X8595718Y8548100D01*
X8617282D01*
X8638112Y8553681D01*
X8656788Y8564464D01*
X8672036Y8579712D01*
X8682819Y8598388D01*
X8688400Y8619218D01*
Y8640782D01*
X8682819Y8661612D01*
X8672036Y8680288D01*
X8656788Y8695536D01*
X8638112Y8706319D01*
X8617282Y8711900D01*
X8595718D01*
X8574888Y8706319D01*
X8556212Y8695536D01*
X8540964Y8680288D01*
X8533863Y8667989D01*
X8513543Y8673434D01*
Y8680304D01*
X8510586Y8695170D01*
X8502165Y8707773D01*
X8429969Y8779968D01*
X8417366Y8788389D01*
X8402500Y8791346D01*
X7551761D01*
X7543737Y8805244D01*
X7527744Y8821237D01*
X7508156Y8832546D01*
X7486309Y8838400D01*
X7463691D01*
X7441844Y8832546D01*
X7422256Y8821237D01*
X7406263Y8805244D01*
X7394954Y8785656D01*
X7389100Y8763809D01*
Y8741191D01*
X7394954Y8719344D01*
X7406263Y8699756D01*
X7422256Y8683763D01*
X7441844Y8672454D01*
X7463691Y8666600D01*
X7486309D01*
X7508156Y8672454D01*
X7527744Y8683763D01*
X7543737Y8699756D01*
X7551761Y8713653D01*
X8292952D01*
X8298583Y8702637D01*
X8300009Y8693333D01*
X8286964Y8680288D01*
X8276181Y8661612D01*
X8271114Y8642700D01*
X8352500D01*
Y8630000D01*
X8365200D01*
Y8548614D01*
X8384112Y8553681D01*
X8402788Y8564464D01*
X8415530Y8577206D01*
X8425888Y8575399D01*
X8435850Y8569926D01*
Y8452421D01*
X8420110Y8443334D01*
X8403559Y8426782D01*
X8394471Y8411043D01*
X8369696D01*
X8354830Y8408086D01*
X8342228Y8399665D01*
X7932532Y7989969D01*
X7924111Y7977366D01*
X7921154Y7962500D01*
Y7486136D01*
X7900834Y7477719D01*
X7897893Y7480660D01*
X7874907Y7493930D01*
X7849271Y7500800D01*
X7822730D01*
X7797093Y7493930D01*
X7774108Y7480660D01*
X7755340Y7461892D01*
X7742070Y7438907D01*
X7735200Y7413270D01*
Y7386729D01*
X7742070Y7361093D01*
X7755340Y7338107D01*
X7774108Y7319340D01*
X7790679Y7309772D01*
Y6764000D01*
X7794129Y6746657D01*
X7803953Y6731954D01*
X9555454Y4980453D01*
X9570031Y4970713D01*
X9570169Y4970013D01*
X9570588Y4949825D01*
X9563186Y4947842D01*
X9542914Y4936138D01*
X9526362Y4919586D01*
X9517275Y4903846D01*
X9098077D01*
X9047644Y4954280D01*
X9056061Y4974600D01*
X9080275D01*
X9114162Y4981341D01*
X9146083Y4994563D01*
X9174811Y5013758D01*
X9199242Y5038189D01*
X9218437Y5066917D01*
X9231659Y5098838D01*
X9238400Y5132725D01*
Y5167275D01*
X9231659Y5201162D01*
X9218437Y5233083D01*
X9199242Y5261811D01*
X9174811Y5286242D01*
X9146083Y5305437D01*
X9114162Y5318659D01*
X9080275Y5325400D01*
X9045725D01*
X9011838Y5318659D01*
X8979917Y5305437D01*
X8951189Y5286242D01*
X8926758Y5261811D01*
X8907563Y5233083D01*
X8894341Y5201162D01*
X8887600Y5167275D01*
Y5143061D01*
X8867280Y5134644D01*
X7221346Y6780577D01*
Y8837351D01*
X7370414Y8986418D01*
X7393078Y8980345D01*
X7394954Y8973344D01*
X7406263Y8953756D01*
X7422256Y8937763D01*
X7441844Y8926454D01*
X7463691Y8920600D01*
X7486309D01*
X7508156Y8926454D01*
X7527744Y8937763D01*
X7543737Y8953756D01*
X7551761Y8967653D01*
X8135901D01*
X8150767Y8970610D01*
X8160474Y8977096D01*
X8172037Y8970420D01*
X8193757Y8964600D01*
X8216243D01*
X8237963Y8970420D01*
X8257437Y8981663D01*
X8273337Y8997563D01*
X8281183Y9011153D01*
X8424409D01*
X8782019Y8653544D01*
X8778600Y8640782D01*
Y8619218D01*
X8784181Y8598388D01*
X8794964Y8579712D01*
X8810212Y8564464D01*
X8828888Y8553681D01*
X8849718Y8548100D01*
X8871282D01*
X8892112Y8553681D01*
X8910788Y8564464D01*
X8926036Y8579712D01*
X8936819Y8598388D01*
X8942400Y8619218D01*
Y8640782D01*
X8936819Y8661612D01*
X8926036Y8680288D01*
X8910788Y8695536D01*
X8899346Y8702142D01*
Y9491909D01*
X9030782Y9623345D01*
X9048303Y9618650D01*
X9071697D01*
X9094295Y9624705D01*
X9114555Y9636402D01*
X9131098Y9652945D01*
X9142795Y9673205D01*
X9148850Y9695803D01*
Y9719197D01*
X9142795Y9741795D01*
X9131098Y9762055D01*
X9114555Y9778598D01*
X9094295Y9790295D01*
X9071697Y9796350D01*
X9048303D01*
X9025705Y9790295D01*
X9005445Y9778598D01*
X8988902Y9762055D01*
X8977205Y9741795D01*
X8971150Y9719197D01*
Y9695803D01*
X8975845Y9678282D01*
X8833031Y9535469D01*
X8824610Y9522866D01*
X8821653Y9508000D01*
Y8750333D01*
X8802880Y8742557D01*
X8467969Y9077469D01*
X8455366Y9085889D01*
X8440500Y9088846D01*
X8281183D01*
X8273337Y9102437D01*
X8257437Y9118337D01*
X8237963Y9129580D01*
X8216243Y9135400D01*
X8193757D01*
X8172037Y9129580D01*
X8152563Y9118337D01*
X8136663Y9102437D01*
X8125420Y9082963D01*
X8119600Y9061243D01*
Y9045346D01*
X7551761D01*
X7543737Y9059244D01*
X7527744Y9075237D01*
X7508156Y9086546D01*
X7501155Y9088422D01*
X7495082Y9111086D01*
X7777469Y9393472D01*
X7785889Y9406075D01*
X7788846Y9420941D01*
Y9785000D01*
X7785889Y9799866D01*
X7777469Y9812469D01*
X7697468Y9892469D01*
X7684866Y9900890D01*
X7670000Y9903847D01*
X7518109D01*
X7512036Y9914367D01*
X7497067Y9929336D01*
X7478733Y9939921D01*
X7458285Y9945400D01*
X7437115D01*
X7423825Y9941839D01*
X7413307Y9960057D01*
X7436454Y9983205D01*
X8171046D01*
X8431975Y9722276D01*
X8431419Y9720200D01*
X8507300D01*
Y9796081D01*
X8505224Y9795525D01*
X8229125Y10071625D01*
X8212321Y10082853D01*
X8192500Y10086795D01*
X7415000D01*
X7395179Y10082853D01*
X7378375Y10071625D01*
X7225875Y9919125D01*
X7214647Y9902321D01*
X7210705Y9882500D01*
Y9796200D01*
X7214647Y9776379D01*
X7225875Y9759575D01*
X7361750Y9623700D01*
X7435000D01*
Y9696950D01*
X7314295Y9817654D01*
Y9861046D01*
X7352643Y9899393D01*
X7370861Y9888875D01*
X7367300Y9875585D01*
Y9854415D01*
X7372779Y9833967D01*
X7383364Y9815633D01*
X7398333Y9800664D01*
X7416667Y9790079D01*
X7437115Y9784600D01*
X7458285D01*
X7478733Y9790079D01*
X7495076Y9799515D01*
X7502954Y9793254D01*
X7509215Y9785376D01*
X7499779Y9769033D01*
X7494300Y9748585D01*
Y9727415D01*
X7499779Y9706967D01*
X7509215Y9690624D01*
X7502954Y9682746D01*
X7495076Y9676485D01*
X7478733Y9685921D01*
X7460400Y9690833D01*
Y9611000D01*
Y9531167D01*
X7478733Y9536079D01*
X7497067Y9546664D01*
X7512036Y9561633D01*
X7515533Y9567691D01*
X7535853Y9562247D01*
Y9440791D01*
X7045031Y8949968D01*
X7036611Y8937366D01*
X7033653Y8922500D01*
Y7446886D01*
X7013333Y7440721D01*
X6999242Y7461811D01*
X6974811Y7486242D01*
X6946083Y7505437D01*
X6914162Y7518659D01*
X6880275Y7525400D01*
X6845725D01*
X6811838Y7518659D01*
X6779917Y7505437D01*
X6751189Y7486242D01*
X6726758Y7461811D01*
X6707563Y7433083D01*
X6694341Y7401162D01*
X6687600Y7367275D01*
Y7332725D01*
X6694341Y7298838D01*
X6707563Y7266917D01*
X6726758Y7238189D01*
X6751189Y7213758D01*
X6779917Y7194563D01*
X6811838Y7181341D01*
X6845725Y7174600D01*
X6880275D01*
X6914162Y7181341D01*
X6946083Y7194563D01*
X6974811Y7213758D01*
X6999242Y7238189D01*
X7013333Y7259279D01*
X7033653Y7253115D01*
Y6725000D01*
X7036611Y6710134D01*
X7045031Y6697531D01*
X9025031Y4717531D01*
X9037634Y4709110D01*
X9052500Y4706153D01*
X9942275D01*
X9951362Y4690414D01*
X9967914Y4673862D01*
X9988186Y4662158D01*
X10010796Y4656100D01*
X10034204D01*
X10056814Y4662158D01*
X10077086Y4673862D01*
X10093638Y4690414D01*
X10105341Y4710686D01*
X10111400Y4733296D01*
Y4756704D01*
X10105341Y4779314D01*
X10093638Y4799586D01*
X10077086Y4816138D01*
X10056814Y4827841D01*
X10034204Y4833900D01*
X10010796D01*
X9988186Y4827841D01*
X9967914Y4816138D01*
X9951362Y4799586D01*
X9942275Y4783846D01*
X9670807D01*
X9662390Y4804166D01*
X9668638Y4810414D01*
X9680342Y4830686D01*
X9686400Y4853296D01*
Y4876704D01*
X9680342Y4899314D01*
X9668638Y4919586D01*
X9652086Y4936138D01*
X9649550Y4937602D01*
X9642381Y4964627D01*
X9643866Y4967179D01*
X11938404D01*
X11955747Y4970629D01*
X11970450Y4980453D01*
X12261719Y5271722D01*
X12269656Y5269596D01*
X12292142D01*
X12313862Y5275415D01*
X12333336Y5286658D01*
X12349236Y5302559D01*
X12360479Y5322032D01*
X12366299Y5343752D01*
Y5366238D01*
X12360479Y5387958D01*
X12349236Y5407432D01*
X12333336Y5423332D01*
X12313862Y5434575D01*
X12292142Y5440395D01*
X12269656D01*
X12247936Y5434575D01*
X12228462Y5423332D01*
X12212562Y5407432D01*
X12201319Y5387958D01*
X12195499Y5366238D01*
Y5343752D01*
X12197626Y5335815D01*
X11919631Y5057821D01*
X9606273D01*
X9506517Y5157577D01*
X9514293Y5176350D01*
X9704150D01*
Y5408650D01*
X9471850D01*
Y5218793D01*
X9453077Y5211017D01*
X7881321Y6782773D01*
Y7309772D01*
X7897893Y7319340D01*
X7900834Y7322281D01*
X7921154Y7313864D01*
Y7270000D01*
X7924111Y7255134D01*
X7932532Y7242531D01*
X9037531Y6137532D01*
X9050134Y6129111D01*
X9065000Y6126154D01*
X13080000D01*
X13094865Y6129111D01*
X13107469Y6137532D01*
X13287767Y6317830D01*
X13296188Y6330433D01*
X13299146Y6345299D01*
Y6378812D01*
X13312735Y6386658D01*
X13328636Y6402558D01*
X13339879Y6422032D01*
X13345699Y6443752D01*
Y6466238D01*
X13339879Y6487958D01*
X13328636Y6507432D01*
X13312735Y6523332D01*
X13293262Y6534575D01*
X13271542Y6540395D01*
X13249055D01*
X13227335Y6534575D01*
X13207861Y6523332D01*
X13191962Y6507432D01*
X13180719Y6487958D01*
X13174899Y6466238D01*
Y6443752D01*
X13180719Y6422032D01*
X13191962Y6402558D01*
X13207861Y6386658D01*
X13218530Y6380499D01*
X13220116Y6360053D01*
X13063908Y6203847D01*
X11638936D01*
X11632772Y6224167D01*
X11635329Y6225875D01*
X11778499Y6369046D01*
Y6442295D01*
X11705250D01*
X11577250Y6314295D01*
X10536049D01*
X10408049Y6442295D01*
X10334800D01*
Y6369045D01*
X10477970Y6225875D01*
X10480527Y6224167D01*
X10474363Y6203847D01*
X9081091D01*
X7998847Y7286091D01*
Y7319864D01*
X8019167Y7328281D01*
X8028108Y7319340D01*
X8051093Y7306069D01*
X8076730Y7299200D01*
X8103271D01*
X8128907Y7306069D01*
X8151893Y7319340D01*
X8170660Y7338107D01*
X8183931Y7361093D01*
X8190800Y7386729D01*
Y7413270D01*
X8183931Y7438907D01*
X8170660Y7461892D01*
X8151893Y7480660D01*
X8128907Y7493930D01*
X8128847Y7493947D01*
Y7539429D01*
X8129962Y7539881D01*
X8149167Y7542809D01*
X8155031Y7534031D01*
X8250101Y7438962D01*
X8250070Y7438907D01*
X8243200Y7413270D01*
Y7386729D01*
X8250070Y7361093D01*
X8263340Y7338107D01*
X8282108Y7319340D01*
X8305093Y7306069D01*
X8330730Y7299200D01*
X8357271D01*
X8382907Y7306069D01*
X8405893Y7319340D01*
X8424660Y7338107D01*
X8437931Y7361093D01*
X8444800Y7386729D01*
Y7413270D01*
X8437931Y7438907D01*
X8424660Y7461892D01*
X8405893Y7480660D01*
X8382907Y7493930D01*
X8357271Y7500800D01*
X8330730D01*
X8305093Y7493930D01*
X8305038Y7493899D01*
X8221347Y7577591D01*
Y7920226D01*
X8319774Y8018654D01*
X8877500D01*
X8892366Y8021611D01*
X8904969Y8030031D01*
X9784968Y8910031D01*
X9793389Y8922634D01*
X9796346Y8937500D01*
Y9571295D01*
X9907829Y9682778D01*
X9926602Y9675001D01*
Y7959504D01*
X9928573Y7949594D01*
X9934187Y7941192D01*
X9942589Y7935578D01*
X9952500Y7933607D01*
X10124102D01*
X10131878Y7914833D01*
X9936931Y7719886D01*
X9928510Y7707284D01*
X9925553Y7692418D01*
Y7536591D01*
X9928510Y7521725D01*
X9936931Y7509122D01*
X10496022Y6950031D01*
X10508625Y6941610D01*
X10523491Y6938653D01*
X10723617D01*
X10732704Y6922914D01*
X10743952Y6911666D01*
X10736450Y6891346D01*
X9217407D01*
X8551685Y7557068D01*
X8557758Y7579732D01*
X8566814Y7582158D01*
X8587086Y7593862D01*
X8603638Y7610414D01*
X8605249Y7613205D01*
X8943500D01*
X8963321Y7617147D01*
X8980125Y7628375D01*
X9105849Y7754100D01*
X9125282D01*
X9146112Y7759681D01*
X9164788Y7770464D01*
X9180036Y7785712D01*
X9190819Y7804388D01*
X9196400Y7825218D01*
Y7846782D01*
X9190819Y7867612D01*
X9180036Y7886288D01*
X9164788Y7901536D01*
X9146112Y7912319D01*
X9125282Y7917900D01*
X9103718D01*
X9082888Y7912319D01*
X9064212Y7901536D01*
X9048964Y7886288D01*
X9038181Y7867612D01*
X9032600Y7846782D01*
Y7827350D01*
X8922045Y7716795D01*
X8605249D01*
X8603638Y7719586D01*
X8588126Y7735097D01*
X8588062Y7736951D01*
X8598797Y7754100D01*
X8617282D01*
X8638112Y7759681D01*
X8656788Y7770464D01*
X8672036Y7785712D01*
X8678642Y7797154D01*
X8788358D01*
X8794964Y7785712D01*
X8810212Y7770464D01*
X8828888Y7759681D01*
X8849718Y7754100D01*
X8871282D01*
X8892112Y7759681D01*
X8910788Y7770464D01*
X8926036Y7785712D01*
X8936819Y7804388D01*
X8942400Y7825218D01*
Y7846782D01*
X8936819Y7867612D01*
X8926036Y7886288D01*
X8910788Y7901536D01*
X8892112Y7912319D01*
X8871282Y7917900D01*
X8849718D01*
X8828888Y7912319D01*
X8810212Y7901536D01*
X8794964Y7886288D01*
X8788358Y7874847D01*
X8678642D01*
X8672036Y7886288D01*
X8656788Y7901536D01*
X8638112Y7912319D01*
X8617282Y7917900D01*
X8595718D01*
X8574888Y7912319D01*
X8556212Y7901536D01*
X8540964Y7886288D01*
X8530181Y7867612D01*
X8524600Y7846782D01*
Y7825218D01*
X8530181Y7804388D01*
X8540964Y7785712D01*
X8554497Y7772179D01*
X8554332Y7770455D01*
X8544204Y7753900D01*
X8520796D01*
X8498186Y7747842D01*
X8477914Y7736138D01*
X8461362Y7719586D01*
X8449658Y7699314D01*
X8447232Y7690258D01*
X8424568Y7684185D01*
X8391346Y7717407D01*
Y7763858D01*
X8402788Y7770464D01*
X8418036Y7785712D01*
X8428819Y7804388D01*
X8434400Y7825218D01*
Y7846782D01*
X8428819Y7867612D01*
X8418036Y7886288D01*
X8402788Y7901536D01*
X8384112Y7912319D01*
X8363282Y7917900D01*
X8341718D01*
X8320888Y7912319D01*
X8302212Y7901536D01*
X8286964Y7886288D01*
X8276181Y7867612D01*
X8270600Y7846782D01*
Y7825218D01*
X8276181Y7804388D01*
X8286964Y7785712D01*
X8302212Y7770464D01*
X8313653Y7763858D01*
Y7701316D01*
X8316610Y7686450D01*
X8325031Y7673847D01*
X9173848Y6825031D01*
X9186450Y6816610D01*
X9201316Y6813653D01*
X11867304D01*
X12199561Y6481396D01*
X12195499Y6466238D01*
Y6443752D01*
X12201319Y6422032D01*
X12212562Y6402558D01*
X12228462Y6386658D01*
X12232001Y6384615D01*
X12226556Y6364295D01*
X11955149D01*
X11877148Y6442295D01*
X11803899D01*
Y6369045D01*
X11897070Y6275875D01*
X11913873Y6264647D01*
X11933694Y6260705D01*
X12628104D01*
X12647925Y6264647D01*
X12664728Y6275875D01*
X12757899Y6369046D01*
Y6442295D01*
X12684650D01*
X12606649Y6364295D01*
X12335242D01*
X12329797Y6384615D01*
X12333336Y6386658D01*
X12349236Y6402558D01*
X12360479Y6422032D01*
X12366299Y6443752D01*
Y6466238D01*
X12360479Y6487958D01*
X12349236Y6507432D01*
X12333336Y6523332D01*
X12313862Y6534575D01*
X12292142Y6540395D01*
X12269656D01*
X12254498Y6536334D01*
X11910863Y6879968D01*
X11898260Y6888389D01*
X11883394Y6891346D01*
X10871234D01*
X10863732Y6911666D01*
X10874980Y6922914D01*
X10886684Y6943186D01*
X10892742Y6965796D01*
Y6989204D01*
X10886684Y7011814D01*
X10874980Y7032086D01*
X10858428Y7048638D01*
X10838156Y7060341D01*
X10815546Y7066400D01*
X10792138D01*
X10769528Y7060341D01*
X10749256Y7048638D01*
X10732704Y7032086D01*
X10723617Y7016346D01*
X10539581D01*
X10137144Y7418784D01*
X10145561Y7439104D01*
X10169775D01*
X10203662Y7445845D01*
X10235583Y7459067D01*
X10264311Y7478262D01*
X10288742Y7502693D01*
X10307937Y7531421D01*
X10321159Y7563342D01*
X10327900Y7597229D01*
Y7631780D01*
X10321159Y7665666D01*
X10307937Y7697587D01*
X10288742Y7726315D01*
X10264311Y7750746D01*
X10235583Y7769942D01*
X10203662Y7783164D01*
X10169775Y7789904D01*
X10145561D01*
X10137144Y7810224D01*
X10209477Y7882558D01*
X10617282D01*
X10632147Y7885515D01*
X10644750Y7893936D01*
X11329155Y8578341D01*
X11337576Y8590943D01*
X11340533Y8605809D01*
Y9373600D01*
X11962530Y9995597D01*
X11971097Y9990650D01*
X12002991Y9982104D01*
X12036009D01*
X12067902Y9990650D01*
X12096497Y10007159D01*
X12119845Y10030507D01*
X12135845Y10058220D01*
X12139947Y10059102D01*
X12153053D01*
X12157155Y10058220D01*
X12173155Y10030507D01*
X12196503Y10007159D01*
X12225097Y9990650D01*
X12256991Y9982104D01*
X12290009D01*
X12321902Y9990650D01*
X12350497Y10007159D01*
X12373845Y10030507D01*
X12389845Y10058220D01*
X12393947Y10059102D01*
X12407053D01*
X12411155Y10058220D01*
X12427155Y10030507D01*
X12450503Y10007159D01*
X12479097Y9990650D01*
X12510991Y9982104D01*
X12544009D01*
X12575902Y9990650D01*
X12604497Y10007159D01*
X12627845Y10030507D01*
X12643845Y10058220D01*
X12647947Y10059102D01*
X12661053D01*
X12665155Y10058220D01*
X12681155Y10030507D01*
X12704503Y10007159D01*
X12733097Y9990650D01*
X12764991Y9982104D01*
X12798009D01*
X12829903Y9990650D01*
X12858498Y10007159D01*
X12881845Y10030507D01*
X12897845Y10058220D01*
X12901947Y10059102D01*
X12915053D01*
X12919154Y10058220D01*
X12935155Y10030507D01*
X12958504Y10007159D01*
X12987097Y9990650D01*
X13018991Y9982104D01*
X13052010D01*
X13083902Y9990650D01*
X13112497Y10007159D01*
X13135844Y10030507D01*
X13151845Y10058220D01*
X13155946Y10059102D01*
X13169054D01*
X13173155Y10058220D01*
X13189156Y10030507D01*
X13212503Y10007159D01*
X13241096Y9990650D01*
X13272990Y9982104D01*
X13306009D01*
X13337901Y9990650D01*
X13366496Y10007159D01*
X13389845Y10030507D01*
X13405846Y10058220D01*
X13409947Y10059102D01*
X13423053D01*
X13427155Y10058220D01*
X13443155Y10030507D01*
X13466502Y10007159D01*
X13495097Y9990650D01*
X13526991Y9982104D01*
X13560008D01*
X13591902Y9990650D01*
X13620497Y10007159D01*
X13643845Y10030507D01*
X13659845Y10058220D01*
X13663947Y10059102D01*
X13677052D01*
X13681155Y10058220D01*
X13697156Y10030507D01*
X13720503Y10007159D01*
X13745705Y9992609D01*
Y7682400D01*
X13720503Y7667849D01*
X13697156Y7644502D01*
X13681155Y7616789D01*
X13677052Y7615907D01*
X13663947D01*
X13659845Y7616789D01*
X13643845Y7644502D01*
X13620497Y7667849D01*
X13591902Y7684359D01*
X13560008Y7692904D01*
X13526991D01*
X13495097Y7684359D01*
X13466502Y7667849D01*
X13443155Y7644502D01*
X13427155Y7616789D01*
X13423053Y7615907D01*
X13409947D01*
X13405846Y7616789D01*
X13389845Y7644502D01*
X13366496Y7667849D01*
X13337901Y7684359D01*
X13306009Y7692904D01*
X13272990D01*
X13241096Y7684359D01*
X13212503Y7667849D01*
X13189156Y7644502D01*
X13173155Y7616789D01*
X13169054Y7615907D01*
X13155946D01*
X13151845Y7616789D01*
X13135844Y7644502D01*
X13112497Y7667849D01*
X13083902Y7684359D01*
X13052010Y7692904D01*
X13018991D01*
X12987097Y7684359D01*
X12958504Y7667849D01*
X12935155Y7644502D01*
X12919154Y7616789D01*
X12915053Y7615907D01*
X12901947D01*
X12897845Y7616789D01*
X12881845Y7644502D01*
X12858498Y7667849D01*
X12829903Y7684359D01*
X12798009Y7692904D01*
X12764991D01*
X12733097Y7684359D01*
X12704503Y7667849D01*
X12681155Y7644502D01*
X12665155Y7616789D01*
X12661053Y7615907D01*
X12647947D01*
X12643845Y7616789D01*
X12627845Y7644502D01*
X12604497Y7667849D01*
X12575902Y7684359D01*
X12544009Y7692904D01*
X12510991D01*
X12479097Y7684359D01*
X12450503Y7667849D01*
X12427155Y7644502D01*
X12411155Y7616789D01*
X12407053Y7615907D01*
X12393947D01*
X12389845Y7616789D01*
X12373845Y7644502D01*
X12350497Y7667849D01*
X12321902Y7684359D01*
X12290009Y7692904D01*
X12256991D01*
X12225097Y7684359D01*
X12196503Y7667849D01*
X12173155Y7644502D01*
X12157155Y7616789D01*
X12153053Y7615907D01*
X12139947D01*
X12135845Y7616789D01*
X12119845Y7644502D01*
X12096497Y7667849D01*
X12067902Y7684359D01*
X12036009Y7692904D01*
X12002991D01*
X11971097Y7684359D01*
X11942503Y7667849D01*
X11919155Y7644502D01*
X11903155Y7616789D01*
X11899053Y7615907D01*
X11885947D01*
X11881845Y7616789D01*
X11865845Y7644502D01*
X11842497Y7667849D01*
X11813902Y7684359D01*
X11782009Y7692904D01*
X11748991D01*
X11717097Y7684359D01*
X11688503Y7667849D01*
X11665155Y7644502D01*
X11649155Y7616789D01*
X11645053Y7615907D01*
X11631947D01*
X11627845Y7616789D01*
X11611845Y7644502D01*
X11588497Y7667849D01*
X11559902Y7684359D01*
X11528009Y7692904D01*
X11494991D01*
X11463097Y7684359D01*
X11434503Y7667849D01*
X11411155Y7644502D01*
X11395155Y7616789D01*
X11391053Y7615907D01*
X11377947D01*
X11373845Y7616789D01*
X11357845Y7644502D01*
X11334497Y7667849D01*
X11305902Y7684359D01*
X11274009Y7692904D01*
X11240991D01*
X11209097Y7684359D01*
X11180503Y7667849D01*
X11157155Y7644502D01*
X11141155Y7616789D01*
X11137053Y7615907D01*
X11123947D01*
X11119845Y7616789D01*
X11103845Y7644502D01*
X11080497Y7667849D01*
X11051902Y7684359D01*
X11020009Y7692904D01*
X10986991D01*
X10955097Y7684359D01*
X10926503Y7667849D01*
X10903155Y7644502D01*
X10887155Y7616789D01*
X10883053Y7615907D01*
X10869947D01*
X10865845Y7616789D01*
X10849845Y7644502D01*
X10826497Y7667849D01*
X10797902Y7684359D01*
X10766009Y7692904D01*
X10732991D01*
X10701097Y7684359D01*
X10672503Y7667849D01*
X10649155Y7644502D01*
X10633155Y7616789D01*
X10629053Y7615907D01*
X10615947D01*
X10611845Y7616789D01*
X10595845Y7644502D01*
X10572497Y7667849D01*
X10543902Y7684359D01*
X10512009Y7692904D01*
X10478991D01*
X10447097Y7684359D01*
X10418503Y7667849D01*
X10395155Y7644502D01*
X10378646Y7615907D01*
X10370100Y7584014D01*
Y7550995D01*
X10378646Y7519102D01*
X10395155Y7490507D01*
X10418503Y7467159D01*
X10447097Y7450650D01*
X10478991Y7442104D01*
X10512009D01*
X10543902Y7450650D01*
X10572497Y7467159D01*
X10595845Y7490507D01*
X10611845Y7518220D01*
X10615947Y7519102D01*
X10629053D01*
X10633155Y7518220D01*
X10649155Y7490507D01*
X10672503Y7467159D01*
X10701097Y7450650D01*
X10732991Y7442104D01*
X10766009D01*
X10797902Y7450650D01*
X10826497Y7467159D01*
X10849845Y7490507D01*
X10865845Y7518220D01*
X10869947Y7519102D01*
X10883053D01*
X10887155Y7518220D01*
X10903155Y7490507D01*
X10926503Y7467159D01*
X10955097Y7450650D01*
X10986991Y7442104D01*
X11020009D01*
X11051902Y7450650D01*
X11080497Y7467159D01*
X11103845Y7490507D01*
X11119845Y7518220D01*
X11123947Y7519102D01*
X11137053D01*
X11141155Y7518220D01*
X11157155Y7490507D01*
X11180503Y7467159D01*
X11209097Y7450650D01*
X11240991Y7442104D01*
X11274009D01*
X11305902Y7450650D01*
X11334497Y7467159D01*
X11357845Y7490507D01*
X11373845Y7518220D01*
X11377947Y7519102D01*
X11391053D01*
X11395155Y7518220D01*
X11411155Y7490507D01*
X11434503Y7467159D01*
X11463097Y7450650D01*
X11494991Y7442104D01*
X11528009D01*
X11559902Y7450650D01*
X11588497Y7467159D01*
X11611845Y7490507D01*
X11627845Y7518220D01*
X11631947Y7519102D01*
X11645053D01*
X11649155Y7518220D01*
X11665155Y7490507D01*
X11688503Y7467159D01*
X11717097Y7450650D01*
X11748991Y7442104D01*
X11782009D01*
X11813902Y7450650D01*
X11842497Y7467159D01*
X11865845Y7490507D01*
X11881845Y7518220D01*
X11885947Y7519102D01*
X11899053D01*
X11903155Y7518220D01*
X11919155Y7490507D01*
X11942503Y7467159D01*
X11971097Y7450650D01*
X12002991Y7442104D01*
X12036009D01*
X12067902Y7450650D01*
X12096497Y7467159D01*
X12119845Y7490507D01*
X12135845Y7518220D01*
X12139947Y7519102D01*
X12153053D01*
X12157155Y7518220D01*
X12173155Y7490507D01*
X12196503Y7467159D01*
X12225097Y7450650D01*
X12256991Y7442104D01*
X12290009D01*
X12321902Y7450650D01*
X12350497Y7467159D01*
X12373845Y7490507D01*
X12389845Y7518220D01*
X12393947Y7519102D01*
X12407053D01*
X12411155Y7518220D01*
X12427155Y7490507D01*
X12450503Y7467159D01*
X12479097Y7450650D01*
X12510991Y7442104D01*
X12544009D01*
X12575902Y7450650D01*
X12604497Y7467159D01*
X12627845Y7490507D01*
X12643845Y7518220D01*
X12647947Y7519102D01*
X12661053D01*
X12665155Y7518220D01*
X12681155Y7490507D01*
X12704503Y7467159D01*
X12733097Y7450650D01*
X12764991Y7442104D01*
X12798009D01*
X12829903Y7450650D01*
X12858498Y7467159D01*
X12881845Y7490507D01*
X12897845Y7518220D01*
X12901947Y7519102D01*
X12915053D01*
X12919154Y7518220D01*
X12935155Y7490507D01*
X12958504Y7467159D01*
X12987097Y7450650D01*
X13018991Y7442104D01*
X13052010D01*
X13083902Y7450650D01*
X13112497Y7467159D01*
X13135844Y7490507D01*
X13151845Y7518220D01*
X13155946Y7519102D01*
X13169054D01*
X13173155Y7518220D01*
X13189156Y7490507D01*
X13212503Y7467159D01*
X13241096Y7450650D01*
X13272990Y7442104D01*
X13306009D01*
X13337901Y7450650D01*
X13366496Y7467159D01*
X13389845Y7490507D01*
X13405846Y7518220D01*
X13409947Y7519102D01*
X13423053D01*
X13427155Y7518220D01*
X13443155Y7490507D01*
X13466502Y7467159D01*
X13495097Y7450650D01*
X13526991Y7442104D01*
X13560008D01*
X13591902Y7450650D01*
X13620497Y7467159D01*
X13643845Y7490507D01*
X13659845Y7518220D01*
X13663947Y7519102D01*
X13677052D01*
X13681155Y7518220D01*
X13697156Y7490507D01*
X13720503Y7467159D01*
X13745705Y7452609D01*
Y7151749D01*
X13742914Y7150138D01*
X13726363Y7133586D01*
X13724751Y7130795D01*
X13394604D01*
X13374782Y7126853D01*
X13357979Y7115625D01*
X13357977Y7115624D01*
X12783299Y6540945D01*
Y6467695D01*
X12856549D01*
X13416058Y7027205D01*
X13724751D01*
X13726363Y7024414D01*
X13742914Y7007862D01*
X13763187Y6996158D01*
X13784801Y6990367D01*
Y7079000D01*
X13797501D01*
Y7091700D01*
X13886133D01*
X13880342Y7113314D01*
X13868639Y7133586D01*
X13852086Y7150138D01*
X13849295Y7151749D01*
Y7452609D01*
X13874496Y7467159D01*
X13897845Y7490507D01*
X13913844Y7518220D01*
X13917947Y7519102D01*
X13931053D01*
X13935155Y7518220D01*
X13951155Y7490507D01*
X13974503Y7467159D01*
X13999706Y7452609D01*
Y7341000D01*
X14003647Y7321179D01*
X14014874Y7304375D01*
X15017101Y6302150D01*
Y6144600D01*
X15247900D01*
Y6375400D01*
X15090350D01*
X14103294Y7362454D01*
Y7452609D01*
X14128497Y7467159D01*
X14151845Y7490507D01*
X14168353Y7519102D01*
X14176900Y7550995D01*
Y7584014D01*
X14168353Y7615907D01*
X14151845Y7644502D01*
X14128497Y7667849D01*
X14099902Y7684359D01*
X14068008Y7692904D01*
X14034991D01*
X14003098Y7684359D01*
X13974503Y7667849D01*
X13951155Y7644502D01*
X13935155Y7616789D01*
X13931053Y7615907D01*
X13917947D01*
X13913844Y7616789D01*
X13897845Y7644502D01*
X13874496Y7667849D01*
X13849295Y7682400D01*
Y9992609D01*
X13874496Y10007159D01*
X13897845Y10030507D01*
X13905780Y10044251D01*
X13926100Y10038806D01*
Y9982104D01*
X14176900D01*
Y10232904D01*
X13926100D01*
Y10176203D01*
X13905780Y10170758D01*
X13897845Y10184502D01*
X13874496Y10207849D01*
X13845901Y10224359D01*
X13814009Y10232904D01*
X13810199D01*
Y10107504D01*
X13784799D01*
Y10232904D01*
X13780991D01*
X13749097Y10224359D01*
X13720503Y10207849D01*
X13697156Y10184502D01*
X13681155Y10156789D01*
X13677052Y10155907D01*
X13663947D01*
X13659845Y10156789D01*
X13643845Y10184502D01*
X13620497Y10207849D01*
X13591902Y10224359D01*
X13560008Y10232904D01*
X13526991D01*
X13495097Y10224359D01*
X13466502Y10207849D01*
X13443155Y10184502D01*
X13427155Y10156789D01*
X13423053Y10155907D01*
X13409947D01*
X13405846Y10156789D01*
X13389845Y10184502D01*
X13366496Y10207849D01*
X13337901Y10224359D01*
X13306009Y10232904D01*
X13272990D01*
X13241096Y10224359D01*
X13212503Y10207849D01*
X13189156Y10184502D01*
X13173155Y10156789D01*
X13169054Y10155907D01*
X13155946D01*
X13151845Y10156789D01*
X13135844Y10184502D01*
X13112497Y10207849D01*
X13083902Y10224359D01*
X13052010Y10232904D01*
X13018991D01*
X12987097Y10224359D01*
X12958504Y10207849D01*
X12935155Y10184502D01*
X12919154Y10156789D01*
X12915053Y10155907D01*
X12901947D01*
X12897845Y10156789D01*
X12881845Y10184502D01*
X12858498Y10207849D01*
X12829903Y10224359D01*
X12798009Y10232904D01*
X12764991D01*
X12733097Y10224359D01*
X12704503Y10207849D01*
X12681155Y10184502D01*
X12665155Y10156789D01*
X12661053Y10155907D01*
X12647947D01*
X12643845Y10156789D01*
X12627845Y10184502D01*
X12604497Y10207849D01*
X12575902Y10224359D01*
X12544009Y10232904D01*
X12510991D01*
X12479097Y10224359D01*
X12450503Y10207849D01*
X12427155Y10184502D01*
X12411155Y10156789D01*
X12407053Y10155907D01*
X12393947D01*
X12389845Y10156789D01*
X12373845Y10184502D01*
X12350497Y10207849D01*
X12321902Y10224359D01*
X12290009Y10232904D01*
X12256991D01*
X12225097Y10224359D01*
X12196503Y10207849D01*
X12173155Y10184502D01*
X12157155Y10156789D01*
X12153053Y10155907D01*
X12139947D01*
X12135845Y10156789D01*
X12119845Y10184502D01*
X12096497Y10207849D01*
X12067902Y10224359D01*
X12036009Y10232904D01*
X12002991D01*
X11971097Y10224359D01*
X11942503Y10207849D01*
X11919155Y10184502D01*
X11903155Y10156789D01*
X11899053Y10155907D01*
X11885947D01*
X11881845Y10156789D01*
X11865845Y10184502D01*
X11842497Y10207849D01*
X11813902Y10224359D01*
X11782009Y10232904D01*
X11748991D01*
X11717097Y10224359D01*
X11688503Y10207849D01*
X11665155Y10184502D01*
X11649155Y10156789D01*
X11645053Y10155907D01*
X11631947D01*
X11627845Y10156789D01*
X11611845Y10184502D01*
X11588497Y10207849D01*
X11559902Y10224359D01*
X11528009Y10232904D01*
X11494991D01*
X11463097Y10224359D01*
X11434503Y10207849D01*
X11411155Y10184502D01*
X11395155Y10156789D01*
X11391053Y10155907D01*
X11377947D01*
X11373845Y10156789D01*
X11357845Y10184502D01*
X11334497Y10207849D01*
X11305902Y10224359D01*
X11274009Y10232904D01*
X11240991D01*
X11209097Y10224359D01*
X11180503Y10207849D01*
X11157155Y10184502D01*
X11141155Y10156789D01*
X11137053Y10155907D01*
X11123947D01*
X11119845Y10156789D01*
X11103845Y10184502D01*
X11080497Y10207849D01*
X11051902Y10224359D01*
X11020009Y10232904D01*
X10986991D01*
X10955097Y10224359D01*
X10926503Y10207849D01*
X10903155Y10184502D01*
X10887155Y10156789D01*
X10883053Y10155907D01*
X10869947D01*
X10865845Y10156789D01*
X10849845Y10184502D01*
X10826497Y10207849D01*
X10797902Y10224359D01*
X10766009Y10232904D01*
X10732991D01*
X10701097Y10224359D01*
X10672503Y10207849D01*
X10649155Y10184502D01*
X10633155Y10156789D01*
X10629053Y10155907D01*
X10615947D01*
X10611845Y10156789D01*
X10595845Y10184502D01*
X10572497Y10207849D01*
X10543902Y10224359D01*
X10512009Y10232904D01*
X10478991D01*
X10447097Y10224359D01*
X10418503Y10207849D01*
X10395155Y10184502D01*
X10378646Y10155907D01*
X10370100Y10124014D01*
Y10090995D01*
X10378646Y10059102D01*
X10395155Y10030507D01*
X10418503Y10007159D01*
X10447097Y9990650D01*
X10478991Y9982104D01*
X10512009D01*
X10543902Y9990650D01*
X10555896Y9997575D01*
X10568373Y9981315D01*
X10495905Y9908847D01*
X10270332D01*
X10264167Y9929167D01*
X10264311Y9929262D01*
X10288742Y9953694D01*
X10307937Y9982421D01*
X10321159Y10014342D01*
X10327900Y10048229D01*
Y10082780D01*
X10321159Y10116667D01*
X10307937Y10148587D01*
X10288742Y10177315D01*
X10264311Y10201746D01*
X10235583Y10220942D01*
X10203662Y10234164D01*
X10169775Y10240904D01*
D02*
G37*
G36*
X8608581Y9694800D02*
X8532700D01*
Y9618919D01*
X8554295Y9624705D01*
X8574555Y9636402D01*
X8591098Y9652945D01*
X8602795Y9673205D01*
X8608581Y9694800D01*
D02*
G37*
G36*
X8507300D02*
X8431419D01*
X8437205Y9673205D01*
X8448902Y9652945D01*
X8465445Y9636402D01*
X8485705Y9624705D01*
X8507300Y9618919D01*
Y9694800D01*
D02*
G37*
G36*
X7435000Y9598300D02*
X7367867D01*
X7372779Y9579967D01*
X7383364Y9561633D01*
X7398333Y9546664D01*
X7416667Y9536079D01*
X7435000Y9531167D01*
Y9598300D01*
D02*
G37*
G36*
X8339800Y8617300D02*
X8266550D01*
X7866045Y8216795D01*
X7544284D01*
X7543737Y8217744D01*
X7527744Y8233737D01*
X7508156Y8245046D01*
X7487700Y8250527D01*
Y8164999D01*
Y8079473D01*
X7508156Y8084954D01*
X7527744Y8096263D01*
X7543737Y8112256D01*
X7544284Y8113205D01*
X7887500D01*
X7907321Y8117147D01*
X7924125Y8128375D01*
X8339800Y8544051D01*
Y8617300D01*
D02*
G37*
G36*
X7462300Y8250527D02*
X7441844Y8245046D01*
X7422256Y8233737D01*
X7406263Y8217744D01*
X7394954Y8198156D01*
X7389472Y8177699D01*
X7462300D01*
Y8250527D01*
D02*
G37*
G36*
X7486309Y7996900D02*
X7463691D01*
X7441844Y7991046D01*
X7422256Y7979737D01*
X7406263Y7963744D01*
X7394954Y7944156D01*
X7389100Y7922309D01*
Y7899691D01*
X7394954Y7877844D01*
X7406263Y7858256D01*
X7422256Y7842263D01*
X7441844Y7830954D01*
X7463691Y7825100D01*
X7486309D01*
X7508156Y7830954D01*
X7527744Y7842263D01*
X7543737Y7858256D01*
X7555046Y7877844D01*
X7560900Y7899691D01*
Y7922309D01*
X7555046Y7944156D01*
X7543737Y7963744D01*
X7527744Y7979737D01*
X7508156Y7991046D01*
X7486309Y7996900D01*
D02*
G37*
G36*
X14864775Y7789904D02*
X14830225D01*
X14796338Y7783164D01*
X14764417Y7769942D01*
X14735689Y7750746D01*
X14711258Y7726315D01*
X14692062Y7697587D01*
X14678841Y7665666D01*
X14672099Y7631780D01*
Y7597229D01*
X14678841Y7563342D01*
X14692062Y7531421D01*
X14711258Y7502693D01*
X14735689Y7478262D01*
X14764417Y7459067D01*
X14796338Y7445845D01*
X14830225Y7439104D01*
X14864775D01*
X14898662Y7445845D01*
X14930583Y7459067D01*
X14959311Y7478262D01*
X14983742Y7502693D01*
X15002937Y7531421D01*
X15016159Y7563342D01*
X15022900Y7597229D01*
Y7631780D01*
X15016159Y7665666D01*
X15002937Y7697587D01*
X14983742Y7726315D01*
X14959311Y7750746D01*
X14930583Y7769942D01*
X14898662Y7783164D01*
X14864775Y7789904D01*
D02*
G37*
G36*
X7682800Y7500800D02*
X7594700D01*
Y7412700D01*
X7682800D01*
Y7500800D01*
D02*
G37*
G36*
X7462300Y8152299D02*
X7389050D01*
X7275875Y8039125D01*
X7264647Y8022321D01*
X7260705Y8002500D01*
Y7669500D01*
X7264647Y7649679D01*
X7275875Y7632875D01*
X7481200Y7427551D01*
Y7412700D01*
X7569300D01*
Y7500800D01*
X7554449D01*
X7364295Y7690954D01*
Y7981046D01*
X7462300Y8079051D01*
Y8152299D01*
D02*
G37*
G36*
X7682800Y7387300D02*
X7594700D01*
Y7299200D01*
X7682800D01*
Y7387300D01*
D02*
G37*
G36*
X7569300D02*
X7481200D01*
Y7299200D01*
X7569300D01*
Y7387300D01*
D02*
G37*
G36*
X9080275Y7525400D02*
X9045725D01*
X9011838Y7518659D01*
X8979917Y7505437D01*
X8951189Y7486242D01*
X8926758Y7461811D01*
X8907563Y7433083D01*
X8894341Y7401162D01*
X8887600Y7367275D01*
Y7332725D01*
X8894341Y7298838D01*
X8907563Y7266917D01*
X8926758Y7238189D01*
X8951189Y7213758D01*
X8979917Y7194563D01*
X9011838Y7181341D01*
X9045725Y7174600D01*
X9080275D01*
X9114162Y7181341D01*
X9146083Y7194563D01*
X9174811Y7213758D01*
X9199242Y7238189D01*
X9218437Y7266917D01*
X9231659Y7298838D01*
X9238400Y7332725D01*
Y7367275D01*
X9231659Y7401162D01*
X9218437Y7433083D01*
X9199242Y7461811D01*
X9174811Y7486242D01*
X9146083Y7505437D01*
X9114162Y7518659D01*
X9080275Y7525400D01*
D02*
G37*
G36*
X14204201Y6770527D02*
Y6697700D01*
X14277026D01*
X14271545Y6718156D01*
X14260237Y6737744D01*
X14244244Y6753737D01*
X14224657Y6765046D01*
X14204201Y6770527D01*
D02*
G37*
G36*
X13886133Y7066300D02*
X13810201D01*
Y6990367D01*
X13812315Y6990934D01*
X14105550Y6697700D01*
X14178799D01*
Y6770949D01*
X13885567Y7064184D01*
X13886133Y7066300D01*
D02*
G37*
G36*
X14178799Y6672300D02*
X14105972D01*
X14111453Y6651844D01*
X14122763Y6632256D01*
X14138756Y6616263D01*
X14158344Y6604954D01*
X14178799Y6599473D01*
Y6672300D01*
D02*
G37*
G36*
X11803899Y6540005D02*
Y6467695D01*
X11876209D01*
X11870779Y6487958D01*
X11859536Y6507432D01*
X11843636Y6523332D01*
X11824162Y6534575D01*
X11803899Y6540005D01*
D02*
G37*
G36*
X10334800D02*
Y6467695D01*
X10407109D01*
X10401680Y6487958D01*
X10390437Y6507432D01*
X10374537Y6523332D01*
X10355063Y6534575D01*
X10334800Y6540005D01*
D02*
G37*
G36*
X12757899D02*
X12737636Y6534575D01*
X12718162Y6523332D01*
X12702262Y6507432D01*
X12691019Y6487958D01*
X12685589Y6467695D01*
X12757899D01*
Y6540005D01*
D02*
G37*
G36*
X11778499D02*
X11758236Y6534575D01*
X11738762Y6523332D01*
X11722862Y6507432D01*
X11711619Y6487958D01*
X11706190Y6467695D01*
X11778499D01*
Y6540005D01*
D02*
G37*
G36*
X10309400D02*
X10289137Y6534575D01*
X10269663Y6523332D01*
X10253763Y6507432D01*
X10242520Y6487958D01*
X10237090Y6467695D01*
X10309400D01*
Y6540005D01*
D02*
G37*
G36*
X12855608Y6442295D02*
X12783299D01*
Y6369986D01*
X12803561Y6375415D01*
X12823036Y6386658D01*
X12838936Y6402558D01*
X12850179Y6422032D01*
X12855608Y6442295D01*
D02*
G37*
G36*
X10309400D02*
X10237090D01*
X10242520Y6422032D01*
X10253763Y6402558D01*
X10269663Y6386658D01*
X10289137Y6375415D01*
X10309400Y6369986D01*
Y6442295D01*
D02*
G37*
G36*
X11312742Y6540395D02*
X11290256D01*
X11268536Y6534575D01*
X11249063Y6523332D01*
X11233162Y6507432D01*
X11221919Y6487958D01*
X11216099Y6466238D01*
Y6443752D01*
X11221919Y6422032D01*
X11233162Y6402558D01*
X11249063Y6386658D01*
X11268536Y6375415D01*
X11290256Y6369595D01*
X11312742D01*
X11334462Y6375415D01*
X11353936Y6386658D01*
X11369836Y6402558D01*
X11381079Y6422032D01*
X11386899Y6443752D01*
Y6466238D01*
X11381079Y6487958D01*
X11369836Y6507432D01*
X11353936Y6523332D01*
X11334462Y6534575D01*
X11312742Y6540395D01*
D02*
G37*
G36*
X10823043D02*
X10800557D01*
X10778836Y6534575D01*
X10759363Y6523332D01*
X10743463Y6507432D01*
X10732220Y6487958D01*
X10726400Y6466238D01*
Y6443752D01*
X10732220Y6422032D01*
X10743463Y6402558D01*
X10759363Y6386658D01*
X10778836Y6375415D01*
X10800557Y6369595D01*
X10823043D01*
X10844763Y6375415D01*
X10864236Y6386658D01*
X10880136Y6402558D01*
X10891380Y6422032D01*
X10897199Y6443752D01*
Y6466238D01*
X10891380Y6487958D01*
X10880136Y6507432D01*
X10864236Y6523332D01*
X10844763Y6534575D01*
X10823043Y6540395D01*
D02*
G37*
G36*
X15147693Y6121400D02*
X15145200D01*
Y6018700D01*
X15247900D01*
Y6021193D01*
X15240036Y6050543D01*
X15224843Y6076857D01*
X15203357Y6098343D01*
X15177043Y6113535D01*
X15147693Y6121400D01*
D02*
G37*
G36*
X12526704Y6083900D02*
X12503296D01*
X12480686Y6077842D01*
X12460414Y6066138D01*
X12443862Y6049586D01*
X12434775Y6033846D01*
X12431204D01*
X12416338Y6030889D01*
X12403735Y6022469D01*
X11817600Y5436334D01*
X11802442Y5440395D01*
X11779956D01*
X11758236Y5434575D01*
X11738762Y5423332D01*
X11722862Y5407432D01*
X11711619Y5387958D01*
X11705799Y5366238D01*
Y5343752D01*
X11711619Y5322032D01*
X11722862Y5302559D01*
X11738762Y5286658D01*
X11758236Y5275415D01*
X11779956Y5269596D01*
X11802442D01*
X11824162Y5275415D01*
X11843636Y5286658D01*
X11859536Y5302559D01*
X11870779Y5322032D01*
X11876599Y5343752D01*
Y5366238D01*
X11872537Y5381396D01*
X12432987Y5941846D01*
X12443863Y5940414D01*
X12460414Y5923862D01*
X12480686Y5912158D01*
X12503296Y5906100D01*
X12526704D01*
X12549314Y5912158D01*
X12569586Y5923862D01*
X12586138Y5940414D01*
X12597842Y5960686D01*
X12603900Y5983296D01*
Y6006704D01*
X12597842Y6029314D01*
X12586138Y6049586D01*
X12569586Y6066138D01*
X12549314Y6077842D01*
X12526704Y6083900D01*
D02*
G37*
G36*
X15247900Y5993300D02*
X15145200D01*
Y5890600D01*
X15147693D01*
X15177043Y5898464D01*
X15203357Y5913657D01*
X15224843Y5935143D01*
X15240036Y5961457D01*
X15247900Y5990807D01*
Y5993300D01*
D02*
G37*
G36*
X14277449Y6672300D02*
X14204201D01*
Y6599050D01*
X14228204Y6575046D01*
Y5795538D01*
X14225261Y5793838D01*
X14208662Y5777239D01*
X14196925Y5756911D01*
X14191109Y5735200D01*
X14368892D01*
X14368269Y5737521D01*
X14584953Y5954205D01*
X15029152D01*
X15040157Y5935143D01*
X15061642Y5913657D01*
X15087956Y5898464D01*
X15117307Y5890600D01*
X15119800D01*
Y6006000D01*
Y6121400D01*
X15117307D01*
X15087956Y6113535D01*
X15061642Y6098343D01*
X15040157Y6076857D01*
X15029152Y6057795D01*
X14563499D01*
X14543678Y6053853D01*
X14526875Y6042625D01*
X14350568Y5866318D01*
X14331795Y5874094D01*
Y6596500D01*
X14327852Y6616322D01*
X14316624Y6633125D01*
X14277449Y6672300D01*
D02*
G37*
G36*
X14368892Y5709800D02*
X14292700D01*
Y5633608D01*
X14314410Y5639426D01*
X14334740Y5651162D01*
X14351338Y5667761D01*
X14363074Y5688089D01*
X14368892Y5709800D01*
D02*
G37*
G36*
X14267300D02*
X14191109D01*
X14196925Y5688089D01*
X14208662Y5667761D01*
X14225261Y5651162D01*
X14245589Y5639426D01*
X14267300Y5633608D01*
Y5709800D01*
D02*
G37*
G36*
X13948808Y6770900D02*
X13926192D01*
X13904344Y6765046D01*
X13884756Y6753737D01*
X13868764Y6737744D01*
X13857454Y6718156D01*
X13851601Y6696309D01*
Y6673691D01*
X13857454Y6651844D01*
X13868764Y6632256D01*
X13884756Y6616263D01*
X13898653Y6608240D01*
Y5811650D01*
X13840849D01*
Y5633350D01*
X14019150D01*
Y5811650D01*
X13976346D01*
Y6608240D01*
X13990244Y6616263D01*
X14006236Y6632256D01*
X14017546Y6651844D01*
X14023399Y6673691D01*
Y6696309D01*
X14017546Y6718156D01*
X14006236Y6737744D01*
X13990244Y6753737D01*
X13970656Y6765046D01*
X13948808Y6770900D01*
D02*
G37*
G36*
X13271542Y5440395D02*
X13249055D01*
X13227335Y5434575D01*
X13207861Y5423332D01*
X13191962Y5407432D01*
X13184116Y5393842D01*
X12846782D01*
X12838936Y5407432D01*
X12823036Y5423332D01*
X12803561Y5434575D01*
X12781842Y5440395D01*
X12759356D01*
X12737636Y5434575D01*
X12718162Y5423332D01*
X12702262Y5407432D01*
X12691019Y5387958D01*
X12685199Y5366238D01*
Y5343752D01*
X12691019Y5322032D01*
X12702262Y5302559D01*
X12718162Y5286658D01*
X12737636Y5275415D01*
X12759356Y5269596D01*
X12781842D01*
X12803561Y5275415D01*
X12823036Y5286658D01*
X12838936Y5302559D01*
X12846782Y5316149D01*
X13184116D01*
X13191962Y5302559D01*
X13207861Y5286658D01*
X13227335Y5275415D01*
X13249055Y5269596D01*
X13271542D01*
X13293262Y5275415D01*
X13312735Y5286658D01*
X13328636Y5302559D01*
X13339879Y5322032D01*
X13345699Y5343752D01*
Y5366238D01*
X13339879Y5387958D01*
X13328636Y5407432D01*
X13312735Y5423332D01*
X13293262Y5434575D01*
X13271542Y5440395D01*
D02*
G37*
G36*
X10823043D02*
X10800557D01*
X10778836Y5434575D01*
X10759363Y5423332D01*
X10743463Y5407432D01*
X10735616Y5393842D01*
X10398283D01*
X10390437Y5407432D01*
X10374537Y5423332D01*
X10355063Y5434575D01*
X10333343Y5440395D01*
X10310857D01*
X10289137Y5434575D01*
X10269663Y5423332D01*
X10253763Y5407432D01*
X10242520Y5387958D01*
X10236700Y5366238D01*
Y5343752D01*
X10242520Y5322032D01*
X10253763Y5302559D01*
X10269663Y5286658D01*
X10289137Y5275415D01*
X10310857Y5269596D01*
X10333343D01*
X10355063Y5275415D01*
X10374537Y5286658D01*
X10390437Y5302559D01*
X10398283Y5316149D01*
X10735616D01*
X10743463Y5302559D01*
X10759363Y5286658D01*
X10778836Y5275415D01*
X10800557Y5269596D01*
X10823043D01*
X10844763Y5275415D01*
X10864236Y5286658D01*
X10880136Y5302559D01*
X10891380Y5322032D01*
X10897199Y5343752D01*
Y5366238D01*
X10891380Y5387958D01*
X10880136Y5407432D01*
X10864236Y5423332D01*
X10844763Y5434575D01*
X10823043Y5440395D01*
D02*
G37*
G36*
X11312742D02*
X11290256D01*
X11268536Y5434575D01*
X11249063Y5423332D01*
X11233162Y5407432D01*
X11221919Y5387958D01*
X11216099Y5366238D01*
Y5343752D01*
X11220161Y5328594D01*
X11077913Y5186346D01*
X10003091D01*
X9947136Y5242301D01*
X9950234Y5247668D01*
X9958150Y5277209D01*
Y5307791D01*
X9950234Y5337332D01*
X9934943Y5363818D01*
X9913317Y5385443D01*
X9886832Y5400734D01*
X9857291Y5408650D01*
X9826709D01*
X9797168Y5400734D01*
X9770682Y5385443D01*
X9749057Y5363818D01*
X9733765Y5337332D01*
X9725850Y5307791D01*
Y5277209D01*
X9733765Y5247668D01*
X9749057Y5221182D01*
X9770682Y5199557D01*
X9797168Y5184265D01*
X9826709Y5176350D01*
X9857291D01*
X9886832Y5184265D01*
X9892199Y5187364D01*
X9959531Y5120031D01*
X9972134Y5111611D01*
X9987000Y5108653D01*
X11094004D01*
X11108870Y5111611D01*
X11121473Y5120031D01*
X11275098Y5273657D01*
X11290256Y5269596D01*
X11312742D01*
X11334462Y5275415D01*
X11353936Y5286658D01*
X11369836Y5302559D01*
X11381079Y5322032D01*
X11386899Y5343752D01*
Y5366238D01*
X11381079Y5387958D01*
X11369836Y5407432D01*
X11353936Y5423332D01*
X11334462Y5434575D01*
X11312742Y5440395D01*
D02*
G37*
G36*
X6880275Y5325400D02*
X6845725D01*
X6811838Y5318659D01*
X6779917Y5305437D01*
X6751189Y5286242D01*
X6726758Y5261811D01*
X6707563Y5233083D01*
X6694341Y5201162D01*
X6687600Y5167275D01*
Y5132725D01*
X6694341Y5098838D01*
X6707563Y5066917D01*
X6726758Y5038189D01*
X6751189Y5013758D01*
X6779917Y4994563D01*
X6811838Y4981341D01*
X6845725Y4974600D01*
X6880275D01*
X6914162Y4981341D01*
X6946083Y4994563D01*
X6974811Y5013758D01*
X6999242Y5038189D01*
X7018437Y5066917D01*
X7031659Y5098838D01*
X7038400Y5132725D01*
Y5167275D01*
X7031659Y5201162D01*
X7018437Y5233083D01*
X6999242Y5261811D01*
X6974811Y5286242D01*
X6946083Y5305437D01*
X6914162Y5318659D01*
X6880275Y5325400D01*
D02*
G37*
G36*
X15275610Y5075400D02*
X15224390D01*
X15173802Y5067387D01*
X15125090Y5051560D01*
X15079453Y5028307D01*
X15038016Y4998201D01*
X15001799Y4961984D01*
X14971693Y4920547D01*
X14948441Y4874910D01*
X14932613Y4826198D01*
X14924600Y4775609D01*
Y4724390D01*
X14932613Y4673802D01*
X14948441Y4625090D01*
X14971693Y4579453D01*
X15001799Y4538016D01*
X15038016Y4501799D01*
X15079453Y4471693D01*
X15125090Y4448440D01*
X15173802Y4432612D01*
X15224390Y4424600D01*
X15275610D01*
X15326198Y4432612D01*
X15374910Y4448440D01*
X15420547Y4471693D01*
X15461984Y4501799D01*
X15498201Y4538016D01*
X15528307Y4579453D01*
X15551559Y4625090D01*
X15567387Y4673802D01*
X15575400Y4724390D01*
Y4775609D01*
X15567387Y4826198D01*
X15551559Y4874910D01*
X15528307Y4920547D01*
X15498201Y4961984D01*
X15461984Y4998201D01*
X15420547Y5028307D01*
X15374910Y5051560D01*
X15326198Y5067387D01*
X15275610Y5075400D01*
D02*
G37*
G36*
X6275609D02*
X6224390D01*
X6173802Y5067387D01*
X6125090Y5051560D01*
X6079453Y5028307D01*
X6038016Y4998201D01*
X6001799Y4961984D01*
X5971693Y4920547D01*
X5948440Y4874910D01*
X5932612Y4826198D01*
X5924600Y4775609D01*
Y4724390D01*
X5932612Y4673802D01*
X5948440Y4625090D01*
X5971693Y4579453D01*
X6001799Y4538016D01*
X6038016Y4501799D01*
X6079453Y4471693D01*
X6125090Y4448440D01*
X6173802Y4432612D01*
X6224390Y4424600D01*
X6275609D01*
X6326198Y4432612D01*
X6374910Y4448440D01*
X6420547Y4471693D01*
X6461984Y4501799D01*
X6498201Y4538016D01*
X6528307Y4579453D01*
X6551560Y4625090D01*
X6567387Y4673802D01*
X6575400Y4724390D01*
Y4775609D01*
X6567387Y4826198D01*
X6551560Y4874910D01*
X6528307Y4920547D01*
X6498201Y4961984D01*
X6461984Y4998201D01*
X6420547Y5028307D01*
X6374910Y5051560D01*
X6326198Y5067387D01*
X6275609Y5075400D01*
D02*
G37*
%LPD*%
G36*
X11649155Y10058220D02*
X11665155Y10030507D01*
X11688503Y10007159D01*
X11717097Y9990650D01*
X11748991Y9982104D01*
X11782009D01*
X11813902Y9990650D01*
X11825896Y9997575D01*
X11838373Y9981315D01*
X11274218Y9417159D01*
X11265797Y9404557D01*
X11262840Y9389691D01*
Y8621900D01*
X10646171Y8005231D01*
X10627398Y8013007D01*
Y9728504D01*
X10641025Y9746943D01*
X10642690Y9747854D01*
X11190696D01*
X11205562Y9750811D01*
X11218164Y9759231D01*
X11454530Y9995597D01*
X11463097Y9990650D01*
X11494991Y9982104D01*
X11528009D01*
X11559902Y9990650D01*
X11588497Y10007159D01*
X11611845Y10030507D01*
X11627845Y10058220D01*
X11631947Y10059102D01*
X11645053D01*
X11649155Y10058220D01*
D02*
G37*
G36*
X10887155D02*
X10903155Y10030507D01*
X10926503Y10007159D01*
X10955097Y9990650D01*
X10986991Y9982104D01*
X11020009D01*
X11051902Y9990650D01*
X11080497Y10007159D01*
X11103845Y10030507D01*
X11119845Y10058220D01*
X11123947Y10059102D01*
X11137053D01*
X11141155Y10058220D01*
X11157155Y10030507D01*
X11180503Y10007159D01*
X11209097Y9990650D01*
X11240991Y9982104D01*
X11274009D01*
X11305902Y9990650D01*
X11317896Y9997575D01*
X11330373Y9981315D01*
X11174605Y9825547D01*
X10550620D01*
X10545819Y9832855D01*
X10542799Y9845867D01*
X10692530Y9995597D01*
X10701097Y9990650D01*
X10732991Y9982104D01*
X10766009D01*
X10797902Y9990650D01*
X10826497Y10007159D01*
X10849845Y10030507D01*
X10865845Y10058220D01*
X10869947Y10059102D01*
X10883053D01*
X10887155Y10058220D01*
D02*
G37*
G36*
X9125771Y8529327D02*
X8792791Y8196347D01*
X8331842D01*
X8316976Y8193390D01*
X8304373Y8184969D01*
X8062532Y7943127D01*
X8054111Y7930524D01*
X8051154Y7915658D01*
Y7493947D01*
X8051093Y7493930D01*
X8028108Y7480660D01*
X8019167Y7471719D01*
X7998847Y7480136D01*
Y7946410D01*
X8376729Y8324292D01*
X8401246Y8321615D01*
X8403559Y8317610D01*
X8420110Y8301059D01*
X8440382Y8289355D01*
X8462992Y8283296D01*
X8486400D01*
X8509010Y8289355D01*
X8529282Y8301059D01*
X8545834Y8317610D01*
X8554921Y8333350D01*
X8856696D01*
X8871562Y8336307D01*
X8884165Y8344728D01*
X9087537Y8548100D01*
X9117995D01*
X9125771Y8529327D01*
D02*
G37*
G36*
X9718653Y8986280D02*
Y8953590D01*
X8861410Y8096347D01*
X8374463D01*
X8363602Y8116667D01*
X8364929Y8118654D01*
X8808882D01*
X8823747Y8121611D01*
X8836350Y8130031D01*
X9697469Y8991150D01*
X9698333Y8992444D01*
X9718653Y8986280D01*
D02*
G37*
G36*
X7711153Y9768909D02*
Y9437032D01*
X7155031Y8880910D01*
X7146611Y8868307D01*
X7143653Y8853441D01*
Y6764487D01*
X7146611Y6749621D01*
X7155031Y6737018D01*
X9054518Y4837531D01*
X9067121Y4829110D01*
X9081987Y4826153D01*
X9517275D01*
X9526362Y4810414D01*
X9532610Y4804166D01*
X9524193Y4783846D01*
X9068591D01*
X7111346Y6741091D01*
Y8906409D01*
X7602169Y9397231D01*
X7610589Y9409834D01*
X7613546Y9424700D01*
Y9667591D01*
X7624067Y9673664D01*
X7639036Y9688633D01*
X7649620Y9706967D01*
X7655100Y9727415D01*
Y9748585D01*
X7649620Y9769033D01*
X7639036Y9787367D01*
X7624067Y9802336D01*
X7618009Y9805834D01*
X7623453Y9826154D01*
X7653909D01*
X7711153Y9768909D01*
D02*
G37*
D10*
X15250000Y4250000D02*
G03*
X15750000Y4750000I-0J500000D01*
G01*
X5750000D02*
G03*
X6250000Y4250000I500000J0D01*
G01*
Y11250000D02*
G03*
X5750000Y10750000I0J-500000D01*
G01*
X15750000D02*
G03*
X15250000Y11250000I-500000J-0D01*
G01*
X6250000Y4250000D02*
X15250000D01*
X15750000Y4750000D02*
Y10750000D01*
X5750000Y4750000D02*
Y10750000D01*
X6250000Y11250000D02*
X15250000D01*
D11*
X9587500Y5012500D02*
X11938404D01*
X7836000Y6764000D02*
Y7400000D01*
Y6764000D02*
X9587500Y5012500D01*
X11938404D02*
X12280899Y5354995D01*
D12*
X12431204Y5995000D02*
X12515000D01*
X11791199Y5354995D02*
X12431204Y5995000D01*
X13080000Y6165000D02*
X13260300Y6345299D01*
X7960000Y7270000D02*
X9065000Y6165000D01*
X13080000D01*
X7960000Y7270000D02*
Y7962500D01*
X8369696Y8372196D01*
X8474696D01*
X8856696D02*
X9114500Y8630000D01*
X8474696Y8372196D02*
X8856696D01*
X8474696D02*
Y8680304D01*
X8090000Y7400000D02*
Y7915658D01*
X8331842Y8157500D01*
X8182500Y7561500D02*
Y7936316D01*
X8303684Y8057500D02*
X8877500D01*
X8331842Y8157500D02*
X8808882D01*
X8182500Y7936316D02*
X8303684Y8057500D01*
X13260300Y6345299D02*
Y6454995D01*
X9201316Y6852500D02*
X11883394D01*
X8808882Y8157500D02*
X9670000Y9018618D01*
X8877500Y8057500D02*
X9757500Y8937500D01*
X9964400Y7536591D02*
X10523491Y6977500D01*
X10803842D01*
X11883394Y6852500D02*
X12280899Y6454995D01*
X8352500Y7701316D02*
X9201316Y6852500D01*
X9964400Y7536591D02*
Y7692418D01*
X10193387Y7921404D01*
X10617282D01*
X11301687Y8605809D01*
Y9389691D01*
X12019500Y10107504D01*
X8352500Y7701316D02*
Y7836000D01*
X13937500Y5730000D02*
Y6685000D01*
X13930000Y5722500D02*
X13937500Y5730000D01*
X8182500Y7561500D02*
X8344000Y7400000D01*
X9757500Y8937500D02*
Y9587386D01*
X9670000Y9018618D02*
Y9652500D01*
X9757500Y9587386D02*
X9956814Y9786700D01*
X9670000Y9652500D02*
X9887500Y9870000D01*
X10511996D01*
X10749500Y10107504D01*
X11190696Y9786700D02*
X11511500Y10107504D01*
X9956814Y9786700D02*
X11190696D01*
X7475000Y8752500D02*
X8402500D01*
X8474696Y8680304D01*
X8179401Y9050000D02*
X8205000D01*
X8135901Y9006500D02*
X8179401Y9050000D01*
X7475000Y9006500D02*
X8135901D01*
X7072500Y8922500D02*
X7574700Y9424700D01*
X7072500Y6725000D02*
Y8922500D01*
X7182500Y6764487D02*
X9081987Y4865000D01*
X7182500Y6764487D02*
Y8853441D01*
X7750000Y9420941D01*
X9052500Y4745000D02*
X10022500D01*
X7072500Y6725000D02*
X9052500Y4745000D01*
X7574700Y9424700D02*
Y9738000D01*
X9081987Y4865000D02*
X9597500D01*
X7670000Y9865000D02*
X7750000Y9785000D01*
Y9420941D02*
Y9785000D01*
X7447700Y9865000D02*
X7670000D01*
X12770599Y5354995D02*
X13260300D01*
X11094004Y5147500D02*
X11301499Y5354995D01*
X9987000Y5147500D02*
X11094004D01*
X9842000Y5292500D02*
X9987000Y5147500D01*
X8440500Y9050000D02*
X8860500Y8630000D01*
X8205000Y9050000D02*
X8440500D01*
X8606500Y7836000D02*
X8860500D01*
X10322100Y5354995D02*
X10811800D01*
X8860500Y9508000D02*
X9060000Y9707500D01*
X8860500Y8630000D02*
Y9508000D01*
X9114500Y8859500D02*
X9305000Y9050000D01*
X9114500Y8630000D02*
Y8859500D01*
D13*
X11933694Y6312500D02*
X12628104D01*
X12770599Y6454995D01*
X11791199D02*
X11933694Y6312500D01*
X12770599Y6454995D02*
X13394604Y7079000D01*
X10514595Y6262500D02*
X11598704D01*
X8532500Y7665000D02*
X8943500D01*
X13394604Y7079000D02*
X13797501D01*
X8943500Y7665000D02*
X9114500Y7836000D01*
X10322100Y6454995D02*
X10514595Y6262500D01*
X11598704D02*
X11791199Y6454995D01*
X7887500Y8165000D02*
X8352500Y8630000D01*
X7475000Y8165000D02*
X7887500D01*
X7312500Y7669500D02*
X7582000Y7400000D01*
X7312500Y8002500D02*
X7475000Y8165000D01*
X7312500Y7669500D02*
Y8002500D01*
X7262500Y9796200D02*
Y9882500D01*
X7415000Y10035000D02*
X8192500D01*
X7262500Y9882500D02*
X7415000Y10035000D01*
X8192500D02*
X8520000Y9707500D01*
X7262500Y9796200D02*
X7447700Y9611000D01*
X13797501Y7567504D02*
Y10107504D01*
Y7079000D02*
Y7567504D01*
Y7079000D02*
X14191499Y6685000D01*
X14280000Y6596500D01*
Y5722500D02*
Y6596500D01*
Y5722500D02*
X14563499Y6006000D01*
X15132500D01*
X14051500Y7341000D02*
Y7567504D01*
Y7341000D02*
X15132500Y6260000D01*
D14*
X7475000Y8752500D02*
D03*
Y9006500D02*
D03*
X7475000Y8165000D02*
D03*
Y7911000D02*
D03*
X13937500Y6685000D02*
D03*
X14191499D02*
D03*
D15*
X9305000Y9050000D02*
D03*
X8205000D02*
D03*
X13260300Y6454995D02*
D03*
Y5354995D02*
D03*
X12770599Y6454995D02*
D03*
Y5354995D02*
D03*
X12280899Y6454995D02*
D03*
Y5354995D02*
D03*
X11791199Y6454995D02*
D03*
Y5354995D02*
D03*
X11301499Y6454995D02*
D03*
Y5354995D02*
D03*
X10811800Y6454995D02*
D03*
Y5354995D02*
D03*
X10322100Y6454995D02*
D03*
Y5354995D02*
D03*
D16*
X9114500Y7836000D02*
D03*
X8860500D02*
D03*
X8606500D02*
D03*
X8352500D02*
D03*
Y8630000D02*
D03*
X8606500D02*
D03*
X8860500D02*
D03*
D17*
X9114500D02*
D03*
D18*
X6250000Y10750000D02*
D03*
X15250000D02*
D03*
Y4750000D02*
D03*
X6250000D02*
D03*
D19*
X15132500Y6006000D02*
D03*
D20*
Y6260000D02*
D03*
D21*
X9060000Y9707500D02*
D03*
X8520000D02*
D03*
D22*
X14847501Y10065504D02*
D03*
Y7614504D02*
D03*
X10152500D02*
D03*
Y10065504D02*
D03*
X6863000Y7350000D02*
D03*
X9063000D02*
D03*
Y5150000D02*
D03*
X6863000D02*
D03*
D23*
X10495500Y7567504D02*
D03*
X10749500D02*
D03*
X11003500D02*
D03*
X11257500D02*
D03*
X11511500D02*
D03*
X11765500D02*
D03*
X12019500D02*
D03*
X12273500D02*
D03*
X12527500D02*
D03*
X12781500D02*
D03*
X13035500D02*
D03*
X13289500D02*
D03*
X13543500D02*
D03*
X13797501D02*
D03*
X14051500D02*
D03*
X10495500Y10107504D02*
D03*
X10749500D02*
D03*
X11003500D02*
D03*
X11257500D02*
D03*
X11511500D02*
D03*
X11765500D02*
D03*
X12019500D02*
D03*
X12273500D02*
D03*
X12527500D02*
D03*
X12781500D02*
D03*
X13035500D02*
D03*
X13289500D02*
D03*
X13543500D02*
D03*
X13797501D02*
D03*
D24*
X14051500D02*
D03*
D25*
X13930000Y5722500D02*
D03*
D26*
X14280000D02*
D03*
D27*
X7582000Y7400000D02*
D03*
D28*
X7836000D02*
D03*
X8090000D02*
D03*
X8344000D02*
D03*
D29*
X9842000Y5292500D02*
D03*
D30*
X9588000D02*
D03*
D31*
X7447700Y9611000D02*
D03*
Y9865000D02*
D03*
X7574700Y9738000D02*
D03*
D32*
X12515000Y5995000D02*
D03*
X8474696Y8372196D02*
D03*
X8532500Y7665000D02*
D03*
X10803842Y6977500D02*
D03*
X13797501Y7079000D02*
D03*
X10022500Y4745000D02*
D03*
X9597500Y4865000D02*
D03*
%TF.MD5,62d0d69a4395b2048fbf90b8a2b54151*%
M02*
