%TF.GenerationSoftware,Altium Limited,Altium Designer,26.8.1 (31)*%
G04 Layer_Color=128*
G04 Board_Origin=0|0*
%FSLAX45Y45*%
%MOMM*%
%TF.SameCoordinates,F87090A8-5265-4E4C-9D90-9F268F9AD881*%
%TF.FilePolarity,Positive*%
%TF.FileFunction,Drillmap*%
%TF.Part,Single*%
G01*
G75*
%TA.AperFunction,NonConductor*%
%ADD34C,0.12700*%
D34*
X7439500Y8752500D02*
X7510500D01*
X7475000Y8717000D02*
Y8788000D01*
X7439500Y9006500D02*
X7510500D01*
X7475000Y8971000D02*
Y9042000D01*
X7439500Y8165000D02*
X7510500D01*
X7475000Y8129500D02*
Y8200500D01*
X7439500Y7911000D02*
X7510500D01*
X7475000Y7875500D02*
Y7946500D01*
X9265000Y9050000D02*
X9345000D01*
X9305000Y9010000D02*
Y9090000D01*
X8165000Y9050000D02*
X8245000D01*
X8205000Y9010000D02*
Y9090000D01*
X9078000Y7836000D02*
X9151000D01*
X9114500Y7799500D02*
Y7872500D01*
X8824000Y7836000D02*
X8897000D01*
X8860500Y7799500D02*
Y7872500D01*
X8570000Y7836000D02*
X8643000D01*
X8606500Y7799500D02*
Y7872500D01*
X8316000Y7836000D02*
X8389000D01*
X8352500Y7799500D02*
Y7872500D01*
X8316000Y8630000D02*
X8389000D01*
X8352500Y8593500D02*
Y8666500D01*
X8570000Y8630000D02*
X8643000D01*
X8606500Y8593500D02*
Y8666500D01*
X8824000Y8630000D02*
X8897000D01*
X8860500Y8593500D02*
Y8666500D01*
X9078000Y8630000D02*
X9151000D01*
X9114500Y8593500D02*
Y8666500D01*
X6090000Y10750000D02*
X6410000D01*
X6250000Y10590000D02*
Y10910000D01*
X15072501Y6006000D02*
X15192500D01*
X15132500Y5946000D02*
Y6066000D01*
X15072501Y6260000D02*
X15192500D01*
X15132500Y6200000D02*
Y6320000D01*
X9023000Y9707500D02*
X9097000D01*
X9060000Y9670500D02*
Y9744500D01*
X8483000Y9707500D02*
X8557000D01*
X8520000Y9670500D02*
Y9744500D01*
X15089999Y10750000D02*
X15410001D01*
X15250000Y10590000D02*
Y10910000D01*
X15089999Y4750000D02*
X15410001D01*
X15250000Y4590000D02*
Y4910000D01*
X6090000Y4750000D02*
X6410000D01*
X6250000Y4590000D02*
Y4910000D01*
X14697501Y10065504D02*
X14997501D01*
X14847501Y9915504D02*
Y10215504D01*
X14697501Y7614504D02*
X14997501D01*
X14847501Y7464504D02*
Y7764504D01*
X10002500Y7614504D02*
X10302500D01*
X10152500Y7464504D02*
Y7764504D01*
X10002500Y10065504D02*
X10302500D01*
X10152500Y9915504D02*
Y10215504D01*
X10444500Y7567504D02*
X10546500D01*
X10495500Y7516504D02*
Y7618504D01*
X10698500Y7567504D02*
X10800500D01*
X10749500Y7516504D02*
Y7618504D01*
X10952500Y7567504D02*
X11054500D01*
X11003500Y7516504D02*
Y7618504D01*
X11206500Y7567504D02*
X11308500D01*
X11257500Y7516504D02*
Y7618504D01*
X11460500Y7567504D02*
X11562500D01*
X11511500Y7516504D02*
Y7618504D01*
X11714500Y7567504D02*
X11816500D01*
X11765500Y7516504D02*
Y7618504D01*
X11968500Y7567504D02*
X12070500D01*
X12019500Y7516504D02*
Y7618504D01*
X12222500Y7567504D02*
X12324500D01*
X12273500Y7516504D02*
Y7618504D01*
X12476500Y7567504D02*
X12578500D01*
X12527500Y7516504D02*
Y7618504D01*
X12730500Y7567504D02*
X12832500D01*
X12781500Y7516504D02*
Y7618504D01*
X12984500Y7567504D02*
X13086501D01*
X13035500Y7516504D02*
Y7618504D01*
X13238499Y7567504D02*
X13340500D01*
X13289500Y7516504D02*
Y7618504D01*
X13492500Y7567504D02*
X13594501D01*
X13543500Y7516504D02*
Y7618504D01*
X13746500Y7567504D02*
X13848500D01*
X13797501Y7516504D02*
Y7618504D01*
X14000500Y7567504D02*
X14102499D01*
X14051500Y7516504D02*
Y7618504D01*
X10444500Y10107504D02*
X10546500D01*
X10495500Y10056504D02*
Y10158504D01*
X10698500Y10107504D02*
X10800500D01*
X10749500Y10056504D02*
Y10158504D01*
X10952500Y10107504D02*
X11054500D01*
X11003500Y10056504D02*
Y10158504D01*
X11206500Y10107504D02*
X11308500D01*
X11257500Y10056504D02*
Y10158504D01*
X11460500Y10107504D02*
X11562500D01*
X11511500Y10056504D02*
Y10158504D01*
X11714500Y10107504D02*
X11816500D01*
X11765500Y10056504D02*
Y10158504D01*
X11968500Y10107504D02*
X12070500D01*
X12019500Y10056504D02*
Y10158504D01*
X12222500Y10107504D02*
X12324500D01*
X12273500Y10056504D02*
Y10158504D01*
X12476500Y10107504D02*
X12578500D01*
X12527500Y10056504D02*
Y10158504D01*
X12730500Y10107504D02*
X12832500D01*
X12781500Y10056504D02*
Y10158504D01*
X12984500Y10107504D02*
X13086501D01*
X13035500Y10056504D02*
Y10158504D01*
X13238499Y10107504D02*
X13340500D01*
X13289500Y10056504D02*
Y10158504D01*
X13492500Y10107504D02*
X13594501D01*
X13543500Y10056504D02*
Y10158504D01*
X13746500Y10107504D02*
X13848500D01*
X13797501Y10056504D02*
Y10158504D01*
X14000500Y10107504D02*
X14102499D01*
X14051500Y10056504D02*
Y10158504D01*
X13220299Y6454995D02*
X13300299D01*
X13260300Y6414995D02*
Y6494995D01*
X13220299Y5354995D02*
X13300299D01*
X13260300Y5314995D02*
Y5394995D01*
X12730599Y6454995D02*
X12810599D01*
X12770599Y6414995D02*
Y6494995D01*
X12730599Y5354995D02*
X12810599D01*
X12770599Y5314995D02*
Y5394995D01*
X12240899Y6454995D02*
X12320899D01*
X12280899Y6414995D02*
Y6494995D01*
X12240899Y5354995D02*
X12320899D01*
X12280899Y5314995D02*
Y5394995D01*
X13887500Y5722500D02*
X13972501D01*
X13930000Y5680000D02*
Y5765000D01*
X14237500Y5722500D02*
X14322501D01*
X14280000Y5680000D02*
Y5765000D01*
X11751199Y6454995D02*
X11831199D01*
X11791199Y6414995D02*
Y6494995D01*
X11751199Y5354995D02*
X11831199D01*
X11791199Y5314995D02*
Y5394995D01*
X13902000Y6685000D02*
X13973000D01*
X13937500Y6649500D02*
Y6720500D01*
X14156000Y6685000D02*
X14227000D01*
X14191499Y6649500D02*
Y6720500D01*
X11261499Y6454995D02*
X11341499D01*
X11301499Y6414995D02*
Y6494995D01*
X11261499Y5354995D02*
X11341499D01*
X11301499Y5314995D02*
Y5394995D01*
X7532000Y7400000D02*
X7632000D01*
X7582000Y7350000D02*
Y7450000D01*
X7786000Y7400000D02*
X7886000D01*
X7836000Y7350000D02*
Y7450000D01*
X8040000Y7400000D02*
X8140000D01*
X8090000Y7350000D02*
Y7450000D01*
X8294000Y7400000D02*
X8394000D01*
X8344000Y7350000D02*
Y7450000D01*
X6763000Y7350000D02*
X6963000D01*
X6863000Y7250000D02*
Y7450000D01*
X8963000Y7350000D02*
X9163000D01*
X9063000Y7250000D02*
Y7450000D01*
X8963000Y5150000D02*
X9163000D01*
X9063000Y5050000D02*
Y5250000D01*
X6763000Y5150000D02*
X6963000D01*
X6863000Y5050000D02*
Y5250000D01*
X9781500Y5292500D02*
X9902500D01*
X9842000Y5232000D02*
Y5353000D01*
X9527500Y5292500D02*
X9648500D01*
X9588000Y5232000D02*
Y5353000D01*
X7413700Y9611000D02*
X7481700D01*
X7447700Y9577000D02*
Y9645000D01*
X7413700Y9865000D02*
X7481700D01*
X7447700Y9831000D02*
Y9899000D01*
X7540700Y9738000D02*
X7608700D01*
X7574700Y9704000D02*
Y9772000D01*
X10771800Y6454995D02*
X10851799D01*
X10811800Y6414995D02*
Y6494995D01*
X10771800Y5354995D02*
X10851799D01*
X10811800Y5314995D02*
Y5394995D01*
X10282100Y6454995D02*
X10362100D01*
X10322100Y6414995D02*
Y6494995D01*
X10282100Y5354995D02*
X10362100D01*
X10322100Y5314995D02*
Y5394995D01*
X12479440Y5995000D02*
X12550560D01*
X12515000Y5959440D02*
Y6030560D01*
X8439136Y8372196D02*
X8510256D01*
X8474696Y8336636D02*
Y8407756D01*
X8496940Y7665000D02*
X8568060D01*
X8532500Y7629440D02*
Y7700560D01*
X10768282Y6977500D02*
X10839402D01*
X10803842Y6941940D02*
Y7013060D01*
X13761940Y7079000D02*
X13833060D01*
X13797501Y7043440D02*
Y7114560D01*
X9986940Y4745000D02*
X10058060D01*
X10022500Y4709440D02*
Y4780560D01*
X9561940Y4865000D02*
X9633060D01*
X9597500Y4829440D02*
Y4900560D01*
%TF.MD5,00d4fa5f2fef63b058ac8683e0bc32a6*%
M02*
