%TF.GenerationSoftware,Altium Limited,Altium Designer,26.8.1 (31)*%
G04 Layer_Color=16711935*
G04 Board_Origin=0|0*
%FSLAX45Y45*%
%MOMM*%
%TF.SameCoordinates,F87090A8-5265-4E4C-9D90-9F268F9AD881*%
%TF.FilePolarity,Positive*%
%TF.FileFunction,Other,Mechanical_13*%
%TF.Part,Single*%
G01*
G75*
%TA.AperFunction,NonConductor*%
%ADD33C,0.20000*%
%ADD34C,0.12700*%
%ADD35C,0.10000*%
D33*
X15142500Y6485000D02*
G03*
X15142500Y6485000I-10000J0D01*
G01*
X14061501Y10322504D02*
G03*
X14061501Y10322504I-10000J0D01*
G01*
X7573000Y7600000D02*
G03*
X7573000Y7600000I-10000J0D01*
G01*
X9405000Y5292500D02*
G03*
X9405000Y5292500I-10000J0D01*
G01*
X7170400Y9738000D02*
G03*
X7725000Y9738000I277300J0D01*
G01*
D02*
G03*
X7170400Y9738000I-277300J0D01*
G01*
X7316000Y8625500D02*
Y9133500D01*
X7634000D01*
Y8625500D02*
Y9133500D01*
X7316000Y8625500D02*
X7634000D01*
Y7784000D02*
Y8292000D01*
X7316000Y7784000D02*
X7634000D01*
X7316000D02*
Y8292000D01*
X7634000D01*
X8575000Y9507500D02*
X9005000D01*
X8575000D02*
Y9907500D01*
X9005000D01*
Y9507500D02*
Y9907500D01*
X14318500Y6526000D02*
Y6844000D01*
X13810500D02*
X14318500D01*
X13810500Y6526000D02*
Y6844000D01*
Y6526000D02*
X14318500D01*
D34*
X9465000Y5135900D02*
G03*
X9465000Y5449100I250612J156600D01*
G01*
X9095000Y8920000D02*
Y9050000D01*
Y9180000D01*
X8415000D02*
X9095000D01*
X8415000Y9050000D02*
Y9180000D01*
Y8920000D02*
Y9050000D01*
Y8920000D02*
X9095000D01*
Y9050000D02*
X9245000D01*
X8265000D02*
X8415000D01*
X15402499Y5951000D02*
Y6061000D01*
Y5951000D02*
X15452499D01*
X15402499Y6061000D02*
X15452499D01*
X15402499Y6205000D02*
Y6315000D01*
Y6205000D02*
X15452499D01*
X15402499Y6315000D02*
X15452499D01*
X14807500Y6410000D02*
X15457500D01*
X14807500Y5856000D02*
Y6410000D01*
Y5856000D02*
X15457500D01*
Y6410000D01*
X14658501Y9158604D02*
X15047501D01*
X14658501Y8487504D02*
Y9158604D01*
Y8487504D02*
X15047501D01*
X10601500Y7959504D02*
Y9728504D01*
X9952500Y7959504D02*
X10601500D01*
X11864500D01*
Y9728504D01*
X10601500D02*
X11864500D01*
X9952500D02*
X10601500D01*
X9952500Y7414504D02*
Y7959504D01*
Y9728504D01*
Y10265504D01*
Y7414504D02*
X15047501D01*
X9952500Y10265504D02*
X15047501D01*
Y7414504D02*
Y8487504D01*
Y9158604D01*
Y10265504D01*
X13260300Y6244995D02*
Y6394995D01*
Y5414995D02*
Y5564995D01*
X13130299D02*
Y6244995D01*
X13260300D01*
X13390298D01*
Y5564995D02*
Y6244995D01*
X13260300Y5564995D02*
X13390298D01*
X13130299D02*
X13260300D01*
X12770599Y6244995D02*
Y6394995D01*
Y5414995D02*
Y5564995D01*
X12640599D02*
Y6244995D01*
X12770599D01*
X12900600D01*
Y5564995D02*
Y6244995D01*
X12770599Y5564995D02*
X12900600D01*
X12640599D02*
X12770599D01*
X12280899Y6244995D02*
Y6394995D01*
Y5414995D02*
Y5564995D01*
X12150899D02*
Y6244995D01*
X12280899D01*
X12410899D01*
Y5564995D02*
Y6244995D01*
X12280899Y5564995D02*
X12410899D01*
X12150899D02*
X12280899D01*
X11791199Y6244995D02*
Y6394995D01*
Y5414995D02*
Y5564995D01*
X11661199D02*
Y6244995D01*
X11791199D01*
X11921199D01*
Y5564995D02*
Y6244995D01*
X11791199Y5564995D02*
X11921199D01*
X11661199D02*
X11791199D01*
X11301499Y6244995D02*
Y6394995D01*
Y5414995D02*
Y5564995D01*
X11171499D02*
Y6244995D01*
X11301499D01*
X11431499D01*
Y5564995D02*
Y6244995D01*
X11301499Y5564995D02*
X11431499D01*
X11171499D02*
X11301499D01*
X6663000Y7550000D02*
X9263000D01*
Y4950000D02*
Y7550000D01*
X8663000Y4950000D02*
X9263000D01*
X6663000D02*
X7263000D01*
X6663000D02*
Y7550000D01*
X7263000Y4950000D02*
Y5150000D01*
X8663000D01*
Y4950000D02*
Y5150000D01*
X9465000Y5135900D02*
Y5449100D01*
X10811800Y6244995D02*
Y6394995D01*
Y5414995D02*
Y5564995D01*
X10681800D02*
Y6244995D01*
X10811800D01*
X10941800D01*
Y5564995D02*
Y6244995D01*
X10811800Y5564995D02*
X10941800D01*
X10681800D02*
X10811800D01*
X10322100Y6244995D02*
Y6394995D01*
Y5414995D02*
Y5564995D01*
X10192100D02*
Y6244995D01*
X10322100D01*
X10452100D01*
Y5564995D02*
Y6244995D01*
X10322100Y5564995D02*
X10452100D01*
X10192100D02*
X10322100D01*
D35*
X14505000Y5722500D02*
G03*
X14505000Y5722500I-400000J0D01*
G01*
X9114500Y8563000D02*
X9241500Y8436000D01*
X8225500Y8563000D02*
X9241500D01*
X8225500Y7903000D02*
Y8563000D01*
Y7903000D02*
X9241500D01*
Y8563000D01*
%TF.MD5,5cce5cc17dce3097ddd106270867941e*%
M02*
