%TF.GenerationSoftware,Altium Limited,Altium Designer,26.8.1 (31)*%
G04 Layer_Color=32768*
G04 Board_Origin=0|0*
%FSLAX45Y45*%
%MOMM*%
%TF.SameCoordinates,F87090A8-5265-4E4C-9D90-9F268F9AD881*%
%TF.FilePolarity,Positive*%
%TF.FileFunction,Other,Mechanical_15*%
%TF.Part,Single*%
G01*
G75*
%TA.AperFunction,NonConductor*%
%ADD35C,0.10000*%
%ADD37C,0.05000*%
D35*
X8356600Y9407500D02*
X9280000D01*
X8356600D02*
Y10007500D01*
X9280000D01*
Y9407500D02*
Y10007500D01*
X7070400Y9360700D02*
Y10115300D01*
Y9360700D02*
X7825000D01*
Y10115300D01*
X7070400D02*
X7825000D01*
D37*
X14555000Y5722500D02*
G03*
X14555000Y5722500I-450000J0D01*
G01*
X9440718Y5127299D02*
G03*
X9440718Y5457701I274941J165201D01*
G01*
X9120000Y8965000D02*
X9390000D01*
X9120000Y8895000D02*
Y8965000D01*
X8390000Y8895000D02*
X9120000D01*
X8390000D02*
Y8965000D01*
X8120000D02*
X8390000D01*
X8120000D02*
Y9135000D01*
X8390000D01*
Y9205000D01*
X9120000D01*
Y9135000D02*
Y9205000D01*
Y9135000D02*
X9390000D01*
Y8965000D02*
Y9135000D01*
X8200500Y8727500D02*
X9266500D01*
X8200500Y7738500D02*
Y8727500D01*
Y7738500D02*
X9266500D01*
Y8727500D01*
X15482500Y5831000D02*
Y6435000D01*
X14782500Y5831000D02*
X15482500D01*
X14782500D02*
Y6435000D01*
X15482500D01*
X15072501Y7389504D02*
Y10290504D01*
X9927500Y7389504D02*
X15072501D01*
X9927500D02*
Y10290504D01*
X15072501D01*
X13175299Y5269995D02*
X13345299D01*
Y5539995D01*
X13415298D01*
Y6269995D01*
X13345299D02*
X13415298D01*
X13345299D02*
Y6539995D01*
X13175299D02*
X13345299D01*
X13175299Y6269995D02*
Y6539995D01*
X13105299Y6269995D02*
X13175299D01*
X13105299Y5539995D02*
Y6269995D01*
Y5539995D02*
X13175299D01*
Y5269995D02*
Y5539995D01*
X12685599Y5269995D02*
X12855598D01*
Y5539995D01*
X12925600D01*
Y6269995D01*
X12855598D02*
X12925600D01*
X12855598D02*
Y6539995D01*
X12685599D02*
X12855598D01*
X12685599Y6269995D02*
Y6539995D01*
X12615599Y6269995D02*
X12685599D01*
X12615599Y5539995D02*
Y6269995D01*
Y5539995D02*
X12685599D01*
Y5269995D02*
Y5539995D01*
X12195899Y5269995D02*
X12365899D01*
Y5539995D01*
X12435899D01*
Y6269995D01*
X12365899D02*
X12435899D01*
X12365899D02*
Y6539995D01*
X12195899D02*
X12365899D01*
X12195899Y6269995D02*
Y6539995D01*
X12125899Y6269995D02*
X12195899D01*
X12125899Y5539995D02*
Y6269995D01*
Y5539995D02*
X12195899D01*
Y5269995D02*
Y5539995D01*
X11706199Y5269995D02*
X11876199D01*
Y5539995D01*
X11946199D01*
Y6269995D01*
X11876199D02*
X11946199D01*
X11876199D02*
Y6539995D01*
X11706199D02*
X11876199D01*
X11706199Y6269995D02*
Y6539995D01*
X11636199Y6269995D02*
X11706199D01*
X11636199Y5539995D02*
Y6269995D01*
Y5539995D02*
X11706199D01*
Y5269995D02*
Y5539995D01*
X11216499Y5269995D02*
X11386499D01*
Y5539995D01*
X11456499D01*
Y6269995D01*
X11386499D02*
X11456499D01*
X11386499D02*
Y6539995D01*
X11216499D02*
X11386499D01*
X11216499Y6269995D02*
Y6539995D01*
X11146499Y6269995D02*
X11216499D01*
X11146499Y5539995D02*
Y6269995D01*
Y5539995D02*
X11216499D01*
Y5269995D02*
Y5539995D01*
X6638000Y7575000D02*
X9288000D01*
Y4925000D02*
Y7575000D01*
X6638000Y4925000D02*
X9288000D01*
X6638000D02*
Y7575000D01*
X9440000Y5128500D02*
Y5456500D01*
X10726799Y5269995D02*
X10896800D01*
Y5539995D01*
X10966800D01*
Y6269995D01*
X10896800D02*
X10966800D01*
X10896800D02*
Y6539995D01*
X10726799D02*
X10896800D01*
X10726799Y6269995D02*
Y6539995D01*
X10656800Y6269995D02*
X10726799D01*
X10656800Y5539995D02*
Y6269995D01*
Y5539995D02*
X10726799D01*
Y5269995D02*
Y5539995D01*
X10237100Y5269995D02*
X10407100D01*
Y5539995D01*
X10477100D01*
Y6269995D01*
X10407100D02*
X10477100D01*
X10407100D02*
Y6539995D01*
X10237100D02*
X10407100D01*
X10237100Y6269995D02*
Y6539995D01*
X10167100Y6269995D02*
X10237100D01*
X10167100Y5539995D02*
Y6269995D01*
Y5539995D02*
X10237100D01*
Y5269995D02*
Y5539995D01*
%TF.MD5,71a3b9fc90517b760c54718b4f3a50b7*%
M02*
