%TF.GenerationSoftware,Altium Limited,Altium Designer,26.8.1 (31)*%
G04 Layer_Color=65535*
G04 Board_Origin=0|0*
%FSLAX45Y45*%
%MOMM*%
%TF.SameCoordinates,F87090A8-5265-4E4C-9D90-9F268F9AD881*%
%TF.FilePolarity,Positive*%
%TF.FileFunction,Legend,Top*%
%TF.Part,Single*%
G01*
G75*
%TA.AperFunction,NonConductor*%
%ADD10C,0.25400*%
%ADD33C,0.20000*%
%ADD34C,0.12700*%
%ADD35C,0.10000*%
G36*
X12910628Y10805267D02*
X12913960Y10804933D01*
X12917960Y10804600D01*
X12922292Y10803934D01*
X12926958Y10803267D01*
X12936955Y10800934D01*
X12942287Y10799268D01*
X12947952Y10797269D01*
X12953284Y10794936D01*
X12958617Y10792603D01*
X12963948Y10789271D01*
X12968947Y10785938D01*
X12969279Y10785605D01*
X12969946Y10784939D01*
X12971613Y10783939D01*
X12973279Y10782273D01*
X12975279Y10780273D01*
X12977945Y10777940D01*
X12980611Y10774941D01*
X12983611Y10771609D01*
X12986609Y10767943D01*
X12989607Y10763944D01*
X12992607Y10759278D01*
X12995607Y10754613D01*
X12998605Y10749281D01*
X13001273Y10743616D01*
X13003938Y10737284D01*
X13005937Y10730952D01*
X12972614Y10722954D01*
Y10723288D01*
X12972279Y10724287D01*
X12971613Y10725620D01*
X12970946Y10727620D01*
X12969946Y10729953D01*
X12968947Y10732619D01*
X12965948Y10738617D01*
X12962282Y10745282D01*
X12957950Y10751947D01*
X12952618Y10758279D01*
X12949619Y10760945D01*
X12946619Y10763611D01*
X12946286D01*
X12945953Y10764277D01*
X12944952Y10764944D01*
X12943620Y10765610D01*
X12941954Y10766610D01*
X12939954Y10767610D01*
X12934956Y10770276D01*
X12928624Y10772608D01*
X12921292Y10774608D01*
X12912961Y10775941D01*
X12903630Y10776607D01*
X12900632D01*
X12898631Y10776274D01*
X12896300D01*
X12893300Y10775941D01*
X12889967Y10775274D01*
X12886301Y10774941D01*
X12878638Y10773275D01*
X12870305Y10770609D01*
X12861974Y10766943D01*
X12857974Y10764944D01*
X12853976Y10762278D01*
X12853642D01*
X12852977Y10761611D01*
X12851978Y10760945D01*
X12850644Y10759612D01*
X12847311Y10756612D01*
X12843312Y10752280D01*
X12838647Y10746948D01*
X12833981Y10740283D01*
X12829649Y10732952D01*
X12826317Y10724287D01*
Y10723954D01*
X12825983Y10723288D01*
X12825650Y10721955D01*
X12824985Y10720288D01*
X12824316Y10717956D01*
X12823651Y10715290D01*
X12822984Y10712290D01*
X12822318Y10709291D01*
X12820985Y10701627D01*
X12819652Y10693295D01*
X12818652Y10684298D01*
X12818320Y10674967D01*
Y10674633D01*
Y10673634D01*
Y10671967D01*
Y10669635D01*
X12818652Y10666636D01*
X12818985Y10663303D01*
Y10659637D01*
X12819652Y10655638D01*
X12820651Y10646641D01*
X12822318Y10637310D01*
X12824651Y10627312D01*
X12827650Y10617981D01*
Y10617648D01*
X12827983Y10616982D01*
X12828648Y10615649D01*
X12829649Y10613982D01*
X12830649Y10611983D01*
X12831648Y10609650D01*
X12834981Y10604318D01*
X12839313Y10598320D01*
X12844312Y10592321D01*
X12850311Y10586656D01*
X12857309Y10581657D01*
X12857642D01*
X12858308Y10580991D01*
X12859308Y10580658D01*
X12860976Y10579658D01*
X12862640Y10578991D01*
X12864973Y10577992D01*
X12870305Y10575659D01*
X12876970Y10573326D01*
X12884302Y10571660D01*
X12892300Y10570327D01*
X12900964Y10569660D01*
X12903630D01*
X12905630Y10569994D01*
X12908296Y10570327D01*
X12910962Y10570660D01*
X12914294Y10570993D01*
X12917627Y10571660D01*
X12925291Y10573659D01*
X12933289Y10576659D01*
X12937622Y10578325D01*
X12941621Y10580658D01*
X12945621Y10582990D01*
X12949284Y10585989D01*
X12949619Y10586323D01*
X12950285Y10586656D01*
X12951285Y10587656D01*
X12952618Y10588989D01*
X12953951Y10590655D01*
X12955949Y10592988D01*
X12957950Y10595320D01*
X12959949Y10598320D01*
X12962282Y10601319D01*
X12964615Y10604985D01*
X12966614Y10608984D01*
X12968947Y10613316D01*
X12970946Y10618315D01*
X12972946Y10623313D01*
X12974612Y10628645D01*
X12976279Y10634644D01*
X13010271Y10625979D01*
Y10625646D01*
X13009602Y10624313D01*
X13008937Y10621980D01*
X13008270Y10618981D01*
X13006937Y10615649D01*
X13005270Y10611650D01*
X13003606Y10607317D01*
X13001273Y10602319D01*
X12998940Y10597320D01*
X12995940Y10591988D01*
X12992941Y10586989D01*
X12989275Y10581657D01*
X12985609Y10576325D01*
X12981277Y10571327D01*
X12976611Y10566661D01*
X12971613Y10562329D01*
X12971280Y10561996D01*
X12970280Y10561329D01*
X12968947Y10560329D01*
X12966614Y10558996D01*
X12963948Y10557330D01*
X12960616Y10555331D01*
X12956950Y10553664D01*
X12952951Y10551665D01*
X12947952Y10549332D01*
X12942953Y10547666D01*
X12937288Y10545666D01*
X12931290Y10544000D01*
X12924957Y10542667D01*
X12918294Y10541668D01*
X12911295Y10541001D01*
X12903964Y10540668D01*
X12899965D01*
X12896965Y10541001D01*
X12893633Y10541334D01*
X12889301Y10541668D01*
X12884969Y10542001D01*
X12879970Y10542667D01*
X12869305Y10544667D01*
X12857974Y10547666D01*
X12852310Y10549665D01*
X12846645Y10551998D01*
X12841313Y10554331D01*
X12836314Y10557330D01*
X12835982Y10557663D01*
X12835313Y10557997D01*
X12833981Y10558996D01*
X12831982Y10560663D01*
X12829982Y10562329D01*
X12827316Y10564328D01*
X12824651Y10566994D01*
X12821651Y10569994D01*
X12818320Y10572993D01*
X12815320Y10576659D01*
X12811987Y10580658D01*
X12808655Y10585323D01*
X12805322Y10589988D01*
X12802322Y10594987D01*
X12799324Y10600652D01*
X12796658Y10606318D01*
Y10606651D01*
X12795991Y10607651D01*
X12795325Y10609650D01*
X12794658Y10611983D01*
X12793658Y10614982D01*
X12792325Y10618315D01*
X12791326Y10622314D01*
X12789993Y10626979D01*
X12788660Y10631978D01*
X12787660Y10637310D01*
X12786327Y10642975D01*
X12785327Y10648640D01*
X12783994Y10661637D01*
X12783328Y10674967D01*
Y10675300D01*
Y10676633D01*
Y10678966D01*
X12783661Y10681632D01*
Y10685297D01*
X12783994Y10689296D01*
X12784661Y10693629D01*
X12785327Y10698627D01*
X12785994Y10703959D01*
X12786993Y10709625D01*
X12789659Y10721288D01*
X12793325Y10732952D01*
X12795658Y10738950D01*
X12798324Y10744616D01*
X12798657Y10744949D01*
X12798990Y10745949D01*
X12799990Y10747615D01*
X12801323Y10749614D01*
X12802657Y10751947D01*
X12804655Y10754946D01*
X12806989Y10757945D01*
X12809654Y10761611D01*
X12815652Y10768943D01*
X12823318Y10776274D01*
X12831982Y10783606D01*
X12836981Y10786938D01*
X12841978Y10789937D01*
X12842313Y10790271D01*
X12843312Y10790604D01*
X12844978Y10791270D01*
X12846979Y10792270D01*
X12849644Y10793603D01*
X12852643Y10794936D01*
X12856310Y10796269D01*
X12860307Y10797935D01*
X12864973Y10799268D01*
X12869640Y10800601D01*
X12880302Y10803267D01*
X12891966Y10804933D01*
X12897964Y10805600D01*
X12907962D01*
X12910628Y10805267D01*
D02*
G37*
G36*
X11839903Y10621980D02*
X11743261D01*
Y10653639D01*
X11839903D01*
Y10621980D01*
D02*
G37*
G36*
X13498145Y10545000D02*
X13462820D01*
X13363513Y10801268D01*
X13400504D01*
X13467152Y10614982D01*
Y10614649D01*
X13467487Y10613982D01*
X13467819Y10612649D01*
X13468486Y10611316D01*
X13469151Y10609317D01*
X13469820Y10606984D01*
X13471819Y10601319D01*
X13473817Y10594987D01*
X13476151Y10587989D01*
X13478484Y10580324D01*
X13480482Y10572993D01*
Y10573326D01*
X13480817Y10573993D01*
X13481149Y10574992D01*
X13481482Y10576659D01*
X13482149Y10578658D01*
X13482816Y10580658D01*
X13484482Y10585989D01*
X13486481Y10592321D01*
X13488814Y10599653D01*
X13491479Y10607317D01*
X13494479Y10614982D01*
X13563795Y10801268D01*
X13598119D01*
X13498145Y10545000D01*
D02*
G37*
G36*
X13989687Y10800934D02*
X13992685D01*
X13996350Y10800601D01*
X14000349Y10800268D01*
X14008681Y10799601D01*
X14017345Y10798268D01*
X14025676Y10796602D01*
X14029675Y10795602D01*
X14033008Y10794269D01*
X14033340D01*
X14033675Y10793936D01*
X14034674Y10793603D01*
X14036008Y10792937D01*
X14039339Y10791270D01*
X14043338Y10788604D01*
X14048004Y10785272D01*
X14052669Y10780940D01*
X14057335Y10775608D01*
X14061667Y10769609D01*
Y10769276D01*
X14062000Y10768943D01*
X14062666Y10767943D01*
X14063333Y10766610D01*
X14064999Y10762944D01*
X14066998Y10758279D01*
X14068999Y10752613D01*
X14070665Y10745949D01*
X14071999Y10738617D01*
X14072331Y10730952D01*
Y10730619D01*
Y10729619D01*
Y10728286D01*
X14071999Y10726287D01*
X14071664Y10723954D01*
X14071330Y10721288D01*
X14069998Y10714956D01*
X14067999Y10707625D01*
X14064999Y10699960D01*
X14063000Y10696295D01*
X14060667Y10692296D01*
X14057668Y10688630D01*
X14054669Y10684964D01*
X14054337Y10684631D01*
X14054002Y10684298D01*
X14052669Y10683298D01*
X14051337Y10681965D01*
X14049336Y10680632D01*
X14047005Y10678966D01*
X14044337Y10676966D01*
X14041339Y10674967D01*
X14037672Y10672967D01*
X14033675Y10670968D01*
X14029008Y10668968D01*
X14024010Y10666969D01*
X14018678Y10665303D01*
X14013013Y10663636D01*
X14006680Y10662303D01*
X14000015Y10661304D01*
X14000684Y10660970D01*
X14002348Y10660304D01*
X14004681Y10658971D01*
X14007681Y10657305D01*
X14014346Y10652972D01*
X14017345Y10650640D01*
X14020345Y10648307D01*
X14020679D01*
X14021011Y10647640D01*
X14023010Y10645974D01*
X14025676Y10642975D01*
X14029675Y10638976D01*
X14034007Y10634310D01*
X14038673Y10628312D01*
X14043672Y10621647D01*
X14048669Y10614316D01*
X14092992Y10545000D01*
X14050337D01*
X14016679Y10597986D01*
Y10598320D01*
X14016013Y10598986D01*
X14015346Y10600319D01*
X14014346Y10601652D01*
X14013013Y10603652D01*
X14011346Y10605984D01*
X14008014Y10610983D01*
X14004015Y10616648D01*
X14000015Y10622314D01*
X13996017Y10627979D01*
X13992018Y10632977D01*
X13991685Y10633644D01*
X13990352Y10634977D01*
X13988686Y10637310D01*
X13986353Y10639642D01*
X13983687Y10642642D01*
X13980688Y10645641D01*
X13977689Y10647974D01*
X13974689Y10650306D01*
X13974356Y10650640D01*
X13973357Y10650973D01*
X13972023Y10651973D01*
X13970024Y10652972D01*
X13967691Y10654305D01*
X13965025Y10655305D01*
X13959360Y10657305D01*
X13959027D01*
X13958360Y10657638D01*
X13957027D01*
X13955028Y10657971D01*
X13952362Y10658304D01*
X13949030D01*
X13945364Y10658638D01*
X13901375D01*
Y10545000D01*
X13867383D01*
Y10801268D01*
X13986687D01*
X13989687Y10800934D01*
D02*
G37*
G36*
X13814064Y10770942D02*
X13663103D01*
Y10692962D01*
X13804401D01*
Y10662637D01*
X13663103D01*
Y10575326D01*
X13820062D01*
Y10545000D01*
X13629111D01*
Y10801268D01*
X13814064D01*
Y10770942D01*
D02*
G37*
G36*
X13330188Y10545000D02*
X13296196D01*
Y10801268D01*
X13330188D01*
Y10545000D01*
D02*
G37*
G36*
X13237544Y10770942D02*
X13086583D01*
Y10692962D01*
X13227881D01*
Y10662637D01*
X13086583D01*
Y10575326D01*
X13243542D01*
Y10545000D01*
X13052592D01*
Y10801268D01*
X13237544D01*
Y10770942D01*
D02*
G37*
G36*
X12740339D02*
X12589377D01*
Y10692962D01*
X12730675D01*
Y10662637D01*
X12589377D01*
Y10575326D01*
X12746337D01*
Y10545000D01*
X12555386D01*
Y10801268D01*
X12740339D01*
Y10770942D01*
D02*
G37*
G36*
X12418754Y10800934D02*
X12421754D01*
X12425419Y10800601D01*
X12429418Y10800268D01*
X12437750Y10799601D01*
X12446414Y10798268D01*
X12454745Y10796602D01*
X12458744Y10795602D01*
X12462077Y10794269D01*
X12462410D01*
X12462743Y10793936D01*
X12463743Y10793603D01*
X12465076Y10792937D01*
X12468408Y10791270D01*
X12472407Y10788604D01*
X12477073Y10785272D01*
X12481738Y10780940D01*
X12486404Y10775608D01*
X12490736Y10769609D01*
Y10769276D01*
X12491069Y10768943D01*
X12491736Y10767943D01*
X12492402Y10766610D01*
X12494068Y10762944D01*
X12496068Y10758279D01*
X12498067Y10752613D01*
X12499734Y10745949D01*
X12501067Y10738617D01*
X12501400Y10730952D01*
Y10730619D01*
Y10729619D01*
Y10728286D01*
X12501067Y10726287D01*
X12500733Y10723954D01*
X12500400Y10721288D01*
X12499067Y10714956D01*
X12497068Y10707625D01*
X12494068Y10699960D01*
X12492069Y10696295D01*
X12489736Y10692296D01*
X12486737Y10688630D01*
X12483738Y10684964D01*
X12483405Y10684631D01*
X12483071Y10684298D01*
X12481738Y10683298D01*
X12480405Y10681965D01*
X12478406Y10680632D01*
X12476073Y10678966D01*
X12473407Y10676966D01*
X12470408Y10674967D01*
X12466742Y10672967D01*
X12462743Y10670968D01*
X12458078Y10668968D01*
X12453079Y10666969D01*
X12447747Y10665303D01*
X12442082Y10663636D01*
X12435750Y10662303D01*
X12429085Y10661304D01*
X12429752Y10660970D01*
X12431418Y10660304D01*
X12433751Y10658971D01*
X12436750Y10657305D01*
X12443415Y10652972D01*
X12446414Y10650640D01*
X12449413Y10648307D01*
X12449746D01*
X12450080Y10647640D01*
X12452079Y10645974D01*
X12454745Y10642975D01*
X12458744Y10638976D01*
X12463076Y10634310D01*
X12467742Y10628312D01*
X12472741Y10621647D01*
X12477739Y10614316D01*
X12522061Y10545000D01*
X12479406D01*
X12445748Y10597986D01*
Y10598320D01*
X12445081Y10598986D01*
X12444415Y10600319D01*
X12443415Y10601652D01*
X12442082Y10603652D01*
X12440416Y10605984D01*
X12437083Y10610983D01*
X12433084Y10616648D01*
X12429085Y10622314D01*
X12425086Y10627979D01*
X12421087Y10632977D01*
X12420754Y10633644D01*
X12419421Y10634977D01*
X12417755Y10637310D01*
X12415422Y10639642D01*
X12412756Y10642642D01*
X12409757Y10645641D01*
X12406758Y10647974D01*
X12403758Y10650306D01*
X12403425Y10650640D01*
X12402425Y10650973D01*
X12401092Y10651973D01*
X12399093Y10652972D01*
X12396760Y10654305D01*
X12394094Y10655305D01*
X12388429Y10657305D01*
X12388096D01*
X12387429Y10657638D01*
X12386096D01*
X12384097Y10657971D01*
X12381431Y10658304D01*
X12378098D01*
X12374432Y10658638D01*
X12330444D01*
Y10545000D01*
X12296452D01*
Y10801268D01*
X12415755D01*
X12418754Y10800934D01*
D02*
G37*
G36*
X12137160Y10545000D02*
X12103169D01*
Y10801268D01*
X12137160D01*
Y10545000D01*
D02*
G37*
G36*
X12053515Y10770942D02*
X11914550D01*
Y10691629D01*
X12034853D01*
Y10661304D01*
X11914550D01*
Y10545000D01*
X11880559D01*
Y10801268D01*
X12053515D01*
Y10770942D01*
D02*
G37*
G36*
X11699938Y10545000D02*
X11665947D01*
Y10801268D01*
X11699938D01*
Y10545000D01*
D02*
G37*
G36*
X11493991Y10575326D02*
X11619959D01*
Y10545000D01*
X11460000D01*
Y10801268D01*
X11493991D01*
Y10575326D01*
D02*
G37*
G36*
X12020691Y8994603D02*
X12022215D01*
X12024120Y8994412D01*
X12026215Y8994222D01*
X12030597Y8993460D01*
X12035359Y8992507D01*
X12040312Y8991174D01*
X12045075Y8989459D01*
X12045265D01*
X12045646Y8989269D01*
X12046218Y8988888D01*
X12047170Y8988507D01*
X12049456Y8987173D01*
X12052123Y8985459D01*
X12055362Y8983363D01*
X12058410Y8980696D01*
X12061648Y8977458D01*
X12064315Y8973838D01*
Y8973648D01*
X12064696Y8973457D01*
X12064887Y8972886D01*
X12065458Y8972124D01*
X12065839Y8971171D01*
X12066411Y8970028D01*
X12067744Y8967171D01*
X12069078Y8963742D01*
X12070221Y8959932D01*
X12071173Y8955550D01*
X12071554Y8950978D01*
X12052885Y8949645D01*
Y8949835D01*
Y8950216D01*
X12052695Y8950978D01*
X12052504Y8951931D01*
X12052314Y8953074D01*
X12051933Y8954407D01*
X12050980Y8957455D01*
X12049647Y8960694D01*
X12047932Y8964123D01*
X12045646Y8967552D01*
X12042598Y8970409D01*
X12042217Y8970790D01*
X12041646Y8970981D01*
X12041074Y8971552D01*
X12040122Y8972124D01*
X12038979Y8972695D01*
X12037645Y8973267D01*
X12036312Y8974029D01*
X12034597Y8974600D01*
X12032692Y8975172D01*
X12030597Y8975743D01*
X12028311Y8976315D01*
X12025834Y8976886D01*
X12023167Y8977077D01*
X12020310Y8977458D01*
X12014404D01*
X12012880Y8977267D01*
X12011356Y8977077D01*
X12007546Y8976696D01*
X12003355Y8975934D01*
X11999164Y8974791D01*
X11995164Y8973076D01*
X11993259Y8972124D01*
X11991735Y8970981D01*
X11991354Y8970600D01*
X11990401Y8969838D01*
X11989258Y8968504D01*
X11987734Y8966599D01*
X11986210Y8964313D01*
X11985067Y8961646D01*
X11984115Y8958598D01*
X11983734Y8955360D01*
Y8954979D01*
Y8954026D01*
X11984115Y8952693D01*
X11984496Y8950788D01*
X11985067Y8948692D01*
X11986020Y8946597D01*
X11987353Y8944501D01*
X11989258Y8942406D01*
X11989639Y8942215D01*
X11990020Y8941834D01*
X11990592Y8941644D01*
X11991354Y8941072D01*
X11992306Y8940501D01*
X11993640Y8939929D01*
X11994973Y8939358D01*
X11996878Y8938596D01*
X11998974Y8937643D01*
X12001260Y8936881D01*
X12003927Y8935929D01*
X12006975Y8934976D01*
X12010404Y8934024D01*
X12014214Y8933071D01*
X12018405Y8932119D01*
X12018595D01*
X12019357Y8931928D01*
X12020691Y8931547D01*
X12022215Y8931166D01*
X12024120Y8930785D01*
X12026406Y8930214D01*
X12028692Y8929642D01*
X12031359Y8928880D01*
X12036693Y8927547D01*
X12042027Y8926023D01*
X12044503Y8925070D01*
X12046980Y8924308D01*
X12049075Y8923546D01*
X12050790Y8922784D01*
X12050980D01*
X12051361Y8922594D01*
X12051933Y8922213D01*
X12052885Y8921641D01*
X12055171Y8920498D01*
X12058029Y8918784D01*
X12061077Y8916498D01*
X12064125Y8914021D01*
X12067173Y8910973D01*
X12069649Y8907735D01*
Y8907544D01*
X12069840Y8907354D01*
X12070221Y8906782D01*
X12070602Y8906211D01*
X12071554Y8904306D01*
X12072888Y8901829D01*
X12074031Y8898781D01*
X12074983Y8895162D01*
X12075745Y8891352D01*
X12075936Y8886970D01*
Y8886780D01*
Y8886399D01*
Y8885827D01*
X12075745Y8885065D01*
Y8883922D01*
X12075555Y8882779D01*
X12075174Y8879922D01*
X12074221Y8876493D01*
X12073078Y8872873D01*
X12071364Y8868873D01*
X12069078Y8865063D01*
Y8864872D01*
X12068697Y8864682D01*
X12068316Y8864110D01*
X12067935Y8863348D01*
X12066220Y8861443D01*
X12064125Y8859157D01*
X12061458Y8856681D01*
X12058219Y8854014D01*
X12054219Y8851347D01*
X12049837Y8849061D01*
X12049647D01*
X12049266Y8848870D01*
X12048504Y8848489D01*
X12047742Y8848108D01*
X12046408Y8847727D01*
X12045075Y8847346D01*
X12043551Y8846775D01*
X12041646Y8846203D01*
X12037645Y8845251D01*
X12032883Y8844298D01*
X12027549Y8843536D01*
X12021834Y8843346D01*
X12019929D01*
X12018595Y8843536D01*
X12016881D01*
X12014785Y8843727D01*
X12012690Y8843917D01*
X12010213Y8844108D01*
X12005070Y8844679D01*
X11999355Y8845822D01*
X11993830Y8847156D01*
X11988496Y8849061D01*
X11988306D01*
X11987925Y8849251D01*
X11987163Y8849632D01*
X11986210Y8850204D01*
X11985258Y8850775D01*
X11983924Y8851537D01*
X11980876Y8853442D01*
X11977447Y8855919D01*
X11974018Y8858967D01*
X11970589Y8862586D01*
X11967541Y8866587D01*
Y8866777D01*
X11967160Y8867158D01*
X11966779Y8867730D01*
X11966398Y8868682D01*
X11965827Y8869825D01*
X11965065Y8870968D01*
X11964493Y8872492D01*
X11963731Y8874207D01*
X11962207Y8878207D01*
X11960874Y8882589D01*
X11959921Y8887732D01*
X11959540Y8893066D01*
X11977828Y8894590D01*
Y8894400D01*
Y8894019D01*
X11978019Y8893447D01*
Y8892685D01*
X11978400Y8890780D01*
X11978971Y8888113D01*
X11979733Y8885256D01*
X11980876Y8882208D01*
X11982210Y8879160D01*
X11983734Y8876302D01*
X11983924Y8875921D01*
X11984686Y8875159D01*
X11985829Y8873826D01*
X11987353Y8872302D01*
X11989449Y8870397D01*
X11991925Y8868492D01*
X11994973Y8866587D01*
X11998402Y8864872D01*
X11998593D01*
X11998783Y8864682D01*
X11999355Y8864491D01*
X12000117Y8864301D01*
X12001069Y8863920D01*
X12002212Y8863539D01*
X12005070Y8862777D01*
X12008308Y8862015D01*
X12012118Y8861253D01*
X12016309Y8860872D01*
X12020881Y8860681D01*
X12022786D01*
X12024882Y8860872D01*
X12027549Y8861062D01*
X12030406Y8861443D01*
X12033835Y8862015D01*
X12037074Y8862777D01*
X12040312Y8863920D01*
X12040503D01*
X12040693Y8864110D01*
X12041646Y8864491D01*
X12043170Y8865253D01*
X12045075Y8866206D01*
X12047170Y8867539D01*
X12049266Y8869063D01*
X12051361Y8870778D01*
X12053076Y8872873D01*
X12053266Y8873064D01*
X12053647Y8873826D01*
X12054409Y8875159D01*
X12055171Y8876683D01*
X12055933Y8878588D01*
X12056695Y8880684D01*
X12057076Y8882970D01*
X12057267Y8885446D01*
Y8885827D01*
Y8886589D01*
X12057076Y8887923D01*
X12056695Y8889447D01*
X12056314Y8891352D01*
X12055552Y8893447D01*
X12054409Y8895543D01*
X12053076Y8897448D01*
X12052885Y8897638D01*
X12052314Y8898400D01*
X12051361Y8899353D01*
X12050028Y8900496D01*
X12048123Y8901829D01*
X12045837Y8903163D01*
X12043170Y8904687D01*
X12039931Y8906020D01*
X12039550Y8906211D01*
X12038788Y8906401D01*
X12038026Y8906782D01*
X12037074Y8906973D01*
X12035931Y8907354D01*
X12034407Y8907735D01*
X12032883Y8908306D01*
X12030978Y8908687D01*
X12028882Y8909259D01*
X12026406Y8910021D01*
X12023739Y8910592D01*
X12020691Y8911354D01*
X12017452Y8912116D01*
X12013833Y8913069D01*
X12013642D01*
X12012880Y8913259D01*
X12011928Y8913640D01*
X12010594Y8913831D01*
X12008880Y8914402D01*
X12007165Y8914783D01*
X12002784Y8916117D01*
X11998212Y8917450D01*
X11993449Y8919165D01*
X11989258Y8920689D01*
X11987353Y8921641D01*
X11985639Y8922403D01*
X11985448D01*
X11985258Y8922594D01*
X11984686Y8922975D01*
X11983924Y8923356D01*
X11982019Y8924499D01*
X11979733Y8926213D01*
X11977257Y8928118D01*
X11974590Y8930404D01*
X11972113Y8933071D01*
X11970018Y8935929D01*
Y8936119D01*
X11969827Y8936310D01*
X11969256Y8937453D01*
X11968494Y8938977D01*
X11967541Y8941263D01*
X11966589Y8943930D01*
X11965827Y8947168D01*
X11965255Y8950597D01*
X11965065Y8954217D01*
Y8954407D01*
Y8954788D01*
Y8955360D01*
X11965255Y8956122D01*
X11965446Y8958217D01*
X11965827Y8961075D01*
X11966589Y8964313D01*
X11967732Y8967742D01*
X11969256Y8971362D01*
X11971351Y8974981D01*
Y8975172D01*
X11971732Y8975362D01*
X11972494Y8976505D01*
X11974018Y8978410D01*
X11975923Y8980506D01*
X11978590Y8982792D01*
X11981638Y8985268D01*
X11985448Y8987554D01*
X11989639Y8989650D01*
X11989830D01*
X11990211Y8989840D01*
X11990782Y8990221D01*
X11991735Y8990412D01*
X11992878Y8990793D01*
X11994211Y8991364D01*
X11995735Y8991745D01*
X11997450Y8992317D01*
X12001450Y8993079D01*
X12006022Y8994031D01*
X12011166Y8994603D01*
X12016500Y8994793D01*
X12019167D01*
X12020691Y8994603D01*
D02*
G37*
G36*
X12280342Y8992698D02*
X12281676D01*
X12284533Y8992317D01*
X12287962Y8991555D01*
X12291582Y8990793D01*
X12295392Y8989459D01*
X12299202Y8987745D01*
X12299392D01*
X12299583Y8987554D01*
X12300154Y8987173D01*
X12300916Y8986792D01*
X12302631Y8985649D01*
X12304917Y8984125D01*
X12307393Y8982030D01*
X12310060Y8979553D01*
X12312537Y8976886D01*
X12314632Y8973648D01*
Y8973457D01*
X12314823Y8973267D01*
X12315585Y8972124D01*
X12316347Y8970219D01*
X12317490Y8967933D01*
X12318442Y8965075D01*
X12319395Y8961837D01*
X12319966Y8958408D01*
X12320157Y8954788D01*
Y8954598D01*
Y8954407D01*
Y8953264D01*
X12319966Y8951359D01*
X12319585Y8949073D01*
X12318823Y8946406D01*
X12318061Y8943549D01*
X12316728Y8940501D01*
X12315013Y8937453D01*
X12314823Y8937072D01*
X12314061Y8936119D01*
X12312918Y8934786D01*
X12311203Y8933071D01*
X12309108Y8930976D01*
X12306441Y8928880D01*
X12303393Y8926975D01*
X12299964Y8925070D01*
X12300154D01*
X12300535Y8924880D01*
X12301297Y8924689D01*
X12302059Y8924499D01*
X12303202Y8924118D01*
X12304536Y8923546D01*
X12307393Y8922403D01*
X12310632Y8920689D01*
X12313870Y8918403D01*
X12317299Y8915736D01*
X12320157Y8912497D01*
Y8912307D01*
X12320538Y8912116D01*
X12320919Y8911545D01*
X12321300Y8910783D01*
X12321871Y8909830D01*
X12322443Y8908878D01*
X12323776Y8906020D01*
X12325110Y8902591D01*
X12326253Y8898591D01*
X12327015Y8894209D01*
X12327396Y8889066D01*
Y8888875D01*
Y8888304D01*
Y8887161D01*
X12327205Y8885827D01*
X12327015Y8884113D01*
X12326634Y8882208D01*
X12326253Y8880112D01*
X12325681Y8877826D01*
X12324919Y8875350D01*
X12323967Y8872683D01*
X12322824Y8870016D01*
X12321490Y8867158D01*
X12319776Y8864491D01*
X12317871Y8861634D01*
X12315775Y8858967D01*
X12313299Y8856490D01*
X12313108Y8856300D01*
X12312727Y8855919D01*
X12311965Y8855347D01*
X12310822Y8854395D01*
X12309489Y8853442D01*
X12307774Y8852299D01*
X12305869Y8851156D01*
X12303774Y8850013D01*
X12301297Y8848680D01*
X12298630Y8847537D01*
X12295773Y8846394D01*
X12292534Y8845441D01*
X12289296Y8844489D01*
X12285676Y8843917D01*
X12282057Y8843536D01*
X12278056Y8843346D01*
X12276151D01*
X12274818Y8843536D01*
X12273294Y8843727D01*
X12271389Y8843917D01*
X12269103Y8844298D01*
X12266817Y8844870D01*
X12261864Y8846203D01*
X12259197Y8847156D01*
X12256530Y8848108D01*
X12253672Y8849442D01*
X12251005Y8850966D01*
X12248529Y8852680D01*
X12246052Y8854776D01*
X12245862Y8854966D01*
X12245481Y8855347D01*
X12244909Y8855919D01*
X12243957Y8856871D01*
X12243004Y8858014D01*
X12241861Y8859348D01*
X12240718Y8861062D01*
X12239385Y8862777D01*
X12238242Y8864872D01*
X12236908Y8867158D01*
X12235765Y8869635D01*
X12234622Y8872302D01*
X12233479Y8875159D01*
X12232717Y8878017D01*
X12231955Y8881255D01*
X12231574Y8884684D01*
X12249481Y8887161D01*
Y8886970D01*
X12249672Y8886399D01*
X12249862Y8885637D01*
X12250053Y8884684D01*
X12250434Y8883351D01*
X12250815Y8882017D01*
X12251958Y8878588D01*
X12253291Y8874969D01*
X12255196Y8871349D01*
X12257292Y8867730D01*
X12258435Y8866206D01*
X12259768Y8864872D01*
X12260149Y8864682D01*
X12261102Y8863920D01*
X12262626Y8862777D01*
X12264912Y8861634D01*
X12267579Y8860300D01*
X12270627Y8859348D01*
X12274246Y8858586D01*
X12278056Y8858205D01*
X12279390D01*
X12280152Y8858395D01*
X12281295D01*
X12282628Y8858586D01*
X12285486Y8859348D01*
X12288915Y8860300D01*
X12292534Y8861824D01*
X12296154Y8864110D01*
X12297868Y8865444D01*
X12299583Y8866968D01*
X12299773Y8867158D01*
X12299964Y8867349D01*
X12300345Y8867920D01*
X12300916Y8868492D01*
X12302440Y8870397D01*
X12303964Y8873064D01*
X12305488Y8876112D01*
X12307012Y8879922D01*
X12307965Y8884113D01*
X12308346Y8886399D01*
Y8888685D01*
Y8888875D01*
Y8889256D01*
Y8889828D01*
X12308155Y8890780D01*
Y8891733D01*
X12307965Y8893066D01*
X12307393Y8895924D01*
X12306441Y8899162D01*
X12304917Y8902591D01*
X12302821Y8905830D01*
X12301678Y8907544D01*
X12300154Y8909068D01*
X12299773Y8909449D01*
X12298630Y8910402D01*
X12296916Y8911545D01*
X12294630Y8913069D01*
X12291582Y8914593D01*
X12288153Y8915736D01*
X12284152Y8916688D01*
X12279580Y8917069D01*
X12277485D01*
X12276151Y8916879D01*
X12274246Y8916688D01*
X12271960Y8916307D01*
X12269484Y8915736D01*
X12266817Y8915164D01*
X12268912Y8930976D01*
X12269293D01*
X12269865Y8930785D01*
X12270817Y8930595D01*
X12272913D01*
X12273675Y8930785D01*
X12275961Y8930976D01*
X12278628Y8931357D01*
X12281866Y8932119D01*
X12285295Y8933071D01*
X12288915Y8934595D01*
X12292344Y8936500D01*
X12292534D01*
X12292725Y8936881D01*
X12293868Y8937643D01*
X12295392Y8939167D01*
X12297106Y8941072D01*
X12298821Y8943739D01*
X12300154Y8946978D01*
X12301297Y8950788D01*
X12301488Y8952883D01*
X12301678Y8955169D01*
Y8955360D01*
Y8955550D01*
X12301488Y8956884D01*
X12301297Y8958598D01*
X12300916Y8960884D01*
X12299964Y8963361D01*
X12298821Y8966028D01*
X12297106Y8968885D01*
X12294820Y8971362D01*
X12294439Y8971743D01*
X12293677Y8972505D01*
X12292153Y8973457D01*
X12290248Y8974791D01*
X12287772Y8975934D01*
X12284724Y8977077D01*
X12281485Y8977839D01*
X12277675Y8978029D01*
X12276723D01*
X12275961Y8977839D01*
X12273865Y8977648D01*
X12271389Y8977267D01*
X12268722Y8976315D01*
X12265674Y8975172D01*
X12262816Y8973648D01*
X12259959Y8971362D01*
X12259578Y8970981D01*
X12258816Y8970219D01*
X12257673Y8968695D01*
X12256339Y8966409D01*
X12254815Y8963742D01*
X12253291Y8960313D01*
X12252148Y8956312D01*
X12251196Y8951740D01*
X12233289Y8954979D01*
Y8955169D01*
X12233479Y8955741D01*
X12233670Y8956693D01*
X12234051Y8958027D01*
X12234432Y8959360D01*
X12235003Y8961265D01*
X12235575Y8963170D01*
X12236337Y8965266D01*
X12238432Y8969647D01*
X12240909Y8974219D01*
X12244147Y8978791D01*
X12246052Y8980887D01*
X12248148Y8982792D01*
X12248338Y8982982D01*
X12248719Y8983173D01*
X12249291Y8983744D01*
X12250243Y8984316D01*
X12251386Y8985078D01*
X12252720Y8986030D01*
X12254434Y8986983D01*
X12256149Y8987935D01*
X12258244Y8988697D01*
X12260340Y8989650D01*
X12265293Y8991364D01*
X12271008Y8992507D01*
X12274056Y8992698D01*
X12277294Y8992888D01*
X12279390D01*
X12280342Y8992698D01*
D02*
G37*
G36*
X12999861Y8932690D02*
X13064059Y8845822D01*
X13038342D01*
X12986145Y8919546D01*
X12962332Y8896495D01*
Y8845822D01*
X12942902D01*
Y8992317D01*
X12962332D01*
Y8919736D01*
X13035103Y8992317D01*
X13061392D01*
X12999861Y8932690D01*
D02*
G37*
G36*
X13380479Y8845822D02*
X13360287D01*
X13303519Y8992317D01*
X13324663D01*
X13362762Y8885827D01*
Y8885637D01*
X13362955Y8885256D01*
X13363144Y8884494D01*
X13363525Y8883732D01*
X13363905Y8882589D01*
X13364287Y8881255D01*
X13365430Y8878017D01*
X13366573Y8874397D01*
X13367908Y8870397D01*
X13369240Y8866015D01*
X13370383Y8861824D01*
Y8862015D01*
X13370573Y8862396D01*
X13370764Y8862967D01*
X13370955Y8863920D01*
X13371336Y8865063D01*
X13371716Y8866206D01*
X13372668Y8869254D01*
X13373811Y8872873D01*
X13375146Y8877064D01*
X13376669Y8881446D01*
X13378384Y8885827D01*
X13418008Y8992317D01*
X13437630D01*
X13380479Y8845822D01*
D02*
G37*
G36*
X12869177D02*
X12848985D01*
X12792216Y8992317D01*
X12813361D01*
X12851460Y8885827D01*
Y8885637D01*
X12851653Y8885256D01*
X12851842Y8884494D01*
X12852223Y8883732D01*
X12852605Y8882589D01*
X12852985Y8881255D01*
X12854128Y8878017D01*
X12855270Y8874397D01*
X12856606Y8870397D01*
X12857938Y8866015D01*
X12859081Y8861824D01*
Y8862015D01*
X12859271Y8862396D01*
X12859462Y8862967D01*
X12859653Y8863920D01*
X12860034Y8865063D01*
X12860416Y8866206D01*
X12861366Y8869254D01*
X12862511Y8872873D01*
X12863844Y8877064D01*
X12865369Y8881446D01*
X12867082Y8885827D01*
X12906706Y8992317D01*
X12926328D01*
X12869177Y8845822D01*
D02*
G37*
G36*
X13515353D02*
X13497447D01*
Y8960313D01*
X13497066Y8960122D01*
X13496304Y8959360D01*
X13494780Y8958027D01*
X13492876Y8956503D01*
X13490398Y8954598D01*
X13487350Y8952502D01*
X13484113Y8950216D01*
X13480302Y8947930D01*
X13480112D01*
X13479921Y8947740D01*
X13479349Y8947359D01*
X13478587Y8946978D01*
X13476492Y8945835D01*
X13474014Y8944501D01*
X13471158Y8942977D01*
X13467918Y8941453D01*
X13464680Y8939929D01*
X13461443Y8938596D01*
Y8956122D01*
X13461633D01*
X13462204Y8956503D01*
X13462965Y8956884D01*
X13463919Y8957455D01*
X13465253Y8958027D01*
X13466776Y8958979D01*
X13470396Y8960884D01*
X13474396Y8963361D01*
X13478967Y8966409D01*
X13483350Y8969647D01*
X13487730Y8973267D01*
X13487923Y8973457D01*
X13488303Y8973648D01*
X13488873Y8974219D01*
X13489636Y8974981D01*
X13491541Y8976886D01*
X13494019Y8979553D01*
X13496494Y8982411D01*
X13499161Y8985840D01*
X13501637Y8989269D01*
X13503732Y8992888D01*
X13515353D01*
Y8845822D01*
D02*
G37*
G36*
X13241605Y8974981D02*
X13193410D01*
Y8845822D01*
X13173978D01*
Y8974981D01*
X13125781D01*
Y8992317D01*
X13241605D01*
Y8974981D01*
D02*
G37*
G36*
X13102731Y8845822D02*
X13083299D01*
Y8992317D01*
X13102731D01*
Y8845822D01*
D02*
G37*
G36*
X12776976Y8974981D02*
X12690679D01*
Y8930404D01*
X12771451D01*
Y8913069D01*
X12690679D01*
Y8863158D01*
X12780405D01*
Y8845822D01*
X12671248D01*
Y8992317D01*
X12776976D01*
Y8974981D01*
D02*
G37*
G36*
X12579427Y8992126D02*
X12583047D01*
X12587238Y8991745D01*
X12591619Y8991364D01*
X12595810Y8990793D01*
X12599430Y8990031D01*
X12599620D01*
X12600001Y8989840D01*
X12600763Y8989650D01*
X12601525Y8989459D01*
X12602668Y8989078D01*
X12604002Y8988697D01*
X12606859Y8987745D01*
X12610288Y8986221D01*
X12613908Y8984506D01*
X12617527Y8982220D01*
X12620956Y8979553D01*
X12621147Y8979363D01*
X12621528Y8979172D01*
X12622099Y8978601D01*
X12622861Y8977839D01*
X12623814Y8976886D01*
X12624957Y8975743D01*
X12626100Y8974410D01*
X12627433Y8972886D01*
X12630291Y8969266D01*
X12633148Y8964885D01*
X12636006Y8960122D01*
X12638292Y8954598D01*
Y8954407D01*
X12638482Y8953836D01*
X12638863Y8953074D01*
X12639244Y8951931D01*
X12639625Y8950407D01*
X12640197Y8948692D01*
X12640768Y8946787D01*
X12641340Y8944501D01*
X12641721Y8942025D01*
X12642292Y8939358D01*
X12642864Y8936500D01*
X12643245Y8933452D01*
X12644007Y8926785D01*
X12644197Y8919736D01*
Y8919546D01*
Y8918974D01*
Y8918212D01*
Y8916879D01*
X12644007Y8915545D01*
Y8913831D01*
X12643816Y8911926D01*
X12643626Y8909830D01*
X12643245Y8905258D01*
X12642483Y8900305D01*
X12641530Y8895162D01*
X12640197Y8890209D01*
Y8890018D01*
X12640006Y8889637D01*
X12639816Y8888875D01*
X12639435Y8888113D01*
X12639054Y8886970D01*
X12638673Y8885637D01*
X12637530Y8882779D01*
X12636196Y8879350D01*
X12634482Y8875731D01*
X12632386Y8872111D01*
X12630291Y8868873D01*
X12630100Y8868492D01*
X12629148Y8867539D01*
X12628005Y8866015D01*
X12626290Y8864110D01*
X12624385Y8862015D01*
X12622099Y8859729D01*
X12619432Y8857633D01*
X12616765Y8855538D01*
X12616384Y8855347D01*
X12615432Y8854776D01*
X12613908Y8853823D01*
X12611812Y8852871D01*
X12609336Y8851728D01*
X12606288Y8850394D01*
X12602859Y8849251D01*
X12599239Y8848299D01*
X12599049D01*
X12598858Y8848108D01*
X12598287D01*
X12597525Y8847918D01*
X12596572Y8847727D01*
X12595429Y8847537D01*
X12592572Y8847156D01*
X12589143Y8846584D01*
X12585142Y8846203D01*
X12580570Y8846013D01*
X12575808Y8845822D01*
X12523039D01*
Y8992317D01*
X12577713D01*
X12579427Y8992126D01*
D02*
G37*
G36*
X12396928Y8992698D02*
X12398833Y8992507D01*
X12400929Y8992317D01*
X12403215Y8991936D01*
X12405691Y8991364D01*
X12411025Y8990031D01*
X12413692Y8989078D01*
X12416550Y8987935D01*
X12419407Y8986602D01*
X12422074Y8984887D01*
X12424551Y8983173D01*
X12427027Y8981077D01*
X12427218Y8980887D01*
X12427599Y8980506D01*
X12428170Y8979934D01*
X12428932Y8978982D01*
X12429885Y8977839D01*
X12431028Y8976505D01*
X12431980Y8974981D01*
X12433314Y8973076D01*
X12434457Y8971171D01*
X12435409Y8968885D01*
X12437505Y8963932D01*
X12438267Y8961265D01*
X12438838Y8958408D01*
X12439219Y8955360D01*
X12439410Y8952121D01*
Y8951740D01*
Y8950597D01*
X12439219Y8948883D01*
X12439029Y8946597D01*
X12438457Y8944120D01*
X12437886Y8941072D01*
X12436933Y8938024D01*
X12435790Y8934786D01*
X12435600Y8934405D01*
X12435028Y8933262D01*
X12434266Y8931547D01*
X12432933Y8929452D01*
X12431218Y8926785D01*
X12429123Y8923737D01*
X12426646Y8920308D01*
X12423789Y8916879D01*
Y8916688D01*
X12423408Y8916498D01*
X12422836Y8915926D01*
X12422265Y8915164D01*
X12421312Y8914212D01*
X12420169Y8913069D01*
X12418836Y8911735D01*
X12417121Y8910211D01*
X12415407Y8908497D01*
X12413311Y8906592D01*
X12411025Y8904306D01*
X12408549Y8902020D01*
X12405691Y8899543D01*
X12402834Y8897067D01*
X12399405Y8894209D01*
X12395976Y8891161D01*
X12395785Y8890971D01*
X12395214Y8890590D01*
X12394452Y8889828D01*
X12393309Y8889066D01*
X12392166Y8887923D01*
X12390642Y8886589D01*
X12387403Y8883732D01*
X12383784Y8880684D01*
X12380355Y8877636D01*
X12378831Y8876302D01*
X12377497Y8874969D01*
X12376164Y8873635D01*
X12375211Y8872683D01*
X12375021Y8872492D01*
X12374449Y8871921D01*
X12373687Y8870968D01*
X12372544Y8869635D01*
X12371401Y8868301D01*
X12370068Y8866587D01*
X12367591Y8863158D01*
X12439600D01*
Y8845822D01*
X12342636D01*
Y8846203D01*
Y8846965D01*
Y8848108D01*
X12342826Y8849823D01*
X12343017Y8851728D01*
X12343398Y8853823D01*
X12343969Y8855919D01*
X12344731Y8858205D01*
Y8858395D01*
X12344922Y8858586D01*
X12345112Y8859157D01*
X12345493Y8859919D01*
X12346255Y8861824D01*
X12347589Y8864301D01*
X12349303Y8867349D01*
X12351208Y8870587D01*
X12353685Y8874016D01*
X12356542Y8877636D01*
X12356733Y8877826D01*
X12356923Y8878017D01*
X12357495Y8878588D01*
X12358066Y8879350D01*
X12359971Y8881446D01*
X12362638Y8884113D01*
X12365877Y8887351D01*
X12369877Y8891161D01*
X12374640Y8895352D01*
X12380164Y8899924D01*
X12380355Y8900115D01*
X12381117Y8900877D01*
X12382450Y8901829D01*
X12383974Y8903163D01*
X12385879Y8904877D01*
X12388165Y8906782D01*
X12390642Y8908878D01*
X12393118Y8911164D01*
X12398452Y8916117D01*
X12403786Y8921260D01*
X12406263Y8923927D01*
X12408549Y8926404D01*
X12410644Y8928690D01*
X12412359Y8930976D01*
X12412549Y8931166D01*
X12412740Y8931547D01*
X12413121Y8932119D01*
X12413692Y8932881D01*
X12414264Y8934024D01*
X12415026Y8935167D01*
X12416740Y8938024D01*
X12418264Y8941263D01*
X12419598Y8944882D01*
X12420550Y8948883D01*
X12420931Y8950788D01*
Y8952693D01*
Y8952883D01*
Y8953264D01*
Y8953645D01*
X12420741Y8954407D01*
X12420550Y8956503D01*
X12419979Y8958979D01*
X12419026Y8961837D01*
X12417693Y8964694D01*
X12415788Y8967742D01*
X12413121Y8970600D01*
X12412740Y8970981D01*
X12411787Y8971743D01*
X12410073Y8972886D01*
X12407787Y8974410D01*
X12404929Y8975743D01*
X12401500Y8976886D01*
X12397500Y8977648D01*
X12393118Y8978029D01*
X12391785D01*
X12391023Y8977839D01*
X12389880D01*
X12388546Y8977648D01*
X12385689Y8977077D01*
X12382450Y8976124D01*
X12378831Y8974791D01*
X12375402Y8972886D01*
X12372354Y8970219D01*
X12371973Y8969838D01*
X12371211Y8968885D01*
X12369877Y8966980D01*
X12368544Y8964694D01*
X12367020Y8961456D01*
X12365686Y8957836D01*
X12364924Y8953645D01*
X12364543Y8948692D01*
X12346065Y8950597D01*
Y8950788D01*
X12346255Y8951550D01*
Y8952502D01*
X12346446Y8954026D01*
X12346827Y8955741D01*
X12347208Y8957646D01*
X12347779Y8959932D01*
X12348541Y8962218D01*
X12350256Y8967361D01*
X12351399Y8970028D01*
X12352732Y8972505D01*
X12354256Y8975172D01*
X12355971Y8977648D01*
X12357876Y8979934D01*
X12360162Y8982030D01*
X12360352Y8982220D01*
X12360733Y8982411D01*
X12361495Y8982982D01*
X12362448Y8983744D01*
X12363781Y8984506D01*
X12365305Y8985459D01*
X12367020Y8986411D01*
X12369115Y8987554D01*
X12371401Y8988507D01*
X12373878Y8989459D01*
X12376545Y8990412D01*
X12379593Y8991174D01*
X12382641Y8991936D01*
X12386070Y8992507D01*
X12389689Y8992698D01*
X12393499Y8992888D01*
X12395595D01*
X12396928Y8992698D01*
D02*
G37*
G36*
X12165852Y8992126D02*
X12169281Y8991936D01*
X12173091Y8991745D01*
X12176710Y8991364D01*
X12179758Y8990793D01*
X12180330D01*
X12180711Y8990602D01*
X12181473Y8990412D01*
X12183568Y8990031D01*
X12186045Y8989269D01*
X12188902Y8988316D01*
X12191760Y8987173D01*
X12194808Y8985649D01*
X12197665Y8983935D01*
X12198046Y8983744D01*
X12198808Y8982982D01*
X12200332Y8981839D01*
X12201856Y8980315D01*
X12203761Y8978410D01*
X12205857Y8975934D01*
X12207762Y8973076D01*
X12209476Y8969838D01*
Y8969647D01*
X12209667Y8969457D01*
X12209857Y8968885D01*
X12210238Y8968314D01*
X12211000Y8966409D01*
X12211762Y8963932D01*
X12212524Y8960884D01*
X12213286Y8957455D01*
X12213858Y8953836D01*
X12214048Y8949835D01*
Y8949645D01*
Y8949073D01*
Y8948121D01*
X12213858Y8946787D01*
X12213667Y8945073D01*
X12213477Y8943168D01*
X12213096Y8941072D01*
X12212524Y8938977D01*
X12211191Y8933833D01*
X12210238Y8931357D01*
X12208905Y8928690D01*
X12207571Y8926023D01*
X12206047Y8923356D01*
X12204142Y8920689D01*
X12202047Y8918212D01*
X12201856Y8918022D01*
X12201475Y8917641D01*
X12200713Y8917069D01*
X12199761Y8916117D01*
X12198427Y8915164D01*
X12196713Y8914212D01*
X12194617Y8912878D01*
X12192331Y8911735D01*
X12189474Y8910592D01*
X12186426Y8909449D01*
X12182806Y8908306D01*
X12178996Y8907354D01*
X12174615Y8906401D01*
X12169852Y8905830D01*
X12164709Y8905449D01*
X12159184Y8905258D01*
X12121846D01*
Y8845822D01*
X12102415D01*
Y8992317D01*
X12162613D01*
X12165852Y8992126D01*
D02*
G37*
G36*
X11935728Y8974981D02*
X11849431D01*
Y8930404D01*
X11930203D01*
Y8913069D01*
X11849431D01*
Y8863158D01*
X11939157D01*
Y8845822D01*
X11830000D01*
Y8992317D01*
X11935728D01*
Y8974981D01*
D02*
G37*
%LPC*%
G36*
X13987354Y10772942D02*
X13901375D01*
Y10687963D01*
X13979688D01*
X13982021Y10688297D01*
X13987354Y10688630D01*
X13993018Y10688963D01*
X13999350Y10689963D01*
X14005016Y10690963D01*
X14010347Y10692629D01*
X14011012Y10692962D01*
X14012680Y10693629D01*
X14015012Y10694628D01*
X14018011Y10696295D01*
X14021011Y10698294D01*
X14024342Y10700960D01*
X14027676Y10704293D01*
X14030342Y10707958D01*
X14030675Y10708292D01*
X14031342Y10709958D01*
X14032674Y10711957D01*
X14034007Y10714956D01*
X14035007Y10718289D01*
X14036340Y10722288D01*
X14037007Y10726287D01*
X14037340Y10730952D01*
Y10731286D01*
Y10731619D01*
Y10732619D01*
X14037007Y10733952D01*
X14036673Y10737284D01*
X14035674Y10741616D01*
X14034007Y10746282D01*
X14031676Y10751281D01*
X14028342Y10756279D01*
X14024010Y10760945D01*
X14023344Y10761611D01*
X14021344Y10762944D01*
X14018346Y10764610D01*
X14013680Y10766943D01*
X14011012Y10767943D01*
X14008014Y10769276D01*
X14004681Y10770276D01*
X14000684Y10770942D01*
X13996684Y10771942D01*
X13992351Y10772275D01*
X13987354Y10772942D01*
D02*
G37*
G36*
X12416422D02*
X12330444D01*
Y10687963D01*
X12408757D01*
X12411090Y10688297D01*
X12416422Y10688630D01*
X12422087Y10688963D01*
X12428419Y10689963D01*
X12434084Y10690963D01*
X12439416Y10692629D01*
X12440082Y10692962D01*
X12441749Y10693629D01*
X12444081Y10694628D01*
X12447081Y10696295D01*
X12450080Y10698294D01*
X12453412Y10700960D01*
X12456745Y10704293D01*
X12459411Y10707958D01*
X12459744Y10708292D01*
X12460410Y10709958D01*
X12461743Y10711957D01*
X12463076Y10714956D01*
X12464076Y10718289D01*
X12465409Y10722288D01*
X12466076Y10726287D01*
X12466409Y10730952D01*
Y10731286D01*
Y10731619D01*
Y10732619D01*
X12466076Y10733952D01*
X12465742Y10737284D01*
X12464743Y10741616D01*
X12463076Y10746282D01*
X12460744Y10751281D01*
X12457411Y10756279D01*
X12453079Y10760945D01*
X12452412Y10761611D01*
X12450413Y10762944D01*
X12447414Y10764610D01*
X12442748Y10766943D01*
X12440082Y10767943D01*
X12437083Y10769276D01*
X12433751Y10770276D01*
X12429752Y10770942D01*
X12425753Y10771942D01*
X12421420Y10772275D01*
X12416422Y10772942D01*
D02*
G37*
G36*
X12576379Y8974981D02*
X12542470D01*
Y8863158D01*
X12577332D01*
X12578665Y8863348D01*
X12581904Y8863539D01*
X12585523Y8863729D01*
X12589333Y8864301D01*
X12593143Y8864872D01*
X12596382Y8865825D01*
X12596572D01*
X12596763Y8866015D01*
X12597715Y8866396D01*
X12599239Y8866968D01*
X12601144Y8867730D01*
X12603240Y8868873D01*
X12605335Y8870016D01*
X12607621Y8871540D01*
X12609526Y8873254D01*
X12609907Y8873635D01*
X12610669Y8874588D01*
X12611812Y8876112D01*
X12613527Y8878207D01*
X12615241Y8880874D01*
X12616956Y8884113D01*
X12618670Y8887732D01*
X12620194Y8891923D01*
Y8892114D01*
X12620385Y8892495D01*
X12620575Y8893066D01*
X12620766Y8894019D01*
X12621147Y8895162D01*
X12621528Y8896495D01*
X12621909Y8898019D01*
X12622290Y8899734D01*
X12622480Y8901829D01*
X12622861Y8903925D01*
X12623623Y8908687D01*
X12624004Y8914212D01*
X12624195Y8920117D01*
Y8920308D01*
Y8921070D01*
Y8922403D01*
X12624004Y8923927D01*
Y8925832D01*
X12623814Y8927928D01*
X12623623Y8930404D01*
X12623242Y8933071D01*
X12622290Y8938786D01*
X12620956Y8944692D01*
X12619051Y8950216D01*
X12617908Y8952883D01*
X12616575Y8955360D01*
Y8955550D01*
X12616194Y8955931D01*
X12615813Y8956503D01*
X12615241Y8957455D01*
X12613527Y8959551D01*
X12611431Y8962027D01*
X12608764Y8964885D01*
X12605716Y8967552D01*
X12602097Y8970028D01*
X12600192Y8970981D01*
X12598287Y8971933D01*
X12597906Y8972124D01*
X12597525Y8972314D01*
X12596763Y8972505D01*
X12596001Y8972695D01*
X12594858Y8972886D01*
X12593715Y8973267D01*
X12592191Y8973457D01*
X12590667Y8973838D01*
X12588762Y8974029D01*
X12586666Y8974219D01*
X12584380Y8974600D01*
X12581904Y8974791D01*
X12579237D01*
X12576379Y8974981D01*
D02*
G37*
G36*
X12163756D02*
X12121846D01*
Y8922594D01*
X12161280D01*
X12162613Y8922784D01*
X12164137D01*
X12165852Y8922975D01*
X12169852Y8923546D01*
X12174234Y8924308D01*
X12178615Y8925451D01*
X12182616Y8927166D01*
X12184521Y8928309D01*
X12186045Y8929452D01*
X12186426Y8929833D01*
X12187378Y8930785D01*
X12188521Y8932309D01*
X12190045Y8934595D01*
X12191569Y8937453D01*
X12192712Y8940882D01*
X12193665Y8944692D01*
X12194046Y8949264D01*
Y8949454D01*
Y8949645D01*
Y8950788D01*
X12193855Y8952502D01*
X12193474Y8954598D01*
X12192903Y8957074D01*
X12191950Y8959741D01*
X12190807Y8962408D01*
X12189283Y8964885D01*
X12189093Y8965266D01*
X12188521Y8966028D01*
X12187378Y8967171D01*
X12186045Y8968504D01*
X12184330Y8970028D01*
X12182235Y8971362D01*
X12179758Y8972695D01*
X12177091Y8973648D01*
X12176901D01*
X12176139Y8973838D01*
X12174805Y8974029D01*
X12173091Y8974410D01*
X12170614Y8974600D01*
X12167566Y8974791D01*
X12163756Y8974981D01*
D02*
G37*
%LPD*%
D10*
X7090000Y9215783D02*
X7064608Y9241175D01*
X7013825D01*
X6988433Y9215783D01*
Y9114216D01*
X7013825Y9088825D01*
X7064608D01*
X7090000Y9114216D01*
X7140784Y9088825D02*
X7191567D01*
X7166176D01*
Y9241175D01*
X7140784Y9215783D01*
X7064608Y8400784D02*
X7039216Y8426175D01*
X6988433D01*
X6963041Y8400784D01*
Y8299217D01*
X6988433Y8273825D01*
X7039216D01*
X7064608Y8299217D01*
X7216959Y8273825D02*
X7115392D01*
X7216959Y8375392D01*
Y8400784D01*
X7191567Y8426175D01*
X7140784D01*
X7115392Y8400784D01*
X9465933Y8956325D02*
Y9108675D01*
X9542108D01*
X9567500Y9083284D01*
Y9032500D01*
X9542108Y9007108D01*
X9465933D01*
X9516717D02*
X9567500Y8956325D01*
X9618284D02*
X9669067D01*
X9643676D01*
Y9108675D01*
X9618284Y9083284D01*
X9338454Y8606675D02*
X9389237D01*
X9363845D01*
Y8454325D01*
X9338454D01*
X9389237D01*
X9566980Y8581284D02*
X9541588Y8606675D01*
X9490804D01*
X9465412Y8581284D01*
Y8479717D01*
X9490804Y8454325D01*
X9541588D01*
X9566980Y8479717D01*
X9617763Y8454325D02*
X9668547D01*
X9643155D01*
Y8606675D01*
X9617763Y8581284D01*
X15046967Y5617359D02*
X15021574Y5642751D01*
X14970792D01*
X14945399Y5617359D01*
Y5515792D01*
X14970792Y5490400D01*
X15021574D01*
X15046967Y5515792D01*
Y5566575D01*
X14996182D01*
X15097751Y5490400D02*
Y5642751D01*
X15199318Y5490400D01*
Y5642751D01*
X15250101D02*
Y5490400D01*
X15326277D01*
X15351669Y5515792D01*
Y5617359D01*
X15326277Y5642751D01*
X15250101D01*
X14942900Y6696575D02*
X15044467D01*
X14993683Y6747359D02*
Y6645792D01*
X15196819Y6772751D02*
X15095251D01*
Y6696575D01*
X15146034Y6721967D01*
X15171426D01*
X15196819Y6696575D01*
Y6645792D01*
X15171426Y6620400D01*
X15120644D01*
X15095251Y6645792D01*
X15247601Y6772751D02*
Y6671184D01*
X15298386Y6620400D01*
X15349168Y6671184D01*
Y6772751D01*
X15674599Y5770400D02*
X15522247D01*
Y5846575D01*
X15547639Y5871967D01*
X15598422D01*
X15623814Y5846575D01*
Y5770400D01*
X15522247Y5998926D02*
Y5948142D01*
X15547639Y5922750D01*
X15649207D01*
X15674599Y5948142D01*
Y5998926D01*
X15649207Y6024318D01*
X15547639D01*
X15522247Y5998926D01*
Y6075101D02*
X15674599D01*
X15623814Y6125885D01*
X15674599Y6176668D01*
X15522247D01*
Y6329019D02*
Y6227452D01*
X15674599D01*
Y6329019D01*
X15598422Y6227452D02*
Y6278235D01*
X15674599Y6379803D02*
X15522247D01*
Y6455978D01*
X15547639Y6481370D01*
X15598422D01*
X15623814Y6455978D01*
Y6379803D01*
Y6430586D02*
X15674599Y6481370D01*
X7925400Y10177900D02*
Y10330251D01*
X8001575D01*
X8026967Y10304859D01*
Y10254075D01*
X8001575Y10228683D01*
X7925400D01*
X8077751Y10330251D02*
Y10177900D01*
Y10254075D01*
X8103143Y10279467D01*
X8153926D01*
X8179318Y10254075D01*
Y10177900D01*
X8255493D02*
X8306277D01*
X8331669Y10203292D01*
Y10254075D01*
X8306277Y10279467D01*
X8255493D01*
X8230101Y10254075D01*
Y10203292D01*
X8255493Y10177900D01*
X8407844Y10304859D02*
Y10279467D01*
X8382452D01*
X8433236D01*
X8407844D01*
Y10203292D01*
X8433236Y10177900D01*
X8534803D02*
X8585586D01*
X8610978Y10203292D01*
Y10254075D01*
X8585586Y10279467D01*
X8534803D01*
X8509411Y10254075D01*
Y10203292D01*
X8534803Y10177900D01*
X8763329Y10330251D02*
Y10177900D01*
X8687154D01*
X8661762Y10203292D01*
Y10254075D01*
X8687154Y10279467D01*
X8763329D01*
X8890288Y10177900D02*
X8839504D01*
X8814112Y10203292D01*
Y10254075D01*
X8839504Y10279467D01*
X8890288D01*
X8915680Y10254075D01*
Y10228683D01*
X8814112D01*
X8991855Y10304859D02*
Y10279467D01*
X8966463D01*
X9017247D01*
X8991855D01*
Y10203292D01*
X9017247Y10177900D01*
X9169597D02*
X9118814D01*
X9093422Y10203292D01*
Y10254075D01*
X9118814Y10279467D01*
X9169597D01*
X9194989Y10254075D01*
Y10228683D01*
X9093422D01*
X9347340Y10279467D02*
X9271165D01*
X9245773Y10254075D01*
Y10203292D01*
X9271165Y10177900D01*
X9347340D01*
X9423515Y10304859D02*
Y10279467D01*
X9398123D01*
X9448907D01*
X9423515D01*
Y10203292D01*
X9448907Y10177900D01*
X9550474D02*
X9601258D01*
X9626650Y10203292D01*
Y10254075D01*
X9601258Y10279467D01*
X9550474D01*
X9525082Y10254075D01*
Y10203292D01*
X9550474Y10177900D01*
X9677433Y10279467D02*
Y10177900D01*
Y10228683D01*
X9702825Y10254075D01*
X9728217Y10279467D01*
X9753608D01*
X7397900Y4743534D02*
Y4591184D01*
X7474075D01*
X7499467Y4616575D01*
Y4718142D01*
X7474075Y4743534D01*
X7397900D01*
X7550251Y4591184D02*
X7601034D01*
X7575643D01*
Y4692751D01*
X7550251D01*
X7677210Y4591184D02*
X7753385D01*
X7778777Y4616575D01*
X7753385Y4641967D01*
X7702602D01*
X7677210Y4667359D01*
X7702602Y4692751D01*
X7778777D01*
X7829560Y4540400D02*
Y4692751D01*
X7905736D01*
X7931128Y4667359D01*
Y4616575D01*
X7905736Y4591184D01*
X7829560D01*
X7981911D02*
X8032695D01*
X8007303D01*
Y4743534D01*
X7981911D01*
X8134262Y4692751D02*
X8185045D01*
X8210437Y4667359D01*
Y4591184D01*
X8134262D01*
X8108870Y4616575D01*
X8134262Y4641967D01*
X8210437D01*
X8261221Y4692751D02*
Y4616575D01*
X8286613Y4591184D01*
X8362788D01*
Y4565792D01*
X8337396Y4540400D01*
X8312004D01*
X8362788Y4591184D02*
Y4692751D01*
X6659880Y7848551D02*
Y7721592D01*
X6685272Y7696200D01*
X6736055D01*
X6761447Y7721592D01*
Y7848551D01*
X6913798Y7696200D02*
X6812231D01*
X6913798Y7797767D01*
Y7823159D01*
X6888406Y7848551D01*
X6837623D01*
X6812231Y7823159D01*
X9936480Y10570035D02*
Y10443076D01*
X9961872Y10417684D01*
X10012655D01*
X10038047Y10443076D01*
Y10570035D01*
X10088831Y10417684D02*
X10139614D01*
X10114223D01*
Y10570035D01*
X10088831Y10544643D01*
X10190480Y6618215D02*
Y6770566D01*
X10266655D01*
X10292047Y6745174D01*
Y6694391D01*
X10266655Y6668999D01*
X10190480D01*
X10241263D02*
X10292047Y6618215D01*
X10342831Y6745174D02*
X10368223Y6770566D01*
X10419006D01*
X10444398Y6745174D01*
Y6719783D01*
X10419006Y6694391D01*
X10444398Y6668999D01*
Y6643607D01*
X10419006Y6618215D01*
X10368223D01*
X10342831Y6643607D01*
Y6668999D01*
X10368223Y6694391D01*
X10342831Y6719783D01*
Y6745174D01*
X10368223Y6694391D02*
X10419006D01*
X10680700Y6618215D02*
Y6770566D01*
X10756875D01*
X10782267Y6745174D01*
Y6694391D01*
X10756875Y6668999D01*
X10680700D01*
X10731483D02*
X10782267Y6618215D01*
X10833051Y6770566D02*
X10934618D01*
Y6745174D01*
X10833051Y6643607D01*
Y6618215D01*
X11168380D02*
Y6770566D01*
X11244555D01*
X11269947Y6745174D01*
Y6694391D01*
X11244555Y6668999D01*
X11168380D01*
X11219163D02*
X11269947Y6618215D01*
X11422298Y6770566D02*
X11371514Y6745174D01*
X11320731Y6694391D01*
Y6643607D01*
X11346123Y6618215D01*
X11396906D01*
X11422298Y6643607D01*
Y6668999D01*
X11396906Y6694391D01*
X11320731D01*
X11658600Y6618215D02*
Y6770566D01*
X11734775D01*
X11760167Y6745174D01*
Y6694391D01*
X11734775Y6668999D01*
X11658600D01*
X11709383D02*
X11760167Y6618215D01*
X11912518Y6770566D02*
X11810951D01*
Y6694391D01*
X11861734Y6719783D01*
X11887126D01*
X11912518Y6694391D01*
Y6643607D01*
X11887126Y6618215D01*
X11836343D01*
X11810951Y6643607D01*
X12148820Y6618215D02*
Y6770566D01*
X12224995D01*
X12250387Y6745174D01*
Y6694391D01*
X12224995Y6668999D01*
X12148820D01*
X12199603D02*
X12250387Y6618215D01*
X12377346D02*
Y6770566D01*
X12301171Y6694391D01*
X12402738D01*
X12639040Y6618215D02*
Y6770566D01*
X12715215D01*
X12740607Y6745174D01*
Y6694391D01*
X12715215Y6668999D01*
X12639040D01*
X12689823D02*
X12740607Y6618215D01*
X12791391Y6745174D02*
X12816783Y6770566D01*
X12867566D01*
X12892958Y6745174D01*
Y6719783D01*
X12867566Y6694391D01*
X12842174D01*
X12867566D01*
X12892958Y6668999D01*
Y6643607D01*
X12867566Y6618215D01*
X12816783D01*
X12791391Y6643607D01*
X13129260Y6618215D02*
Y6770566D01*
X13205435D01*
X13230827Y6745174D01*
Y6694391D01*
X13205435Y6668999D01*
X13129260D01*
X13180043D02*
X13230827Y6618215D01*
X13383179D02*
X13281612D01*
X13383179Y6719783D01*
Y6745174D01*
X13357787Y6770566D01*
X13307002D01*
X13281612Y6745174D01*
X7193107Y10220952D02*
Y10322519D01*
X7167715Y10347911D01*
X7116932D01*
X7091540Y10322519D01*
Y10220952D01*
X7116932Y10195560D01*
X7167715D01*
X7142323Y10246343D02*
X7193107Y10195560D01*
X7167715D02*
X7193107Y10220952D01*
X7243891Y10195560D02*
X7294674D01*
X7269282D01*
Y10347911D01*
X7243891Y10322519D01*
X14652499Y5874675D02*
X14601717D01*
X14627107D01*
Y5747716D01*
X14601717Y5722325D01*
X14576324D01*
X14550932Y5747716D01*
X14703284Y5722325D02*
X14754066D01*
X14728676D01*
Y5874675D01*
X14703284Y5849283D01*
X9400540Y5844491D02*
Y5692140D01*
X9476715D01*
X9502107Y5717532D01*
Y5819099D01*
X9476715Y5844491D01*
X9400540D01*
X9654458Y5692140D02*
X9552891D01*
X9654458Y5793707D01*
Y5819099D01*
X9629066Y5844491D01*
X9578283D01*
X9552891Y5819099D01*
X9340933Y9581175D02*
Y9428825D01*
X9417108D01*
X9442500Y9454217D01*
Y9555784D01*
X9417108Y9581175D01*
X9340933D01*
X9493284Y9428825D02*
X9544067D01*
X9518676D01*
Y9581175D01*
X9493284Y9555784D01*
X13926787Y7056079D02*
X13901395Y7081471D01*
X13850612D01*
X13825220Y7056079D01*
Y6954512D01*
X13850612Y6929120D01*
X13901395D01*
X13926787Y6954512D01*
X14053746Y6929120D02*
Y7081471D01*
X13977571Y7005295D01*
X14079138D01*
X13779466Y6377899D02*
X13754076Y6403291D01*
X13703291D01*
X13677901Y6377899D01*
Y6276332D01*
X13703291Y6250940D01*
X13754076D01*
X13779466Y6276332D01*
X13830251Y6377899D02*
X13855643Y6403291D01*
X13906425D01*
X13931818Y6377899D01*
Y6352507D01*
X13906425Y6327115D01*
X13881033D01*
X13906425D01*
X13931818Y6301723D01*
Y6276332D01*
X13906425Y6250940D01*
X13855643D01*
X13830251Y6276332D01*
D33*
X15142500Y6485000D02*
G03*
X15142500Y6485000I-10000J0D01*
G01*
X9170000Y9717500D02*
G03*
X9170000Y9697500I0J-10000D01*
G01*
D02*
G03*
X9170000Y9717500I0J10000D01*
G01*
X14061501Y10322504D02*
G03*
X14061501Y10322504I-10000J0D01*
G01*
X14505000Y5722500D02*
G03*
X14505000Y5722500I-400000J0D01*
G01*
X7573000Y7600000D02*
G03*
X7573000Y7600000I-10000J0D01*
G01*
X9405000Y5292500D02*
G03*
X9405000Y5292500I-10000J0D01*
G01*
X7724999Y9736816D02*
G03*
X7170400Y9737784I-277299J484D01*
G01*
D02*
G03*
X7724999Y9736816I277299J-484D01*
G01*
X7774700Y9748000D02*
G03*
X7774700Y9728000I0J-10000D01*
G01*
D02*
G03*
X7774700Y9748000I0J10000D01*
G01*
X7170400Y9738000D02*
G03*
X7725000Y9738000I277300J0D01*
G01*
D02*
G03*
X7170400Y9738000I-277300J0D01*
G01*
X7316000Y8625500D02*
Y9133500D01*
X7634000D01*
Y8625500D02*
Y9133500D01*
X7316000Y8625500D02*
X7634000D01*
Y7784000D02*
Y8292000D01*
X7316000Y7784000D02*
X7634000D01*
X7316000D02*
Y8292000D01*
X7634000D01*
X8225500Y7903000D02*
Y8563000D01*
X9241500Y7903000D02*
Y8686500D01*
X14318500Y6526000D02*
Y6844000D01*
X13810500D02*
X14318500D01*
X13810500Y6526000D02*
Y6844000D01*
Y6526000D02*
X14318500D01*
D34*
X9465000Y5135900D02*
G03*
X9465000Y5449100I250612J156600D01*
G01*
X9095000Y8920000D02*
Y9050000D01*
Y9180000D01*
X8415000D02*
X9095000D01*
X8415000Y9050000D02*
Y9180000D01*
Y8920000D02*
Y9050000D01*
Y8920000D02*
X9095000D01*
Y9050000D02*
X9213000D01*
X8297000D02*
X8415000D01*
X14807500Y6410000D02*
X15457500D01*
X14807500Y5856000D02*
Y6410000D01*
Y5856000D02*
X15457500D01*
Y6410000D01*
X9952500Y7414504D02*
Y7959504D01*
Y9728504D01*
Y10265504D01*
Y7414504D02*
X15047501D01*
X9952500Y10265504D02*
X15047501D01*
Y7414504D02*
Y8487504D01*
Y9158604D01*
Y10265504D01*
X9952500D02*
X15047501D01*
Y7414504D02*
Y10265504D01*
X9952500Y7414504D02*
Y10265504D01*
Y7414504D02*
X15047501D01*
X13260300Y6244995D02*
Y6362995D01*
Y5446995D02*
Y5564995D01*
X13130299D02*
Y6244995D01*
X13260300D01*
X13390298D01*
Y5564995D02*
Y6244995D01*
X13260300Y5564995D02*
X13390298D01*
X13130299D02*
X13260300D01*
X12770599Y6244995D02*
Y6362995D01*
Y5446995D02*
Y5564995D01*
X12640599D02*
Y6244995D01*
X12770599D01*
X12900600D01*
Y5564995D02*
Y6244995D01*
X12770599Y5564995D02*
X12900600D01*
X12640599D02*
X12770599D01*
X12280899Y6244995D02*
Y6362995D01*
Y5446995D02*
Y5564995D01*
X12150899D02*
Y6244995D01*
X12280899D01*
X12410899D01*
Y5564995D02*
Y6244995D01*
X12280899Y5564995D02*
X12410899D01*
X12150899D02*
X12280899D01*
X11791199Y6244995D02*
Y6362995D01*
Y5446995D02*
Y5564995D01*
X11661199D02*
Y6244995D01*
X11791199D01*
X11921199D01*
Y5564995D02*
Y6244995D01*
X11791199Y5564995D02*
X11921199D01*
X11661199D02*
X11791199D01*
X11301499Y6244995D02*
Y6362995D01*
Y5446995D02*
Y5564995D01*
X11171499D02*
Y6244995D01*
X11301499D01*
X11431499D01*
Y5564995D02*
Y6244995D01*
X11301499Y5564995D02*
X11431499D01*
X11171499D02*
X11301499D01*
X6663000Y7550000D02*
X9263000D01*
Y4950000D02*
Y7550000D01*
X8663000Y4950000D02*
X9263000D01*
X8663000D02*
Y5150000D01*
X7263000D02*
X8663000D01*
X7263000Y4950000D02*
Y5150000D01*
X6663000Y4950000D02*
X7263000D01*
X6663000D02*
Y7550000D01*
X9465000Y5135900D02*
Y5449100D01*
X10811800Y6244995D02*
Y6362995D01*
Y5446995D02*
Y5564995D01*
X10681800D02*
Y6244995D01*
X10811800D01*
X10941800D01*
Y5564995D02*
Y6244995D01*
X10811800Y5564995D02*
X10941800D01*
X10681800D02*
X10811800D01*
X10322100Y6244995D02*
Y6362995D01*
Y5446995D02*
Y5564995D01*
X10192100D02*
Y6244995D01*
X10322100D01*
X10452100D01*
Y5564995D02*
Y6244995D01*
X10322100Y5564995D02*
X10452100D01*
X10192100D02*
X10322100D01*
D35*
X9005000Y9507500D02*
Y9607500D01*
X8575000Y9507500D02*
X9005000D01*
X8575000D02*
Y9607500D01*
X9005000Y9807500D02*
Y9907500D01*
X8575000D02*
X9005000D01*
X8575000Y9807500D02*
Y9907500D01*
%TF.MD5,48b0fa832c3a803627f51db361ab270a*%
M02*
