%TF.GenerationSoftware,Altium Limited,Altium Designer,26.8.1 (31)*%
G04 Layer_Physical_Order=1*
G04 Layer_Color=255*
G04 Board_Origin=0|0*
%FSLAX45Y45*%
%MOMM*%
%TF.SameCoordinates,BFB3822A-CCE0-4350-B96D-0D528342DD55*%
%TF.FilePolarity,Positive*%
%TF.FileFunction,Copper,L1,Top,Signal*%
%TF.Part,Single*%
G01*
G75*
%TA.AperFunction,NonConductor*%
%ADD10C,0.25400*%
%TA.AperFunction,SMDPad,CuDef*%
%ADD11R,1.20000X0.60000*%
%TA.AperFunction,Conductor*%
%ADD12C,0.25400*%
%ADD13C,0.38100*%
%ADD14C,0.50800*%
%TA.AperFunction,ViaPad*%
%ADD15C,1.52400*%
%TA.AperFunction,ComponentPad*%
%ADD16C,1.20000*%
%ADD17R,1.20000X1.20000*%
%ADD18R,1.81500X1.81500*%
%ADD19C,1.81500*%
%ADD20C,1.80000*%
%ADD21R,1.80000X1.80000*%
%TA.AperFunction,WasherPad*%
%ADD22C,6.00000*%
%TA.AperFunction,ComponentPad*%
%ADD23C,3.00000*%
%ADD24C,2.00000*%
%ADD25R,2.00000X2.00000*%
%ADD26R,1.27500X1.27500*%
%ADD27C,1.27500*%
%ADD28C,1.21000*%
%ADD29R,1.80000X1.80000*%
G36*
X13000000Y11211153D02*
Y11211153D01*
X13019971Y11210309D01*
X13060252Y11207669D01*
X13119475Y11195889D01*
X13176654Y11176480D01*
X13230809Y11149773D01*
X13281015Y11116226D01*
X13326413Y11076413D01*
X13366226Y11031015D01*
X13399773Y10980809D01*
X13426480Y10926654D01*
X13445889Y10869475D01*
X13457669Y10810253D01*
X13460309Y10769971D01*
X13461153Y10750000D01*
X13461153D01*
X13461153Y4500000D01*
X13461504Y4498242D01*
X13457669Y4439747D01*
X13445889Y4380524D01*
X13426479Y4323346D01*
X13399773Y4269191D01*
X13366226Y4218984D01*
X13326413Y4173587D01*
X13281015Y4133774D01*
X13230809Y4100227D01*
X13176653Y4073520D01*
X13119475Y4054111D01*
X13060252Y4042331D01*
X13001758Y4038497D01*
X13000000Y4038846D01*
X5000000D01*
X4998242Y4038497D01*
X4939747Y4042331D01*
X4880525Y4054111D01*
X4823346Y4073520D01*
X4769191Y4100227D01*
X4718985Y4133774D01*
X4673587Y4173587D01*
X4633774Y4218984D01*
X4600227Y4269191D01*
X4573520Y4323346D01*
X4554111Y4380524D01*
X4542331Y4439747D01*
X4539691Y4480029D01*
X4538847Y4500000D01*
X4538847Y4500000D01*
X4538846Y4520027D01*
Y5000000D01*
Y5750000D01*
Y10750000D01*
X4538847Y10750000D01*
X4538847D01*
X4539690Y10769971D01*
X4542331Y10810253D01*
X4554111Y10869475D01*
X4573520Y10926654D01*
X4600227Y10980809D01*
X4633774Y11031015D01*
X4673587Y11076413D01*
X4718984Y11116226D01*
X4769191Y11149773D01*
X4823346Y11176480D01*
X4880524Y11195889D01*
X4939747Y11207669D01*
X4980029Y11210309D01*
X5000000Y11211153D01*
Y11211153D01*
X5020027Y11211154D01*
X12979973D01*
X13000000Y11211153D01*
D02*
G37*
%LPC*%
G36*
X13025609Y11075400D02*
X12974390D01*
X12923802Y11067388D01*
X12875090Y11051560D01*
X12829453Y11028307D01*
X12788016Y10998201D01*
X12751799Y10961984D01*
X12721693Y10920547D01*
X12698440Y10874910D01*
X12682612Y10826198D01*
X12674600Y10775610D01*
Y10724391D01*
X12682612Y10673802D01*
X12698440Y10625090D01*
X12721693Y10579453D01*
X12751799Y10538016D01*
X12788016Y10501799D01*
X12829453Y10471693D01*
X12875090Y10448440D01*
X12923802Y10432613D01*
X12974390Y10424600D01*
X13025609D01*
X13076198Y10432613D01*
X13124910Y10448440D01*
X13170547Y10471693D01*
X13211984Y10501799D01*
X13248201Y10538016D01*
X13278307Y10579453D01*
X13301559Y10625090D01*
X13317387Y10673802D01*
X13325400Y10724391D01*
Y10775610D01*
X13317387Y10826198D01*
X13301559Y10874910D01*
X13278307Y10920547D01*
X13248201Y10961984D01*
X13211984Y10998201D01*
X13170547Y11028307D01*
X13124910Y11051560D01*
X13076198Y11067388D01*
X13025609Y11075400D01*
D02*
G37*
G36*
X5025609D02*
X4974390D01*
X4923802Y11067388D01*
X4875090Y11051560D01*
X4829453Y11028307D01*
X4788016Y10998201D01*
X4751799Y10961984D01*
X4721693Y10920547D01*
X4698440Y10874910D01*
X4682612Y10826198D01*
X4674600Y10775610D01*
Y10724391D01*
X4682612Y10673802D01*
X4698440Y10625090D01*
X4721693Y10579453D01*
X4751799Y10538016D01*
X4788016Y10501799D01*
X4829453Y10471693D01*
X4875090Y10448440D01*
X4923802Y10432613D01*
X4974390Y10424600D01*
X5025609D01*
X5076198Y10432613D01*
X5124910Y10448440D01*
X5170547Y10471693D01*
X5211984Y10501799D01*
X5248201Y10538016D01*
X5278307Y10579453D01*
X5301560Y10625090D01*
X5317387Y10673802D01*
X5325400Y10724391D01*
Y10775610D01*
X5317387Y10826198D01*
X5301560Y10874910D01*
X5278307Y10920547D01*
X5248201Y10961984D01*
X5211984Y10998201D01*
X5170547Y11028307D01*
X5124910Y11051560D01*
X5076198Y11067388D01*
X5025609Y11075400D01*
D02*
G37*
G36*
X9582500Y10248846D02*
X7980000D01*
X7965134Y10245889D01*
X7952531Y10237468D01*
X7663439Y9948376D01*
X7655018Y9935774D01*
X7652061Y9920908D01*
Y7194093D01*
X7655018Y7179227D01*
X7663439Y7166624D01*
X7997532Y6832531D01*
X8010135Y6824111D01*
X8025000Y6821153D01*
X8135225D01*
X8135324Y6820784D01*
X8148700Y6797616D01*
X8167616Y6778700D01*
X8190784Y6765324D01*
X8216624Y6758400D01*
X8243376D01*
X8269216Y6765324D01*
X8292384Y6778700D01*
X8311300Y6797616D01*
X8324676Y6820784D01*
X8331600Y6846624D01*
Y6873376D01*
X8324676Y6899216D01*
X8311300Y6922384D01*
X8292384Y6941300D01*
X8269216Y6954676D01*
X8243376Y6961600D01*
X8216624D01*
X8190784Y6954676D01*
X8167616Y6941300D01*
X8148700Y6922384D01*
X8135324Y6899216D01*
X8135225Y6898847D01*
X8041091D01*
X7729754Y7210183D01*
Y9904817D01*
X7996091Y10171153D01*
X9566410D01*
X9711154Y10026409D01*
Y9909415D01*
X9701598Y9906854D01*
X9673003Y9890345D01*
X9649655Y9866997D01*
X9633655Y9839284D01*
X9629554Y9838403D01*
X9616447D01*
X9612345Y9839284D01*
X9596345Y9866997D01*
X9572997Y9890345D01*
X9544403Y9906854D01*
X9512509Y9915400D01*
X9479491D01*
X9447598Y9906854D01*
X9419003Y9890345D01*
X9395655Y9866997D01*
X9379655Y9839284D01*
X9375554Y9838403D01*
X9362447D01*
X9358345Y9839284D01*
X9342345Y9866997D01*
X9318997Y9890345D01*
X9290403Y9906854D01*
X9258509Y9915400D01*
X9225491D01*
X9193598Y9906854D01*
X9165003Y9890345D01*
X9141655Y9866997D01*
X9125655Y9839284D01*
X9121554Y9838403D01*
X9108447D01*
X9104345Y9839284D01*
X9088345Y9866997D01*
X9064997Y9890345D01*
X9036403Y9906854D01*
X9004509Y9915400D01*
X8971491D01*
X8939598Y9906854D01*
X8911003Y9890345D01*
X8887655Y9866997D01*
X8871655Y9839284D01*
X8867554Y9838403D01*
X8854447D01*
X8850345Y9839284D01*
X8834345Y9866997D01*
X8810997Y9890345D01*
X8782403Y9906854D01*
X8750509Y9915400D01*
X8717491D01*
X8685598Y9906854D01*
X8657003Y9890345D01*
X8633655Y9866997D01*
X8617655Y9839284D01*
X8613554Y9838403D01*
X8600447D01*
X8596345Y9839284D01*
X8580345Y9866997D01*
X8556997Y9890345D01*
X8528403Y9906854D01*
X8496509Y9915400D01*
X8463491D01*
X8431598Y9906854D01*
X8403003Y9890345D01*
X8379655Y9866997D01*
X8363146Y9838402D01*
X8354600Y9806509D01*
Y9773491D01*
X8363146Y9741597D01*
X8379655Y9713003D01*
X8403003Y9689655D01*
X8431598Y9673146D01*
X8463491Y9664600D01*
X8496509D01*
X8528403Y9673146D01*
X8556997Y9689655D01*
X8580345Y9713003D01*
X8596345Y9740716D01*
X8600447Y9741597D01*
X8613554D01*
X8617655Y9740716D01*
X8633655Y9713003D01*
X8657003Y9689655D01*
X8685598Y9673146D01*
X8717491Y9664600D01*
X8750509D01*
X8782403Y9673146D01*
X8810997Y9689655D01*
X8834345Y9713003D01*
X8850345Y9740716D01*
X8854447Y9741597D01*
X8867554D01*
X8871655Y9740716D01*
X8887655Y9713003D01*
X8911003Y9689655D01*
X8939598Y9673146D01*
X8971491Y9664600D01*
X9004509D01*
X9036403Y9673146D01*
X9064997Y9689655D01*
X9088345Y9713003D01*
X9104345Y9740716D01*
X9108447Y9741597D01*
X9121554D01*
X9125655Y9740716D01*
X9141655Y9713003D01*
X9165003Y9689655D01*
X9193598Y9673146D01*
X9225491Y9664600D01*
X9258509D01*
X9290403Y9673146D01*
X9318997Y9689655D01*
X9342345Y9713003D01*
X9358345Y9740716D01*
X9362447Y9741597D01*
X9375554D01*
X9379655Y9740716D01*
X9395655Y9713003D01*
X9419003Y9689655D01*
X9447598Y9673146D01*
X9479491Y9664600D01*
X9512509D01*
X9544403Y9673146D01*
X9572997Y9689655D01*
X9596345Y9713003D01*
X9612345Y9740716D01*
X9616447Y9741597D01*
X9629554D01*
X9633655Y9740716D01*
X9649655Y9713003D01*
X9673003Y9689655D01*
X9701598Y9673146D01*
X9733491Y9664600D01*
X9766509D01*
X9798403Y9673146D01*
X9826997Y9689655D01*
X9850345Y9713003D01*
X9866345Y9740716D01*
X9870447Y9741597D01*
X9883554D01*
X9887655Y9740716D01*
X9903655Y9713003D01*
X9927003Y9689655D01*
X9955598Y9673146D01*
X9987491Y9664600D01*
X10020509D01*
X10052403Y9673146D01*
X10080997Y9689655D01*
X10104345Y9713003D01*
X10120345Y9740716D01*
X10124447Y9741597D01*
X10137554D01*
X10141655Y9740716D01*
X10157655Y9713003D01*
X10181003Y9689655D01*
X10209598Y9673146D01*
X10241491Y9664600D01*
X10274509D01*
X10306403Y9673146D01*
X10334997Y9689655D01*
X10358345Y9713003D01*
X10374345Y9740716D01*
X10378447Y9741597D01*
X10391554D01*
X10395655Y9740716D01*
X10411655Y9713003D01*
X10435003Y9689655D01*
X10463598Y9673146D01*
X10495491Y9664600D01*
X10528509D01*
X10560403Y9673146D01*
X10588997Y9689655D01*
X10612345Y9713003D01*
X10628345Y9740716D01*
X10632447Y9741597D01*
X10645554D01*
X10649655Y9740716D01*
X10665655Y9713003D01*
X10689003Y9689655D01*
X10717598Y9673146D01*
X10749491Y9664600D01*
X10782509D01*
X10814403Y9673146D01*
X10842997Y9689655D01*
X10866345Y9713003D01*
X10882345Y9740716D01*
X10886447Y9741597D01*
X10899554D01*
X10903655Y9740716D01*
X10919655Y9713003D01*
X10943003Y9689655D01*
X10971598Y9673146D01*
X11003491Y9664600D01*
X11036509D01*
X11068403Y9673146D01*
X11096997Y9689655D01*
X11120345Y9713003D01*
X11136345Y9740716D01*
X11140447Y9741597D01*
X11153554D01*
X11157655Y9740716D01*
X11173655Y9713003D01*
X11197003Y9689655D01*
X11225598Y9673146D01*
X11257491Y9664600D01*
X11290509D01*
X11322403Y9673146D01*
X11350997Y9689655D01*
X11374345Y9713003D01*
X11390345Y9740716D01*
X11394447Y9741597D01*
X11407554D01*
X11411655Y9740716D01*
X11427655Y9713003D01*
X11451003Y9689655D01*
X11479598Y9673146D01*
X11511491Y9664600D01*
X11544509D01*
X11576403Y9673146D01*
X11604997Y9689655D01*
X11628345Y9713003D01*
X11644345Y9740716D01*
X11648447Y9741597D01*
X11661554D01*
X11665655Y9740716D01*
X11681655Y9713003D01*
X11705003Y9689655D01*
X11730205Y9675105D01*
Y7364895D01*
X11705003Y7350345D01*
X11681655Y7326997D01*
X11665655Y7299284D01*
X11661554Y7298403D01*
X11648447D01*
X11644345Y7299284D01*
X11628345Y7326997D01*
X11604997Y7350345D01*
X11576403Y7366854D01*
X11544509Y7375400D01*
X11511491D01*
X11479598Y7366854D01*
X11451003Y7350345D01*
X11427655Y7326997D01*
X11411655Y7299284D01*
X11407554Y7298403D01*
X11394447D01*
X11390345Y7299284D01*
X11374345Y7326997D01*
X11350997Y7350345D01*
X11322403Y7366854D01*
X11290509Y7375400D01*
X11257491D01*
X11225598Y7366854D01*
X11197003Y7350345D01*
X11173655Y7326997D01*
X11157655Y7299284D01*
X11153554Y7298403D01*
X11140447D01*
X11136345Y7299284D01*
X11120345Y7326997D01*
X11096997Y7350345D01*
X11068403Y7366854D01*
X11036509Y7375400D01*
X11003491D01*
X10971598Y7366854D01*
X10943003Y7350345D01*
X10919655Y7326997D01*
X10903655Y7299284D01*
X10899554Y7298403D01*
X10886447D01*
X10882345Y7299284D01*
X10866345Y7326997D01*
X10842997Y7350345D01*
X10814403Y7366854D01*
X10782509Y7375400D01*
X10749491D01*
X10717598Y7366854D01*
X10689003Y7350345D01*
X10665655Y7326997D01*
X10649655Y7299284D01*
X10645554Y7298403D01*
X10632447D01*
X10628345Y7299284D01*
X10612345Y7326997D01*
X10588997Y7350345D01*
X10560403Y7366854D01*
X10528509Y7375400D01*
X10495491D01*
X10463598Y7366854D01*
X10435003Y7350345D01*
X10411655Y7326997D01*
X10395655Y7299284D01*
X10391554Y7298403D01*
X10378447D01*
X10374345Y7299284D01*
X10358345Y7326997D01*
X10334997Y7350345D01*
X10306403Y7366854D01*
X10274509Y7375400D01*
X10241491D01*
X10209598Y7366854D01*
X10181003Y7350345D01*
X10157655Y7326997D01*
X10141655Y7299284D01*
X10137554Y7298403D01*
X10124447D01*
X10120345Y7299284D01*
X10104345Y7326997D01*
X10080997Y7350345D01*
X10052403Y7366854D01*
X10020509Y7375400D01*
X9987491D01*
X9955598Y7366854D01*
X9927003Y7350345D01*
X9903655Y7326997D01*
X9887655Y7299284D01*
X9883554Y7298403D01*
X9870447D01*
X9866345Y7299284D01*
X9850345Y7326997D01*
X9826997Y7350345D01*
X9798403Y7366854D01*
X9766509Y7375400D01*
X9733491D01*
X9701598Y7366854D01*
X9673003Y7350345D01*
X9649655Y7326997D01*
X9633655Y7299284D01*
X9629554Y7298403D01*
X9616447D01*
X9612345Y7299284D01*
X9596345Y7326997D01*
X9572997Y7350345D01*
X9544403Y7366854D01*
X9512509Y7375400D01*
X9479491D01*
X9447598Y7366854D01*
X9419003Y7350345D01*
X9395655Y7326997D01*
X9379655Y7299284D01*
X9375554Y7298403D01*
X9362447D01*
X9358345Y7299284D01*
X9342345Y7326997D01*
X9318997Y7350345D01*
X9290403Y7366854D01*
X9258509Y7375400D01*
X9225491D01*
X9193598Y7366854D01*
X9165003Y7350345D01*
X9141655Y7326997D01*
X9125655Y7299284D01*
X9121554Y7298403D01*
X9108447D01*
X9104345Y7299284D01*
X9088345Y7326997D01*
X9064997Y7350345D01*
X9036403Y7366854D01*
X9004509Y7375400D01*
X8971491D01*
X8939598Y7366854D01*
X8911003Y7350345D01*
X8887655Y7326997D01*
X8871655Y7299284D01*
X8867554Y7298403D01*
X8854447D01*
X8850345Y7299284D01*
X8834345Y7326997D01*
X8810997Y7350345D01*
X8782403Y7366854D01*
X8750509Y7375400D01*
X8717491D01*
X8685598Y7366854D01*
X8657003Y7350345D01*
X8633655Y7326997D01*
X8617655Y7299284D01*
X8613554Y7298403D01*
X8600447D01*
X8596345Y7299284D01*
X8580345Y7326997D01*
X8556997Y7350345D01*
X8528403Y7366854D01*
X8496509Y7375400D01*
X8463491D01*
X8431598Y7366854D01*
X8403003Y7350345D01*
X8379655Y7326997D01*
X8363146Y7298402D01*
X8354600Y7266509D01*
Y7233491D01*
X8363146Y7201597D01*
X8379655Y7173003D01*
X8403003Y7149655D01*
X8431598Y7133146D01*
X8463491Y7124600D01*
X8496509D01*
X8528403Y7133146D01*
X8556997Y7149655D01*
X8580345Y7173003D01*
X8596345Y7200716D01*
X8600447Y7201597D01*
X8613554D01*
X8617655Y7200716D01*
X8633655Y7173003D01*
X8657003Y7149655D01*
X8685598Y7133146D01*
X8717491Y7124600D01*
X8750509D01*
X8782403Y7133146D01*
X8810997Y7149655D01*
X8834345Y7173003D01*
X8850345Y7200716D01*
X8854447Y7201597D01*
X8867554D01*
X8871655Y7200716D01*
X8887655Y7173003D01*
X8911003Y7149655D01*
X8939598Y7133146D01*
X8971491Y7124600D01*
X9004509D01*
X9036403Y7133146D01*
X9064997Y7149655D01*
X9088345Y7173003D01*
X9104345Y7200716D01*
X9108447Y7201597D01*
X9121554D01*
X9125655Y7200716D01*
X9141655Y7173003D01*
X9165003Y7149655D01*
X9193598Y7133146D01*
X9225491Y7124600D01*
X9258509D01*
X9290403Y7133146D01*
X9318997Y7149655D01*
X9342345Y7173003D01*
X9358345Y7200716D01*
X9362447Y7201597D01*
X9375554D01*
X9379655Y7200716D01*
X9395655Y7173003D01*
X9419003Y7149655D01*
X9447598Y7133146D01*
X9479491Y7124600D01*
X9512509D01*
X9544403Y7133146D01*
X9572997Y7149655D01*
X9596345Y7173003D01*
X9612345Y7200716D01*
X9616447Y7201597D01*
X9629554D01*
X9633655Y7200716D01*
X9649655Y7173003D01*
X9673003Y7149655D01*
X9701598Y7133146D01*
X9709403Y7131054D01*
Y4894531D01*
X9701957Y4892536D01*
X9675643Y4877343D01*
X9654157Y4855857D01*
X9638964Y4829543D01*
X9631100Y4800193D01*
Y4769807D01*
X9638964Y4740457D01*
X9654157Y4714143D01*
X9675643Y4692657D01*
X9701957Y4677465D01*
X9731307Y4669600D01*
X9761693D01*
X9791043Y4677465D01*
X9817357Y4692657D01*
X9838843Y4714143D01*
X9854035Y4740457D01*
X9861900Y4769807D01*
Y4800193D01*
X9854035Y4829543D01*
X9838843Y4855857D01*
X9817357Y4877343D01*
X9791043Y4892536D01*
X9787097Y4893593D01*
Y7130116D01*
X9798403Y7133146D01*
X9826997Y7149655D01*
X9850345Y7173003D01*
X9866345Y7200716D01*
X9870447Y7201597D01*
X9883554D01*
X9887655Y7200716D01*
X9903655Y7173003D01*
X9927003Y7149655D01*
X9955598Y7133146D01*
X9963403Y7131054D01*
Y4894531D01*
X9955957Y4892536D01*
X9929643Y4877343D01*
X9908157Y4855857D01*
X9892964Y4829543D01*
X9885100Y4800193D01*
Y4769807D01*
X9892964Y4740457D01*
X9908157Y4714143D01*
X9929643Y4692657D01*
X9955957Y4677465D01*
X9985307Y4669600D01*
X10015693D01*
X10045043Y4677465D01*
X10071357Y4692657D01*
X10092843Y4714143D01*
X10108035Y4740457D01*
X10115900Y4769807D01*
Y4800193D01*
X10108035Y4829543D01*
X10092843Y4855857D01*
X10071357Y4877343D01*
X10045043Y4892536D01*
X10041097Y4893593D01*
Y7130116D01*
X10052403Y7133146D01*
X10080997Y7149655D01*
X10104345Y7173003D01*
X10120345Y7200716D01*
X10124447Y7201597D01*
X10137554D01*
X10141655Y7200716D01*
X10157655Y7173003D01*
X10181003Y7149655D01*
X10209598Y7133146D01*
X10217403Y7131054D01*
Y4894531D01*
X10209957Y4892536D01*
X10183643Y4877343D01*
X10162157Y4855857D01*
X10146964Y4829543D01*
X10139100Y4800193D01*
Y4769807D01*
X10146964Y4740457D01*
X10162157Y4714143D01*
X10183643Y4692657D01*
X10209957Y4677465D01*
X10239307Y4669600D01*
X10269693D01*
X10299043Y4677465D01*
X10325357Y4692657D01*
X10346843Y4714143D01*
X10362035Y4740457D01*
X10369900Y4769807D01*
Y4800193D01*
X10362035Y4829543D01*
X10346843Y4855857D01*
X10325357Y4877343D01*
X10299043Y4892536D01*
X10295097Y4893593D01*
Y7130116D01*
X10306403Y7133146D01*
X10334997Y7149655D01*
X10358345Y7173003D01*
X10374345Y7200716D01*
X10378447Y7201597D01*
X10391554D01*
X10395655Y7200716D01*
X10411655Y7173003D01*
X10435003Y7149655D01*
X10463598Y7133146D01*
X10471403Y7131054D01*
Y4894531D01*
X10463957Y4892536D01*
X10437643Y4877343D01*
X10416157Y4855857D01*
X10400964Y4829543D01*
X10393100Y4800193D01*
Y4769807D01*
X10400964Y4740457D01*
X10416157Y4714143D01*
X10437643Y4692657D01*
X10463957Y4677465D01*
X10493307Y4669600D01*
X10523693D01*
X10553043Y4677465D01*
X10579357Y4692657D01*
X10600843Y4714143D01*
X10616035Y4740457D01*
X10623900Y4769807D01*
Y4800193D01*
X10616035Y4829543D01*
X10600843Y4855857D01*
X10579357Y4877343D01*
X10553043Y4892536D01*
X10549097Y4893593D01*
Y7130116D01*
X10560403Y7133146D01*
X10588997Y7149655D01*
X10596648Y7157306D01*
X10603938Y7153782D01*
X10613407Y7145327D01*
X10611154Y7134000D01*
Y4897500D01*
X10614111Y4882634D01*
X10622531Y4870031D01*
X10657913Y4834650D01*
X10654964Y4829543D01*
X10647100Y4800193D01*
Y4769807D01*
X10654964Y4740457D01*
X10670157Y4714143D01*
X10691643Y4692657D01*
X10717957Y4677465D01*
X10747307Y4669600D01*
X10777693D01*
X10807043Y4677465D01*
X10833357Y4692657D01*
X10854843Y4714143D01*
X10870035Y4740457D01*
X10877900Y4769807D01*
Y4800193D01*
X10870035Y4829543D01*
X10854843Y4855857D01*
X10833357Y4877343D01*
X10807043Y4892536D01*
X10777693Y4900400D01*
X10747307D01*
X10717957Y4892536D01*
X10712850Y4889587D01*
X10688847Y4913591D01*
Y5927643D01*
X10709167Y5936060D01*
X10716063Y5929163D01*
X10735537Y5917920D01*
X10757257Y5912100D01*
X10779743D01*
X10801463Y5917920D01*
X10820937Y5929163D01*
X10836837Y5945063D01*
X10848080Y5964537D01*
X10853900Y5986257D01*
Y6008743D01*
X10848080Y6030463D01*
X10836837Y6049937D01*
X10820937Y6065837D01*
X10801463Y6077080D01*
X10779743Y6082900D01*
X10757257D01*
X10735537Y6077080D01*
X10716063Y6065837D01*
X10709167Y6058940D01*
X10688847Y6067357D01*
Y7117909D01*
X10709030Y7138092D01*
X10717598Y7133146D01*
X10749491Y7124600D01*
X10782509D01*
X10814403Y7133146D01*
X10842997Y7149655D01*
X10866345Y7173003D01*
X10875508Y7188874D01*
X10898358Y7187811D01*
X10900065Y7184096D01*
X10900155Y7180990D01*
X10896931Y7177766D01*
X10888510Y7165163D01*
X10885553Y7150298D01*
Y5683100D01*
X10888510Y5668234D01*
X10896931Y5655632D01*
X10977653Y5574909D01*
Y4894062D01*
X10971957Y4892536D01*
X10945643Y4877343D01*
X10924157Y4855857D01*
X10908964Y4829543D01*
X10901100Y4800193D01*
Y4769807D01*
X10908964Y4740457D01*
X10924157Y4714143D01*
X10945643Y4692657D01*
X10971957Y4677465D01*
X11001307Y4669600D01*
X11031693D01*
X11061043Y4677465D01*
X11087357Y4692657D01*
X11108843Y4714143D01*
X11124035Y4740457D01*
X11131900Y4769807D01*
Y4800193D01*
X11124035Y4829543D01*
X11108843Y4855857D01*
X11087357Y4877343D01*
X11061043Y4892536D01*
X11055346Y4894062D01*
Y5434090D01*
X11075666Y5439535D01*
X11085435Y5422616D01*
X11104351Y5403700D01*
X11127519Y5390324D01*
X11153359Y5383400D01*
X11180111D01*
X11205951Y5390324D01*
X11229119Y5403700D01*
X11248035Y5422616D01*
X11261411Y5445784D01*
X11268335Y5471624D01*
Y5498376D01*
X11261411Y5524216D01*
X11248035Y5547384D01*
X11229119Y5566300D01*
X11212056Y5576152D01*
Y5868962D01*
X11255193Y5912100D01*
X11361900D01*
Y6082900D01*
X11191100D01*
Y5976193D01*
X11134688Y5919782D01*
X11124864Y5905079D01*
X11121414Y5887735D01*
Y5576152D01*
X11104351Y5566300D01*
X11085435Y5547384D01*
X11075666Y5530465D01*
X11055346Y5535910D01*
Y5591000D01*
X11052389Y5605866D01*
X11043969Y5618469D01*
X10963246Y5699191D01*
Y5909635D01*
X10983566Y5921367D01*
X10989537Y5917920D01*
X11011257Y5912100D01*
X11033743D01*
X11055463Y5917920D01*
X11074937Y5929163D01*
X11090837Y5945063D01*
X11102080Y5964537D01*
X11107900Y5986257D01*
Y6008743D01*
X11102080Y6030463D01*
X11090837Y6049937D01*
X11074937Y6065837D01*
X11055463Y6077080D01*
X11033743Y6082900D01*
X11011257D01*
X10989537Y6077080D01*
X10983567Y6073633D01*
X10963246Y6085365D01*
Y7115310D01*
X10963648Y7116169D01*
X10983567Y7129939D01*
X11003491Y7124600D01*
X11036509D01*
X11068403Y7133146D01*
X11096997Y7149655D01*
X11120345Y7173003D01*
X11136345Y7200716D01*
X11140447Y7201597D01*
X11153554D01*
X11157655Y7200716D01*
X11173655Y7173003D01*
X11197003Y7149655D01*
X11225598Y7133146D01*
X11257491Y7124600D01*
X11290509D01*
X11322403Y7133146D01*
X11350997Y7149655D01*
X11374345Y7173003D01*
X11390345Y7200716D01*
X11394447Y7201597D01*
X11407554D01*
X11411655Y7200716D01*
X11427655Y7173003D01*
X11451003Y7149655D01*
X11479598Y7133146D01*
X11489154Y7130585D01*
Y5058591D01*
X11320150Y4889587D01*
X11315043Y4892536D01*
X11285693Y4900400D01*
X11255307D01*
X11225957Y4892536D01*
X11199643Y4877343D01*
X11178157Y4855857D01*
X11162964Y4829543D01*
X11155100Y4800193D01*
Y4769807D01*
X11162964Y4740457D01*
X11178157Y4714143D01*
X11199643Y4692657D01*
X11225957Y4677465D01*
X11255307Y4669600D01*
X11285693D01*
X11315043Y4677465D01*
X11341357Y4692657D01*
X11362843Y4714143D01*
X11378035Y4740457D01*
X11385900Y4769807D01*
Y4800193D01*
X11378035Y4829543D01*
X11375087Y4834650D01*
X11555469Y5015031D01*
X11563889Y5027634D01*
X11566847Y5042500D01*
Y7130585D01*
X11576403Y7133146D01*
X11604997Y7149655D01*
X11628345Y7173003D01*
X11644345Y7200716D01*
X11648447Y7201597D01*
X11661554D01*
X11665655Y7200716D01*
X11681655Y7173003D01*
X11705003Y7149655D01*
X11733598Y7133146D01*
X11765491Y7124600D01*
X11798509D01*
X11830403Y7133146D01*
X11858997Y7149655D01*
X11882345Y7173003D01*
X11898345Y7200716D01*
X11902447Y7201597D01*
X11915554D01*
X11919655Y7200716D01*
X11935655Y7173003D01*
X11959003Y7149655D01*
X11984205Y7135105D01*
Y6460143D01*
X11988147Y6440321D01*
X11999375Y6423518D01*
X12570018Y5852875D01*
X12586821Y5841647D01*
X12606643Y5837705D01*
X12643399D01*
X12651175Y5818931D01*
X11339039Y4506795D01*
X9293954D01*
X9036795Y4763954D01*
Y5934026D01*
X9074150D01*
Y6010476D01*
X8985000D01*
Y6023176D01*
X8972300D01*
Y6112326D01*
X8895850D01*
Y6074972D01*
X8342266D01*
X8074950Y6342288D01*
X8001700D01*
Y6269039D01*
X8284187Y5986552D01*
X8300991Y5975324D01*
X8320812Y5971381D01*
X8895850D01*
Y5934026D01*
X8933205D01*
Y4742500D01*
X8937147Y4722679D01*
X8948375Y4705875D01*
X9235875Y4418375D01*
X9252679Y4407147D01*
X9272500Y4403205D01*
X11360493D01*
X11380314Y4407147D01*
X11397118Y4418375D01*
X12671109Y5692367D01*
X12687457Y5680042D01*
X12679593Y5650693D01*
Y5620307D01*
X12687457Y5590957D01*
X12702650Y5564643D01*
X12724136Y5543157D01*
X12750450Y5527965D01*
X12779800Y5520100D01*
X12810185D01*
X12839536Y5527965D01*
X12865849Y5543157D01*
X12887337Y5564643D01*
X12902528Y5590957D01*
X12910393Y5620307D01*
Y5650693D01*
X12902528Y5680043D01*
X12887337Y5706357D01*
X12865849Y5727843D01*
X12839536Y5743036D01*
X12810185Y5750900D01*
X12779800D01*
X12750450Y5743036D01*
X12738126Y5759384D01*
X12752843Y5774100D01*
X12782293D01*
Y5889500D01*
Y6004900D01*
X12679593D01*
Y5941295D01*
X12628097D01*
X12087795Y6481597D01*
Y7135105D01*
X12112997Y7149655D01*
X12136345Y7173003D01*
X12152854Y7201597D01*
X12161400Y7233491D01*
Y7237300D01*
X12036000D01*
Y7250000D01*
X12023300D01*
Y7375400D01*
X12019491D01*
X11987598Y7366854D01*
X11959003Y7350345D01*
X11935655Y7326997D01*
X11919655Y7299284D01*
X11915554Y7298403D01*
X11902447D01*
X11898345Y7299284D01*
X11882345Y7326997D01*
X11858997Y7350345D01*
X11833795Y7364895D01*
Y9675105D01*
X11858997Y9689655D01*
X11882345Y9713003D01*
X11890280Y9726746D01*
X11910600Y9721302D01*
Y9664600D01*
X12161400D01*
Y9915400D01*
X11910600D01*
Y9858698D01*
X11890280Y9853254D01*
X11882345Y9866997D01*
X11858997Y9890345D01*
X11830403Y9906854D01*
X11798509Y9915400D01*
X11765491D01*
X11733598Y9906854D01*
X11705003Y9890345D01*
X11681655Y9866997D01*
X11665655Y9839284D01*
X11661554Y9838403D01*
X11648447D01*
X11644345Y9839284D01*
X11628345Y9866997D01*
X11604997Y9890345D01*
X11576403Y9906854D01*
X11544509Y9915400D01*
X11511491D01*
X11479598Y9906854D01*
X11451003Y9890345D01*
X11427655Y9866997D01*
X11411655Y9839284D01*
X11407554Y9838403D01*
X11394447D01*
X11390345Y9839284D01*
X11374345Y9866997D01*
X11350997Y9890345D01*
X11322403Y9906854D01*
X11290509Y9915400D01*
X11257491D01*
X11225598Y9906854D01*
X11197003Y9890345D01*
X11173655Y9866997D01*
X11157655Y9839284D01*
X11153554Y9838403D01*
X11140447D01*
X11136345Y9839284D01*
X11120345Y9866997D01*
X11096997Y9890345D01*
X11068403Y9906854D01*
X11036509Y9915400D01*
X11003491D01*
X10971598Y9906854D01*
X10943003Y9890345D01*
X10919655Y9866997D01*
X10903655Y9839284D01*
X10899554Y9838403D01*
X10886447D01*
X10882345Y9839284D01*
X10866345Y9866997D01*
X10842997Y9890345D01*
X10814403Y9906854D01*
X10782509Y9915400D01*
X10749491D01*
X10717598Y9906854D01*
X10689003Y9890345D01*
X10665655Y9866997D01*
X10649655Y9839284D01*
X10645554Y9838403D01*
X10632447D01*
X10628345Y9839284D01*
X10612345Y9866997D01*
X10588997Y9890345D01*
X10560403Y9906854D01*
X10528509Y9915400D01*
X10495491D01*
X10463598Y9906854D01*
X10435003Y9890345D01*
X10411655Y9866997D01*
X10395655Y9839284D01*
X10391554Y9838403D01*
X10378447D01*
X10374345Y9839284D01*
X10358345Y9866997D01*
X10334997Y9890345D01*
X10306403Y9906854D01*
X10274509Y9915400D01*
X10241491D01*
X10209598Y9906854D01*
X10181003Y9890345D01*
X10157655Y9866997D01*
X10141655Y9839284D01*
X10137554Y9838403D01*
X10124447D01*
X10120345Y9839284D01*
X10104345Y9866997D01*
X10080997Y9890345D01*
X10052403Y9906854D01*
X10020509Y9915400D01*
X9987491D01*
X9955598Y9906854D01*
X9927003Y9890345D01*
X9903655Y9866997D01*
X9887655Y9839284D01*
X9883554Y9838403D01*
X9870447D01*
X9866345Y9839284D01*
X9850345Y9866997D01*
X9826997Y9890345D01*
X9798403Y9906854D01*
X9788847Y9909415D01*
Y10042500D01*
X9785889Y10057366D01*
X9777469Y10069969D01*
X9609969Y10237468D01*
X9597366Y10245889D01*
X9582500Y10248846D01*
D02*
G37*
G36*
X12849275Y9923400D02*
X12814725D01*
X12780838Y9916659D01*
X12748917Y9903437D01*
X12720189Y9884242D01*
X12695758Y9859811D01*
X12676563Y9831083D01*
X12663341Y9799162D01*
X12656600Y9765275D01*
Y9730725D01*
X12663341Y9696838D01*
X12676563Y9664917D01*
X12695758Y9636189D01*
X12720189Y9611758D01*
X12748917Y9592563D01*
X12780838Y9579341D01*
X12814725Y9572600D01*
X12849275D01*
X12883162Y9579341D01*
X12915083Y9592563D01*
X12943811Y9611758D01*
X12968242Y9636189D01*
X12987437Y9664917D01*
X13000659Y9696838D01*
X13007401Y9730725D01*
Y9765275D01*
X13000659Y9799162D01*
X12987437Y9831083D01*
X12968242Y9859811D01*
X12943811Y9884242D01*
X12915083Y9903437D01*
X12883162Y9916659D01*
X12849275Y9923400D01*
D02*
G37*
G36*
X8154275D02*
X8119725D01*
X8085838Y9916659D01*
X8053917Y9903437D01*
X8025189Y9884242D01*
X8000758Y9859811D01*
X7981563Y9831083D01*
X7968341Y9799162D01*
X7961600Y9765275D01*
Y9730725D01*
X7968341Y9696838D01*
X7981563Y9664917D01*
X8000758Y9636189D01*
X8025189Y9611758D01*
X8053917Y9592563D01*
X8085838Y9579341D01*
X8119725Y9572600D01*
X8154275D01*
X8188162Y9579341D01*
X8220083Y9592563D01*
X8248811Y9611758D01*
X8273242Y9636189D01*
X8292437Y9664917D01*
X8305659Y9696838D01*
X8312400Y9730725D01*
Y9765275D01*
X8305659Y9799162D01*
X8292437Y9831083D01*
X8273242Y9859811D01*
X8248811Y9884242D01*
X8220083Y9903437D01*
X8188162Y9916659D01*
X8154275Y9923400D01*
D02*
G37*
G36*
X7065393Y8885923D02*
Y8813613D01*
X7137702D01*
X7132273Y8833876D01*
X7121030Y8853350D01*
X7105130Y8869250D01*
X7085656Y8880493D01*
X7065393Y8885923D01*
D02*
G37*
G36*
X7039993Y8885923D02*
X7019730Y8880493D01*
X7000256Y8869250D01*
X6984356Y8853350D01*
X6973113Y8833876D01*
X6967683Y8813613D01*
X7039993D01*
Y8885923D01*
D02*
G37*
G36*
Y8788213D02*
X6967683D01*
X6973113Y8767950D01*
X6984356Y8748476D01*
X7000256Y8732576D01*
X7019730Y8721333D01*
X7039993Y8715903D01*
Y8788213D01*
D02*
G37*
G36*
X5963936Y8886313D02*
X5941450D01*
X5919730Y8880493D01*
X5900256Y8869250D01*
X5884356Y8853350D01*
X5873113Y8833876D01*
X5867293Y8812156D01*
Y8789670D01*
X5873113Y8767950D01*
X5884356Y8748476D01*
X5900256Y8732576D01*
X5919730Y8721333D01*
X5941450Y8715513D01*
X5963936D01*
X5985656Y8721333D01*
X6005130Y8732576D01*
X6021030Y8748476D01*
X6032273Y8767950D01*
X6038093Y8789670D01*
Y8812156D01*
X6032273Y8833876D01*
X6021030Y8853350D01*
X6005130Y8869250D01*
X5985656Y8880493D01*
X5963936Y8886313D01*
D02*
G37*
G36*
X6637305Y10208650D02*
X6606722D01*
X6577181Y10200734D01*
X6550696Y10185443D01*
X6529071Y10163818D01*
X6513779Y10137332D01*
X6505864Y10107791D01*
Y10077209D01*
X6513779Y10047668D01*
X6529071Y10021182D01*
X6550696Y9999557D01*
X6577181Y9984266D01*
X6583167Y9982662D01*
Y9022958D01*
X5979094Y8418885D01*
X5963936Y8422947D01*
X5941450D01*
X5919730Y8417127D01*
X5900256Y8405884D01*
X5884356Y8389983D01*
X5873113Y8370510D01*
X5867293Y8348790D01*
Y8326304D01*
X5873113Y8304584D01*
X5884356Y8285110D01*
X5900256Y8269210D01*
X5919730Y8257967D01*
X5941450Y8252147D01*
X5963936D01*
X5985656Y8257967D01*
X6005130Y8269210D01*
X6021030Y8285110D01*
X6032273Y8304584D01*
X6038093Y8326304D01*
Y8348790D01*
X6034031Y8363948D01*
X6649482Y8979399D01*
X6657903Y8992002D01*
X6660860Y9006867D01*
Y9982662D01*
X6666846Y9984266D01*
X6693331Y9999557D01*
X6714957Y10021182D01*
X6730248Y10047668D01*
X6738164Y10077209D01*
Y10107791D01*
X6730248Y10137332D01*
X6714957Y10163818D01*
X6693331Y10185443D01*
X6666846Y10200734D01*
X6637305Y10208650D01*
D02*
G37*
G36*
X7063936Y8422947D02*
X7041450D01*
X7019730Y8417127D01*
X7000256Y8405884D01*
X6984356Y8389983D01*
X6973113Y8370510D01*
X6967293Y8348790D01*
Y8326304D01*
X6973113Y8304584D01*
X6984356Y8285110D01*
X7000256Y8269210D01*
X7019730Y8257967D01*
X7041450Y8252147D01*
X7063936D01*
X7085656Y8257967D01*
X7105130Y8269210D01*
X7121030Y8285110D01*
X7132273Y8304584D01*
X7138093Y8326304D01*
Y8348790D01*
X7132273Y8370510D01*
X7121030Y8389983D01*
X7105130Y8405884D01*
X7085656Y8417127D01*
X7063936Y8422947D01*
D02*
G37*
G36*
X8586000Y9436898D02*
X7937000D01*
X7927089Y9434926D01*
X7918687Y9429312D01*
X7913074Y9420911D01*
X7911102Y9411000D01*
Y7642000D01*
X7913074Y7632089D01*
X7918687Y7623688D01*
X7927089Y7618074D01*
X7937000Y7616102D01*
X8586000D01*
X8595911Y7618074D01*
X8604312Y7623688D01*
X8609926Y7632089D01*
X8611898Y7642000D01*
Y9411000D01*
X8609926Y9420911D01*
X8604312Y9429312D01*
X8595911Y9434926D01*
X8586000Y9436898D01*
D02*
G37*
G36*
X5963936Y7496214D02*
X5941450D01*
X5919730Y7490394D01*
X5900256Y7479151D01*
X5884356Y7463251D01*
X5873113Y7443777D01*
X5867293Y7422057D01*
Y7399571D01*
X5873113Y7377851D01*
X5884356Y7358377D01*
X5900256Y7342477D01*
X5919730Y7331234D01*
X5941450Y7325414D01*
X5963936D01*
X5985656Y7331234D01*
X6005130Y7342477D01*
X6021030Y7358377D01*
X6032273Y7377851D01*
X6038093Y7399571D01*
Y7422057D01*
X6032273Y7443777D01*
X6021030Y7463251D01*
X6005130Y7479151D01*
X5985656Y7490394D01*
X5963936Y7496214D01*
D02*
G37*
G36*
X12052509Y7375400D02*
X12048700D01*
Y7262700D01*
X12161400D01*
Y7266509D01*
X12152854Y7298402D01*
X12136345Y7326997D01*
X12112997Y7350345D01*
X12084403Y7366854D01*
X12052509Y7375400D01*
D02*
G37*
G36*
X12849275Y7472400D02*
X12814725D01*
X12780838Y7465659D01*
X12748917Y7452437D01*
X12720189Y7433242D01*
X12695758Y7408811D01*
X12676563Y7380083D01*
X12663341Y7348162D01*
X12656600Y7314275D01*
Y7279725D01*
X12663341Y7245838D01*
X12676563Y7213917D01*
X12695758Y7185189D01*
X12720189Y7160758D01*
X12748917Y7141563D01*
X12780838Y7128341D01*
X12814725Y7121600D01*
X12849275D01*
X12883162Y7128341D01*
X12915083Y7141563D01*
X12943811Y7160758D01*
X12968242Y7185189D01*
X12987437Y7213917D01*
X13000659Y7245838D01*
X13007401Y7279725D01*
Y7314275D01*
X13000659Y7348162D01*
X12987437Y7380083D01*
X12968242Y7408811D01*
X12943811Y7433242D01*
X12915083Y7452437D01*
X12883162Y7465659D01*
X12849275Y7472400D01*
D02*
G37*
G36*
X8154275D02*
X8119725D01*
X8085838Y7465659D01*
X8053917Y7452437D01*
X8025189Y7433242D01*
X8000758Y7408811D01*
X7981563Y7380083D01*
X7968341Y7348162D01*
X7961600Y7314275D01*
Y7279725D01*
X7968341Y7245838D01*
X7981563Y7213917D01*
X8000758Y7185189D01*
X8025189Y7160758D01*
X8053917Y7141563D01*
X8085838Y7128341D01*
X8119725Y7121600D01*
X8154275D01*
X8188162Y7128341D01*
X8220083Y7141563D01*
X8248811Y7160758D01*
X8273242Y7185189D01*
X8292437Y7213917D01*
X8305659Y7245838D01*
X8312400Y7279725D01*
Y7314275D01*
X8305659Y7348162D01*
X8292437Y7380083D01*
X8273242Y7408811D01*
X8248811Y7433242D01*
X8220083Y7452437D01*
X8188162Y7465659D01*
X8154275Y7472400D01*
D02*
G37*
G36*
X7138642Y8788213D02*
X7065393D01*
Y8714963D01*
X7468956Y8311401D01*
Y7004249D01*
X7472898Y6984428D01*
X7484126Y6967624D01*
X7937205Y6514546D01*
Y6424273D01*
X7936256Y6423725D01*
X7920263Y6407732D01*
X7908954Y6388144D01*
X7903473Y6367688D01*
X8074527D01*
X8069046Y6388144D01*
X8057737Y6407732D01*
X8041744Y6423725D01*
X8040795Y6424273D01*
Y6536000D01*
X8036853Y6555821D01*
X8025625Y6572625D01*
X7572546Y7025704D01*
Y8332855D01*
X7568603Y8352676D01*
X7557376Y8369480D01*
X7138642Y8788213D01*
D02*
G37*
G36*
X7976300Y6342288D02*
X7903473D01*
X7908954Y6321832D01*
X7920263Y6302244D01*
X7936256Y6286251D01*
X7955844Y6274942D01*
X7976300Y6269461D01*
Y6342288D01*
D02*
G37*
G36*
X9074150Y6112326D02*
X8997700D01*
Y6035876D01*
X9074150D01*
Y6112326D01*
D02*
G37*
G36*
X9346737D02*
X9323263D01*
X9300589Y6106251D01*
X9280261Y6094514D01*
X9263662Y6077916D01*
X9251926Y6057587D01*
X9245850Y6034913D01*
Y6011440D01*
X9251926Y5988766D01*
X9263662Y5968437D01*
X9280261Y5951839D01*
X9300589Y5940102D01*
X9323263Y5934026D01*
X9346737D01*
X9369411Y5940102D01*
X9389739Y5951839D01*
X9406338Y5968437D01*
X9418075Y5988766D01*
X9424150Y6011440D01*
Y6034913D01*
X9418075Y6057587D01*
X9406338Y6077916D01*
X9389739Y6094514D01*
X9369411Y6106251D01*
X9346737Y6112326D01*
D02*
G37*
G36*
X12910393Y6004900D02*
X12807693D01*
Y5902200D01*
X12910393D01*
Y6004900D01*
D02*
G37*
G36*
Y5876800D02*
X12807693D01*
Y5774100D01*
X12910393D01*
Y5876800D01*
D02*
G37*
G36*
X8000309Y5853388D02*
X7977691D01*
X7955844Y5847534D01*
X7936256Y5836225D01*
X7920263Y5820232D01*
X7908954Y5800644D01*
X7903100Y5778797D01*
Y5756179D01*
X7908954Y5734332D01*
X7920263Y5714744D01*
X7936256Y5698751D01*
X7955844Y5687442D01*
X7977691Y5681588D01*
X8000309D01*
X8022156Y5687442D01*
X8041744Y5698751D01*
X8057737Y5714744D01*
X8069046Y5734332D01*
X8074900Y5756179D01*
Y5778797D01*
X8069046Y5800644D01*
X8057737Y5820232D01*
X8041744Y5836225D01*
X8022156Y5847534D01*
X8000309Y5853388D01*
D02*
G37*
G36*
X6484164Y10208650D02*
X6251864D01*
Y10049600D01*
X5715875Y9513611D01*
X5704647Y9496808D01*
X5700705Y9476986D01*
Y8074373D01*
X5704647Y8054552D01*
X5715875Y8037748D01*
X5867485Y7886139D01*
X5867293Y7885423D01*
Y7862937D01*
X5873113Y7841217D01*
X5884356Y7821744D01*
X5900256Y7805843D01*
X5919730Y7794600D01*
X5941450Y7788780D01*
X5963936D01*
X5964652Y7788972D01*
X6253698Y7499926D01*
Y6620988D01*
X6257641Y6601167D01*
X6268869Y6584363D01*
X6602093Y6251139D01*
Y6213589D01*
X6772893D01*
Y6268584D01*
X6773888Y6273588D01*
Y6293139D01*
X6833320Y6352570D01*
X6852093Y6344794D01*
Y6308589D01*
X6898646D01*
Y6037360D01*
X6557024Y5695738D01*
X6548603Y5683135D01*
X6545646Y5668270D01*
Y5333650D01*
X6468343D01*
Y5101350D01*
X6700643D01*
Y5333650D01*
X6623339D01*
Y5652179D01*
X6964961Y5993801D01*
X6973382Y6006404D01*
X6976339Y6021270D01*
Y6308589D01*
X7022893D01*
Y6419388D01*
X6926687D01*
X6918911Y6438162D01*
X6986454Y6505705D01*
X7511034D01*
X7649383Y6367355D01*
X7649100Y6366297D01*
Y6343679D01*
X7654954Y6321832D01*
X7666263Y6302244D01*
X7682256Y6286251D01*
X7683205Y6285704D01*
Y5836773D01*
X7682256Y5836225D01*
X7666263Y5820232D01*
X7654954Y5800644D01*
X7649100Y5778797D01*
Y5756179D01*
X7654954Y5734332D01*
X7666263Y5714744D01*
X7682256Y5698751D01*
X7701844Y5687442D01*
X7723691Y5681588D01*
X7746309D01*
X7768156Y5687442D01*
X7787744Y5698751D01*
X7803737Y5714744D01*
X7815046Y5734332D01*
X7820900Y5756179D01*
Y5778797D01*
X7815046Y5800644D01*
X7803737Y5820232D01*
X7787744Y5836225D01*
X7786795Y5836773D01*
Y6285704D01*
X7787744Y6286251D01*
X7803737Y6302244D01*
X7815046Y6321832D01*
X7820900Y6343679D01*
Y6366297D01*
X7815046Y6388144D01*
X7803737Y6407732D01*
X7787744Y6423725D01*
X7768156Y6435034D01*
X7746309Y6440888D01*
X7723691D01*
X7722633Y6440605D01*
X7569113Y6594125D01*
X7552310Y6605353D01*
X7532488Y6609295D01*
X6965000D01*
X6945400Y6626115D01*
X6944919Y6631477D01*
X7080161Y6766720D01*
X7088582Y6779322D01*
X7091539Y6794188D01*
Y7334631D01*
X7105130Y7342477D01*
X7121030Y7358377D01*
X7132273Y7377851D01*
X7138093Y7399571D01*
Y7422057D01*
X7132273Y7443777D01*
X7121030Y7463251D01*
X7105130Y7479151D01*
X7091539Y7486997D01*
Y7797997D01*
X7105130Y7805843D01*
X7121030Y7821744D01*
X7132273Y7841217D01*
X7138093Y7862937D01*
Y7885423D01*
X7132273Y7907143D01*
X7121030Y7926617D01*
X7105130Y7942517D01*
X7085656Y7953760D01*
X7063936Y7959580D01*
X7041450D01*
X7019730Y7953760D01*
X7000256Y7942517D01*
X6984356Y7926617D01*
X6973113Y7907143D01*
X6967293Y7885423D01*
Y7862937D01*
X6973113Y7841217D01*
X6984356Y7821744D01*
X7000256Y7805843D01*
X7013846Y7797997D01*
Y7486997D01*
X7000256Y7479151D01*
X6984356Y7463251D01*
X6973113Y7443777D01*
X6967293Y7422057D01*
Y7399571D01*
X6973113Y7377851D01*
X6984356Y7358377D01*
X7000256Y7342477D01*
X7013846Y7334631D01*
Y6810279D01*
X6717956Y6514389D01*
X6602093D01*
Y6426375D01*
X6581773Y6417958D01*
X6357289Y6642442D01*
Y7521379D01*
X6357289Y7521380D01*
X6353346Y7541201D01*
X6342118Y7558005D01*
X6342117Y7558005D01*
X6037901Y7862222D01*
X6038093Y7862937D01*
Y7885423D01*
X6032273Y7907143D01*
X6021030Y7926617D01*
X6005130Y7942517D01*
X5985656Y7953760D01*
X5963936Y7959580D01*
X5941450D01*
X5940734Y7959388D01*
X5804295Y8095828D01*
Y9455532D01*
X6325113Y9976350D01*
X6484164D01*
Y10208650D01*
D02*
G37*
G36*
X6345784Y5333650D02*
X6315201D01*
X6285661Y5325735D01*
X6259175Y5310443D01*
X6237550Y5288818D01*
X6222258Y5262332D01*
X6214343Y5232791D01*
Y5202209D01*
X6222258Y5172668D01*
X6237550Y5146182D01*
X6259175Y5124557D01*
X6285661Y5109266D01*
X6315201Y5101350D01*
X6345784D01*
X6375325Y5109266D01*
X6401810Y5124557D01*
X6423436Y5146182D01*
X6438727Y5172668D01*
X6446643Y5202209D01*
Y5232791D01*
X6438727Y5262332D01*
X6423436Y5288818D01*
X6401810Y5310443D01*
X6375325Y5325735D01*
X6345784Y5333650D01*
D02*
G37*
G36*
X9607900Y4900400D02*
X9377100D01*
Y4669600D01*
X9607900D01*
Y4900400D01*
D02*
G37*
G36*
X13025609Y4825400D02*
X12974390D01*
X12923802Y4817387D01*
X12875090Y4801560D01*
X12829453Y4778307D01*
X12788016Y4748201D01*
X12751799Y4711984D01*
X12721693Y4670547D01*
X12698440Y4624910D01*
X12682612Y4576198D01*
X12674600Y4525609D01*
Y4474390D01*
X12682612Y4423802D01*
X12698440Y4375090D01*
X12721693Y4329453D01*
X12751799Y4288016D01*
X12788016Y4251799D01*
X12829453Y4221693D01*
X12875090Y4198440D01*
X12923802Y4182612D01*
X12974390Y4174600D01*
X13025609D01*
X13076198Y4182612D01*
X13124910Y4198440D01*
X13170547Y4221693D01*
X13211984Y4251799D01*
X13248201Y4288016D01*
X13278307Y4329453D01*
X13301559Y4375090D01*
X13317387Y4423802D01*
X13325400Y4474390D01*
Y4525609D01*
X13317387Y4576198D01*
X13301559Y4624910D01*
X13278307Y4670547D01*
X13248201Y4711984D01*
X13211984Y4748201D01*
X13170547Y4778307D01*
X13124910Y4801560D01*
X13076198Y4817387D01*
X13025609Y4825400D01*
D02*
G37*
G36*
X5025609D02*
X4974390D01*
X4923802Y4817387D01*
X4875090Y4801560D01*
X4829453Y4778307D01*
X4788016Y4748201D01*
X4751799Y4711984D01*
X4721693Y4670547D01*
X4698440Y4624910D01*
X4682612Y4576198D01*
X4674600Y4525609D01*
Y4474390D01*
X4682612Y4423802D01*
X4698440Y4375090D01*
X4721693Y4329453D01*
X4751799Y4288016D01*
X4788016Y4251799D01*
X4829453Y4221693D01*
X4875090Y4198440D01*
X4923802Y4182612D01*
X4974390Y4174600D01*
X5025609D01*
X5076198Y4182612D01*
X5124910Y4198440D01*
X5170547Y4221693D01*
X5211984Y4251799D01*
X5248201Y4288016D01*
X5278307Y4329453D01*
X5301560Y4375090D01*
X5317387Y4423802D01*
X5325400Y4474390D01*
Y4525609D01*
X5317387Y4576198D01*
X5301560Y4624910D01*
X5278307Y4670547D01*
X5248201Y4711984D01*
X5211984Y4748201D01*
X5170547Y4778307D01*
X5124910Y4801560D01*
X5076198Y4817387D01*
X5025609Y4825400D01*
D02*
G37*
%LPD*%
D10*
X4500000Y4500000D02*
G03*
X5000000Y4000000I500000J0D01*
G01*
X13000000D02*
G03*
X13500000Y4500000I-0J500000D01*
G01*
X5000000Y11250000D02*
G03*
X4500000Y10750000I0J-500000D01*
G01*
X13500000D02*
G03*
X13000000Y11250000I-500000J-0D01*
G01*
X4500000Y4500000D02*
Y5000000D01*
Y5750000D01*
Y10750000D01*
X13500000Y4500000D02*
X13500000Y10750000D01*
X5000000Y4000000D02*
X13000000D01*
X5000000Y11250000D02*
X13000000D01*
D11*
X6687493Y6458989D02*
D03*
Y6268988D02*
D03*
X6937493Y6363989D02*
D03*
D12*
X7690908Y9920908D02*
X7980000Y10210000D01*
X7690908Y7194093D02*
Y9920908D01*
X7980000Y10210000D02*
X9582500D01*
X9750000Y9790000D02*
Y10042500D01*
X9582500Y10210000D02*
X9750000Y10042500D01*
X7690908Y7194093D02*
X8025000Y6860000D01*
X8230000D01*
X6584493Y5668270D02*
X6937493Y6021270D01*
Y6363989D01*
X6584493Y5217500D02*
Y5668270D01*
X6687493Y6458989D02*
X6717493D01*
X7052693Y6794188D01*
Y7410814D01*
Y7874180D01*
X5952693Y8337547D02*
X6622014Y9006867D01*
Y10092500D01*
X11528000Y5042500D02*
Y7250000D01*
X11270500Y4785000D02*
X11528000Y5042500D01*
X11016500Y4785000D02*
Y5591000D01*
X10924400Y5683100D02*
Y7150298D01*
Y5683100D02*
X11016500Y5591000D01*
X11020000Y7245898D02*
Y7250000D01*
X10924400Y7150298D02*
X11020000Y7245898D01*
X10650000Y4897500D02*
Y7134000D01*
Y4897500D02*
X10762500Y4785000D01*
X10650000Y7134000D02*
X10766000Y7250000D01*
X10510250Y7248250D02*
X10512000Y7250000D01*
X10510250Y4786750D02*
Y7248250D01*
X10508500Y4785000D02*
X10510250Y4786750D01*
X10256250Y7248250D02*
X10258000Y7250000D01*
X10256250Y4786750D02*
Y7248250D01*
X10254500Y4785000D02*
X10256250Y4786750D01*
X10002250Y7248250D02*
X10004000Y7250000D01*
X10002250Y4786750D02*
Y7248250D01*
X10000500Y4785000D02*
X10002250Y4786750D01*
X9748250Y7248250D02*
X9750000Y7250000D01*
X9748250Y4786750D02*
Y7248250D01*
X9746500Y4785000D02*
X9748250Y4786750D01*
D13*
X11166735Y5887735D02*
X11276500Y5997500D01*
X11166735Y5485000D02*
Y5887735D01*
D14*
X6965000Y6557500D02*
X7532488D01*
X6722093Y6273588D02*
Y6314593D01*
X6965000Y6557500D01*
X6717493Y6268988D02*
X6722093Y6273588D01*
X6657493Y6268988D02*
X6717493D01*
X7532488Y6557500D02*
X7735000Y6354988D01*
X5752500Y8074373D02*
Y9476986D01*
Y8074373D02*
X5952693Y7874180D01*
X5752500Y9476986D02*
X6368014Y10092500D01*
X7735000Y5767488D02*
Y6354988D01*
X6305493Y6620988D02*
X6657493Y6268988D01*
X6305493Y6620988D02*
Y7521380D01*
X5952693Y7874180D02*
X6305493Y7521380D01*
X11782000Y7250000D02*
Y9790000D01*
X7989000Y6354988D02*
Y6536000D01*
X7520751Y7004249D02*
X7989000Y6536000D01*
X7520751Y7004249D02*
Y8332855D01*
X7052693Y8800913D02*
X7520751Y8332855D01*
X7989000Y6354988D02*
X8320812Y6023176D01*
X8985000D01*
X11360493Y4455000D02*
X12794993Y5889500D01*
X9272500Y4455000D02*
X11360493D01*
X8985000Y4742500D02*
Y6023176D01*
Y4742500D02*
X9272500Y4455000D01*
X12606643Y5889500D02*
X12794993D01*
X12036000Y6460143D02*
Y7250000D01*
Y6460143D02*
X12606643Y5889500D01*
D15*
X8230000Y6860000D02*
D03*
X11166735Y5485000D02*
D03*
D16*
X10768500Y5997500D02*
D03*
X11022500D02*
D03*
X7052693Y8800913D02*
D03*
X5952693D02*
D03*
X7052693Y8337547D02*
D03*
X5952693D02*
D03*
Y7410814D02*
D03*
X7052693D02*
D03*
X5952693Y7874180D02*
D03*
X7052693D02*
D03*
D17*
X11276500Y5997500D02*
D03*
D18*
X6368014Y10092500D02*
D03*
X6584493Y5217500D02*
D03*
D19*
X6622014Y10092500D02*
D03*
X6330493Y5217500D02*
D03*
D20*
X12794993Y5635500D02*
D03*
X11270500Y4785000D02*
D03*
X11016500D02*
D03*
X10762500D02*
D03*
X10508500D02*
D03*
X10254500D02*
D03*
X10000500D02*
D03*
X9746500D02*
D03*
D21*
X12794993Y5889500D02*
D03*
D22*
X13000000Y4500000D02*
D03*
Y10750000D02*
D03*
X5000000Y4500000D02*
D03*
Y10750000D02*
D03*
D23*
X12832001Y9748000D02*
D03*
Y7297000D02*
D03*
X8137000D02*
D03*
Y9748000D02*
D03*
D24*
X8480000Y7250000D02*
D03*
X8734000D02*
D03*
X8988000D02*
D03*
X9242000D02*
D03*
X9496000D02*
D03*
X9750000D02*
D03*
X10004000D02*
D03*
X10258000D02*
D03*
X10512000D02*
D03*
X10766000D02*
D03*
X11020000D02*
D03*
X11274000D02*
D03*
X11528000D02*
D03*
X11782000D02*
D03*
X12036000D02*
D03*
X8480000Y9790000D02*
D03*
X8734000D02*
D03*
X8988000D02*
D03*
X9242000D02*
D03*
X9496000D02*
D03*
X9750000D02*
D03*
X10004000D02*
D03*
X10258000D02*
D03*
X10512000D02*
D03*
X10766000D02*
D03*
X11020000D02*
D03*
X11274000D02*
D03*
X11528000D02*
D03*
X11782000D02*
D03*
D25*
X12036000D02*
D03*
D26*
X8985000Y6023176D02*
D03*
D27*
X9335000D02*
D03*
D28*
X7989000Y6354988D02*
D03*
X7735000D02*
D03*
X7989000Y5767488D02*
D03*
X7735000D02*
D03*
D29*
X9492500Y4785000D02*
D03*
%TF.MD5,1119a9353a019dad879ebf2521aef4f5*%
M02*
