%TF.GenerationSoftware,Altium Limited,Altium Designer,26.8.1 (31)*%
G04 Layer_Color=16711935*
G04 Board_Origin=0|0*
%FSLAX45Y45*%
%MOMM*%
%TF.SameCoordinates,BFB3822A-CCE0-4350-B96D-0D528342DD55*%
%TF.FilePolarity,Positive*%
%TF.FileFunction,Other,Mechanical_13*%
%TF.Part,Single*%
G01*
G75*
%TA.AperFunction,NonConductor*%
%ADD30C,0.20000*%
%ADD31C,0.12700*%
%ADD34C,0.10000*%
D30*
X6185014Y10092500D02*
G03*
X6185014Y10092500I-10000J0D01*
G01*
X12804993Y6114500D02*
G03*
X12804993Y6114500I-10000J0D01*
G01*
X12046000Y10005000D02*
G03*
X12046000Y10005000I-10000J0D01*
G01*
X6787493Y5217500D02*
G03*
X6787493Y5217500I-10000J0D01*
G01*
X7608000Y6195988D02*
Y6513988D01*
Y6195988D02*
X8116000D01*
Y6513988D01*
X7608000D02*
X8116000D01*
X7608000Y5608488D02*
Y5926489D01*
Y5608488D02*
X8116000D01*
Y5926489D01*
X7608000D02*
X8116000D01*
D31*
X6245014Y9935900D02*
G03*
X6245014Y10249100I250612J156600D01*
G01*
X6707493Y5374100D02*
G03*
X6707493Y5060900I-250612J-156600D01*
G01*
X6245014Y9935900D02*
Y10249100D01*
X13064993Y5580500D02*
Y5690500D01*
Y5580500D02*
X13114993D01*
X13064993Y5690500D02*
X13114993D01*
X13064993Y5834500D02*
Y5944500D01*
Y5834500D02*
X13114993D01*
X13064993Y5944500D02*
X13114993D01*
X12469993Y6039500D02*
X13119994D01*
X12469993Y5485500D02*
Y6039500D01*
Y5485500D02*
X13119994D01*
Y6039500D01*
X12643000Y8841100D02*
X13032001D01*
X12643000Y8170000D02*
Y8841100D01*
Y8170000D02*
X13032001D01*
X8586000Y7642000D02*
Y9411000D01*
X7937000Y7642000D02*
X8586000D01*
X9849000D01*
Y9411000D01*
X8586000D02*
X9849000D01*
X7937000D02*
X8586000D01*
X7937000Y7097000D02*
Y7642000D01*
Y9411000D01*
Y9948000D01*
Y7097000D02*
X13032001D01*
X7937000Y9948000D02*
X13032001D01*
Y7097000D02*
Y8170000D01*
Y8841100D01*
Y9948000D01*
X6842693Y8670913D02*
Y8800913D01*
Y8930913D01*
X6162693D02*
X6842693D01*
X6162693Y8800913D02*
Y8930913D01*
Y8670913D02*
Y8800913D01*
Y8670913D02*
X6842693D01*
Y8800913D02*
X6992693D01*
X6012693D02*
X6162693D01*
X6842693Y8207547D02*
Y8337547D01*
Y8467547D01*
X6162693D02*
X6842693D01*
X6162693Y8337547D02*
Y8467547D01*
Y8207547D02*
Y8337547D01*
Y8207547D02*
X6842693D01*
Y8337547D02*
X6992693D01*
X6012693D02*
X6162693D01*
X6707493Y5060900D02*
Y5374100D01*
X6162693Y7410814D02*
Y7540814D01*
Y7280814D02*
Y7410814D01*
Y7280814D02*
X6842693D01*
Y7410814D01*
Y7540814D01*
X6162693D02*
X6842693D01*
X6012693Y7410814D02*
X6162693D01*
X6842693D02*
X6992693D01*
X6162693Y7874180D02*
Y8004180D01*
Y7744180D02*
Y7874180D01*
Y7744180D02*
X6842693D01*
Y7874180D01*
Y8004180D01*
X6162693D02*
X6842693D01*
X6012693Y7874180D02*
X6162693D01*
X6842693D02*
X6992693D01*
D34*
X9560000Y6023176D02*
G03*
X9560000Y6023176I-400000J0D01*
G01*
X11403500Y5870500D02*
Y6124500D01*
X10641500D02*
X11403500D01*
X10641500Y5870500D02*
Y6124500D01*
Y5870500D02*
X11403500D01*
X6732493Y6511489D02*
X6892493D01*
Y6216488D02*
Y6511489D01*
X6732493Y6216488D02*
X6892493D01*
X6732493D02*
Y6511489D01*
Y6416489D02*
X6827493Y6511489D01*
X9373500Y4460000D02*
X11415500D01*
Y5095000D01*
X9373500D02*
X11415500D01*
X9373500Y4460000D02*
Y5095000D01*
%TF.MD5,73bd30ed5abf4773133a72d683401384*%
M02*
