%TF.GenerationSoftware,Altium Limited,Altium Designer,26.8.1 (31)*%
G04 Layer_Color=16711935*
G04 Board_Origin=0|0*
%FSLAX45Y45*%
%MOMM*%
%TF.SameCoordinates,BFB3822A-CCE0-4350-B96D-0D528342DD55*%
%TF.FilePolarity,Negative*%
%TF.FileFunction,Soldermask,Bot*%
%TF.Part,Single*%
G01*
G75*
%TA.AperFunction,ViaPad*%
%ADD15C,1.52400*%
%TA.AperFunction,ComponentPad*%
%ADD16C,1.20000*%
%ADD17R,1.20000X1.20000*%
%ADD18R,1.81500X1.81500*%
%ADD19C,1.81500*%
%ADD20C,1.80000*%
%ADD21R,1.80000X1.80000*%
%ADD23C,3.00000*%
%ADD24C,2.00000*%
%ADD25R,2.00000X2.00000*%
%ADD26R,1.27500X1.27500*%
%ADD27C,1.27500*%
%ADD28C,1.21000*%
%ADD29R,1.80000X1.80000*%
%TA.AperFunction,WasherPad*%
%ADD32C,7.30000*%
D15*
X8230000Y6860000D02*
D03*
X11166735Y5485000D02*
D03*
D16*
X10768500Y5997500D02*
D03*
X11022500D02*
D03*
X7052693Y8800913D02*
D03*
X5952693D02*
D03*
X7052693Y8337547D02*
D03*
X5952693D02*
D03*
Y7410814D02*
D03*
X7052693D02*
D03*
X5952693Y7874180D02*
D03*
X7052693D02*
D03*
D17*
X11276500Y5997500D02*
D03*
D18*
X6368014Y10092500D02*
D03*
X6584493Y5217500D02*
D03*
D19*
X6622014Y10092500D02*
D03*
X6330493Y5217500D02*
D03*
D20*
X12794993Y5635500D02*
D03*
X11270500Y4785000D02*
D03*
X11016500D02*
D03*
X10762500D02*
D03*
X10508500D02*
D03*
X10254500D02*
D03*
X10000500D02*
D03*
X9746500D02*
D03*
D21*
X12794993Y5889500D02*
D03*
D23*
X12832001Y9748000D02*
D03*
Y7297000D02*
D03*
X8137000D02*
D03*
Y9748000D02*
D03*
D24*
X8480000Y7250000D02*
D03*
X8734000D02*
D03*
X8988000D02*
D03*
X9242000D02*
D03*
X9496000D02*
D03*
X9750000D02*
D03*
X10004000D02*
D03*
X10258000D02*
D03*
X10512000D02*
D03*
X10766000D02*
D03*
X11020000D02*
D03*
X11274000D02*
D03*
X11528000D02*
D03*
X11782000D02*
D03*
X12036000D02*
D03*
X8480000Y9790000D02*
D03*
X8734000D02*
D03*
X8988000D02*
D03*
X9242000D02*
D03*
X9496000D02*
D03*
X9750000D02*
D03*
X10004000D02*
D03*
X10258000D02*
D03*
X10512000D02*
D03*
X10766000D02*
D03*
X11020000D02*
D03*
X11274000D02*
D03*
X11528000D02*
D03*
X11782000D02*
D03*
D25*
X12036000D02*
D03*
D26*
X8985000Y6023176D02*
D03*
D27*
X9335000D02*
D03*
D28*
X7989000Y6354988D02*
D03*
X7735000D02*
D03*
X7989000Y5767488D02*
D03*
X7735000D02*
D03*
D29*
X9492500Y4785000D02*
D03*
D32*
X13000000Y4500000D02*
D03*
Y10750000D02*
D03*
X5000000Y4500000D02*
D03*
Y10750000D02*
D03*
%TF.MD5,e1321637a981b7d09e1cb593cd9672b9*%
M02*
