%TF.GenerationSoftware,Altium Limited,Altium Designer,26.8.1 (31)*%
G04 Layer_Color=32768*
G04 Board_Origin=0|0*
%FSLAX45Y45*%
%MOMM*%
%TF.SameCoordinates,BFB3822A-CCE0-4350-B96D-0D528342DD55*%
%TF.FilePolarity,Positive*%
%TF.FileFunction,Other,Mechanical_15*%
%TF.Part,Single*%
G01*
G75*
%TA.AperFunction,NonConductor*%
%ADD35C,0.05000*%
D35*
X6220732Y9927299D02*
G03*
X6220732Y10257701I274941J165201D01*
G01*
X6731775Y5382701D02*
G03*
X6731775Y5052299I-274941J-165201D01*
G01*
X9610000Y6023176D02*
G03*
X9610000Y6023176I-450000J0D01*
G01*
X11428500Y5845500D02*
Y6149500D01*
X10616500D02*
X11428500D01*
X10616500Y5845500D02*
Y6149500D01*
Y5845500D02*
X11428500D01*
X6220014Y9928500D02*
Y10256500D01*
X13144994Y5460500D02*
Y6064500D01*
X12444993Y5460500D02*
X13144994D01*
X12444993D02*
Y6064500D01*
X13144994D01*
X13057001Y7072000D02*
Y9973000D01*
X7912000Y7072000D02*
X13057001D01*
X7912000D02*
Y9973000D01*
X13057001D01*
X6867693Y8715913D02*
X7137693D01*
X6867693Y8645913D02*
Y8715913D01*
X6137693Y8645913D02*
X6867693D01*
X6137693D02*
Y8715913D01*
X5867693D02*
X6137693D01*
X5867693D02*
Y8885913D01*
X6137693D01*
Y8955913D01*
X6867693D01*
Y8885913D02*
Y8955913D01*
Y8885913D02*
X7137693D01*
Y8715913D02*
Y8885913D01*
X6867693Y8252547D02*
X7137693D01*
X6867693Y8182547D02*
Y8252547D01*
X6137693Y8182547D02*
X6867693D01*
X6137693D02*
Y8252547D01*
X5867693D02*
X6137693D01*
X5867693D02*
Y8422547D01*
X6137693D01*
Y8492547D01*
X6867693D01*
Y8422547D02*
Y8492547D01*
Y8422547D02*
X7137693D01*
Y8252547D02*
Y8422547D01*
X6732493Y5053500D02*
Y5381500D01*
X6602493Y6543988D02*
X7022493D01*
Y6183989D02*
Y6543988D01*
X6602493Y6183989D02*
X7022493D01*
X6602493D02*
Y6543988D01*
X5867693Y7495814D02*
X6137693D01*
Y7565814D01*
X6867693D01*
Y7495814D02*
Y7565814D01*
Y7495814D02*
X7137693D01*
Y7325814D02*
Y7495814D01*
X6867693Y7325814D02*
X7137693D01*
X6867693Y7255814D02*
Y7325814D01*
X6137693Y7255814D02*
X6867693D01*
X6137693D02*
Y7325814D01*
X5867693D02*
X6137693D01*
X5867693D02*
Y7495814D01*
Y7959180D02*
X6137693D01*
Y8029180D01*
X6867693D01*
Y7959180D02*
Y8029180D01*
Y7959180D02*
X7137693D01*
Y7789180D02*
Y7959180D01*
X6867693Y7789180D02*
X7137693D01*
X6867693Y7719180D02*
Y7789180D01*
X6137693Y7719180D02*
X6867693D01*
X6137693D02*
Y7789180D01*
X5867693D02*
X6137693D01*
X5867693D02*
Y7959180D01*
X9348500Y4435000D02*
X11440500D01*
Y5120000D01*
X9348500D02*
X11440500D01*
X9348500Y4435000D02*
Y5120000D01*
%TF.MD5,53e14d00f88f99a9bb4fe9f26abe3571*%
M02*
