%TF.GenerationSoftware,Altium Limited,Altium Designer,26.8.1 (31)*%
G04 Layer_Color=65535*
G04 Board_Origin=0|0*
%FSLAX45Y45*%
%MOMM*%
%TF.SameCoordinates,BFB3822A-CCE0-4350-B96D-0D528342DD55*%
%TF.FilePolarity,Positive*%
%TF.FileFunction,Legend,Top*%
%TF.Part,Single*%
G01*
G75*
%TA.AperFunction,NonConductor*%
%ADD10C,0.25400*%
%ADD30C,0.20000*%
%ADD31C,0.12700*%
G36*
X10248191Y8592106D02*
X10249715D01*
X10251620Y8591916D01*
X10253715Y8591725D01*
X10258097Y8590963D01*
X10262859Y8590011D01*
X10267812Y8588677D01*
X10272575Y8586963D01*
X10272765D01*
X10273146Y8586772D01*
X10273718Y8586391D01*
X10274670Y8586010D01*
X10276956Y8584677D01*
X10279623Y8582962D01*
X10282862Y8580867D01*
X10285910Y8578200D01*
X10289148Y8574961D01*
X10291815Y8571342D01*
Y8571151D01*
X10292196Y8570961D01*
X10292387Y8570389D01*
X10292958Y8569627D01*
X10293339Y8568675D01*
X10293911Y8567532D01*
X10295244Y8564674D01*
X10296578Y8561245D01*
X10297721Y8557435D01*
X10298673Y8553054D01*
X10299054Y8548482D01*
X10280385Y8547148D01*
Y8547339D01*
Y8547720D01*
X10280195Y8548482D01*
X10280004Y8549434D01*
X10279814Y8550577D01*
X10279433Y8551911D01*
X10278480Y8554959D01*
X10277147Y8558197D01*
X10275432Y8561626D01*
X10273146Y8565055D01*
X10270098Y8567913D01*
X10269717Y8568294D01*
X10269146Y8568484D01*
X10268574Y8569056D01*
X10267622Y8569627D01*
X10266479Y8570199D01*
X10265145Y8570770D01*
X10263812Y8571532D01*
X10262097Y8572104D01*
X10260192Y8572675D01*
X10258097Y8573247D01*
X10255811Y8573818D01*
X10253334Y8574390D01*
X10250667Y8574580D01*
X10247810Y8574961D01*
X10241904D01*
X10240380Y8574771D01*
X10238856Y8574580D01*
X10235046Y8574199D01*
X10230855Y8573437D01*
X10226664Y8572294D01*
X10222664Y8570580D01*
X10220759Y8569627D01*
X10219235Y8568484D01*
X10218854Y8568103D01*
X10217901Y8567341D01*
X10216758Y8566008D01*
X10215234Y8564103D01*
X10213710Y8561817D01*
X10212567Y8559150D01*
X10211615Y8556102D01*
X10211234Y8552863D01*
Y8552482D01*
Y8551530D01*
X10211615Y8550196D01*
X10211996Y8548291D01*
X10212567Y8546196D01*
X10213520Y8544100D01*
X10214853Y8542005D01*
X10216758Y8539909D01*
X10217139Y8539719D01*
X10217520Y8539338D01*
X10218092Y8539147D01*
X10218854Y8538576D01*
X10219806Y8538004D01*
X10221140Y8537433D01*
X10222473Y8536861D01*
X10224378Y8536099D01*
X10226474Y8535147D01*
X10228760Y8534385D01*
X10231427Y8533432D01*
X10234475Y8532480D01*
X10237904Y8531527D01*
X10241714Y8530575D01*
X10245905Y8529622D01*
X10246095D01*
X10246857Y8529432D01*
X10248191Y8529051D01*
X10249715Y8528670D01*
X10251620Y8528289D01*
X10253906Y8527717D01*
X10256192Y8527146D01*
X10258859Y8526384D01*
X10264193Y8525050D01*
X10269527Y8523526D01*
X10272003Y8522574D01*
X10274480Y8521812D01*
X10276575Y8521050D01*
X10278290Y8520288D01*
X10278480D01*
X10278861Y8520097D01*
X10279433Y8519716D01*
X10280385Y8519145D01*
X10282671Y8518002D01*
X10285529Y8516287D01*
X10288577Y8514001D01*
X10291625Y8511525D01*
X10294673Y8508477D01*
X10297149Y8505238D01*
Y8505048D01*
X10297340Y8504857D01*
X10297721Y8504286D01*
X10298102Y8503714D01*
X10299054Y8501809D01*
X10300388Y8499333D01*
X10301531Y8496285D01*
X10302483Y8492665D01*
X10303245Y8488855D01*
X10303436Y8484474D01*
Y8484283D01*
Y8483902D01*
Y8483331D01*
X10303245Y8482569D01*
Y8481426D01*
X10303055Y8480283D01*
X10302674Y8477425D01*
X10301721Y8473996D01*
X10300578Y8470377D01*
X10298864Y8466376D01*
X10296578Y8462566D01*
Y8462376D01*
X10296197Y8462185D01*
X10295816Y8461614D01*
X10295435Y8460852D01*
X10293720Y8458947D01*
X10291625Y8456661D01*
X10288958Y8454184D01*
X10285719Y8451517D01*
X10281719Y8448850D01*
X10277337Y8446564D01*
X10277147D01*
X10276766Y8446374D01*
X10276004Y8445993D01*
X10275242Y8445612D01*
X10273908Y8445231D01*
X10272575Y8444850D01*
X10271051Y8444278D01*
X10269146Y8443707D01*
X10265145Y8442754D01*
X10260383Y8441802D01*
X10255049Y8441040D01*
X10249334Y8440849D01*
X10247429D01*
X10246095Y8441040D01*
X10244381D01*
X10242285Y8441230D01*
X10240190Y8441421D01*
X10237713Y8441611D01*
X10232570Y8442183D01*
X10226855Y8443326D01*
X10221330Y8444659D01*
X10215996Y8446564D01*
X10215806D01*
X10215425Y8446755D01*
X10214663Y8447136D01*
X10213710Y8447707D01*
X10212758Y8448279D01*
X10211424Y8449041D01*
X10208376Y8450946D01*
X10204947Y8453422D01*
X10201518Y8456470D01*
X10198089Y8460090D01*
X10195041Y8464090D01*
Y8464281D01*
X10194660Y8464662D01*
X10194279Y8465233D01*
X10193898Y8466186D01*
X10193327Y8467329D01*
X10192565Y8468472D01*
X10191993Y8469996D01*
X10191231Y8471710D01*
X10189707Y8475711D01*
X10188374Y8480092D01*
X10187421Y8485236D01*
X10187040Y8490570D01*
X10205328Y8492094D01*
Y8491903D01*
Y8491522D01*
X10205519Y8490951D01*
Y8490189D01*
X10205900Y8488284D01*
X10206471Y8485617D01*
X10207233Y8482759D01*
X10208376Y8479711D01*
X10209710Y8476663D01*
X10211234Y8473806D01*
X10211424Y8473425D01*
X10212186Y8472663D01*
X10213329Y8471329D01*
X10214853Y8469805D01*
X10216949Y8467900D01*
X10219425Y8465995D01*
X10222473Y8464090D01*
X10225902Y8462376D01*
X10226093D01*
X10226283Y8462185D01*
X10226855Y8461995D01*
X10227617Y8461804D01*
X10228569Y8461423D01*
X10229712Y8461042D01*
X10232570Y8460280D01*
X10235808Y8459518D01*
X10239618Y8458756D01*
X10243809Y8458375D01*
X10248381Y8458185D01*
X10250286D01*
X10252382Y8458375D01*
X10255049Y8458566D01*
X10257906Y8458947D01*
X10261335Y8459518D01*
X10264574Y8460280D01*
X10267812Y8461423D01*
X10268003D01*
X10268193Y8461614D01*
X10269146Y8461995D01*
X10270670Y8462757D01*
X10272575Y8463709D01*
X10274670Y8465043D01*
X10276766Y8466567D01*
X10278861Y8468281D01*
X10280576Y8470377D01*
X10280766Y8470567D01*
X10281147Y8471329D01*
X10281909Y8472663D01*
X10282671Y8474187D01*
X10283433Y8476092D01*
X10284195Y8478187D01*
X10284576Y8480473D01*
X10284767Y8482950D01*
Y8483331D01*
Y8484093D01*
X10284576Y8485426D01*
X10284195Y8486950D01*
X10283814Y8488855D01*
X10283052Y8490951D01*
X10281909Y8493046D01*
X10280576Y8494951D01*
X10280385Y8495142D01*
X10279814Y8495904D01*
X10278861Y8496856D01*
X10277528Y8497999D01*
X10275623Y8499333D01*
X10273337Y8500666D01*
X10270670Y8502190D01*
X10267431Y8503524D01*
X10267050Y8503714D01*
X10266288Y8503905D01*
X10265526Y8504286D01*
X10264574Y8504476D01*
X10263431Y8504857D01*
X10261907Y8505238D01*
X10260383Y8505810D01*
X10258478Y8506191D01*
X10256382Y8506762D01*
X10253906Y8507524D01*
X10251239Y8508096D01*
X10248191Y8508858D01*
X10244952Y8509620D01*
X10241333Y8510572D01*
X10241142D01*
X10240380Y8510763D01*
X10239428Y8511144D01*
X10238094Y8511334D01*
X10236380Y8511906D01*
X10234665Y8512287D01*
X10230284Y8513620D01*
X10225712Y8514954D01*
X10220949Y8516668D01*
X10216758Y8518192D01*
X10214853Y8519145D01*
X10213139Y8519907D01*
X10212948D01*
X10212758Y8520097D01*
X10212186Y8520478D01*
X10211424Y8520859D01*
X10209519Y8522002D01*
X10207233Y8523717D01*
X10204757Y8525622D01*
X10202090Y8527908D01*
X10199613Y8530575D01*
X10197518Y8533432D01*
Y8533623D01*
X10197327Y8533813D01*
X10196756Y8534956D01*
X10195994Y8536480D01*
X10195041Y8538766D01*
X10194089Y8541433D01*
X10193327Y8544672D01*
X10192755Y8548101D01*
X10192565Y8551720D01*
Y8551911D01*
Y8552292D01*
Y8552863D01*
X10192755Y8553625D01*
X10192946Y8555721D01*
X10193327Y8558578D01*
X10194089Y8561817D01*
X10195232Y8565246D01*
X10196756Y8568865D01*
X10198851Y8572485D01*
Y8572675D01*
X10199232Y8572866D01*
X10199994Y8574009D01*
X10201518Y8575914D01*
X10203423Y8578009D01*
X10206090Y8580295D01*
X10209138Y8582772D01*
X10212948Y8585058D01*
X10217139Y8587153D01*
X10217330D01*
X10217711Y8587344D01*
X10218282Y8587725D01*
X10219235Y8587915D01*
X10220378Y8588296D01*
X10221711Y8588868D01*
X10223235Y8589249D01*
X10224950Y8589820D01*
X10228950Y8590582D01*
X10233522Y8591535D01*
X10238666Y8592106D01*
X10244000Y8592297D01*
X10246667D01*
X10248191Y8592106D01*
D02*
G37*
G36*
X10507842Y8590201D02*
X10509176D01*
X10512033Y8589820D01*
X10515462Y8589058D01*
X10519082Y8588296D01*
X10522892Y8586963D01*
X10526702Y8585248D01*
X10526892D01*
X10527083Y8585058D01*
X10527654Y8584677D01*
X10528416Y8584296D01*
X10530131Y8583153D01*
X10532417Y8581629D01*
X10534893Y8579533D01*
X10537560Y8577057D01*
X10540037Y8574390D01*
X10542132Y8571151D01*
Y8570961D01*
X10542323Y8570770D01*
X10543085Y8569627D01*
X10543847Y8567722D01*
X10544990Y8565436D01*
X10545942Y8562579D01*
X10546895Y8559340D01*
X10547466Y8555911D01*
X10547657Y8552292D01*
Y8552101D01*
Y8551911D01*
Y8550768D01*
X10547466Y8548863D01*
X10547085Y8546577D01*
X10546323Y8543910D01*
X10545561Y8541052D01*
X10544228Y8538004D01*
X10542513Y8534956D01*
X10542323Y8534575D01*
X10541561Y8533623D01*
X10540418Y8532289D01*
X10538703Y8530575D01*
X10536608Y8528479D01*
X10533941Y8526384D01*
X10530893Y8524479D01*
X10527464Y8522574D01*
X10527654D01*
X10528035Y8522383D01*
X10528797Y8522193D01*
X10529559Y8522002D01*
X10530702Y8521621D01*
X10532036Y8521050D01*
X10534893Y8519907D01*
X10538132Y8518192D01*
X10541370Y8515906D01*
X10544799Y8513239D01*
X10547657Y8510001D01*
Y8509810D01*
X10548038Y8509620D01*
X10548419Y8509048D01*
X10548800Y8508286D01*
X10549371Y8507334D01*
X10549943Y8506381D01*
X10551276Y8503524D01*
X10552610Y8500095D01*
X10553753Y8496094D01*
X10554515Y8491713D01*
X10554896Y8486569D01*
Y8486379D01*
Y8485807D01*
Y8484664D01*
X10554705Y8483331D01*
X10554515Y8481616D01*
X10554134Y8479711D01*
X10553753Y8477616D01*
X10553181Y8475330D01*
X10552419Y8472853D01*
X10551467Y8470186D01*
X10550324Y8467519D01*
X10548990Y8464662D01*
X10547276Y8461995D01*
X10545371Y8459137D01*
X10543275Y8456470D01*
X10540799Y8453994D01*
X10540608Y8453803D01*
X10540227Y8453422D01*
X10539465Y8452851D01*
X10538322Y8451898D01*
X10536989Y8450946D01*
X10535274Y8449803D01*
X10533369Y8448660D01*
X10531274Y8447517D01*
X10528797Y8446183D01*
X10526130Y8445040D01*
X10523273Y8443897D01*
X10520034Y8442945D01*
X10516796Y8441992D01*
X10513176Y8441421D01*
X10509557Y8441040D01*
X10505556Y8440849D01*
X10503651D01*
X10502318Y8441040D01*
X10500794Y8441230D01*
X10498889Y8441421D01*
X10496603Y8441802D01*
X10494317Y8442373D01*
X10489364Y8443707D01*
X10486697Y8444659D01*
X10484030Y8445612D01*
X10481172Y8446945D01*
X10478505Y8448469D01*
X10476029Y8450184D01*
X10473552Y8452279D01*
X10473362Y8452470D01*
X10472981Y8452851D01*
X10472409Y8453422D01*
X10471457Y8454375D01*
X10470504Y8455518D01*
X10469361Y8456851D01*
X10468218Y8458566D01*
X10466885Y8460280D01*
X10465742Y8462376D01*
X10464408Y8464662D01*
X10463265Y8467138D01*
X10462122Y8469805D01*
X10460979Y8472663D01*
X10460217Y8475520D01*
X10459455Y8478759D01*
X10459074Y8482188D01*
X10476981Y8484664D01*
Y8484474D01*
X10477172Y8483902D01*
X10477362Y8483140D01*
X10477553Y8482188D01*
X10477934Y8480854D01*
X10478315Y8479521D01*
X10479458Y8476092D01*
X10480791Y8472472D01*
X10482696Y8468853D01*
X10484792Y8465233D01*
X10485935Y8463709D01*
X10487268Y8462376D01*
X10487649Y8462185D01*
X10488602Y8461423D01*
X10490126Y8460280D01*
X10492412Y8459137D01*
X10495079Y8457804D01*
X10498127Y8456851D01*
X10501746Y8456089D01*
X10505556Y8455708D01*
X10506890D01*
X10507652Y8455899D01*
X10508795D01*
X10510128Y8456089D01*
X10512986Y8456851D01*
X10516415Y8457804D01*
X10520034Y8459328D01*
X10523654Y8461614D01*
X10525368Y8462947D01*
X10527083Y8464471D01*
X10527273Y8464662D01*
X10527464Y8464852D01*
X10527845Y8465424D01*
X10528416Y8465995D01*
X10529940Y8467900D01*
X10531464Y8470567D01*
X10532988Y8473615D01*
X10534512Y8477425D01*
X10535465Y8481616D01*
X10535846Y8483902D01*
Y8486188D01*
Y8486379D01*
Y8486760D01*
Y8487331D01*
X10535655Y8488284D01*
Y8489236D01*
X10535465Y8490570D01*
X10534893Y8493427D01*
X10533941Y8496666D01*
X10532417Y8500095D01*
X10530321Y8503333D01*
X10529178Y8505048D01*
X10527654Y8506572D01*
X10527273Y8506953D01*
X10526130Y8507905D01*
X10524416Y8509048D01*
X10522130Y8510572D01*
X10519082Y8512096D01*
X10515653Y8513239D01*
X10511652Y8514192D01*
X10507080Y8514573D01*
X10504985D01*
X10503651Y8514382D01*
X10501746Y8514192D01*
X10499460Y8513811D01*
X10496984Y8513239D01*
X10494317Y8512668D01*
X10496412Y8528479D01*
X10496793D01*
X10497365Y8528289D01*
X10498317Y8528098D01*
X10500413D01*
X10501175Y8528289D01*
X10503461Y8528479D01*
X10506128Y8528860D01*
X10509366Y8529622D01*
X10512795Y8530575D01*
X10516415Y8532099D01*
X10519844Y8534004D01*
X10520034D01*
X10520225Y8534385D01*
X10521368Y8535147D01*
X10522892Y8536671D01*
X10524606Y8538576D01*
X10526321Y8541243D01*
X10527654Y8544481D01*
X10528797Y8548291D01*
X10528988Y8550387D01*
X10529178Y8552673D01*
Y8552863D01*
Y8553054D01*
X10528988Y8554387D01*
X10528797Y8556102D01*
X10528416Y8558388D01*
X10527464Y8560864D01*
X10526321Y8563531D01*
X10524606Y8566389D01*
X10522320Y8568865D01*
X10521939Y8569246D01*
X10521177Y8570008D01*
X10519653Y8570961D01*
X10517748Y8572294D01*
X10515272Y8573437D01*
X10512224Y8574580D01*
X10508985Y8575342D01*
X10505175Y8575533D01*
X10504223D01*
X10503461Y8575342D01*
X10501365Y8575152D01*
X10498889Y8574771D01*
X10496222Y8573818D01*
X10493174Y8572675D01*
X10490316Y8571151D01*
X10487459Y8568865D01*
X10487078Y8568484D01*
X10486316Y8567722D01*
X10485173Y8566198D01*
X10483839Y8563912D01*
X10482315Y8561245D01*
X10480791Y8557816D01*
X10479648Y8553816D01*
X10478696Y8549244D01*
X10460789Y8552482D01*
Y8552673D01*
X10460979Y8553244D01*
X10461170Y8554197D01*
X10461551Y8555530D01*
X10461932Y8556864D01*
X10462503Y8558769D01*
X10463075Y8560674D01*
X10463837Y8562769D01*
X10465932Y8567151D01*
X10468409Y8571723D01*
X10471647Y8576295D01*
X10473552Y8578390D01*
X10475648Y8580295D01*
X10475838Y8580486D01*
X10476219Y8580676D01*
X10476791Y8581248D01*
X10477743Y8581819D01*
X10478886Y8582581D01*
X10480220Y8583534D01*
X10481934Y8584486D01*
X10483649Y8585439D01*
X10485744Y8586201D01*
X10487840Y8587153D01*
X10492793Y8588868D01*
X10498508Y8590011D01*
X10501556Y8590201D01*
X10504794Y8590392D01*
X10506890D01*
X10507842Y8590201D01*
D02*
G37*
G36*
X11227361Y8530194D02*
X11291559Y8443326D01*
X11265842D01*
X11213645Y8517049D01*
X11189832Y8493999D01*
Y8443326D01*
X11170401D01*
Y8589820D01*
X11189832D01*
Y8517240D01*
X11262603Y8589820D01*
X11288892D01*
X11227361Y8530194D01*
D02*
G37*
G36*
X11607980Y8443326D02*
X11587787D01*
X11531018Y8589820D01*
X11552163D01*
X11590263Y8483331D01*
Y8483140D01*
X11590454Y8482759D01*
X11590644Y8481997D01*
X11591025Y8481235D01*
X11591406Y8480092D01*
X11591787Y8478759D01*
X11592930Y8475520D01*
X11594073Y8471901D01*
X11595407Y8467900D01*
X11596740Y8463519D01*
X11597883Y8459328D01*
Y8459518D01*
X11598074Y8459899D01*
X11598264Y8460471D01*
X11598455Y8461423D01*
X11598836Y8462566D01*
X11599217Y8463709D01*
X11600169Y8466757D01*
X11601312Y8470377D01*
X11602646Y8474568D01*
X11604170Y8478949D01*
X11605884Y8483331D01*
X11645508Y8589820D01*
X11665130D01*
X11607980Y8443326D01*
D02*
G37*
G36*
X11096678D02*
X11076485D01*
X11019716Y8589820D01*
X11040861D01*
X11078961Y8483331D01*
Y8483140D01*
X11079152Y8482759D01*
X11079342Y8481997D01*
X11079723Y8481235D01*
X11080104Y8480092D01*
X11080485Y8478759D01*
X11081628Y8475520D01*
X11082771Y8471901D01*
X11084105Y8467900D01*
X11085438Y8463519D01*
X11086581Y8459328D01*
Y8459518D01*
X11086772Y8459899D01*
X11086962Y8460471D01*
X11087153Y8461423D01*
X11087534Y8462566D01*
X11087915Y8463709D01*
X11088867Y8466757D01*
X11090010Y8470377D01*
X11091344Y8474568D01*
X11092868Y8478949D01*
X11094582Y8483331D01*
X11134206Y8589820D01*
X11153828D01*
X11096678Y8443326D01*
D02*
G37*
G36*
X11742854D02*
X11724947D01*
Y8557816D01*
X11724566Y8557626D01*
X11723804Y8556864D01*
X11722280Y8555530D01*
X11720375Y8554006D01*
X11717898Y8552101D01*
X11714850Y8550006D01*
X11711612Y8547720D01*
X11707802Y8545434D01*
X11707611D01*
X11707421Y8545243D01*
X11706849Y8544862D01*
X11706087Y8544481D01*
X11703992Y8543338D01*
X11701515Y8542005D01*
X11698658Y8540481D01*
X11695419Y8538957D01*
X11692181Y8537433D01*
X11688942Y8536099D01*
Y8553625D01*
X11689133D01*
X11689704Y8554006D01*
X11690466Y8554387D01*
X11691419Y8554959D01*
X11692752Y8555530D01*
X11694276Y8556483D01*
X11697896Y8558388D01*
X11701896Y8560864D01*
X11706468Y8563912D01*
X11710850Y8567151D01*
X11715231Y8570770D01*
X11715422Y8570961D01*
X11715803Y8571151D01*
X11716374Y8571723D01*
X11717136Y8572485D01*
X11719041Y8574390D01*
X11721518Y8577057D01*
X11723994Y8579914D01*
X11726661Y8583343D01*
X11729138Y8586772D01*
X11731233Y8590392D01*
X11742854D01*
Y8443326D01*
D02*
G37*
G36*
X11469105Y8572485D02*
X11420909D01*
Y8443326D01*
X11401478D01*
Y8572485D01*
X11353281D01*
Y8589820D01*
X11469105D01*
Y8572485D01*
D02*
G37*
G36*
X11330231Y8443326D02*
X11310800D01*
Y8589820D01*
X11330231D01*
Y8443326D01*
D02*
G37*
G36*
X11004476Y8572485D02*
X10918179D01*
Y8527908D01*
X10998951D01*
Y8510572D01*
X10918179D01*
Y8460661D01*
X11007905D01*
Y8443326D01*
X10898748D01*
Y8589820D01*
X11004476D01*
Y8572485D01*
D02*
G37*
G36*
X10806927Y8589630D02*
X10810547D01*
X10814738Y8589249D01*
X10819119Y8588868D01*
X10823310Y8588296D01*
X10826930Y8587534D01*
X10827120D01*
X10827501Y8587344D01*
X10828263Y8587153D01*
X10829025Y8586963D01*
X10830168Y8586582D01*
X10831502Y8586201D01*
X10834359Y8585248D01*
X10837788Y8583724D01*
X10841408Y8582010D01*
X10845027Y8579724D01*
X10848456Y8577057D01*
X10848647Y8576866D01*
X10849028Y8576676D01*
X10849599Y8576104D01*
X10850361Y8575342D01*
X10851314Y8574390D01*
X10852457Y8573247D01*
X10853600Y8571913D01*
X10854933Y8570389D01*
X10857791Y8566770D01*
X10860648Y8562388D01*
X10863506Y8557626D01*
X10865792Y8552101D01*
Y8551911D01*
X10865982Y8551339D01*
X10866363Y8550577D01*
X10866744Y8549434D01*
X10867125Y8547910D01*
X10867697Y8546196D01*
X10868268Y8544291D01*
X10868840Y8542005D01*
X10869221Y8539528D01*
X10869792Y8536861D01*
X10870364Y8534004D01*
X10870745Y8530956D01*
X10871507Y8524288D01*
X10871697Y8517240D01*
Y8517049D01*
Y8516478D01*
Y8515716D01*
Y8514382D01*
X10871507Y8513049D01*
Y8511334D01*
X10871316Y8509429D01*
X10871126Y8507334D01*
X10870745Y8502762D01*
X10869983Y8497809D01*
X10869030Y8492665D01*
X10867697Y8487712D01*
Y8487522D01*
X10867506Y8487141D01*
X10867316Y8486379D01*
X10866935Y8485617D01*
X10866554Y8484474D01*
X10866173Y8483140D01*
X10865030Y8480283D01*
X10863696Y8476854D01*
X10861982Y8473234D01*
X10859886Y8469615D01*
X10857791Y8466376D01*
X10857600Y8465995D01*
X10856648Y8465043D01*
X10855505Y8463519D01*
X10853790Y8461614D01*
X10851885Y8459518D01*
X10849599Y8457232D01*
X10846932Y8455137D01*
X10844265Y8453041D01*
X10843884Y8452851D01*
X10842932Y8452279D01*
X10841408Y8451327D01*
X10839312Y8450374D01*
X10836836Y8449231D01*
X10833788Y8447898D01*
X10830359Y8446755D01*
X10826739Y8445802D01*
X10826549D01*
X10826358Y8445612D01*
X10825787D01*
X10825025Y8445421D01*
X10824072Y8445231D01*
X10822929Y8445040D01*
X10820072Y8444659D01*
X10816643Y8444088D01*
X10812642Y8443707D01*
X10808070Y8443516D01*
X10803308Y8443326D01*
X10750539D01*
Y8589820D01*
X10805213D01*
X10806927Y8589630D01*
D02*
G37*
G36*
X10624428Y8590201D02*
X10626333Y8590011D01*
X10628429Y8589820D01*
X10630715Y8589439D01*
X10633191Y8588868D01*
X10638525Y8587534D01*
X10641192Y8586582D01*
X10644050Y8585439D01*
X10646907Y8584105D01*
X10649574Y8582391D01*
X10652051Y8580676D01*
X10654527Y8578581D01*
X10654718Y8578390D01*
X10655099Y8578009D01*
X10655670Y8577438D01*
X10656432Y8576485D01*
X10657385Y8575342D01*
X10658528Y8574009D01*
X10659480Y8572485D01*
X10660814Y8570580D01*
X10661957Y8568675D01*
X10662909Y8566389D01*
X10665005Y8561436D01*
X10665767Y8558769D01*
X10666338Y8555911D01*
X10666719Y8552863D01*
X10666910Y8549625D01*
Y8549244D01*
Y8548101D01*
X10666719Y8546386D01*
X10666529Y8544100D01*
X10665957Y8541624D01*
X10665386Y8538576D01*
X10664433Y8535528D01*
X10663290Y8532289D01*
X10663100Y8531908D01*
X10662528Y8530765D01*
X10661766Y8529051D01*
X10660433Y8526955D01*
X10658718Y8524288D01*
X10656623Y8521240D01*
X10654146Y8517811D01*
X10651289Y8514382D01*
Y8514192D01*
X10650908Y8514001D01*
X10650336Y8513430D01*
X10649765Y8512668D01*
X10648812Y8511715D01*
X10647669Y8510572D01*
X10646336Y8509239D01*
X10644621Y8507715D01*
X10642907Y8506000D01*
X10640811Y8504095D01*
X10638525Y8501809D01*
X10636049Y8499523D01*
X10633191Y8497047D01*
X10630334Y8494570D01*
X10626905Y8491713D01*
X10623476Y8488665D01*
X10623285Y8488474D01*
X10622714Y8488093D01*
X10621952Y8487331D01*
X10620809Y8486569D01*
X10619666Y8485426D01*
X10618142Y8484093D01*
X10614903Y8481235D01*
X10611284Y8478187D01*
X10607855Y8475139D01*
X10606331Y8473806D01*
X10604997Y8472472D01*
X10603664Y8471139D01*
X10602711Y8470186D01*
X10602521Y8469996D01*
X10601949Y8469424D01*
X10601187Y8468472D01*
X10600044Y8467138D01*
X10598901Y8465805D01*
X10597568Y8464090D01*
X10595091Y8460661D01*
X10667100D01*
Y8443326D01*
X10570136D01*
Y8443707D01*
Y8444469D01*
Y8445612D01*
X10570326Y8447326D01*
X10570517Y8449231D01*
X10570898Y8451327D01*
X10571469Y8453422D01*
X10572231Y8455708D01*
Y8455899D01*
X10572422Y8456089D01*
X10572612Y8456661D01*
X10572993Y8457423D01*
X10573755Y8459328D01*
X10575089Y8461804D01*
X10576803Y8464852D01*
X10578708Y8468091D01*
X10581185Y8471520D01*
X10584042Y8475139D01*
X10584233Y8475330D01*
X10584423Y8475520D01*
X10584995Y8476092D01*
X10585566Y8476854D01*
X10587471Y8478949D01*
X10590138Y8481616D01*
X10593377Y8484855D01*
X10597377Y8488665D01*
X10602140Y8492856D01*
X10607664Y8497428D01*
X10607855Y8497618D01*
X10608617Y8498380D01*
X10609950Y8499333D01*
X10611474Y8500666D01*
X10613379Y8502381D01*
X10615665Y8504286D01*
X10618142Y8506381D01*
X10620618Y8508667D01*
X10625952Y8513620D01*
X10631286Y8518764D01*
X10633763Y8521431D01*
X10636049Y8523907D01*
X10638144Y8526193D01*
X10639859Y8528479D01*
X10640049Y8528670D01*
X10640240Y8529051D01*
X10640621Y8529622D01*
X10641192Y8530384D01*
X10641764Y8531527D01*
X10642526Y8532670D01*
X10644240Y8535528D01*
X10645764Y8538766D01*
X10647098Y8542386D01*
X10648050Y8546386D01*
X10648431Y8548291D01*
Y8550196D01*
Y8550387D01*
Y8550768D01*
Y8551149D01*
X10648241Y8551911D01*
X10648050Y8554006D01*
X10647479Y8556483D01*
X10646526Y8559340D01*
X10645193Y8562198D01*
X10643288Y8565246D01*
X10640621Y8568103D01*
X10640240Y8568484D01*
X10639287Y8569246D01*
X10637573Y8570389D01*
X10635287Y8571913D01*
X10632429Y8573247D01*
X10629000Y8574390D01*
X10625000Y8575152D01*
X10620618Y8575533D01*
X10619285D01*
X10618523Y8575342D01*
X10617380D01*
X10616046Y8575152D01*
X10613189Y8574580D01*
X10609950Y8573628D01*
X10606331Y8572294D01*
X10602902Y8570389D01*
X10599854Y8567722D01*
X10599473Y8567341D01*
X10598711Y8566389D01*
X10597377Y8564484D01*
X10596044Y8562198D01*
X10594520Y8558959D01*
X10593186Y8555340D01*
X10592424Y8551149D01*
X10592043Y8546196D01*
X10573565Y8548101D01*
Y8548291D01*
X10573755Y8549053D01*
Y8550006D01*
X10573946Y8551530D01*
X10574327Y8553244D01*
X10574708Y8555149D01*
X10575279Y8557435D01*
X10576041Y8559721D01*
X10577756Y8564865D01*
X10578899Y8567532D01*
X10580232Y8570008D01*
X10581756Y8572675D01*
X10583471Y8575152D01*
X10585376Y8577438D01*
X10587662Y8579533D01*
X10587852Y8579724D01*
X10588233Y8579914D01*
X10588995Y8580486D01*
X10589948Y8581248D01*
X10591281Y8582010D01*
X10592805Y8582962D01*
X10594520Y8583915D01*
X10596615Y8585058D01*
X10598901Y8586010D01*
X10601378Y8586963D01*
X10604045Y8587915D01*
X10607093Y8588677D01*
X10610141Y8589439D01*
X10613570Y8590011D01*
X10617189Y8590201D01*
X10620999Y8590392D01*
X10623095D01*
X10624428Y8590201D01*
D02*
G37*
G36*
X10393352Y8589630D02*
X10396781Y8589439D01*
X10400591Y8589249D01*
X10404210Y8588868D01*
X10407258Y8588296D01*
X10407830D01*
X10408211Y8588106D01*
X10408973Y8587915D01*
X10411068Y8587534D01*
X10413545Y8586772D01*
X10416402Y8585820D01*
X10419260Y8584677D01*
X10422308Y8583153D01*
X10425165Y8581438D01*
X10425546Y8581248D01*
X10426308Y8580486D01*
X10427832Y8579343D01*
X10429356Y8577819D01*
X10431261Y8575914D01*
X10433357Y8573437D01*
X10435262Y8570580D01*
X10436976Y8567341D01*
Y8567151D01*
X10437167Y8566960D01*
X10437357Y8566389D01*
X10437738Y8565817D01*
X10438500Y8563912D01*
X10439262Y8561436D01*
X10440024Y8558388D01*
X10440786Y8554959D01*
X10441358Y8551339D01*
X10441548Y8547339D01*
Y8547148D01*
Y8546577D01*
Y8545624D01*
X10441358Y8544291D01*
X10441167Y8542576D01*
X10440977Y8540671D01*
X10440596Y8538576D01*
X10440024Y8536480D01*
X10438691Y8531337D01*
X10437738Y8528860D01*
X10436405Y8526193D01*
X10435071Y8523526D01*
X10433547Y8520859D01*
X10431642Y8518192D01*
X10429547Y8515716D01*
X10429356Y8515525D01*
X10428975Y8515144D01*
X10428213Y8514573D01*
X10427261Y8513620D01*
X10425927Y8512668D01*
X10424213Y8511715D01*
X10422117Y8510382D01*
X10419831Y8509239D01*
X10416974Y8508096D01*
X10413926Y8506953D01*
X10410306Y8505810D01*
X10406496Y8504857D01*
X10402115Y8503905D01*
X10397352Y8503333D01*
X10392209Y8502952D01*
X10386684Y8502762D01*
X10349346D01*
Y8443326D01*
X10329915D01*
Y8589820D01*
X10390113D01*
X10393352Y8589630D01*
D02*
G37*
G36*
X10163228Y8572485D02*
X10076931D01*
Y8527908D01*
X10157703D01*
Y8510572D01*
X10076931D01*
Y8460661D01*
X10166657D01*
Y8443326D01*
X10057500D01*
Y8589820D01*
X10163228D01*
Y8572485D01*
D02*
G37*
G36*
X11210166Y5690673D02*
X11258716Y5622500D01*
X11237570D01*
X11204753Y5668851D01*
X11204583Y5669020D01*
X11204245Y5669528D01*
X11203738Y5670373D01*
X11203061Y5671388D01*
X11202215Y5672573D01*
X11201369Y5673926D01*
X11199339Y5676802D01*
X11199170Y5676463D01*
X11198663Y5675787D01*
X11197986Y5674603D01*
X11196971Y5673249D01*
X11194941Y5670035D01*
X11194095Y5668682D01*
X11193249Y5667498D01*
X11160262Y5622500D01*
X11139624D01*
X11189866Y5689996D01*
X11145545Y5752587D01*
X11166183D01*
X11189866Y5719262D01*
X11190035Y5719093D01*
X11190204Y5718754D01*
X11190543Y5718247D01*
X11191050Y5717570D01*
X11192404Y5715709D01*
X11193926Y5713341D01*
X11195618Y5710804D01*
X11197309Y5708097D01*
X11198832Y5705560D01*
X11200185Y5703360D01*
X11200354Y5703699D01*
X11201031Y5704545D01*
X11201877Y5705898D01*
X11203061Y5707759D01*
X11204583Y5709958D01*
X11206444Y5712495D01*
X11208305Y5715033D01*
X11210504Y5717909D01*
X11236386Y5752587D01*
X11255163D01*
X11210166Y5690673D01*
D02*
G37*
G36*
X11083969Y5752418D02*
X11085492D01*
X11087353Y5752249D01*
X11089383Y5752080D01*
X11093612Y5751741D01*
X11098010Y5751065D01*
X11102239Y5750219D01*
X11104269Y5749711D01*
X11105961Y5749035D01*
X11106130D01*
X11106299Y5748866D01*
X11106807Y5748696D01*
X11107483Y5748358D01*
X11109175Y5747512D01*
X11111205Y5746159D01*
X11113573Y5744467D01*
X11115941Y5742268D01*
X11118310Y5739562D01*
X11120509Y5736517D01*
Y5736347D01*
X11120678Y5736178D01*
X11121016Y5735671D01*
X11121355Y5734994D01*
X11122201Y5733133D01*
X11123215Y5730765D01*
X11124230Y5727889D01*
X11125076Y5724506D01*
X11125753Y5720784D01*
X11125922Y5716894D01*
Y5716724D01*
Y5716217D01*
Y5715540D01*
X11125753Y5714525D01*
X11125584Y5713341D01*
X11125415Y5711988D01*
X11124738Y5708774D01*
X11123723Y5705052D01*
X11122201Y5701161D01*
X11121186Y5699301D01*
X11120001Y5697271D01*
X11118479Y5695410D01*
X11116956Y5693549D01*
X11116787Y5693380D01*
X11116618Y5693211D01*
X11115941Y5692703D01*
X11115265Y5692026D01*
X11114250Y5691350D01*
X11113066Y5690504D01*
X11111712Y5689489D01*
X11110190Y5688474D01*
X11108329Y5687459D01*
X11106299Y5686444D01*
X11103931Y5685429D01*
X11101393Y5684414D01*
X11098687Y5683568D01*
X11095811Y5682722D01*
X11092597Y5682046D01*
X11089214Y5681538D01*
X11089552Y5681369D01*
X11090398Y5681031D01*
X11091582Y5680354D01*
X11093104Y5679508D01*
X11096488Y5677309D01*
X11098010Y5676125D01*
X11099533Y5674941D01*
X11099702D01*
X11099871Y5674603D01*
X11100886Y5673757D01*
X11102239Y5672234D01*
X11104269Y5670204D01*
X11106468Y5667836D01*
X11108837Y5664791D01*
X11111374Y5661408D01*
X11113911Y5657686D01*
X11136410Y5622500D01*
X11114757D01*
X11097672Y5649397D01*
Y5649566D01*
X11097333Y5649905D01*
X11096995Y5650581D01*
X11096488Y5651258D01*
X11095811Y5652273D01*
X11094965Y5653457D01*
X11093273Y5655995D01*
X11091244Y5658870D01*
X11089214Y5661746D01*
X11087184Y5664622D01*
X11085154Y5667159D01*
X11084984Y5667498D01*
X11084308Y5668174D01*
X11083462Y5669358D01*
X11082278Y5670543D01*
X11080924Y5672065D01*
X11079402Y5673588D01*
X11077880Y5674772D01*
X11076357Y5675956D01*
X11076188Y5676125D01*
X11075680Y5676294D01*
X11075004Y5676802D01*
X11073989Y5677309D01*
X11072805Y5677986D01*
X11071451Y5678493D01*
X11068576Y5679508D01*
X11068406D01*
X11068068Y5679677D01*
X11067391D01*
X11066376Y5679847D01*
X11065023Y5680016D01*
X11063331D01*
X11061471Y5680185D01*
X11039141D01*
Y5622500D01*
X11021886D01*
Y5752587D01*
X11082447D01*
X11083969Y5752418D01*
D02*
G37*
G36*
X10902287D02*
X10903810D01*
X10905671Y5752249D01*
X10907701Y5752080D01*
X10911930Y5751741D01*
X10916328Y5751065D01*
X10920557Y5750219D01*
X10922587Y5749711D01*
X10924279Y5749035D01*
X10924448D01*
X10924617Y5748866D01*
X10925124Y5748696D01*
X10925801Y5748358D01*
X10927493Y5747512D01*
X10929523Y5746159D01*
X10931891Y5744467D01*
X10934259Y5742268D01*
X10936628Y5739562D01*
X10938827Y5736517D01*
Y5736347D01*
X10938996Y5736178D01*
X10939334Y5735671D01*
X10939673Y5734994D01*
X10940518Y5733133D01*
X10941533Y5730765D01*
X10942548Y5727889D01*
X10943394Y5724506D01*
X10944071Y5720784D01*
X10944240Y5716894D01*
Y5716724D01*
Y5716217D01*
Y5715540D01*
X10944071Y5714525D01*
X10943902Y5713341D01*
X10943732Y5711988D01*
X10943056Y5708774D01*
X10942041Y5705052D01*
X10940518Y5701161D01*
X10939503Y5699301D01*
X10938319Y5697271D01*
X10936797Y5695410D01*
X10935274Y5693549D01*
X10935105Y5693380D01*
X10934936Y5693211D01*
X10934259Y5692703D01*
X10933583Y5692026D01*
X10932568Y5691350D01*
X10931384Y5690504D01*
X10930030Y5689489D01*
X10928508Y5688474D01*
X10926647Y5687459D01*
X10924617Y5686444D01*
X10922249Y5685429D01*
X10919711Y5684414D01*
X10917005Y5683568D01*
X10914129Y5682722D01*
X10910915Y5682046D01*
X10907531Y5681538D01*
X10907870Y5681369D01*
X10908716Y5681031D01*
X10909900Y5680354D01*
X10911422Y5679508D01*
X10914805Y5677309D01*
X10916328Y5676125D01*
X10917850Y5674941D01*
X10918020D01*
X10918189Y5674603D01*
X10919204Y5673757D01*
X10920557Y5672234D01*
X10922587Y5670204D01*
X10924786Y5667836D01*
X10927154Y5664791D01*
X10929692Y5661408D01*
X10932229Y5657686D01*
X10954728Y5622500D01*
X10933075D01*
X10915990Y5649397D01*
Y5649566D01*
X10915651Y5649905D01*
X10915313Y5650581D01*
X10914805Y5651258D01*
X10914129Y5652273D01*
X10913283Y5653457D01*
X10911591Y5655995D01*
X10909561Y5658870D01*
X10907531Y5661746D01*
X10905501Y5664622D01*
X10903471Y5667159D01*
X10903302Y5667498D01*
X10902626Y5668174D01*
X10901780Y5669358D01*
X10900596Y5670543D01*
X10899242Y5672065D01*
X10897720Y5673588D01*
X10896197Y5674772D01*
X10894675Y5675956D01*
X10894506Y5676125D01*
X10893998Y5676294D01*
X10893322Y5676802D01*
X10892307Y5677309D01*
X10891122Y5677986D01*
X10889769Y5678493D01*
X10886893Y5679508D01*
X10886724D01*
X10886386Y5679677D01*
X10885709D01*
X10884694Y5679847D01*
X10883341Y5680016D01*
X10881649D01*
X10879789Y5680185D01*
X10857459D01*
Y5622500D01*
X10840204D01*
Y5752587D01*
X10900765D01*
X10902287Y5752418D01*
D02*
G37*
G36*
X10809755Y5622500D02*
X10792500D01*
Y5752587D01*
X10809755D01*
Y5622500D01*
D02*
G37*
G36*
X10496112Y4232478D02*
Y4177500D01*
X10478858D01*
Y4232478D01*
X10428785Y4307587D01*
X10449423D01*
X10475136Y4268172D01*
X10475305Y4268003D01*
X10475474Y4267664D01*
X10475813Y4267157D01*
X10476320Y4266311D01*
X10476997Y4265296D01*
X10477673Y4264112D01*
X10479534Y4261236D01*
X10481564Y4258022D01*
X10483763Y4254300D01*
X10485963Y4250240D01*
X10488331Y4246180D01*
Y4246350D01*
X10488669Y4246688D01*
X10489007Y4247195D01*
X10489346Y4248041D01*
X10490022Y4248887D01*
X10490699Y4250071D01*
X10491545Y4251425D01*
X10492391Y4252947D01*
X10494590Y4256330D01*
X10496958Y4260221D01*
X10499665Y4264619D01*
X10502710Y4269187D01*
X10527915Y4307587D01*
X10548046D01*
X10496112Y4232478D01*
D02*
G37*
G36*
X10249979Y4254639D02*
X10306987Y4177500D01*
X10284150D01*
X10237799Y4242966D01*
X10216653Y4222498D01*
Y4177500D01*
X10199399D01*
Y4307587D01*
X10216653D01*
Y4243136D01*
X10281274Y4307587D01*
X10304619D01*
X10249979Y4254639D01*
D02*
G37*
G36*
X9998770Y4226388D02*
X10033280Y4177500D01*
X10013826D01*
X9994203Y4206596D01*
X9989635Y4213870D01*
X9964261Y4177500D01*
X9944976D01*
X9979486Y4226219D01*
X9947514Y4271724D01*
X9966967D01*
X9982023Y4249395D01*
X9982192Y4249056D01*
X9982700Y4248380D01*
X9983376Y4247195D01*
X9984222Y4245842D01*
X9985237Y4244151D01*
X9986421Y4242459D01*
X9987436Y4240767D01*
X9988451Y4239076D01*
X9988620Y4239414D01*
X9989128Y4240091D01*
X9989974Y4241106D01*
X9990819Y4242459D01*
X9992004Y4244151D01*
X9993188Y4245842D01*
X9995725Y4249395D01*
X10011627Y4271724D01*
X10030742D01*
X9998770Y4226388D01*
D02*
G37*
G36*
X10855755Y4307418D02*
X10858969D01*
X10862691Y4307080D01*
X10866582Y4306741D01*
X10870303Y4306234D01*
X10873517Y4305557D01*
X10873686D01*
X10874025Y4305388D01*
X10874701Y4305219D01*
X10875378Y4305050D01*
X10876393Y4304711D01*
X10877577Y4304373D01*
X10880115Y4303527D01*
X10883160Y4302174D01*
X10886374Y4300651D01*
X10889588Y4298621D01*
X10892633Y4296253D01*
X10892802Y4296084D01*
X10893140Y4295915D01*
X10893648Y4295407D01*
X10894324Y4294731D01*
X10895170Y4293885D01*
X10896185Y4292870D01*
X10897200Y4291686D01*
X10898384Y4290332D01*
X10900922Y4287118D01*
X10903459Y4283227D01*
X10905997Y4278998D01*
X10908027Y4274093D01*
Y4273923D01*
X10908196Y4273416D01*
X10908534Y4272739D01*
X10908873Y4271724D01*
X10909211Y4270371D01*
X10909718Y4268848D01*
X10910226Y4267157D01*
X10910733Y4265127D01*
X10911072Y4262928D01*
X10911579Y4260559D01*
X10912087Y4258022D01*
X10912425Y4255315D01*
X10913102Y4249395D01*
X10913271Y4243136D01*
Y4242966D01*
Y4242459D01*
Y4241782D01*
Y4240598D01*
X10913102Y4239414D01*
Y4237891D01*
X10912932Y4236200D01*
X10912763Y4234339D01*
X10912425Y4230279D01*
X10911748Y4225881D01*
X10910902Y4221313D01*
X10909718Y4216915D01*
Y4216746D01*
X10909549Y4216408D01*
X10909380Y4215731D01*
X10909042Y4215054D01*
X10908703Y4214039D01*
X10908365Y4212855D01*
X10907350Y4210318D01*
X10906166Y4207273D01*
X10904643Y4204059D01*
X10902783Y4200845D01*
X10900922Y4197969D01*
X10900753Y4197630D01*
X10899907Y4196785D01*
X10898892Y4195431D01*
X10897369Y4193740D01*
X10895678Y4191879D01*
X10893648Y4189849D01*
X10891279Y4187988D01*
X10888911Y4186127D01*
X10888573Y4185958D01*
X10887727Y4185451D01*
X10886374Y4184605D01*
X10884513Y4183759D01*
X10882314Y4182744D01*
X10879607Y4181560D01*
X10876562Y4180545D01*
X10873348Y4179699D01*
X10873179D01*
X10873010Y4179530D01*
X10872502D01*
X10871826Y4179361D01*
X10870980Y4179192D01*
X10869965Y4179022D01*
X10867427Y4178684D01*
X10864382Y4178177D01*
X10860830Y4177838D01*
X10856770Y4177669D01*
X10852541Y4177500D01*
X10805682D01*
Y4307587D01*
X10854233D01*
X10855755Y4307418D01*
D02*
G37*
G36*
X10791642Y4177500D02*
X10772188D01*
X10757132Y4216915D01*
X10702662D01*
X10688452Y4177500D01*
X10670351D01*
X10719916Y4307587D01*
X10738694D01*
X10791642Y4177500D01*
D02*
G37*
G36*
X10619771Y4307418D02*
X10622816Y4307249D01*
X10626199Y4307080D01*
X10629414Y4306741D01*
X10632120Y4306234D01*
X10632628D01*
X10632966Y4306065D01*
X10633643Y4305895D01*
X10635503Y4305557D01*
X10637703Y4304880D01*
X10640240Y4304035D01*
X10642778Y4303020D01*
X10645484Y4301666D01*
X10648022Y4300144D01*
X10648360Y4299975D01*
X10649037Y4299298D01*
X10650390Y4298283D01*
X10651743Y4296930D01*
X10653435Y4295238D01*
X10655296Y4293039D01*
X10656987Y4290501D01*
X10658510Y4287626D01*
Y4287456D01*
X10658679Y4287287D01*
X10658848Y4286780D01*
X10659186Y4286272D01*
X10659863Y4284581D01*
X10660540Y4282382D01*
X10661216Y4279675D01*
X10661893Y4276630D01*
X10662401Y4273416D01*
X10662570Y4269863D01*
Y4269694D01*
Y4269187D01*
Y4268341D01*
X10662401Y4267157D01*
X10662231Y4265634D01*
X10662062Y4263943D01*
X10661724Y4262082D01*
X10661216Y4260221D01*
X10660032Y4255654D01*
X10659186Y4253455D01*
X10658002Y4251086D01*
X10656818Y4248718D01*
X10655465Y4246350D01*
X10653773Y4243981D01*
X10651912Y4241782D01*
X10651743Y4241613D01*
X10651405Y4241275D01*
X10650728Y4240767D01*
X10649882Y4239921D01*
X10648698Y4239076D01*
X10647176Y4238230D01*
X10645315Y4237046D01*
X10643285Y4236031D01*
X10640748Y4235016D01*
X10638041Y4234001D01*
X10634827Y4232986D01*
X10631444Y4232140D01*
X10627553Y4231294D01*
X10623324Y4230787D01*
X10618756Y4230448D01*
X10613851Y4230279D01*
X10580694D01*
Y4177500D01*
X10563440D01*
Y4307587D01*
X10616895D01*
X10619771Y4307418D01*
D02*
G37*
G36*
X10415421Y4292193D02*
X10338790D01*
Y4252609D01*
X10410515D01*
Y4237215D01*
X10338790D01*
Y4192894D01*
X10418466D01*
Y4177500D01*
X10321535D01*
Y4307587D01*
X10415421D01*
Y4292193D01*
D02*
G37*
G36*
X10109234Y4223343D02*
X10126827D01*
Y4208626D01*
X10109234D01*
Y4177500D01*
X10093333D01*
Y4208626D01*
X10036832D01*
Y4223343D01*
X10096209Y4307587D01*
X10109234D01*
Y4223343D01*
D02*
G37*
G36*
X9917402D02*
X9934995D01*
Y4208626D01*
X9917402D01*
Y4177500D01*
X9901501D01*
Y4208626D01*
X9845000D01*
Y4223343D01*
X9904377Y4307587D01*
X9917402D01*
Y4223343D01*
D02*
G37*
G36*
X6940502Y10637117D02*
X6941856D01*
X6943547Y10636948D01*
X6945239Y10636779D01*
X6949299Y10636102D01*
X6953528Y10635257D01*
X6957926Y10634072D01*
X6962324Y10632550D01*
X6962494D01*
X6962832Y10632381D01*
X6963339Y10632042D01*
X6964185Y10631704D01*
X6965200Y10631197D01*
X6966215Y10630689D01*
X6968753Y10629336D01*
X6971628Y10627475D01*
X6974673Y10625276D01*
X6977549Y10622738D01*
X6980087Y10619863D01*
Y10619694D01*
X6980425Y10619524D01*
X6980763Y10619017D01*
X6981102Y10618340D01*
X6981778Y10617664D01*
X6982286Y10616649D01*
X6983808Y10614111D01*
X6985500Y10611066D01*
X6987022Y10607514D01*
X6988714Y10603285D01*
X6990067Y10598548D01*
X6974504Y10594319D01*
Y10594488D01*
X6974335Y10594826D01*
X6974166Y10595334D01*
X6973997Y10596011D01*
X6973320Y10597702D01*
X6972474Y10600070D01*
X6971459Y10602439D01*
X6970275Y10605145D01*
X6968753Y10607683D01*
X6967230Y10609882D01*
X6967061Y10610220D01*
X6966384Y10610897D01*
X6965369Y10611912D01*
X6964016Y10613265D01*
X6962324Y10614619D01*
X6960125Y10616141D01*
X6957588Y10617664D01*
X6954712Y10619017D01*
X6954543D01*
X6954374Y10619186D01*
X6953359Y10619524D01*
X6951667Y10620201D01*
X6949468Y10620878D01*
X6946930Y10621385D01*
X6943886Y10622062D01*
X6940502Y10622400D01*
X6936950Y10622569D01*
X6934920D01*
X6933905Y10622400D01*
X6932721D01*
X6930014Y10622062D01*
X6926800Y10621723D01*
X6923248Y10621047D01*
X6919864Y10620032D01*
X6916481Y10618848D01*
X6916312D01*
X6916143Y10618679D01*
X6915128Y10618171D01*
X6913436Y10617494D01*
X6911575Y10616310D01*
X6909376Y10614957D01*
X6907008Y10613434D01*
X6904639Y10611404D01*
X6902610Y10609375D01*
X6902440Y10609036D01*
X6901764Y10608360D01*
X6900749Y10607175D01*
X6899565Y10605653D01*
X6898380Y10603792D01*
X6897027Y10601593D01*
X6895674Y10599056D01*
X6894490Y10596518D01*
Y10596349D01*
X6894320Y10596011D01*
X6893982Y10595334D01*
X6893813Y10594488D01*
X6893305Y10593304D01*
X6892967Y10591951D01*
X6892460Y10590428D01*
X6892121Y10588737D01*
X6891106Y10584846D01*
X6890430Y10580447D01*
X6889753Y10575542D01*
X6889584Y10570298D01*
Y10570128D01*
Y10569452D01*
Y10568606D01*
X6889753Y10567422D01*
Y10565899D01*
X6889922Y10564208D01*
X6890091Y10562178D01*
X6890261Y10560148D01*
X6891106Y10555580D01*
X6892121Y10550675D01*
X6893475Y10545769D01*
X6895505Y10541201D01*
Y10541032D01*
X6895843Y10540694D01*
X6896181Y10540017D01*
X6896689Y10539341D01*
X6897196Y10538326D01*
X6898042Y10537141D01*
X6899903Y10534604D01*
X6902271Y10531897D01*
X6905316Y10528852D01*
X6908699Y10526146D01*
X6912759Y10523778D01*
X6912929D01*
X6913267Y10523608D01*
X6913943Y10523270D01*
X6914789Y10522932D01*
X6915804Y10522424D01*
X6917158Y10522086D01*
X6918511Y10521578D01*
X6920203Y10521071D01*
X6923755Y10519887D01*
X6927815Y10519041D01*
X6932382Y10518364D01*
X6937119Y10518195D01*
X6938980D01*
X6939995Y10518364D01*
X6941179D01*
X6944055Y10518703D01*
X6947438Y10519210D01*
X6950990Y10520056D01*
X6954881Y10521071D01*
X6958941Y10522424D01*
X6959110D01*
X6959449Y10522593D01*
X6959956Y10522932D01*
X6960633Y10523101D01*
X6962663Y10523947D01*
X6965031Y10525131D01*
X6967568Y10526484D01*
X6970275Y10528007D01*
X6972813Y10529698D01*
X6975181Y10531559D01*
Y10555919D01*
X6936950D01*
Y10571313D01*
X6992097D01*
Y10522932D01*
X6991928Y10522763D01*
X6991590Y10522424D01*
X6990913Y10521917D01*
X6989898Y10521240D01*
X6988714Y10520394D01*
X6987361Y10519548D01*
X6985838Y10518533D01*
X6984147Y10517349D01*
X6980087Y10514812D01*
X6975688Y10512444D01*
X6970952Y10509906D01*
X6965877Y10507876D01*
X6965708D01*
X6965200Y10507707D01*
X6964524Y10507369D01*
X6963509Y10507030D01*
X6962324Y10506692D01*
X6960802Y10506354D01*
X6959110Y10505846D01*
X6957419Y10505339D01*
X6953190Y10504493D01*
X6948453Y10503647D01*
X6943378Y10502970D01*
X6938134Y10502801D01*
X6936273D01*
X6934920Y10502970D01*
X6933228D01*
X6931198Y10503309D01*
X6928999Y10503478D01*
X6926631Y10503816D01*
X6923924Y10504324D01*
X6921218Y10504831D01*
X6915297Y10506184D01*
X6909376Y10508214D01*
X6906331Y10509568D01*
X6903286Y10510921D01*
X6903117Y10511090D01*
X6902610Y10511259D01*
X6901764Y10511767D01*
X6900749Y10512444D01*
X6899395Y10513289D01*
X6897873Y10514304D01*
X6896350Y10515658D01*
X6894490Y10517011D01*
X6892629Y10518533D01*
X6890768Y10520394D01*
X6888738Y10522255D01*
X6886877Y10524454D01*
X6884847Y10526653D01*
X6882986Y10529191D01*
X6881295Y10531728D01*
X6879772Y10534604D01*
Y10534773D01*
X6879434Y10535281D01*
X6879096Y10536127D01*
X6878588Y10537311D01*
X6877912Y10538833D01*
X6877235Y10540525D01*
X6876558Y10542555D01*
X6875882Y10544754D01*
X6875036Y10547291D01*
X6874359Y10549998D01*
X6873682Y10552705D01*
X6873006Y10555750D01*
X6872160Y10562347D01*
X6871991Y10565730D01*
X6871822Y10569283D01*
Y10569452D01*
Y10570128D01*
Y10571143D01*
X6871991Y10572497D01*
Y10574188D01*
X6872160Y10576218D01*
X6872498Y10578418D01*
X6872837Y10580955D01*
X6873175Y10583492D01*
X6873682Y10586368D01*
X6875036Y10592289D01*
X6877066Y10598548D01*
X6878250Y10601762D01*
X6879603Y10604807D01*
X6879772Y10604976D01*
X6879942Y10605484D01*
X6880449Y10606330D01*
X6881126Y10607514D01*
X6881972Y10608867D01*
X6882986Y10610389D01*
X6884171Y10612081D01*
X6885524Y10613942D01*
X6887046Y10615972D01*
X6888738Y10618002D01*
X6890599Y10620032D01*
X6892629Y10622062D01*
X6897196Y10625783D01*
X6899734Y10627644D01*
X6902440Y10629167D01*
X6902610Y10629336D01*
X6903117Y10629505D01*
X6903963Y10629843D01*
X6905147Y10630520D01*
X6906500Y10631028D01*
X6908192Y10631704D01*
X6910222Y10632550D01*
X6912421Y10633227D01*
X6914789Y10634072D01*
X6917496Y10634749D01*
X6920203Y10635426D01*
X6923248Y10636102D01*
X6929845Y10636948D01*
X6933228Y10637117D01*
X6936781Y10637287D01*
X6939149D01*
X6940502Y10637117D01*
D02*
G37*
G36*
X6847293Y10505000D02*
X6829531D01*
X6761358Y10607006D01*
Y10505000D01*
X6744779D01*
Y10635087D01*
X6762373D01*
X6830715Y10532912D01*
Y10635087D01*
X6847293D01*
Y10505000D01*
D02*
G37*
G36*
X6665611D02*
X6647849D01*
X6579675Y10607006D01*
Y10505000D01*
X6563097D01*
Y10635087D01*
X6580690D01*
X6649033Y10532912D01*
Y10635087D01*
X6665611D01*
Y10505000D01*
D02*
G37*
G36*
X6259110D02*
X6242362D01*
X6215127Y10603961D01*
Y10604130D01*
X6214958Y10604469D01*
X6214789Y10605145D01*
X6214620Y10605991D01*
X6213943Y10608021D01*
X6213266Y10610558D01*
X6212590Y10613265D01*
X6211913Y10615802D01*
X6211236Y10617832D01*
X6211067Y10618678D01*
X6210898Y10619355D01*
Y10619186D01*
X6210729Y10619017D01*
Y10618509D01*
X6210560Y10617832D01*
X6210221Y10616141D01*
X6209714Y10614111D01*
X6209037Y10611743D01*
X6208360Y10609036D01*
X6207684Y10606498D01*
X6207007Y10603961D01*
X6179603Y10505000D01*
X6161502D01*
X6127500Y10635087D01*
X6145262D01*
X6164885Y10549659D01*
Y10549490D01*
X6165054Y10548983D01*
X6165224Y10548306D01*
X6165393Y10547291D01*
X6165731Y10546107D01*
X6166069Y10544754D01*
X6166408Y10543062D01*
X6166746Y10541370D01*
X6167592Y10537310D01*
X6168607Y10532743D01*
X6169453Y10528006D01*
X6170299Y10523101D01*
Y10523270D01*
X6170468Y10523946D01*
X6170806Y10525131D01*
X6171144Y10526484D01*
X6171483Y10528006D01*
X6171990Y10529867D01*
X6173005Y10533927D01*
X6174020Y10538156D01*
X6174528Y10540186D01*
X6174866Y10542047D01*
X6175373Y10543739D01*
X6175712Y10545092D01*
X6176050Y10546276D01*
X6176219Y10547122D01*
X6200917Y10635087D01*
X6221724D01*
X6240163Y10569113D01*
X6240332Y10568775D01*
X6240502Y10568098D01*
X6240840Y10566745D01*
X6241347Y10564884D01*
X6241855Y10562854D01*
X6242532Y10560148D01*
X6243377Y10557272D01*
X6244054Y10554227D01*
X6244900Y10550674D01*
X6245746Y10547122D01*
X6246592Y10543231D01*
X6247437Y10539340D01*
X6249129Y10531220D01*
X6250482Y10523101D01*
Y10523270D01*
X6250651Y10523608D01*
X6250821Y10524285D01*
X6250990Y10525300D01*
X6251159Y10526484D01*
X6251497Y10527837D01*
X6251836Y10529529D01*
X6252174Y10531220D01*
X6252681Y10533250D01*
X6253189Y10535450D01*
X6254204Y10540186D01*
X6255557Y10545599D01*
X6256911Y10551351D01*
X6277379Y10635087D01*
X6294803D01*
X6259110Y10505000D01*
D02*
G37*
G36*
X6714668D02*
X6697414D01*
Y10635087D01*
X6714668D01*
Y10505000D01*
D02*
G37*
G36*
X6494248Y10634918D02*
X6495770D01*
X6497631Y10634749D01*
X6499661Y10634580D01*
X6503890Y10634241D01*
X6508288Y10633565D01*
X6512517Y10632719D01*
X6514547Y10632211D01*
X6516239Y10631535D01*
X6516408D01*
X6516577Y10631366D01*
X6517085Y10631196D01*
X6517761Y10630858D01*
X6519453Y10630012D01*
X6521483Y10628659D01*
X6523851Y10626967D01*
X6526220Y10624768D01*
X6528588Y10622062D01*
X6530787Y10619017D01*
Y10618847D01*
X6530956Y10618678D01*
X6531295Y10618171D01*
X6531633Y10617494D01*
X6532479Y10615633D01*
X6533494Y10613265D01*
X6534509Y10610389D01*
X6535354Y10607006D01*
X6536031Y10603284D01*
X6536200Y10599394D01*
Y10599224D01*
Y10598717D01*
Y10598040D01*
X6536031Y10597025D01*
X6535862Y10595841D01*
X6535693Y10594488D01*
X6535016Y10591274D01*
X6534001Y10587552D01*
X6532479Y10583661D01*
X6531464Y10581801D01*
X6530280Y10579771D01*
X6528757Y10577910D01*
X6527235Y10576049D01*
X6527065Y10575880D01*
X6526896Y10575711D01*
X6526220Y10575203D01*
X6525543Y10574526D01*
X6524528Y10573850D01*
X6523344Y10573004D01*
X6521991Y10571989D01*
X6520468Y10570974D01*
X6518607Y10569959D01*
X6516577Y10568944D01*
X6514209Y10567929D01*
X6511672Y10566914D01*
X6508965Y10566068D01*
X6506089Y10565222D01*
X6502875Y10564546D01*
X6499492Y10564038D01*
X6499830Y10563869D01*
X6500676Y10563531D01*
X6501860Y10562854D01*
X6503382Y10562008D01*
X6506766Y10559809D01*
X6508288Y10558625D01*
X6509811Y10557441D01*
X6509980D01*
X6510149Y10557103D01*
X6511164Y10556257D01*
X6512517Y10554734D01*
X6514547Y10552704D01*
X6516746Y10550336D01*
X6519115Y10547291D01*
X6521652Y10543908D01*
X6524190Y10540186D01*
X6546688Y10505000D01*
X6525035D01*
X6507950Y10531897D01*
Y10532066D01*
X6507612Y10532405D01*
X6507273Y10533081D01*
X6506766Y10533758D01*
X6506089Y10534773D01*
X6505243Y10535957D01*
X6503552Y10538495D01*
X6501522Y10541370D01*
X6499492Y10544246D01*
X6497462Y10547122D01*
X6495432Y10549659D01*
X6495263Y10549998D01*
X6494586Y10550674D01*
X6493740Y10551858D01*
X6492556Y10553043D01*
X6491203Y10554565D01*
X6489680Y10556088D01*
X6488158Y10557272D01*
X6486635Y10558456D01*
X6486466Y10558625D01*
X6485959Y10558794D01*
X6485282Y10559302D01*
X6484267Y10559809D01*
X6483083Y10560486D01*
X6481729Y10560993D01*
X6478854Y10562008D01*
X6478685D01*
X6478346Y10562178D01*
X6477670D01*
X6476655Y10562347D01*
X6475301Y10562516D01*
X6473610D01*
X6471749Y10562685D01*
X6449419D01*
Y10505000D01*
X6432164D01*
Y10635087D01*
X6492725D01*
X6494248Y10634918D01*
D02*
G37*
G36*
X6417955Y10505000D02*
X6398501D01*
X6383445Y10544415D01*
X6328974D01*
X6314765Y10505000D01*
X6296664D01*
X6346229Y10635087D01*
X6365006D01*
X6417955Y10505000D01*
D02*
G37*
G36*
X6289780Y4699337D02*
X6252950D01*
Y4711402D01*
X6289780D01*
Y4699337D01*
D02*
G37*
G36*
X6667986Y4767536D02*
X6670399D01*
X6673193Y4767282D01*
X6676114Y4767028D01*
X6678908Y4766647D01*
X6681321Y4766139D01*
X6681448D01*
X6681702Y4766012D01*
X6682210Y4765885D01*
X6682718Y4765758D01*
X6683480Y4765504D01*
X6684369Y4765250D01*
X6686274Y4764615D01*
X6688560Y4763599D01*
X6690973Y4762456D01*
X6693386Y4760932D01*
X6695672Y4759154D01*
X6695799Y4759027D01*
X6696053Y4758900D01*
X6696434Y4758519D01*
X6696942Y4758011D01*
X6697577Y4757376D01*
X6698339Y4756614D01*
X6699101Y4755725D01*
X6699990Y4754709D01*
X6701895Y4752296D01*
X6703800Y4749375D01*
X6705705Y4746200D01*
X6707229Y4742517D01*
Y4742390D01*
X6707356Y4742009D01*
X6707610Y4741501D01*
X6707864Y4740739D01*
X6708118Y4739723D01*
X6708499Y4738580D01*
X6708880Y4737310D01*
X6709261Y4735786D01*
X6709515Y4734135D01*
X6709896Y4732357D01*
X6710277Y4730452D01*
X6710531Y4728420D01*
X6711039Y4723975D01*
X6711166Y4719276D01*
Y4719149D01*
Y4718768D01*
Y4718260D01*
Y4717371D01*
X6711039Y4716482D01*
Y4715339D01*
X6710912Y4714069D01*
X6710785Y4712672D01*
X6710531Y4709624D01*
X6710023Y4706322D01*
X6709388Y4702893D01*
X6708499Y4699591D01*
Y4699464D01*
X6708372Y4699210D01*
X6708245Y4698702D01*
X6707991Y4698194D01*
X6707737Y4697432D01*
X6707483Y4696543D01*
X6706721Y4694638D01*
X6705832Y4692352D01*
X6704689Y4689939D01*
X6703292Y4687526D01*
X6701895Y4685367D01*
X6701768Y4685113D01*
X6701133Y4684478D01*
X6700371Y4683462D01*
X6699228Y4682192D01*
X6697958Y4680795D01*
X6696434Y4679271D01*
X6694656Y4677874D01*
X6692878Y4676477D01*
X6692624Y4676350D01*
X6691989Y4675969D01*
X6690973Y4675334D01*
X6689576Y4674699D01*
X6687925Y4673937D01*
X6685893Y4673048D01*
X6683607Y4672286D01*
X6681194Y4671651D01*
X6681067D01*
X6680940Y4671524D01*
X6680559D01*
X6680051Y4671397D01*
X6679416Y4671270D01*
X6678654Y4671143D01*
X6676749Y4670889D01*
X6674463Y4670508D01*
X6671796Y4670254D01*
X6668748Y4670127D01*
X6665573Y4670000D01*
X6630394D01*
Y4767663D01*
X6666843D01*
X6667986Y4767536D01*
D02*
G37*
G36*
X6610201Y4756106D02*
X6552670D01*
Y4726388D01*
X6606518D01*
Y4714831D01*
X6552670D01*
Y4681557D01*
X6612487D01*
Y4670000D01*
X6539716D01*
Y4767663D01*
X6610201D01*
Y4756106D01*
D02*
G37*
G36*
X6476089Y4681557D02*
X6524095D01*
Y4670000D01*
X6463135D01*
Y4767663D01*
X6476089D01*
Y4681557D01*
D02*
G37*
G36*
X6403064Y4670000D02*
X6390110D01*
Y4767663D01*
X6403064D01*
Y4670000D01*
D02*
G37*
G36*
X6371187Y4756106D02*
X6318228D01*
Y4725880D01*
X6364075D01*
Y4714323D01*
X6318228D01*
Y4670000D01*
X6305274D01*
Y4767663D01*
X6371187D01*
Y4756106D01*
D02*
G37*
G36*
X6236440Y4670000D02*
X6223486D01*
Y4767663D01*
X6236440D01*
Y4670000D01*
D02*
G37*
G36*
X6157954Y4681557D02*
X6205960D01*
Y4670000D01*
X6145000D01*
Y4767663D01*
X6157954D01*
Y4681557D01*
D02*
G37*
G36*
X10731178Y10732767D02*
X10733844D01*
X10737177Y10732433D01*
X10740843Y10732100D01*
X10748507Y10730767D01*
X10756839Y10729101D01*
X10765503Y10726768D01*
X10773834Y10723769D01*
X10774167D01*
X10774834Y10723436D01*
X10775834Y10722769D01*
X10777500Y10722103D01*
X10781499Y10719770D01*
X10786164Y10716771D01*
X10791830Y10713105D01*
X10797162Y10708440D01*
X10802827Y10702774D01*
X10807492Y10696443D01*
Y10696109D01*
X10808159Y10695776D01*
X10808492Y10694776D01*
X10809492Y10693443D01*
X10810158Y10691777D01*
X10811158Y10689778D01*
X10813491Y10684779D01*
X10815823Y10678781D01*
X10817823Y10672116D01*
X10819489Y10664451D01*
X10820156Y10656453D01*
X10787497Y10654120D01*
Y10654453D01*
Y10655120D01*
X10787164Y10656453D01*
X10786831Y10658119D01*
X10786498Y10660119D01*
X10785831Y10662451D01*
X10784165Y10667783D01*
X10781832Y10673449D01*
X10778833Y10679447D01*
X10774834Y10685445D01*
X10769502Y10690444D01*
X10768835Y10691111D01*
X10767836Y10691444D01*
X10766836Y10692444D01*
X10765170Y10693443D01*
X10763170Y10694443D01*
X10760838Y10695443D01*
X10758505Y10696776D01*
X10755506Y10697776D01*
X10752173Y10698775D01*
X10748507Y10699775D01*
X10744508Y10700775D01*
X10740176Y10701775D01*
X10735511Y10702108D01*
X10730512Y10702774D01*
X10720181D01*
X10717515Y10702441D01*
X10714849Y10702108D01*
X10708184Y10701441D01*
X10700853Y10700108D01*
X10693521Y10698109D01*
X10686523Y10695110D01*
X10683191Y10693443D01*
X10680525Y10691444D01*
X10679858Y10690777D01*
X10678192Y10689444D01*
X10676193Y10687112D01*
X10673527Y10683779D01*
X10670861Y10679780D01*
X10668861Y10675115D01*
X10667195Y10669783D01*
X10666528Y10664118D01*
Y10663451D01*
Y10661785D01*
X10667195Y10659452D01*
X10667861Y10656120D01*
X10668861Y10652454D01*
X10670527Y10648788D01*
X10672860Y10645122D01*
X10676193Y10641457D01*
X10676859Y10641123D01*
X10677526Y10640457D01*
X10678525Y10640124D01*
X10679858Y10639124D01*
X10681524Y10638124D01*
X10683857Y10637125D01*
X10686190Y10636125D01*
X10689522Y10634792D01*
X10693188Y10633126D01*
X10697187Y10631793D01*
X10701853Y10630126D01*
X10707185Y10628460D01*
X10713183Y10626794D01*
X10719848Y10625128D01*
X10727179Y10623461D01*
X10727513D01*
X10728846Y10623128D01*
X10731178Y10622462D01*
X10733844Y10621795D01*
X10737177Y10621129D01*
X10741176Y10620129D01*
X10745175Y10619129D01*
X10749840Y10617796D01*
X10759171Y10615463D01*
X10768502Y10612797D01*
X10772834Y10611131D01*
X10777167Y10609798D01*
X10780832Y10608465D01*
X10783832Y10607132D01*
X10784165D01*
X10784831Y10606799D01*
X10785831Y10606132D01*
X10787497Y10605133D01*
X10791496Y10603133D01*
X10796495Y10600134D01*
X10801827Y10596135D01*
X10807159Y10591803D01*
X10812491Y10586471D01*
X10816823Y10580806D01*
Y10580472D01*
X10817156Y10580139D01*
X10817823Y10579139D01*
X10818489Y10578140D01*
X10820156Y10574807D01*
X10822488Y10570475D01*
X10824488Y10565143D01*
X10826154Y10558811D01*
X10827487Y10552146D01*
X10827820Y10544482D01*
Y10544148D01*
Y10543482D01*
Y10542482D01*
X10827487Y10541149D01*
Y10539150D01*
X10827154Y10537150D01*
X10826487Y10532151D01*
X10824821Y10526153D01*
X10822822Y10519821D01*
X10819822Y10512823D01*
X10815823Y10506158D01*
Y10505825D01*
X10815157Y10505492D01*
X10814490Y10504492D01*
X10813824Y10503159D01*
X10810825Y10499826D01*
X10807159Y10495827D01*
X10802494Y10491495D01*
X10796828Y10486830D01*
X10789830Y10482164D01*
X10782165Y10478165D01*
X10781832D01*
X10781166Y10477832D01*
X10779833Y10477165D01*
X10778500Y10476499D01*
X10776167Y10475832D01*
X10773834Y10475166D01*
X10771168Y10474166D01*
X10767836Y10473167D01*
X10760838Y10471500D01*
X10752506Y10469834D01*
X10743175Y10468501D01*
X10733178Y10468168D01*
X10729845D01*
X10727513Y10468501D01*
X10724513D01*
X10720848Y10468834D01*
X10717182Y10469168D01*
X10712850Y10469501D01*
X10703852Y10470501D01*
X10693855Y10472500D01*
X10684190Y10474833D01*
X10674860Y10478165D01*
X10674526D01*
X10673860Y10478498D01*
X10672527Y10479165D01*
X10670861Y10480165D01*
X10669194Y10481164D01*
X10666862Y10482497D01*
X10661530Y10485830D01*
X10655531Y10490162D01*
X10649533Y10495494D01*
X10643534Y10501826D01*
X10638202Y10508824D01*
Y10509157D01*
X10637536Y10509824D01*
X10636869Y10510824D01*
X10636203Y10512490D01*
X10635203Y10514489D01*
X10633870Y10516489D01*
X10632870Y10519155D01*
X10631537Y10522154D01*
X10628871Y10529152D01*
X10626539Y10536817D01*
X10624872Y10545815D01*
X10624206Y10555146D01*
X10656198Y10557811D01*
Y10557478D01*
Y10556812D01*
X10656531Y10555812D01*
Y10554479D01*
X10657197Y10551147D01*
X10658197Y10546481D01*
X10659530Y10541482D01*
X10661530Y10536150D01*
X10663862Y10530818D01*
X10666528Y10525820D01*
X10666862Y10525153D01*
X10668195Y10523820D01*
X10670194Y10521487D01*
X10672860Y10518821D01*
X10676526Y10515489D01*
X10680858Y10512157D01*
X10686190Y10508824D01*
X10692188Y10505825D01*
X10692522D01*
X10692855Y10505492D01*
X10693855Y10505158D01*
X10695188Y10504825D01*
X10696854Y10504159D01*
X10698853Y10503492D01*
X10703852Y10502159D01*
X10709517Y10500826D01*
X10716182Y10499493D01*
X10723514Y10498827D01*
X10731512Y10498493D01*
X10734844D01*
X10738510Y10498827D01*
X10743175Y10499160D01*
X10748174Y10499826D01*
X10754173Y10500826D01*
X10759838Y10502159D01*
X10765503Y10504159D01*
X10765836D01*
X10766169Y10504492D01*
X10767836Y10505158D01*
X10770502Y10506491D01*
X10773834Y10508158D01*
X10777500Y10510490D01*
X10781166Y10513156D01*
X10784831Y10516155D01*
X10787831Y10519821D01*
X10788164Y10520154D01*
X10788830Y10521487D01*
X10790163Y10523820D01*
X10791496Y10526486D01*
X10792829Y10529819D01*
X10794162Y10533484D01*
X10794829Y10537483D01*
X10795162Y10541816D01*
Y10542482D01*
Y10543815D01*
X10794829Y10546148D01*
X10794162Y10548814D01*
X10793496Y10552146D01*
X10792163Y10555812D01*
X10790163Y10559478D01*
X10787831Y10562810D01*
X10787497Y10563143D01*
X10786498Y10564476D01*
X10784831Y10566143D01*
X10782499Y10568142D01*
X10779166Y10570475D01*
X10775167Y10572808D01*
X10770502Y10575474D01*
X10764836Y10577806D01*
X10764170Y10578140D01*
X10762837Y10578473D01*
X10761504Y10579139D01*
X10759838Y10579473D01*
X10757838Y10580139D01*
X10755172Y10580806D01*
X10752506Y10581805D01*
X10749174Y10582472D01*
X10745508Y10583472D01*
X10741176Y10584805D01*
X10736510Y10585804D01*
X10731178Y10587137D01*
X10725513Y10588470D01*
X10719182Y10590137D01*
X10718848D01*
X10717515Y10590470D01*
X10715849Y10591136D01*
X10713516Y10591470D01*
X10710517Y10592469D01*
X10707518Y10593136D01*
X10699853Y10595469D01*
X10691855Y10597801D01*
X10683524Y10600800D01*
X10676193Y10603466D01*
X10672860Y10605133D01*
X10669861Y10606466D01*
X10669528D01*
X10669194Y10606799D01*
X10668195Y10607465D01*
X10666862Y10608132D01*
X10663529Y10610131D01*
X10659530Y10613131D01*
X10655198Y10616463D01*
X10650532Y10620462D01*
X10646200Y10625128D01*
X10642534Y10630126D01*
Y10630460D01*
X10642201Y10630793D01*
X10641201Y10632792D01*
X10639868Y10635458D01*
X10638202Y10639457D01*
X10636536Y10644123D01*
X10635203Y10649788D01*
X10634203Y10655786D01*
X10633870Y10662118D01*
Y10662451D01*
Y10663118D01*
Y10664118D01*
X10634203Y10665451D01*
X10634537Y10669116D01*
X10635203Y10674115D01*
X10636536Y10679780D01*
X10638535Y10685779D01*
X10641201Y10692110D01*
X10644867Y10698442D01*
Y10698775D01*
X10645534Y10699109D01*
X10646867Y10701108D01*
X10649533Y10704441D01*
X10652865Y10708106D01*
X10657531Y10712105D01*
X10662863Y10716438D01*
X10669528Y10720437D01*
X10676859Y10724102D01*
X10677192D01*
X10677859Y10724435D01*
X10678858Y10725102D01*
X10680525Y10725435D01*
X10682524Y10726102D01*
X10684857Y10727101D01*
X10687523Y10727768D01*
X10690522Y10728768D01*
X10697520Y10730101D01*
X10705518Y10731767D01*
X10714516Y10732767D01*
X10723847Y10733100D01*
X10728512D01*
X10731178Y10732767D01*
D02*
G37*
G36*
X9204903Y10549480D02*
X9108261D01*
Y10581139D01*
X9204903D01*
Y10549480D01*
D02*
G37*
G36*
X10578551Y10472500D02*
X10543560D01*
X10409261Y10673449D01*
Y10472500D01*
X10376603D01*
Y10728768D01*
X10411260D01*
X10545893Y10527486D01*
Y10728768D01*
X10578551D01*
Y10472500D01*
D02*
G37*
G36*
X11117746D02*
X11085088D01*
Y10687112D01*
X11010107Y10472500D01*
X10979781D01*
X10905800Y10690777D01*
Y10472500D01*
X10873142D01*
Y10728768D01*
X10923796D01*
X10984447Y10547148D01*
Y10546814D01*
X10984780Y10546148D01*
X10985113Y10544815D01*
X10985780Y10543149D01*
X10986446Y10540816D01*
X10987446Y10538483D01*
X10989112Y10532818D01*
X10991112Y10526819D01*
X10993111Y10520488D01*
X10995111Y10514489D01*
X10996777Y10509157D01*
X10997110Y10509824D01*
X10997777Y10511823D01*
X10998777Y10515156D01*
X11000110Y10519488D01*
X11002109Y10525486D01*
X11004442Y10532485D01*
X11007108Y10540816D01*
X11010440Y10550480D01*
X11072091Y10728768D01*
X11117746D01*
Y10472500D01*
D02*
G37*
G36*
X12070169Y10728434D02*
X12073168D01*
X12076834Y10728101D01*
X12080833Y10727768D01*
X12089164Y10727101D01*
X12097828Y10725768D01*
X12106160Y10724102D01*
X12110159Y10723103D01*
X12113491Y10721770D01*
X12113824D01*
X12114158Y10721436D01*
X12115157Y10721103D01*
X12116490Y10720437D01*
X12119823Y10718770D01*
X12123822Y10716104D01*
X12128487Y10712772D01*
X12133153Y10708440D01*
X12137818Y10703108D01*
X12142150Y10697109D01*
Y10696776D01*
X12142484Y10696443D01*
X12143150Y10695443D01*
X12143817Y10694110D01*
X12145483Y10690444D01*
X12147482Y10685779D01*
X12149482Y10680114D01*
X12151148Y10673449D01*
X12152481Y10666117D01*
X12152814Y10658452D01*
Y10658119D01*
Y10657119D01*
Y10655786D01*
X12152481Y10653787D01*
X12152148Y10651454D01*
X12151815Y10648788D01*
X12150482Y10642456D01*
X12148482Y10635125D01*
X12145483Y10627460D01*
X12143483Y10623795D01*
X12141151Y10619796D01*
X12138151Y10616130D01*
X12135152Y10612464D01*
X12134819Y10612131D01*
X12134486Y10611798D01*
X12133153Y10610798D01*
X12131820Y10609465D01*
X12129820Y10608132D01*
X12127488Y10606466D01*
X12124822Y10604466D01*
X12121822Y10602467D01*
X12118157Y10600467D01*
X12114158Y10598468D01*
X12109492Y10596468D01*
X12104493Y10594469D01*
X12099161Y10592803D01*
X12093496Y10591136D01*
X12087165Y10589803D01*
X12080500Y10588804D01*
X12081166Y10588470D01*
X12082832Y10587804D01*
X12085165Y10586471D01*
X12088164Y10584805D01*
X12094829Y10580472D01*
X12097828Y10578140D01*
X12100828Y10575807D01*
X12101161D01*
X12101494Y10575140D01*
X12103494Y10573474D01*
X12106160Y10570475D01*
X12110159Y10566476D01*
X12114491Y10561810D01*
X12119156Y10555812D01*
X12124155Y10549147D01*
X12129154Y10541816D01*
X12173476Y10472500D01*
X12130820D01*
X12097162Y10525486D01*
Y10525820D01*
X12096495Y10526486D01*
X12095829Y10527819D01*
X12094829Y10529152D01*
X12093496Y10531152D01*
X12091830Y10533484D01*
X12088498Y10538483D01*
X12084499Y10544148D01*
X12080500Y10549814D01*
X12076501Y10555479D01*
X12072502Y10560477D01*
X12072168Y10561144D01*
X12070835Y10562477D01*
X12069169Y10564810D01*
X12066836Y10567142D01*
X12064170Y10570142D01*
X12061171Y10573141D01*
X12058172Y10575474D01*
X12055173Y10577806D01*
X12054839Y10578140D01*
X12053840Y10578473D01*
X12052507Y10579473D01*
X12050507Y10580472D01*
X12048175Y10581805D01*
X12045509Y10582805D01*
X12039843Y10584805D01*
X12039510D01*
X12038844Y10585138D01*
X12037511D01*
X12035511Y10585471D01*
X12032845Y10585804D01*
X12029513D01*
X12025847Y10586138D01*
X11981858D01*
Y10472500D01*
X11947867D01*
Y10728768D01*
X12067170D01*
X12070169Y10728434D01*
D02*
G37*
G36*
X11894547Y10698442D02*
X11743586D01*
Y10620462D01*
X11884883D01*
Y10590137D01*
X11743586D01*
Y10502826D01*
X11900546D01*
Y10472500D01*
X11709595D01*
Y10728768D01*
X11894547D01*
Y10698442D01*
D02*
G37*
G36*
X11673604D02*
X11589292D01*
Y10472500D01*
X11555301D01*
Y10698442D01*
X11470989D01*
Y10728768D01*
X11673604D01*
Y10698442D01*
D02*
G37*
G36*
X11454993D02*
X11370681D01*
Y10472500D01*
X11336690D01*
Y10698442D01*
X11252378D01*
Y10728768D01*
X11454993D01*
Y10698442D01*
D02*
G37*
G36*
X11212055Y10472500D02*
X11178064D01*
Y10728768D01*
X11212055D01*
Y10472500D01*
D02*
G37*
G36*
X10349276D02*
X10310953D01*
X10281294Y10550147D01*
X10173988D01*
X10145995Y10472500D01*
X10110337D01*
X10207979Y10728768D01*
X10244970D01*
X10349276Y10472500D01*
D02*
G37*
G36*
X10002365Y10728434D02*
X10005364D01*
X10009030Y10728101D01*
X10013029Y10727768D01*
X10021360Y10727101D01*
X10030025Y10725768D01*
X10038356Y10724102D01*
X10042355Y10723103D01*
X10045687Y10721770D01*
X10046021D01*
X10046354Y10721436D01*
X10047354Y10721103D01*
X10048687Y10720437D01*
X10052019Y10718770D01*
X10056018Y10716104D01*
X10060683Y10712772D01*
X10065349Y10708440D01*
X10070014Y10703108D01*
X10074347Y10697109D01*
Y10696776D01*
X10074680Y10696443D01*
X10075346Y10695443D01*
X10076013Y10694110D01*
X10077679Y10690444D01*
X10079679Y10685779D01*
X10081678Y10680114D01*
X10083344Y10673449D01*
X10084677Y10666117D01*
X10085011Y10658452D01*
Y10658119D01*
Y10657119D01*
Y10655786D01*
X10084677Y10653787D01*
X10084344Y10651454D01*
X10084011Y10648788D01*
X10082678Y10642456D01*
X10080678Y10635125D01*
X10077679Y10627460D01*
X10075680Y10623795D01*
X10073347Y10619796D01*
X10070348Y10616130D01*
X10067348Y10612464D01*
X10067015Y10612131D01*
X10066682Y10611798D01*
X10065349Y10610798D01*
X10064016Y10609465D01*
X10062016Y10608132D01*
X10059684Y10606466D01*
X10057018Y10604466D01*
X10054018Y10602467D01*
X10050353Y10600467D01*
X10046354Y10598468D01*
X10041688Y10596468D01*
X10036690Y10594469D01*
X10031358Y10592803D01*
X10025692Y10591136D01*
X10019361Y10589803D01*
X10012696Y10588804D01*
X10013362Y10588470D01*
X10015028Y10587804D01*
X10017361Y10586471D01*
X10020360Y10584805D01*
X10027025Y10580472D01*
X10030025Y10578140D01*
X10033024Y10575807D01*
X10033357D01*
X10033690Y10575140D01*
X10035690Y10573474D01*
X10038356Y10570475D01*
X10042355Y10566476D01*
X10046687Y10561810D01*
X10051353Y10555812D01*
X10056351Y10549147D01*
X10061350Y10541816D01*
X10105672Y10472500D01*
X10063016D01*
X10029358Y10525486D01*
Y10525820D01*
X10028692Y10526486D01*
X10028025Y10527819D01*
X10027025Y10529152D01*
X10025692Y10531152D01*
X10024026Y10533484D01*
X10020694Y10538483D01*
X10016695Y10544148D01*
X10012696Y10549814D01*
X10008697Y10555479D01*
X10004698Y10560477D01*
X10004365Y10561144D01*
X10003032Y10562477D01*
X10001365Y10564810D01*
X9999033Y10567142D01*
X9996367Y10570142D01*
X9993367Y10573141D01*
X9990368Y10575474D01*
X9987369Y10577806D01*
X9987036Y10578140D01*
X9986036Y10578473D01*
X9984703Y10579473D01*
X9982703Y10580472D01*
X9980371Y10581805D01*
X9977705Y10582805D01*
X9972039Y10584805D01*
X9971706D01*
X9971040Y10585138D01*
X9969707D01*
X9967707Y10585471D01*
X9965041Y10585804D01*
X9961709D01*
X9958043Y10586138D01*
X9914054D01*
Y10472500D01*
X9880063D01*
Y10728768D01*
X9999366D01*
X10002365Y10728434D01*
D02*
G37*
G36*
X9844406Y10698442D02*
X9760094D01*
Y10472500D01*
X9726102D01*
Y10698442D01*
X9641791D01*
Y10728768D01*
X9844406D01*
Y10698442D01*
D02*
G37*
G36*
X9502160Y10472500D02*
X9468169D01*
Y10728768D01*
X9502160D01*
Y10472500D01*
D02*
G37*
G36*
X9418515Y10698442D02*
X9279550D01*
Y10619129D01*
X9399853D01*
Y10588804D01*
X9279550D01*
Y10472500D01*
X9245559D01*
Y10728768D01*
X9418515D01*
Y10698442D01*
D02*
G37*
G36*
X9064938Y10472500D02*
X9030947D01*
Y10728768D01*
X9064938D01*
Y10472500D01*
D02*
G37*
G36*
X8858991Y10502826D02*
X8984959D01*
Y10472500D01*
X8825000D01*
Y10728768D01*
X8858991D01*
Y10502826D01*
D02*
G37*
%LPC*%
G36*
X10803879Y8572485D02*
X10769970D01*
Y8460661D01*
X10804832D01*
X10806165Y8460852D01*
X10809404Y8461042D01*
X10813023Y8461233D01*
X10816833Y8461804D01*
X10820643Y8462376D01*
X10823882Y8463328D01*
X10824072D01*
X10824263Y8463519D01*
X10825215Y8463900D01*
X10826739Y8464471D01*
X10828644Y8465233D01*
X10830740Y8466376D01*
X10832835Y8467519D01*
X10835121Y8469043D01*
X10837026Y8470758D01*
X10837407Y8471139D01*
X10838169Y8472091D01*
X10839312Y8473615D01*
X10841027Y8475711D01*
X10842741Y8478378D01*
X10844456Y8481616D01*
X10846170Y8485236D01*
X10847694Y8489427D01*
Y8489617D01*
X10847885Y8489998D01*
X10848075Y8490570D01*
X10848266Y8491522D01*
X10848647Y8492665D01*
X10849028Y8493999D01*
X10849409Y8495523D01*
X10849790Y8497237D01*
X10849980Y8499333D01*
X10850361Y8501428D01*
X10851123Y8506191D01*
X10851504Y8511715D01*
X10851695Y8517621D01*
Y8517811D01*
Y8518573D01*
Y8519907D01*
X10851504Y8521431D01*
Y8523336D01*
X10851314Y8525431D01*
X10851123Y8527908D01*
X10850742Y8530575D01*
X10849790Y8536290D01*
X10848456Y8542195D01*
X10846551Y8547720D01*
X10845408Y8550387D01*
X10844075Y8552863D01*
Y8553054D01*
X10843694Y8553435D01*
X10843313Y8554006D01*
X10842741Y8554959D01*
X10841027Y8557054D01*
X10838931Y8559531D01*
X10836264Y8562388D01*
X10833216Y8565055D01*
X10829597Y8567532D01*
X10827692Y8568484D01*
X10825787Y8569437D01*
X10825406Y8569627D01*
X10825025Y8569818D01*
X10824263Y8570008D01*
X10823501Y8570199D01*
X10822358Y8570389D01*
X10821215Y8570770D01*
X10819691Y8570961D01*
X10818167Y8571342D01*
X10816262Y8571532D01*
X10814166Y8571723D01*
X10811880Y8572104D01*
X10809404Y8572294D01*
X10806737D01*
X10803879Y8572485D01*
D02*
G37*
G36*
X10391256D02*
X10349346D01*
Y8520097D01*
X10388780D01*
X10390113Y8520288D01*
X10391637D01*
X10393352Y8520478D01*
X10397352Y8521050D01*
X10401734Y8521812D01*
X10406115Y8522955D01*
X10410116Y8524669D01*
X10412021Y8525812D01*
X10413545Y8526955D01*
X10413926Y8527336D01*
X10414878Y8528289D01*
X10416021Y8529813D01*
X10417545Y8532099D01*
X10419069Y8534956D01*
X10420212Y8538385D01*
X10421165Y8542195D01*
X10421546Y8546767D01*
Y8546958D01*
Y8547148D01*
Y8548291D01*
X10421355Y8550006D01*
X10420974Y8552101D01*
X10420403Y8554578D01*
X10419450Y8557245D01*
X10418307Y8559912D01*
X10416783Y8562388D01*
X10416593Y8562769D01*
X10416021Y8563531D01*
X10414878Y8564674D01*
X10413545Y8566008D01*
X10411830Y8567532D01*
X10409735Y8568865D01*
X10407258Y8570199D01*
X10404591Y8571151D01*
X10404401D01*
X10403639Y8571342D01*
X10402305Y8571532D01*
X10400591Y8571913D01*
X10398114Y8572104D01*
X10395066Y8572294D01*
X10391256Y8572485D01*
D02*
G37*
G36*
X11082785Y5738208D02*
X11039141D01*
Y5695071D01*
X11078895D01*
X11080079Y5695241D01*
X11082785Y5695410D01*
X11085661Y5695579D01*
X11088875Y5696086D01*
X11091751Y5696594D01*
X11094458Y5697440D01*
X11094796Y5697609D01*
X11095642Y5697947D01*
X11096826Y5698455D01*
X11098348Y5699301D01*
X11099871Y5700315D01*
X11101563Y5701669D01*
X11103254Y5703360D01*
X11104607Y5705221D01*
X11104777Y5705390D01*
X11105115Y5706236D01*
X11105792Y5707251D01*
X11106468Y5708774D01*
X11106976Y5710465D01*
X11107652Y5712495D01*
X11107991Y5714525D01*
X11108160Y5716894D01*
Y5717063D01*
Y5717232D01*
Y5717739D01*
X11107991Y5718416D01*
X11107822Y5720108D01*
X11107314Y5722307D01*
X11106468Y5724675D01*
X11105284Y5727213D01*
X11103592Y5729750D01*
X11101393Y5732118D01*
X11101055Y5732457D01*
X11100040Y5733133D01*
X11098518Y5733979D01*
X11096149Y5735163D01*
X11094796Y5735671D01*
X11093273Y5736347D01*
X11091582Y5736855D01*
X11089552Y5737193D01*
X11087522Y5737701D01*
X11085323Y5737870D01*
X11082785Y5738208D01*
D02*
G37*
G36*
X10901103D02*
X10857459D01*
Y5695071D01*
X10897212D01*
X10898397Y5695241D01*
X10901103Y5695410D01*
X10903979Y5695579D01*
X10907193Y5696086D01*
X10910069Y5696594D01*
X10912775Y5697440D01*
X10913114Y5697609D01*
X10913960Y5697947D01*
X10915144Y5698455D01*
X10916666Y5699301D01*
X10918189Y5700315D01*
X10919880Y5701669D01*
X10921572Y5703360D01*
X10922925Y5705221D01*
X10923094Y5705390D01*
X10923433Y5706236D01*
X10924109Y5707251D01*
X10924786Y5708774D01*
X10925294Y5710465D01*
X10925970Y5712495D01*
X10926309Y5714525D01*
X10926478Y5716894D01*
Y5717063D01*
Y5717232D01*
Y5717739D01*
X10926309Y5718416D01*
X10926139Y5720108D01*
X10925632Y5722307D01*
X10924786Y5724675D01*
X10923602Y5727213D01*
X10921910Y5729750D01*
X10919711Y5732118D01*
X10919373Y5732457D01*
X10918358Y5733133D01*
X10916835Y5733979D01*
X10914467Y5735163D01*
X10913114Y5735671D01*
X10911591Y5736347D01*
X10909900Y5736855D01*
X10907870Y5737193D01*
X10905840Y5737701D01*
X10903641Y5737870D01*
X10901103Y5738208D01*
D02*
G37*
G36*
X10853048Y4292193D02*
X10822937D01*
Y4192894D01*
X10853894D01*
X10855078Y4193063D01*
X10857954Y4193232D01*
X10861168Y4193401D01*
X10864552Y4193909D01*
X10867935Y4194416D01*
X10870811Y4195262D01*
X10870980D01*
X10871149Y4195431D01*
X10871995Y4195770D01*
X10873348Y4196277D01*
X10875040Y4196954D01*
X10876901Y4197969D01*
X10878761Y4198984D01*
X10880791Y4200337D01*
X10882483Y4201860D01*
X10882821Y4202198D01*
X10883498Y4203044D01*
X10884513Y4204397D01*
X10886035Y4206258D01*
X10887558Y4208626D01*
X10889080Y4211502D01*
X10890603Y4214716D01*
X10891956Y4218438D01*
Y4218607D01*
X10892125Y4218945D01*
X10892294Y4219453D01*
X10892464Y4220298D01*
X10892802Y4221313D01*
X10893140Y4222498D01*
X10893479Y4223851D01*
X10893817Y4225373D01*
X10893986Y4227234D01*
X10894324Y4229095D01*
X10895001Y4233324D01*
X10895339Y4238230D01*
X10895509Y4243474D01*
Y4243643D01*
Y4244320D01*
Y4245504D01*
X10895339Y4246857D01*
Y4248549D01*
X10895170Y4250410D01*
X10895001Y4252609D01*
X10894663Y4254977D01*
X10893817Y4260052D01*
X10892633Y4265296D01*
X10890941Y4270202D01*
X10889926Y4272570D01*
X10888742Y4274769D01*
Y4274938D01*
X10888404Y4275277D01*
X10888065Y4275784D01*
X10887558Y4276630D01*
X10886035Y4278491D01*
X10884175Y4280690D01*
X10881806Y4283227D01*
X10879100Y4285596D01*
X10875886Y4287795D01*
X10874194Y4288641D01*
X10872502Y4289486D01*
X10872164Y4289656D01*
X10871826Y4289825D01*
X10871149Y4289994D01*
X10870472Y4290163D01*
X10869457Y4290332D01*
X10868442Y4290671D01*
X10867089Y4290840D01*
X10865736Y4291178D01*
X10864044Y4291347D01*
X10862183Y4291516D01*
X10860153Y4291855D01*
X10857954Y4292024D01*
X10855586D01*
X10853048Y4292193D01*
D02*
G37*
G36*
X10728882Y4294054D02*
Y4293885D01*
X10728713Y4293546D01*
X10728544Y4292870D01*
X10728375Y4291855D01*
X10728205Y4290671D01*
X10727867Y4289317D01*
X10727529Y4287795D01*
X10727021Y4286103D01*
X10726006Y4282382D01*
X10724822Y4278152D01*
X10723469Y4273585D01*
X10721777Y4269018D01*
X10707567Y4230956D01*
X10751719D01*
X10738186Y4266818D01*
Y4266988D01*
X10737848Y4267495D01*
X10737509Y4268341D01*
X10737171Y4269525D01*
X10736664Y4270878D01*
X10735987Y4272570D01*
X10735310Y4274431D01*
X10734634Y4276461D01*
X10733111Y4280690D01*
X10731589Y4285257D01*
X10730235Y4289825D01*
X10728882Y4294054D01*
D02*
G37*
G36*
X10617910Y4292193D02*
X10580694D01*
Y4245673D01*
X10615711D01*
X10616895Y4245842D01*
X10618249D01*
X10619771Y4246011D01*
X10623324Y4246519D01*
X10627214Y4247195D01*
X10631105Y4248210D01*
X10634658Y4249733D01*
X10636349Y4250748D01*
X10637703Y4251763D01*
X10638041Y4252101D01*
X10638887Y4252947D01*
X10639902Y4254300D01*
X10641255Y4256330D01*
X10642608Y4258868D01*
X10643623Y4261913D01*
X10644469Y4265296D01*
X10644808Y4269356D01*
Y4269525D01*
Y4269694D01*
Y4270709D01*
X10644638Y4272232D01*
X10644300Y4274093D01*
X10643793Y4276292D01*
X10642947Y4278660D01*
X10641932Y4281028D01*
X10640578Y4283227D01*
X10640409Y4283566D01*
X10639902Y4284242D01*
X10638887Y4285257D01*
X10637703Y4286442D01*
X10636180Y4287795D01*
X10634319Y4288979D01*
X10632120Y4290163D01*
X10629752Y4291009D01*
X10629583D01*
X10628906Y4291178D01*
X10627722Y4291347D01*
X10626199Y4291686D01*
X10624000Y4291855D01*
X10621294Y4292024D01*
X10617910Y4292193D01*
D02*
G37*
G36*
X10093333Y4282043D02*
X10052395Y4223343D01*
X10093333D01*
Y4282043D01*
D02*
G37*
G36*
X9901501D02*
X9860563Y4223343D01*
X9901501D01*
Y4282043D01*
D02*
G37*
G36*
X6493063Y10620708D02*
X6449419D01*
Y10577571D01*
X6489173D01*
X6490357Y10577741D01*
X6493063Y10577910D01*
X6495939Y10578079D01*
X6499153Y10578586D01*
X6502029Y10579094D01*
X6504736Y10579940D01*
X6505074Y10580109D01*
X6505920Y10580447D01*
X6507104Y10580955D01*
X6508627Y10581801D01*
X6510149Y10582816D01*
X6511841Y10584169D01*
X6513532Y10585860D01*
X6514886Y10587721D01*
X6515055Y10587890D01*
X6515393Y10588736D01*
X6516070Y10589751D01*
X6516746Y10591274D01*
X6517254Y10592965D01*
X6517931Y10594995D01*
X6518269Y10597025D01*
X6518438Y10599394D01*
Y10599563D01*
Y10599732D01*
Y10600239D01*
X6518269Y10600916D01*
X6518100Y10602608D01*
X6517592Y10604807D01*
X6516746Y10607175D01*
X6515562Y10609713D01*
X6513871Y10612250D01*
X6511672Y10614618D01*
X6511333Y10614957D01*
X6510318Y10615633D01*
X6508796Y10616479D01*
X6506427Y10617663D01*
X6505074Y10618171D01*
X6503552Y10618847D01*
X6501860Y10619355D01*
X6499830Y10619693D01*
X6497800Y10620201D01*
X6495601Y10620370D01*
X6493063Y10620708D01*
D02*
G37*
G36*
X6355195Y10621554D02*
Y10621385D01*
X6355026Y10621047D01*
X6354856Y10620370D01*
X6354687Y10619355D01*
X6354518Y10618171D01*
X6354180Y10616817D01*
X6353841Y10615295D01*
X6353334Y10613603D01*
X6352319Y10609882D01*
X6351135Y10605653D01*
X6349782Y10601085D01*
X6348090Y10596518D01*
X6333880Y10558456D01*
X6378032D01*
X6364499Y10594319D01*
Y10594488D01*
X6364160Y10594995D01*
X6363822Y10595841D01*
X6363484Y10597025D01*
X6362976Y10598379D01*
X6362300Y10600070D01*
X6361623Y10601931D01*
X6360946Y10603961D01*
X6359424Y10608190D01*
X6357901Y10612758D01*
X6356548Y10617325D01*
X6355195Y10621554D01*
D02*
G37*
G36*
X6665954Y4756106D02*
X6643348D01*
Y4681557D01*
X6666589D01*
X6667478Y4681684D01*
X6669637Y4681811D01*
X6672050Y4681938D01*
X6674590Y4682319D01*
X6677130Y4682700D01*
X6679289Y4683335D01*
X6679416D01*
X6679543Y4683462D01*
X6680178Y4683716D01*
X6681194Y4684097D01*
X6682464Y4684605D01*
X6683861Y4685367D01*
X6685258Y4686129D01*
X6686782Y4687145D01*
X6688052Y4688288D01*
X6688306Y4688542D01*
X6688814Y4689177D01*
X6689576Y4690193D01*
X6690719Y4691590D01*
X6691862Y4693368D01*
X6693005Y4695527D01*
X6694148Y4697940D01*
X6695164Y4700734D01*
Y4700861D01*
X6695291Y4701115D01*
X6695418Y4701496D01*
X6695545Y4702131D01*
X6695799Y4702893D01*
X6696053Y4703782D01*
X6696307Y4704798D01*
X6696561Y4705941D01*
X6696688Y4707338D01*
X6696942Y4708735D01*
X6697450Y4711910D01*
X6697704Y4715593D01*
X6697831Y4719530D01*
Y4719657D01*
Y4720165D01*
Y4721054D01*
X6697704Y4722070D01*
Y4723340D01*
X6697577Y4724737D01*
X6697450Y4726388D01*
X6697196Y4728166D01*
X6696561Y4731976D01*
X6695672Y4735913D01*
X6694402Y4739596D01*
X6693640Y4741374D01*
X6692751Y4743025D01*
Y4743152D01*
X6692497Y4743406D01*
X6692243Y4743787D01*
X6691862Y4744422D01*
X6690719Y4745819D01*
X6689322Y4747470D01*
X6687544Y4749375D01*
X6685512Y4751153D01*
X6683099Y4752804D01*
X6681829Y4753439D01*
X6680559Y4754074D01*
X6680305Y4754201D01*
X6680051Y4754328D01*
X6679543Y4754455D01*
X6679035Y4754582D01*
X6678273Y4754709D01*
X6677511Y4754963D01*
X6676495Y4755090D01*
X6675479Y4755344D01*
X6674209Y4755471D01*
X6672812Y4755598D01*
X6671288Y4755852D01*
X6669637Y4755979D01*
X6667859D01*
X6665954Y4756106D01*
D02*
G37*
G36*
X12067836Y10700442D02*
X11981858D01*
Y10615463D01*
X12060171D01*
X12062504Y10615797D01*
X12067836Y10616130D01*
X12073501Y10616463D01*
X12079833Y10617463D01*
X12085498Y10618463D01*
X12090830Y10620129D01*
X12091497Y10620462D01*
X12093163Y10621129D01*
X12095496Y10622128D01*
X12098495Y10623795D01*
X12101494Y10625794D01*
X12104827Y10628460D01*
X12108159Y10631793D01*
X12110825Y10635458D01*
X12111158Y10635792D01*
X12111825Y10637458D01*
X12113158Y10639457D01*
X12114491Y10642456D01*
X12115491Y10645789D01*
X12116824Y10649788D01*
X12117490Y10653787D01*
X12117823Y10658452D01*
Y10658786D01*
Y10659119D01*
Y10660119D01*
X12117490Y10661452D01*
X12117157Y10664784D01*
X12116157Y10669116D01*
X12114491Y10673782D01*
X12112158Y10678781D01*
X12108826Y10683779D01*
X12104493Y10688445D01*
X12103827Y10689111D01*
X12101827Y10690444D01*
X12098828Y10692110D01*
X12094163Y10694443D01*
X12091497Y10695443D01*
X12088498Y10696776D01*
X12085165Y10697776D01*
X12081166Y10698442D01*
X12077167Y10699442D01*
X12072835Y10699775D01*
X12067836Y10700442D01*
D02*
G37*
G36*
X10225641Y10702108D02*
Y10701775D01*
X10225308Y10701108D01*
X10224975Y10699775D01*
X10224641Y10697776D01*
X10224308Y10695443D01*
X10223642Y10692777D01*
X10222975Y10689778D01*
X10221975Y10686445D01*
X10219976Y10679114D01*
X10217643Y10670783D01*
X10214977Y10661785D01*
X10211645Y10652787D01*
X10183652Y10577806D01*
X10270630D01*
X10243970Y10648455D01*
Y10648788D01*
X10243303Y10649788D01*
X10242637Y10651454D01*
X10241970Y10653787D01*
X10240971Y10656453D01*
X10239638Y10659785D01*
X10238305Y10663451D01*
X10236972Y10667450D01*
X10233972Y10675781D01*
X10230973Y10684779D01*
X10228307Y10693777D01*
X10225641Y10702108D01*
D02*
G37*
G36*
X10000032Y10700442D02*
X9914054D01*
Y10615463D01*
X9992368D01*
X9994700Y10615797D01*
X10000032Y10616130D01*
X10005698Y10616463D01*
X10012029Y10617463D01*
X10017694Y10618463D01*
X10023026Y10620129D01*
X10023693Y10620462D01*
X10025359Y10621129D01*
X10027692Y10622128D01*
X10030691Y10623795D01*
X10033690Y10625794D01*
X10037023Y10628460D01*
X10040355Y10631793D01*
X10043021Y10635458D01*
X10043355Y10635792D01*
X10044021Y10637458D01*
X10045354Y10639457D01*
X10046687Y10642456D01*
X10047687Y10645789D01*
X10049020Y10649788D01*
X10049686Y10653787D01*
X10050020Y10658452D01*
Y10658786D01*
Y10659119D01*
Y10660119D01*
X10049686Y10661452D01*
X10049353Y10664784D01*
X10048353Y10669116D01*
X10046687Y10673782D01*
X10044354Y10678781D01*
X10041022Y10683779D01*
X10036690Y10688445D01*
X10036023Y10689111D01*
X10034024Y10690444D01*
X10031024Y10692110D01*
X10026359Y10694443D01*
X10023693Y10695443D01*
X10020694Y10696776D01*
X10017361Y10697776D01*
X10013362Y10698442D01*
X10009363Y10699442D01*
X10005031Y10699775D01*
X10000032Y10700442D01*
D02*
G37*
%LPD*%
D10*
X10741627Y6380431D02*
X10690843D01*
X10716235D01*
Y6253472D01*
X10690843Y6228080D01*
X10665452D01*
X10640060Y6253472D01*
X10893978Y6228080D02*
X10792411D01*
X10893978Y6329647D01*
Y6355039D01*
X10868586Y6380431D01*
X10817803D01*
X10792411Y6355039D01*
X6900541Y9953675D02*
Y9801325D01*
X6976717D01*
X7002108Y9826716D01*
Y9928283D01*
X6976717Y9953675D01*
X6900541D01*
X7154459Y9801325D02*
X7052892D01*
X7154459Y9902892D01*
Y9928283D01*
X7129067Y9953675D01*
X7078284D01*
X7052892Y9928283D01*
X13394600Y5395400D02*
X13242249D01*
Y5471575D01*
X13267641Y5496967D01*
X13318423D01*
X13343816Y5471575D01*
Y5395400D01*
X13242249Y5623926D02*
Y5573142D01*
X13267641Y5547750D01*
X13369208D01*
X13394600Y5573142D01*
Y5623926D01*
X13369208Y5649318D01*
X13267641D01*
X13242249Y5623926D01*
Y5700101D02*
X13394600D01*
X13343816Y5750885D01*
X13394600Y5801668D01*
X13242249D01*
Y5954019D02*
Y5852452D01*
X13394600D01*
Y5954019D01*
X13318423Y5852452D02*
Y5903235D01*
X13394600Y6004803D02*
X13242249D01*
Y6080978D01*
X13267641Y6106370D01*
X13318423D01*
X13343816Y6080978D01*
Y6004803D01*
Y6055586D02*
X13394600Y6106370D01*
X12222108Y6031175D02*
X12171325D01*
X12196717D01*
Y5904217D01*
X12171325Y5878825D01*
X12145933D01*
X12120541Y5904217D01*
X12272892Y6005784D02*
X12298284Y6031175D01*
X12349067D01*
X12374459Y6005784D01*
Y5980392D01*
X12349067Y5955000D01*
X12323675D01*
X12349067D01*
X12374459Y5929608D01*
Y5904217D01*
X12349067Y5878825D01*
X12298284D01*
X12272892Y5904217D01*
X12530400Y6184075D02*
X12631967D01*
X12581183Y6234859D02*
Y6133292D01*
X12784318Y6260251D02*
X12682751D01*
Y6184075D01*
X12733534Y6209467D01*
X12758926D01*
X12784318Y6184075D01*
Y6133292D01*
X12758926Y6107900D01*
X12708142D01*
X12682751Y6133292D01*
X12835101Y6260251D02*
Y6158683D01*
X12885886Y6107900D01*
X12936668Y6158683D01*
Y6260251D01*
X12679467Y5402359D02*
X12654075Y5427751D01*
X12603292D01*
X12577900Y5402359D01*
Y5300792D01*
X12603292Y5275400D01*
X12654075D01*
X12679467Y5300792D01*
Y5351575D01*
X12628683D01*
X12730251Y5275400D02*
Y5427751D01*
X12831818Y5275400D01*
Y5427751D01*
X12882600D02*
Y5275400D01*
X12958777D01*
X12984169Y5300792D01*
Y5402359D01*
X12958777Y5427751D01*
X12882600D01*
X7919720Y10253931D02*
Y10126972D01*
X7945112Y10101580D01*
X7995895D01*
X8021287Y10126972D01*
Y10253931D01*
X8072071Y10101580D02*
X8122854D01*
X8097463D01*
Y10253931D01*
X8072071Y10228539D01*
X5890673Y9035393D02*
Y9187744D01*
X5966848D01*
X5992240Y9162352D01*
Y9111569D01*
X5966848Y9086177D01*
X5890673D01*
X5941456D02*
X5992240Y9035393D01*
X6043024D02*
X6093807D01*
X6068416D01*
Y9187744D01*
X6043024Y9162352D01*
X5890673Y8572027D02*
Y8724378D01*
X5966848D01*
X5992240Y8698986D01*
Y8648202D01*
X5966848Y8622810D01*
X5890673D01*
X5941456D02*
X5992240Y8572027D01*
X6144591D02*
X6043024D01*
X6144591Y8673594D01*
Y8698986D01*
X6119199Y8724378D01*
X6068416D01*
X6043024Y8698986D01*
X6159273Y5768291D02*
Y5615940D01*
X6235448D01*
X6260840Y5641332D01*
Y5742899D01*
X6235448Y5768291D01*
X6159273D01*
X6311624Y5615940D02*
X6362407D01*
X6337016D01*
Y5768291D01*
X6311624Y5742899D01*
X8834087Y6679995D02*
X8808695Y6705387D01*
X8757912D01*
X8732520Y6679995D01*
Y6578428D01*
X8757912Y6553036D01*
X8808695D01*
X8834087Y6578428D01*
X8884871Y6553036D02*
X8935654D01*
X8910263D01*
Y6705387D01*
X8884871Y6679995D01*
X7724107Y6727127D02*
X7698715Y6752519D01*
X7647932D01*
X7622540Y6727127D01*
Y6625560D01*
X7647932Y6600168D01*
X7698715D01*
X7724107Y6625560D01*
X7876458Y6600168D02*
X7774891D01*
X7876458Y6701736D01*
Y6727127D01*
X7851066Y6752519D01*
X7800283D01*
X7774891Y6727127D01*
X6728200Y6647860D02*
Y6749427D01*
X6702808Y6774819D01*
X6652025D01*
X6626633Y6749427D01*
Y6647860D01*
X6652025Y6622469D01*
X6702808D01*
X6677416Y6673252D02*
X6728200Y6622469D01*
X6702808D02*
X6728200Y6647860D01*
X6778984Y6622469D02*
X6829767D01*
X6804376D01*
Y6774819D01*
X6778984Y6749427D01*
X5890033Y7643474D02*
Y7795824D01*
X5966208D01*
X5991600Y7770433D01*
Y7719649D01*
X5966208Y7694257D01*
X5890033D01*
X5940816D02*
X5991600Y7643474D01*
X6042384Y7770433D02*
X6067776Y7795824D01*
X6118559D01*
X6143951Y7770433D01*
Y7745041D01*
X6118559Y7719649D01*
X6093167D01*
X6118559D01*
X6143951Y7694257D01*
Y7668866D01*
X6118559Y7643474D01*
X6067776D01*
X6042384Y7668866D01*
X5890033Y8106840D02*
Y8259191D01*
X5966208D01*
X5991600Y8233799D01*
Y8183015D01*
X5966208Y8157624D01*
X5890033D01*
X5940816D02*
X5991600Y8106840D01*
X6118559D02*
Y8259191D01*
X6042384Y8183015D01*
X6143951D01*
X9474167Y5351731D02*
X9423383D01*
X9448775D01*
Y5224772D01*
X9423383Y5199380D01*
X9397992D01*
X9372600Y5224772D01*
X9524951Y5199380D02*
X9575734D01*
X9550343D01*
Y5351731D01*
X9524951Y5326339D01*
X7723947Y6140387D02*
X7698555Y6165779D01*
X7647772D01*
X7622380Y6140387D01*
Y6038820D01*
X7647772Y6013428D01*
X7698555D01*
X7723947Y6038820D01*
X7774731Y6140387D02*
X7800123Y6165779D01*
X7850906D01*
X7876298Y6140387D01*
Y6114996D01*
X7850906Y6089604D01*
X7825514D01*
X7850906D01*
X7876298Y6064212D01*
Y6038820D01*
X7850906Y6013428D01*
X7800123D01*
X7774731Y6038820D01*
D30*
X6185014Y10092500D02*
G03*
X6185014Y10092500I-10000J0D01*
G01*
X12804993Y6114500D02*
G03*
X12804993Y6114500I-10000J0D01*
G01*
X12046000Y10005000D02*
G03*
X12046000Y10005000I-10000J0D01*
G01*
X6787493Y5217500D02*
G03*
X6787493Y5217500I-10000J0D01*
G01*
X9560000Y6023176D02*
G03*
X9560000Y6023176I-400000J0D01*
G01*
X11403500Y5997500D02*
Y6124500D01*
X10641500D02*
X11403500D01*
X10641500Y5870500D02*
Y6124500D01*
Y5870500D02*
X11276500D01*
X7608000Y6195988D02*
Y6513988D01*
Y6195988D02*
X8116000D01*
Y6513988D01*
X7608000D02*
X8116000D01*
X6782493Y6511489D02*
X6842493D01*
Y6216488D02*
Y6511489D01*
X6782493Y6216488D02*
X6842493D01*
X6782493D02*
Y6511489D01*
X6627493Y6513988D02*
X6747493D01*
X9373500Y4785000D02*
Y5095000D01*
X11415500D01*
Y4460000D02*
Y5095000D01*
X9492500Y4460000D02*
X11415500D01*
X7608000Y5608488D02*
Y5926489D01*
Y5608488D02*
X8116000D01*
Y5926489D01*
X7608000D02*
X8116000D01*
D31*
X6245014Y9935900D02*
G03*
X6245014Y10249100I250612J156600D01*
G01*
X6707493Y5374100D02*
G03*
X6707493Y5060900I-250612J-156600D01*
G01*
X6245014Y9935900D02*
Y10249100D01*
X12469993Y6039500D02*
X13119994D01*
X12469993Y5485500D02*
Y6039500D01*
Y5485500D02*
X13119994D01*
Y6039500D01*
X7937000Y7097000D02*
Y7642000D01*
Y9411000D01*
Y9948000D01*
Y7097000D02*
X13032001D01*
X7937000Y9948000D02*
X13032001D01*
Y7097000D02*
Y8170000D01*
Y8841100D01*
Y9948000D01*
X7937000D02*
X13032001D01*
Y7097000D02*
Y9948000D01*
X7937000Y7097000D02*
Y9948000D01*
Y7097000D02*
X13032001D01*
X6842693Y8670913D02*
Y8800913D01*
Y8930913D01*
X6162693D02*
X6842693D01*
X6162693Y8800913D02*
Y8930913D01*
Y8670913D02*
Y8800913D01*
Y8670913D02*
X6842693D01*
Y8800913D02*
X6960693D01*
X6044693D02*
X6162693D01*
X6842693Y8207547D02*
Y8337547D01*
Y8467547D01*
X6162693D02*
X6842693D01*
X6162693Y8337547D02*
Y8467547D01*
Y8207547D02*
Y8337547D01*
Y8207547D02*
X6842693D01*
Y8337547D02*
X6960693D01*
X6044693D02*
X6162693D01*
X6707493Y5060900D02*
Y5374100D01*
X6162693Y7410814D02*
Y7540814D01*
Y7280814D02*
Y7410814D01*
Y7280814D02*
X6842693D01*
Y7410814D01*
Y7540814D01*
X6162693D02*
X6842693D01*
X6044693Y7410814D02*
X6162693D01*
X6842693D02*
X6960693D01*
X6162693Y7874180D02*
Y8004180D01*
Y7744180D02*
Y7874180D01*
Y7744180D02*
X6842693D01*
Y7874180D01*
Y8004180D01*
X6162693D02*
X6842693D01*
X6044693Y7874180D02*
X6162693D01*
X6842693D02*
X6960693D01*
%TF.MD5,df52ecdebff449f36e4257017f66eb3d*%
M02*
