%TF.GenerationSoftware,Altium Limited,Altium Designer,26.8.1 (31)*%
G04 Layer_Color=128*
G04 Board_Origin=0|0*
%FSLAX45Y45*%
%MOMM*%
%TF.SameCoordinates,BFB3822A-CCE0-4350-B96D-0D528342DD55*%
%TF.FilePolarity,Positive*%
%TF.FileFunction,Drillmap*%
%TF.Part,Single*%
G01*
G75*
%TA.AperFunction,NonConductor*%
%ADD31C,0.12700*%
D31*
X8191900Y6860000D02*
X8268100D01*
X8230000Y6821900D02*
Y6898100D01*
X11128635Y5485000D02*
X11204835D01*
X11166735Y5446900D02*
Y5523100D01*
X10728500Y5997500D02*
X10808500D01*
X10768500Y5957500D02*
Y6037500D01*
X10982500Y5997500D02*
X11062500D01*
X11022500Y5957500D02*
Y6037500D01*
X11236500Y5997500D02*
X11316500D01*
X11276500Y5957500D02*
Y6037500D01*
X6307514Y10092500D02*
X6428514D01*
X6368014Y10032000D02*
Y10153000D01*
X6561514Y10092500D02*
X6682514D01*
X6622014Y10032000D02*
Y10153000D01*
X12734993Y5635500D02*
X12854993D01*
X12794993Y5575500D02*
Y5695500D01*
X12734993Y5889500D02*
X12854993D01*
X12794993Y5829500D02*
Y5949500D01*
X12839999Y4500000D02*
X13160001D01*
X13000000Y4340000D02*
Y4660000D01*
X12839999Y10750000D02*
X13160001D01*
X13000000Y10590000D02*
Y10910000D01*
X4840000Y4500000D02*
X5160000D01*
X5000000Y4340000D02*
Y4660000D01*
X4840000Y10750000D02*
X5160000D01*
X5000000Y10590000D02*
Y10910000D01*
X12682000Y9748000D02*
X12982001D01*
X12832001Y9598000D02*
Y9898000D01*
X12682000Y7297000D02*
X12982001D01*
X12832001Y7147000D02*
Y7447000D01*
X7987000Y7297000D02*
X8287000D01*
X8137000Y7147000D02*
Y7447000D01*
X7987000Y9748000D02*
X8287000D01*
X8137000Y9598000D02*
Y9898000D01*
X8429000Y7250000D02*
X8531000D01*
X8480000Y7199000D02*
Y7301000D01*
X8683000Y7250000D02*
X8785000D01*
X8734000Y7199000D02*
Y7301000D01*
X8937000Y7250000D02*
X9039000D01*
X8988000Y7199000D02*
Y7301000D01*
X9191000Y7250000D02*
X9293000D01*
X9242000Y7199000D02*
Y7301000D01*
X9445000Y7250000D02*
X9547000D01*
X9496000Y7199000D02*
Y7301000D01*
X9699000Y7250000D02*
X9801000D01*
X9750000Y7199000D02*
Y7301000D01*
X9953000Y7250000D02*
X10055000D01*
X10004000Y7199000D02*
Y7301000D01*
X10207000Y7250000D02*
X10309000D01*
X10258000Y7199000D02*
Y7301000D01*
X10461000Y7250000D02*
X10563000D01*
X10512000Y7199000D02*
Y7301000D01*
X10715000Y7250000D02*
X10817000D01*
X10766000Y7199000D02*
Y7301000D01*
X10969000Y7250000D02*
X11071000D01*
X11020000Y7199000D02*
Y7301000D01*
X11223000Y7250000D02*
X11325000D01*
X11274000Y7199000D02*
Y7301000D01*
X11477000Y7250000D02*
X11579000D01*
X11528000Y7199000D02*
Y7301000D01*
X11731000Y7250000D02*
X11833000D01*
X11782000Y7199000D02*
Y7301000D01*
X11985000Y7250000D02*
X12087000D01*
X12036000Y7199000D02*
Y7301000D01*
X8429000Y9790000D02*
X8531000D01*
X8480000Y9739000D02*
Y9841000D01*
X8683000Y9790000D02*
X8785000D01*
X8734000Y9739000D02*
Y9841000D01*
X8937000Y9790000D02*
X9039000D01*
X8988000Y9739000D02*
Y9841000D01*
X9191000Y9790000D02*
X9293000D01*
X9242000Y9739000D02*
Y9841000D01*
X9445000Y9790000D02*
X9547000D01*
X9496000Y9739000D02*
Y9841000D01*
X9699000Y9790000D02*
X9801000D01*
X9750000Y9739000D02*
Y9841000D01*
X9953000Y9790000D02*
X10055000D01*
X10004000Y9739000D02*
Y9841000D01*
X10207000Y9790000D02*
X10309000D01*
X10258000Y9739000D02*
Y9841000D01*
X10461000Y9790000D02*
X10563000D01*
X10512000Y9739000D02*
Y9841000D01*
X10715000Y9790000D02*
X10817000D01*
X10766000Y9739000D02*
Y9841000D01*
X10969000Y9790000D02*
X11071000D01*
X11020000Y9739000D02*
Y9841000D01*
X11223000Y9790000D02*
X11325000D01*
X11274000Y9739000D02*
Y9841000D01*
X11477000Y9790000D02*
X11579000D01*
X11528000Y9739000D02*
Y9841000D01*
X11731000Y9790000D02*
X11833000D01*
X11782000Y9739000D02*
Y9841000D01*
X11985000Y9790000D02*
X12087000D01*
X12036000Y9739000D02*
Y9841000D01*
X7012693Y8800913D02*
X7092693D01*
X7052693Y8760913D02*
Y8840913D01*
X5912693Y8800913D02*
X5992693D01*
X5952693Y8760913D02*
Y8840913D01*
X7012693Y8337547D02*
X7092693D01*
X7052693Y8297547D02*
Y8377547D01*
X5912693Y8337547D02*
X5992693D01*
X5952693Y8297547D02*
Y8377547D01*
X6523993Y5217500D02*
X6644993D01*
X6584493Y5157000D02*
Y5278000D01*
X6269993Y5217500D02*
X6390993D01*
X6330493Y5157000D02*
Y5278000D01*
X8942500Y6023176D02*
X9027500D01*
X8985000Y5980676D02*
Y6065676D01*
X9292500Y6023176D02*
X9377500D01*
X9335000Y5980676D02*
Y6065676D01*
X7953500Y6354988D02*
X8024500D01*
X7989000Y6319488D02*
Y6390488D01*
X7699500Y6354988D02*
X7770500D01*
X7735000Y6319488D02*
Y6390488D01*
X5912693Y7410814D02*
X5992693D01*
X5952693Y7370814D02*
Y7450814D01*
X7012693Y7410814D02*
X7092693D01*
X7052693Y7370814D02*
Y7450814D01*
X5912693Y7874180D02*
X5992693D01*
X5952693Y7834180D02*
Y7914180D01*
X7012693Y7874180D02*
X7092693D01*
X7052693Y7834180D02*
Y7914180D01*
X11210500Y4785000D02*
X11330500D01*
X11270500Y4725000D02*
Y4845000D01*
X10956500Y4785000D02*
X11076500D01*
X11016500Y4725000D02*
Y4845000D01*
X10702500Y4785000D02*
X10822500D01*
X10762500Y4725000D02*
Y4845000D01*
X10448500Y4785000D02*
X10568500D01*
X10508500Y4725000D02*
Y4845000D01*
X10194500Y4785000D02*
X10314500D01*
X10254500Y4725000D02*
Y4845000D01*
X9940500Y4785000D02*
X10060500D01*
X10000500Y4725000D02*
Y4845000D01*
X9686500Y4785000D02*
X9806500D01*
X9746500Y4725000D02*
Y4845000D01*
X9432500Y4785000D02*
X9552500D01*
X9492500Y4725000D02*
Y4845000D01*
X7953500Y5767488D02*
X8024500D01*
X7989000Y5731988D02*
Y5802988D01*
X7699500Y5767488D02*
X7770500D01*
X7735000Y5731988D02*
Y5802988D01*
%TF.MD5,0f67e8dd9e23e6569098c5a227e69d2d*%
M02*
