%TF.GenerationSoftware,Altium Limited,Altium Designer,26.8.1 (31)*%
G04 Layer_Color=2752767*
G04 Board_Origin=0|0*
%FSLAX45Y45*%
%MOMM*%
%TF.SameCoordinates,BFB3822A-CCE0-4350-B96D-0D528342DD55*%
%TF.FilePolarity,Positive*%
%TF.FileFunction,Drawing*%
%TF.Part,Single*%
G01*
G75*
%TA.AperFunction,NonConductor*%
%ADD31C,0.12700*%
%ADD52C,0.16933*%
D31*
X8179200Y6809200D02*
Y6910800D01*
X8280800D01*
Y6809200D01*
X8179200D01*
X11115935Y5434200D02*
Y5535800D01*
X11217535D01*
Y5434200D01*
X11115935D01*
X6368014Y10041700D02*
X6317214Y10143300D01*
X6418814D01*
X6368014Y10041700D01*
X6622014D02*
X6571214Y10143300D01*
X6672814D01*
X6622014Y10041700D01*
X12794993Y5584700D02*
X12820393Y5610100D01*
X12845793D01*
X12820393Y5635500D01*
X12845793Y5660900D01*
X12820393D01*
X12794993Y5686300D01*
X12769593Y5660900D01*
X12744193D01*
X12769593Y5635500D01*
X12744193Y5610100D01*
X12769593D01*
X12794993Y5584700D01*
Y5838700D02*
X12820393Y5864100D01*
X12845793D01*
X12820393Y5889500D01*
X12845793Y5914900D01*
X12820393D01*
X12794993Y5940300D01*
X12769593Y5914900D01*
X12744193D01*
X12769593Y5889500D01*
X12744193Y5864100D01*
X12769593D01*
X12794993Y5838700D01*
X12949200Y4449200D02*
X12974600Y4500000D01*
X12949200Y4550800D01*
X13000000Y4525400D01*
X13050800Y4550800D01*
X13025400Y4500000D01*
X13050800Y4449200D01*
X13000000Y4474600D01*
X12949200Y4449200D01*
Y10699200D02*
X12974600Y10750000D01*
X12949200Y10800800D01*
X13000000Y10775400D01*
X13050800Y10800800D01*
X13025400Y10750000D01*
X13050800Y10699200D01*
X13000000Y10724600D01*
X12949200Y10699200D01*
X4949200Y4449200D02*
X4974600Y4500000D01*
X4949200Y4550800D01*
X5000000Y4525400D01*
X5050800Y4550800D01*
X5025400Y4500000D01*
X5050800Y4449200D01*
X5000000Y4474600D01*
X4949200Y4449200D01*
Y10699200D02*
X4974600Y10750000D01*
X4949200Y10800800D01*
X5000000Y10775400D01*
X5050800Y10800800D01*
X5025400Y10750000D01*
X5050800Y10699200D01*
X5000000Y10724600D01*
X4949200Y10699200D01*
X12806599Y9722600D02*
Y9697200D01*
X12857401D01*
Y9722600D01*
X12882800D01*
Y9773400D01*
X12857401D01*
Y9798800D01*
X12806599D01*
Y9773400D01*
X12781200D01*
Y9722600D01*
X12806599D01*
Y7271600D02*
Y7246200D01*
X12857401D01*
Y7271600D01*
X12882800D01*
Y7322400D01*
X12857401D01*
Y7347800D01*
X12806599D01*
Y7322400D01*
X12781200D01*
Y7271600D01*
X12806599D01*
X8111600D02*
Y7246200D01*
X8162400D01*
Y7271600D01*
X8187800D01*
Y7322400D01*
X8162400D01*
Y7347800D01*
X8111600D01*
Y7322400D01*
X8086200D01*
Y7271600D01*
X8111600D01*
Y9722600D02*
Y9697200D01*
X8162400D01*
Y9722600D01*
X8187800D01*
Y9773400D01*
X8162400D01*
Y9798800D01*
X8111600D01*
Y9773400D01*
X8086200D01*
Y9722600D01*
X8111600D01*
X8429200Y7199200D02*
X8454600D01*
X8480000Y7224600D01*
X8505400Y7199200D01*
X8530800D01*
Y7224600D01*
X8505400Y7250000D01*
X8530800Y7275400D01*
Y7300800D01*
X8505400D01*
X8480000Y7275400D01*
X8454600Y7300800D01*
X8429200D01*
Y7275400D01*
X8454600Y7250000D01*
X8429200Y7224600D01*
Y7199200D01*
X8683200D02*
X8708600D01*
X8734000Y7224600D01*
X8759400Y7199200D01*
X8784800D01*
Y7224600D01*
X8759400Y7250000D01*
X8784800Y7275400D01*
Y7300800D01*
X8759400D01*
X8734000Y7275400D01*
X8708600Y7300800D01*
X8683200D01*
Y7275400D01*
X8708600Y7250000D01*
X8683200Y7224600D01*
Y7199200D01*
X8937200D02*
X8962600D01*
X8988000Y7224600D01*
X9013400Y7199200D01*
X9038800D01*
Y7224600D01*
X9013400Y7250000D01*
X9038800Y7275400D01*
Y7300800D01*
X9013400D01*
X8988000Y7275400D01*
X8962600Y7300800D01*
X8937200D01*
Y7275400D01*
X8962600Y7250000D01*
X8937200Y7224600D01*
Y7199200D01*
X9191200D02*
X9216600D01*
X9242000Y7224600D01*
X9267400Y7199200D01*
X9292800D01*
Y7224600D01*
X9267400Y7250000D01*
X9292800Y7275400D01*
Y7300800D01*
X9267400D01*
X9242000Y7275400D01*
X9216600Y7300800D01*
X9191200D01*
Y7275400D01*
X9216600Y7250000D01*
X9191200Y7224600D01*
Y7199200D01*
X9445200D02*
X9470600D01*
X9496000Y7224600D01*
X9521400Y7199200D01*
X9546800D01*
Y7224600D01*
X9521400Y7250000D01*
X9546800Y7275400D01*
Y7300800D01*
X9521400D01*
X9496000Y7275400D01*
X9470600Y7300800D01*
X9445200D01*
Y7275400D01*
X9470600Y7250000D01*
X9445200Y7224600D01*
Y7199200D01*
X9699200D02*
X9724600D01*
X9750000Y7224600D01*
X9775400Y7199200D01*
X9800800D01*
Y7224600D01*
X9775400Y7250000D01*
X9800800Y7275400D01*
Y7300800D01*
X9775400D01*
X9750000Y7275400D01*
X9724600Y7300800D01*
X9699200D01*
Y7275400D01*
X9724600Y7250000D01*
X9699200Y7224600D01*
Y7199200D01*
X9953200D02*
X9978600D01*
X10004000Y7224600D01*
X10029400Y7199200D01*
X10054800D01*
Y7224600D01*
X10029400Y7250000D01*
X10054800Y7275400D01*
Y7300800D01*
X10029400D01*
X10004000Y7275400D01*
X9978600Y7300800D01*
X9953200D01*
Y7275400D01*
X9978600Y7250000D01*
X9953200Y7224600D01*
Y7199200D01*
X10207200D02*
X10232600D01*
X10258000Y7224600D01*
X10283400Y7199200D01*
X10308800D01*
Y7224600D01*
X10283400Y7250000D01*
X10308800Y7275400D01*
Y7300800D01*
X10283400D01*
X10258000Y7275400D01*
X10232600Y7300800D01*
X10207200D01*
Y7275400D01*
X10232600Y7250000D01*
X10207200Y7224600D01*
Y7199200D01*
X10461200D02*
X10486600D01*
X10512000Y7224600D01*
X10537400Y7199200D01*
X10562800D01*
Y7224600D01*
X10537400Y7250000D01*
X10562800Y7275400D01*
Y7300800D01*
X10537400D01*
X10512000Y7275400D01*
X10486600Y7300800D01*
X10461200D01*
Y7275400D01*
X10486600Y7250000D01*
X10461200Y7224600D01*
Y7199200D01*
X10715200D02*
X10740600D01*
X10766000Y7224600D01*
X10791400Y7199200D01*
X10816800D01*
Y7224600D01*
X10791400Y7250000D01*
X10816800Y7275400D01*
Y7300800D01*
X10791400D01*
X10766000Y7275400D01*
X10740600Y7300800D01*
X10715200D01*
Y7275400D01*
X10740600Y7250000D01*
X10715200Y7224600D01*
Y7199200D01*
X10969200D02*
X10994600D01*
X11020000Y7224600D01*
X11045400Y7199200D01*
X11070800D01*
Y7224600D01*
X11045400Y7250000D01*
X11070800Y7275400D01*
Y7300800D01*
X11045400D01*
X11020000Y7275400D01*
X10994600Y7300800D01*
X10969200D01*
Y7275400D01*
X10994600Y7250000D01*
X10969200Y7224600D01*
Y7199200D01*
X11223200D02*
X11248600D01*
X11274000Y7224600D01*
X11299400Y7199200D01*
X11324800D01*
Y7224600D01*
X11299400Y7250000D01*
X11324800Y7275400D01*
Y7300800D01*
X11299400D01*
X11274000Y7275400D01*
X11248600Y7300800D01*
X11223200D01*
Y7275400D01*
X11248600Y7250000D01*
X11223200Y7224600D01*
Y7199200D01*
X11477200D02*
X11502600D01*
X11528000Y7224600D01*
X11553400Y7199200D01*
X11578800D01*
Y7224600D01*
X11553400Y7250000D01*
X11578800Y7275400D01*
Y7300800D01*
X11553400D01*
X11528000Y7275400D01*
X11502600Y7300800D01*
X11477200D01*
Y7275400D01*
X11502600Y7250000D01*
X11477200Y7224600D01*
Y7199200D01*
X11731200D02*
X11756600D01*
X11782000Y7224600D01*
X11807400Y7199200D01*
X11832800D01*
Y7224600D01*
X11807400Y7250000D01*
X11832800Y7275400D01*
Y7300800D01*
X11807400D01*
X11782000Y7275400D01*
X11756600Y7300800D01*
X11731200D01*
Y7275400D01*
X11756600Y7250000D01*
X11731200Y7224600D01*
Y7199200D01*
X11985200D02*
X12010600D01*
X12036000Y7224600D01*
X12061400Y7199200D01*
X12086800D01*
Y7224600D01*
X12061400Y7250000D01*
X12086800Y7275400D01*
Y7300800D01*
X12061400D01*
X12036000Y7275400D01*
X12010600Y7300800D01*
X11985200D01*
Y7275400D01*
X12010600Y7250000D01*
X11985200Y7224600D01*
Y7199200D01*
X8429200Y9739200D02*
X8454600D01*
X8480000Y9764600D01*
X8505400Y9739200D01*
X8530800D01*
Y9764600D01*
X8505400Y9790000D01*
X8530800Y9815400D01*
Y9840800D01*
X8505400D01*
X8480000Y9815400D01*
X8454600Y9840800D01*
X8429200D01*
Y9815400D01*
X8454600Y9790000D01*
X8429200Y9764600D01*
Y9739200D01*
X8683200D02*
X8708600D01*
X8734000Y9764600D01*
X8759400Y9739200D01*
X8784800D01*
Y9764600D01*
X8759400Y9790000D01*
X8784800Y9815400D01*
Y9840800D01*
X8759400D01*
X8734000Y9815400D01*
X8708600Y9840800D01*
X8683200D01*
Y9815400D01*
X8708600Y9790000D01*
X8683200Y9764600D01*
Y9739200D01*
X8937200D02*
X8962600D01*
X8988000Y9764600D01*
X9013400Y9739200D01*
X9038800D01*
Y9764600D01*
X9013400Y9790000D01*
X9038800Y9815400D01*
Y9840800D01*
X9013400D01*
X8988000Y9815400D01*
X8962600Y9840800D01*
X8937200D01*
Y9815400D01*
X8962600Y9790000D01*
X8937200Y9764600D01*
Y9739200D01*
X9191200D02*
X9216600D01*
X9242000Y9764600D01*
X9267400Y9739200D01*
X9292800D01*
Y9764600D01*
X9267400Y9790000D01*
X9292800Y9815400D01*
Y9840800D01*
X9267400D01*
X9242000Y9815400D01*
X9216600Y9840800D01*
X9191200D01*
Y9815400D01*
X9216600Y9790000D01*
X9191200Y9764600D01*
Y9739200D01*
X9445200D02*
X9470600D01*
X9496000Y9764600D01*
X9521400Y9739200D01*
X9546800D01*
Y9764600D01*
X9521400Y9790000D01*
X9546800Y9815400D01*
Y9840800D01*
X9521400D01*
X9496000Y9815400D01*
X9470600Y9840800D01*
X9445200D01*
Y9815400D01*
X9470600Y9790000D01*
X9445200Y9764600D01*
Y9739200D01*
X9699200D02*
X9724600D01*
X9750000Y9764600D01*
X9775400Y9739200D01*
X9800800D01*
Y9764600D01*
X9775400Y9790000D01*
X9800800Y9815400D01*
Y9840800D01*
X9775400D01*
X9750000Y9815400D01*
X9724600Y9840800D01*
X9699200D01*
Y9815400D01*
X9724600Y9790000D01*
X9699200Y9764600D01*
Y9739200D01*
X9953200D02*
X9978600D01*
X10004000Y9764600D01*
X10029400Y9739200D01*
X10054800D01*
Y9764600D01*
X10029400Y9790000D01*
X10054800Y9815400D01*
Y9840800D01*
X10029400D01*
X10004000Y9815400D01*
X9978600Y9840800D01*
X9953200D01*
Y9815400D01*
X9978600Y9790000D01*
X9953200Y9764600D01*
Y9739200D01*
X10207200D02*
X10232600D01*
X10258000Y9764600D01*
X10283400Y9739200D01*
X10308800D01*
Y9764600D01*
X10283400Y9790000D01*
X10308800Y9815400D01*
Y9840800D01*
X10283400D01*
X10258000Y9815400D01*
X10232600Y9840800D01*
X10207200D01*
Y9815400D01*
X10232600Y9790000D01*
X10207200Y9764600D01*
Y9739200D01*
X10461200D02*
X10486600D01*
X10512000Y9764600D01*
X10537400Y9739200D01*
X10562800D01*
Y9764600D01*
X10537400Y9790000D01*
X10562800Y9815400D01*
Y9840800D01*
X10537400D01*
X10512000Y9815400D01*
X10486600Y9840800D01*
X10461200D01*
Y9815400D01*
X10486600Y9790000D01*
X10461200Y9764600D01*
Y9739200D01*
X10715200D02*
X10740600D01*
X10766000Y9764600D01*
X10791400Y9739200D01*
X10816800D01*
Y9764600D01*
X10791400Y9790000D01*
X10816800Y9815400D01*
Y9840800D01*
X10791400D01*
X10766000Y9815400D01*
X10740600Y9840800D01*
X10715200D01*
Y9815400D01*
X10740600Y9790000D01*
X10715200Y9764600D01*
Y9739200D01*
X10969200D02*
X10994600D01*
X11020000Y9764600D01*
X11045400Y9739200D01*
X11070800D01*
Y9764600D01*
X11045400Y9790000D01*
X11070800Y9815400D01*
Y9840800D01*
X11045400D01*
X11020000Y9815400D01*
X10994600Y9840800D01*
X10969200D01*
Y9815400D01*
X10994600Y9790000D01*
X10969200Y9764600D01*
Y9739200D01*
X11223200D02*
X11248600D01*
X11274000Y9764600D01*
X11299400Y9739200D01*
X11324800D01*
Y9764600D01*
X11299400Y9790000D01*
X11324800Y9815400D01*
Y9840800D01*
X11299400D01*
X11274000Y9815400D01*
X11248600Y9840800D01*
X11223200D01*
Y9815400D01*
X11248600Y9790000D01*
X11223200Y9764600D01*
Y9739200D01*
X11477200D02*
X11502600D01*
X11528000Y9764600D01*
X11553400Y9739200D01*
X11578800D01*
Y9764600D01*
X11553400Y9790000D01*
X11578800Y9815400D01*
Y9840800D01*
X11553400D01*
X11528000Y9815400D01*
X11502600Y9840800D01*
X11477200D01*
Y9815400D01*
X11502600Y9790000D01*
X11477200Y9764600D01*
Y9739200D01*
X11731200D02*
X11756600D01*
X11782000Y9764600D01*
X11807400Y9739200D01*
X11832800D01*
Y9764600D01*
X11807400Y9790000D01*
X11832800Y9815400D01*
Y9840800D01*
X11807400D01*
X11782000Y9815400D01*
X11756600Y9840800D01*
X11731200D01*
Y9815400D01*
X11756600Y9790000D01*
X11731200Y9764600D01*
Y9739200D01*
X11985200D02*
X12010600D01*
X12036000Y9764600D01*
X12061400Y9739200D01*
X12086800D01*
Y9764600D01*
X12061400Y9790000D01*
X12086800Y9815400D01*
Y9840800D01*
X12061400D01*
X12036000Y9815400D01*
X12010600Y9840800D01*
X11985200D01*
Y9815400D01*
X12010600Y9790000D01*
X11985200Y9764600D01*
Y9739200D01*
X6584493Y5166700D02*
X6533693Y5268300D01*
X6635293D01*
X6584493Y5166700D01*
X6330493D02*
X6279693Y5268300D01*
X6381293D01*
X6330493Y5166700D01*
X8934200Y6023176D02*
X8985000Y6073976D01*
X9035800Y6023176D01*
X8985000Y5972376D01*
X8934200Y6023176D01*
X9284200D02*
X9335000Y6073976D01*
X9385800Y6023176D01*
X9335000Y5972376D01*
X9284200Y6023176D01*
X7938200Y6304188D02*
Y6405788D01*
X8039800D01*
Y6304188D01*
X7938200D01*
X7958520Y6324508D02*
Y6385468D01*
X8019480D01*
Y6324508D01*
X7958520D01*
X7684200Y6304188D02*
Y6405788D01*
X7785800D01*
Y6304188D01*
X7684200D01*
X7704520Y6324508D02*
Y6385468D01*
X7765480D01*
Y6324508D01*
X7704520D01*
X11270500Y4734200D02*
X11295900Y4759600D01*
X11321300D01*
X11295900Y4785000D01*
X11321300Y4810400D01*
X11295900D01*
X11270500Y4835800D01*
X11245100Y4810400D01*
X11219700D01*
X11245100Y4785000D01*
X11219700Y4759600D01*
X11245100D01*
X11270500Y4734200D01*
X11016500D02*
X11041900Y4759600D01*
X11067300D01*
X11041900Y4785000D01*
X11067300Y4810400D01*
X11041900D01*
X11016500Y4835800D01*
X10991100Y4810400D01*
X10965700D01*
X10991100Y4785000D01*
X10965700Y4759600D01*
X10991100D01*
X11016500Y4734200D01*
X10762500D02*
X10787900Y4759600D01*
X10813300D01*
X10787900Y4785000D01*
X10813300Y4810400D01*
X10787900D01*
X10762500Y4835800D01*
X10737100Y4810400D01*
X10711700D01*
X10737100Y4785000D01*
X10711700Y4759600D01*
X10737100D01*
X10762500Y4734200D01*
X10508500D02*
X10533900Y4759600D01*
X10559300D01*
X10533900Y4785000D01*
X10559300Y4810400D01*
X10533900D01*
X10508500Y4835800D01*
X10483100Y4810400D01*
X10457700D01*
X10483100Y4785000D01*
X10457700Y4759600D01*
X10483100D01*
X10508500Y4734200D01*
X10254500D02*
X10279900Y4759600D01*
X10305300D01*
X10279900Y4785000D01*
X10305300Y4810400D01*
X10279900D01*
X10254500Y4835800D01*
X10229100Y4810400D01*
X10203700D01*
X10229100Y4785000D01*
X10203700Y4759600D01*
X10229100D01*
X10254500Y4734200D01*
X10000500D02*
X10025900Y4759600D01*
X10051300D01*
X10025900Y4785000D01*
X10051300Y4810400D01*
X10025900D01*
X10000500Y4835800D01*
X9975100Y4810400D01*
X9949700D01*
X9975100Y4785000D01*
X9949700Y4759600D01*
X9975100D01*
X10000500Y4734200D01*
X9746500D02*
X9771900Y4759600D01*
X9797300D01*
X9771900Y4785000D01*
X9797300Y4810400D01*
X9771900D01*
X9746500Y4835800D01*
X9721100Y4810400D01*
X9695700D01*
X9721100Y4785000D01*
X9695700Y4759600D01*
X9721100D01*
X9746500Y4734200D01*
X9492500D02*
X9517900Y4759600D01*
X9543300D01*
X9517900Y4785000D01*
X9543300Y4810400D01*
X9517900D01*
X9492500Y4835800D01*
X9467100Y4810400D01*
X9441700D01*
X9467100Y4785000D01*
X9441700Y4759600D01*
X9467100D01*
X9492500Y4734200D01*
X7938200Y5716688D02*
Y5818288D01*
X8039800D01*
Y5716688D01*
X7938200D01*
X7958520Y5737008D02*
Y5797968D01*
X8019480D01*
Y5737008D01*
X7958520D01*
X7684200Y5716688D02*
Y5818288D01*
X7785800D01*
Y5716688D01*
X7684200D01*
X7704520Y5737008D02*
Y5797968D01*
X7765480D01*
Y5737008D01*
X7704520D01*
D52*
X10819300Y5997500D02*
G03*
X10819300Y5997500I-50800J0D01*
G01*
X11073300D02*
G03*
X11073300Y5997500I-50800J0D01*
G01*
X11327300D02*
G03*
X11327300Y5997500I-50800J0D01*
G01*
X7103493Y8800913D02*
G03*
X7103493Y8800913I-50800J0D01*
G01*
X6003493D02*
G03*
X6003493Y8800913I-50800J0D01*
G01*
X7103493Y8337547D02*
G03*
X7103493Y8337547I-50800J0D01*
G01*
X6003493D02*
G03*
X6003493Y8337547I-50800J0D01*
G01*
Y7410814D02*
G03*
X6003493Y7410814I-50800J0D01*
G01*
X7103493D02*
G03*
X7103493Y7410814I-50800J0D01*
G01*
X6003493Y7874180D02*
G03*
X6003493Y7874180I-50800J0D01*
G01*
X7103493D02*
G03*
X7103493Y7874180I-50800J0D01*
G01*
%TF.MD5,dc6bf3334471c32553550a7caeaf09be*%
M02*
