%TF.GenerationSoftware,Altium Limited,Altium Designer,26.8.1 (31)*%
G04 Layer_Physical_Order=2*
G04 Layer_Color=16711680*
G04 Board_Origin=0|0*
%FSLAX45Y45*%
%MOMM*%
%TF.SameCoordinates,BFB3822A-CCE0-4350-B96D-0D528342DD55*%
%TF.FilePolarity,Positive*%
%TF.FileFunction,Copper,L2,Bot,Signal*%
%TF.Part,Single*%
G01*
G75*
%TA.AperFunction,Conductor*%
%ADD12C,0.25400*%
%ADD13C,0.38100*%
%ADD14C,0.50800*%
%TA.AperFunction,ViaPad*%
%ADD15C,1.52400*%
%TA.AperFunction,ComponentPad*%
%ADD16C,1.20000*%
%ADD17R,1.20000X1.20000*%
%ADD18R,1.81500X1.81500*%
%ADD19C,1.81500*%
%ADD20C,1.80000*%
%ADD21R,1.80000X1.80000*%
%TA.AperFunction,WasherPad*%
%ADD22C,6.00000*%
%TA.AperFunction,ComponentPad*%
%ADD23C,3.00000*%
%ADD24C,2.00000*%
%ADD25R,2.00000X2.00000*%
%ADD26R,1.27500X1.27500*%
%ADD27C,1.27500*%
%ADD28C,1.21000*%
%ADD29R,1.80000X1.80000*%
G36*
X13097754Y11241445D02*
X13161064Y11224481D01*
X13221619Y11199398D01*
X13278381Y11166627D01*
X13330380Y11126726D01*
X13376726Y11080380D01*
X13416626Y11028381D01*
X13449397Y10971619D01*
X13474481Y10911064D01*
X13491444Y10847754D01*
X13500000Y10782772D01*
X13499998Y10750000D01*
X13499998D01*
X13500000Y10749999D01*
X13500000Y4500000D01*
Y4467228D01*
X13491444Y4402245D01*
X13474481Y4338935D01*
X13449397Y4278381D01*
X13416626Y4221619D01*
X13376726Y4169620D01*
X13330380Y4123273D01*
X13278381Y4083373D01*
X13221619Y4050601D01*
X13161064Y4025519D01*
X13097754Y4008555D01*
X13032771Y4000000D01*
X4967228D01*
X4902245Y4008555D01*
X4838935Y4025519D01*
X4778381Y4050601D01*
X4721619Y4083373D01*
X4669620Y4123273D01*
X4623273Y4169620D01*
X4583373Y4221619D01*
X4550602Y4278381D01*
X4525519Y4338935D01*
X4508555Y4402245D01*
X4500000Y4467228D01*
X4500000Y4500000D01*
X4500000Y10750000D01*
Y10782772D01*
X4508555Y10847754D01*
X4525519Y10911064D01*
X4550601Y10971619D01*
X4583373Y11028381D01*
X4623273Y11080380D01*
X4669620Y11126726D01*
X4721619Y11166626D01*
X4778381Y11199398D01*
X4838935Y11224480D01*
X4902245Y11241444D01*
X4967228Y11250000D01*
X5000000D01*
X5000000Y11250000D01*
X13000000Y11250000D01*
X13032771Y11250000D01*
X13097754Y11241445D01*
D02*
G37*
%LPC*%
G36*
X13025609Y11075400D02*
X12974390D01*
X12923802Y11067388D01*
X12875090Y11051560D01*
X12829453Y11028307D01*
X12788016Y10998201D01*
X12751799Y10961984D01*
X12721693Y10920547D01*
X12698440Y10874910D01*
X12682612Y10826198D01*
X12674600Y10775610D01*
Y10724391D01*
X12682612Y10673802D01*
X12698440Y10625090D01*
X12721693Y10579453D01*
X12751799Y10538016D01*
X12788016Y10501799D01*
X12829453Y10471693D01*
X12875090Y10448440D01*
X12923802Y10432613D01*
X12974390Y10424600D01*
X13025609D01*
X13076198Y10432613D01*
X13124910Y10448440D01*
X13170547Y10471693D01*
X13211984Y10501799D01*
X13248201Y10538016D01*
X13278307Y10579453D01*
X13301559Y10625090D01*
X13317387Y10673802D01*
X13325400Y10724391D01*
Y10775610D01*
X13317387Y10826198D01*
X13301559Y10874910D01*
X13278307Y10920547D01*
X13248201Y10961984D01*
X13211984Y10998201D01*
X13170547Y11028307D01*
X13124910Y11051560D01*
X13076198Y11067388D01*
X13025609Y11075400D01*
D02*
G37*
G36*
X5025609D02*
X4974390D01*
X4923802Y11067388D01*
X4875090Y11051560D01*
X4829453Y11028307D01*
X4788016Y10998201D01*
X4751799Y10961984D01*
X4721693Y10920547D01*
X4698440Y10874910D01*
X4682612Y10826198D01*
X4674600Y10775610D01*
Y10724391D01*
X4682612Y10673802D01*
X4698440Y10625090D01*
X4721693Y10579453D01*
X4751799Y10538016D01*
X4788016Y10501799D01*
X4829453Y10471693D01*
X4875090Y10448440D01*
X4923802Y10432613D01*
X4974390Y10424600D01*
X5025609D01*
X5076198Y10432613D01*
X5124910Y10448440D01*
X5170547Y10471693D01*
X5211984Y10501799D01*
X5248201Y10538016D01*
X5278307Y10579453D01*
X5301560Y10625090D01*
X5317387Y10673802D01*
X5325400Y10724391D01*
Y10775610D01*
X5317387Y10826198D01*
X5301560Y10874910D01*
X5278307Y10920547D01*
X5248201Y10961984D01*
X5211984Y10998201D01*
X5170547Y11028307D01*
X5124910Y11051560D01*
X5076198Y11067388D01*
X5025609Y11075400D01*
D02*
G37*
G36*
X6484164Y10208650D02*
X6380714D01*
Y10105200D01*
X6484164D01*
Y10208650D01*
D02*
G37*
G36*
X6355314D02*
X6251864D01*
Y10105200D01*
X6355314D01*
Y10208650D01*
D02*
G37*
G36*
X6637305D02*
X6606722D01*
X6577181Y10200734D01*
X6550696Y10185443D01*
X6529071Y10163818D01*
X6513779Y10137332D01*
X6505864Y10107791D01*
Y10077209D01*
X6513779Y10047668D01*
X6529071Y10021182D01*
X6550696Y9999557D01*
X6577181Y9984266D01*
X6606722Y9976350D01*
X6637305D01*
X6666846Y9984266D01*
X6693331Y9999557D01*
X6714957Y10021182D01*
X6730248Y10047668D01*
X6738164Y10077209D01*
Y10107791D01*
X6730248Y10137332D01*
X6714957Y10163818D01*
X6693331Y10185443D01*
X6666846Y10200734D01*
X6637305Y10208650D01*
D02*
G37*
G36*
X6484164Y10079800D02*
X6380714D01*
Y9976350D01*
X6484164D01*
Y10079800D01*
D02*
G37*
G36*
X6355314D02*
X6251864D01*
Y9976350D01*
X6355314D01*
Y10079800D01*
D02*
G37*
G36*
X12161400Y9915400D02*
X11910600D01*
Y9858698D01*
X11890280Y9853254D01*
X11882345Y9866997D01*
X11858997Y9890345D01*
X11830403Y9906854D01*
X11798509Y9915400D01*
X11794700D01*
Y9790000D01*
Y9664600D01*
X11798509D01*
X11830403Y9673146D01*
X11858997Y9689655D01*
X11882345Y9713003D01*
X11890280Y9726746D01*
X11910600Y9721302D01*
Y9664600D01*
X12097307D01*
X12202179Y9559727D01*
Y6858773D01*
X11386227Y6042821D01*
X11361900D01*
Y6082900D01*
X11209886D01*
X11201469Y6103220D01*
X11818625Y6720375D01*
X11829853Y6737179D01*
X11833795Y6757000D01*
Y7135105D01*
X11858997Y7149655D01*
X11882345Y7173003D01*
X11898345Y7200716D01*
X11902447Y7201597D01*
X11915554D01*
X11919655Y7200716D01*
X11935655Y7173003D01*
X11959003Y7149655D01*
X11987598Y7133146D01*
X12019491Y7124600D01*
X12052509D01*
X12084403Y7133146D01*
X12112997Y7149655D01*
X12136345Y7173003D01*
X12152854Y7201597D01*
X12161400Y7233491D01*
Y7266509D01*
X12152854Y7298402D01*
X12136345Y7326997D01*
X12112997Y7350345D01*
X12084403Y7366854D01*
X12052509Y7375400D01*
X12019491D01*
X11987598Y7366854D01*
X11959003Y7350345D01*
X11935655Y7326997D01*
X11919655Y7299284D01*
X11915554Y7298403D01*
X11902447D01*
X11898345Y7299284D01*
X11882345Y7326997D01*
X11858997Y7350345D01*
X11830403Y7366854D01*
X11798509Y7375400D01*
X11794700D01*
Y7250000D01*
X11769300D01*
Y7375400D01*
X11765491D01*
X11733598Y7366854D01*
X11705003Y7350345D01*
X11681655Y7326997D01*
X11665655Y7299284D01*
X11661554Y7298403D01*
X11648447D01*
X11644345Y7299284D01*
X11628345Y7326997D01*
X11604997Y7350345D01*
X11576403Y7366854D01*
X11544509Y7375400D01*
X11511491D01*
X11479598Y7366854D01*
X11451003Y7350345D01*
X11427655Y7326997D01*
X11411655Y7299284D01*
X11407554Y7298403D01*
X11394447D01*
X11390345Y7299284D01*
X11374345Y7326997D01*
X11350997Y7350345D01*
X11322403Y7366854D01*
X11290509Y7375400D01*
X11257491D01*
X11225598Y7366854D01*
X11197003Y7350345D01*
X11173655Y7326997D01*
X11157655Y7299284D01*
X11153554Y7298403D01*
X11140447D01*
X11136345Y7299284D01*
X11120345Y7326997D01*
X11096997Y7350345D01*
X11068403Y7366854D01*
X11036509Y7375400D01*
X11003491D01*
X10971598Y7366854D01*
X10943003Y7350345D01*
X10919655Y7326997D01*
X10903655Y7299284D01*
X10899554Y7298403D01*
X10886447D01*
X10882345Y7299284D01*
X10866345Y7326997D01*
X10842997Y7350345D01*
X10814403Y7366854D01*
X10782509Y7375400D01*
X10749491D01*
X10717598Y7366854D01*
X10689003Y7350345D01*
X10665655Y7326997D01*
X10649655Y7299284D01*
X10645554Y7298403D01*
X10632447D01*
X10628345Y7299284D01*
X10612345Y7326997D01*
X10588997Y7350345D01*
X10560403Y7366854D01*
X10528509Y7375400D01*
X10495491D01*
X10463598Y7366854D01*
X10435003Y7350345D01*
X10411655Y7326997D01*
X10395655Y7299284D01*
X10391554Y7298403D01*
X10378447D01*
X10374345Y7299284D01*
X10358345Y7326997D01*
X10334997Y7350345D01*
X10306403Y7366854D01*
X10274509Y7375400D01*
X10241491D01*
X10209598Y7366854D01*
X10181003Y7350345D01*
X10157655Y7326997D01*
X10141655Y7299284D01*
X10137554Y7298403D01*
X10124447D01*
X10120345Y7299284D01*
X10104345Y7326997D01*
X10080997Y7350345D01*
X10052403Y7366854D01*
X10020509Y7375400D01*
X9987491D01*
X9955598Y7366854D01*
X9927003Y7350345D01*
X9903655Y7326997D01*
X9887655Y7299284D01*
X9883554Y7298403D01*
X9870447D01*
X9866345Y7299284D01*
X9850345Y7326997D01*
X9826997Y7350345D01*
X9798403Y7366854D01*
X9766509Y7375400D01*
X9733491D01*
X9701598Y7366854D01*
X9673003Y7350345D01*
X9649655Y7326997D01*
X9633655Y7299284D01*
X9629554Y7298403D01*
X9616447D01*
X9612345Y7299284D01*
X9596345Y7326997D01*
X9572997Y7350345D01*
X9544403Y7366854D01*
X9512509Y7375400D01*
X9479491D01*
X9447598Y7366854D01*
X9419003Y7350345D01*
X9395655Y7326997D01*
X9379655Y7299284D01*
X9375554Y7298403D01*
X9362447D01*
X9358345Y7299284D01*
X9342345Y7326997D01*
X9318997Y7350345D01*
X9290403Y7366854D01*
X9258509Y7375400D01*
X9225491D01*
X9193598Y7366854D01*
X9165003Y7350345D01*
X9141655Y7326997D01*
X9125655Y7299284D01*
X9121554Y7298403D01*
X9108447D01*
X9104345Y7299284D01*
X9088345Y7326997D01*
X9064997Y7350345D01*
X9036403Y7366854D01*
X9004509Y7375400D01*
X8971491D01*
X8939598Y7366854D01*
X8911003Y7350345D01*
X8887655Y7326997D01*
X8871655Y7299284D01*
X8867554Y7298403D01*
X8854447D01*
X8850345Y7299284D01*
X8834345Y7326997D01*
X8810997Y7350345D01*
X8782403Y7366854D01*
X8750509Y7375400D01*
X8717491D01*
X8685598Y7366854D01*
X8657003Y7350345D01*
X8633655Y7326997D01*
X8617655Y7299284D01*
X8613554Y7298403D01*
X8600447D01*
X8596345Y7299284D01*
X8580345Y7326997D01*
X8556997Y7350345D01*
X8528403Y7366854D01*
X8496509Y7375400D01*
X8463491D01*
X8431598Y7366854D01*
X8403003Y7350345D01*
X8379655Y7326997D01*
X8363146Y7298402D01*
X8354600Y7266509D01*
Y7233491D01*
X8363146Y7201597D01*
X8379655Y7173003D01*
X8403003Y7149655D01*
X8431598Y7133146D01*
X8463491Y7124600D01*
X8496509D01*
X8528403Y7133146D01*
X8556997Y7149655D01*
X8580345Y7173003D01*
X8596345Y7200716D01*
X8600447Y7201597D01*
X8613554D01*
X8617655Y7200716D01*
X8633655Y7173003D01*
X8657003Y7149655D01*
X8685598Y7133146D01*
X8717491Y7124600D01*
X8750509D01*
X8782403Y7133146D01*
X8810997Y7149655D01*
X8834345Y7173003D01*
X8850345Y7200716D01*
X8854447Y7201597D01*
X8867554D01*
X8871655Y7200716D01*
X8887655Y7173003D01*
X8911003Y7149655D01*
X8939598Y7133146D01*
X8971491Y7124600D01*
X9004509D01*
X9036403Y7133146D01*
X9064997Y7149655D01*
X9088345Y7173003D01*
X9104345Y7200716D01*
X9108447Y7201597D01*
X9121554D01*
X9125655Y7200716D01*
X9141655Y7173003D01*
X9165003Y7149655D01*
X9193598Y7133146D01*
X9225491Y7124600D01*
X9258509D01*
X9290403Y7133146D01*
X9318997Y7149655D01*
X9342345Y7173003D01*
X9358345Y7200716D01*
X9362447Y7201597D01*
X9375554D01*
X9379655Y7200716D01*
X9395655Y7173003D01*
X9419003Y7149655D01*
X9447598Y7133146D01*
X9479491Y7124600D01*
X9512509D01*
X9544403Y7133146D01*
X9572997Y7149655D01*
X9596345Y7173003D01*
X9612345Y7200716D01*
X9616447Y7201597D01*
X9629554D01*
X9633655Y7200716D01*
X9649655Y7173003D01*
X9673003Y7149655D01*
X9701598Y7133146D01*
X9733491Y7124600D01*
X9766509D01*
X9798403Y7133146D01*
X9826997Y7149655D01*
X9850345Y7173003D01*
X9866345Y7200716D01*
X9870447Y7201597D01*
X9883554D01*
X9887655Y7200716D01*
X9903655Y7173003D01*
X9927003Y7149655D01*
X9955598Y7133146D01*
X9987491Y7124600D01*
X10020509D01*
X10052403Y7133146D01*
X10080997Y7149655D01*
X10104345Y7173003D01*
X10120345Y7200716D01*
X10124447Y7201597D01*
X10137554D01*
X10141655Y7200716D01*
X10157655Y7173003D01*
X10181003Y7149655D01*
X10209598Y7133146D01*
X10241491Y7124600D01*
X10274509D01*
X10306403Y7133146D01*
X10334997Y7149655D01*
X10358345Y7173003D01*
X10374345Y7200716D01*
X10378447Y7201597D01*
X10391554D01*
X10395655Y7200716D01*
X10411655Y7173003D01*
X10435003Y7149655D01*
X10463598Y7133146D01*
X10495491Y7124600D01*
X10528509D01*
X10560403Y7133146D01*
X10588997Y7149655D01*
X10612345Y7173003D01*
X10628345Y7200716D01*
X10632447Y7201597D01*
X10645554D01*
X10649655Y7200716D01*
X10665655Y7173003D01*
X10689003Y7149655D01*
X10717598Y7133146D01*
X10749491Y7124600D01*
X10782509D01*
X10814403Y7133146D01*
X10842997Y7149655D01*
X10866345Y7173003D01*
X10882345Y7200716D01*
X10886447Y7201597D01*
X10899554D01*
X10903655Y7200716D01*
X10919655Y7173003D01*
X10943003Y7149655D01*
X10971598Y7133146D01*
X11003491Y7124600D01*
X11036509D01*
X11068403Y7133146D01*
X11096997Y7149655D01*
X11120345Y7173003D01*
X11136345Y7200716D01*
X11140447Y7201597D01*
X11153554D01*
X11157655Y7200716D01*
X11173655Y7173003D01*
X11197003Y7149655D01*
X11225598Y7133146D01*
X11257491Y7124600D01*
X11290509D01*
X11322403Y7133146D01*
X11350997Y7149655D01*
X11374345Y7173003D01*
X11390345Y7200716D01*
X11394447Y7201597D01*
X11407554D01*
X11411655Y7200716D01*
X11427655Y7173003D01*
X11451003Y7149655D01*
X11479598Y7133146D01*
X11511491Y7124600D01*
X11544509D01*
X11576403Y7133146D01*
X11604997Y7149655D01*
X11628345Y7173003D01*
X11644345Y7200716D01*
X11648447Y7201597D01*
X11661554D01*
X11665655Y7200716D01*
X11681655Y7173003D01*
X11705003Y7149655D01*
X11730205Y7135105D01*
Y6778455D01*
X11035200Y6083450D01*
Y5997500D01*
Y5911551D01*
X11347875Y5598875D01*
X11364679Y5587647D01*
X11384500Y5583705D01*
X12691645D01*
X12702650Y5564643D01*
X12724136Y5543157D01*
X12750450Y5527965D01*
X12779800Y5520100D01*
X12782293D01*
Y5635500D01*
Y5750900D01*
X12779800D01*
X12750450Y5743036D01*
X12724136Y5727843D01*
X12702650Y5706357D01*
X12691645Y5687295D01*
X11405954D01*
X11201469Y5891780D01*
X11209886Y5912100D01*
X11361900D01*
Y5952179D01*
X11405000D01*
X11422344Y5955629D01*
X11437047Y5965453D01*
X12279547Y6807953D01*
X12289371Y6822656D01*
X12292821Y6840000D01*
X12292821Y6840001D01*
Y9578500D01*
X12289371Y9595844D01*
X12279547Y9610547D01*
X12161400Y9728693D01*
Y9915400D01*
D02*
G37*
G36*
X9815000Y10301346D02*
X7827500D01*
X7812634Y10298389D01*
X7800031Y10289968D01*
X7427532Y9917469D01*
X7419111Y9904866D01*
X7416154Y9890000D01*
Y8929212D01*
X5979094Y7492152D01*
X5963936Y7496214D01*
X5941450D01*
X5919730Y7490394D01*
X5900256Y7479151D01*
X5884356Y7463251D01*
X5873113Y7443777D01*
X5867293Y7422057D01*
Y7399571D01*
X5873113Y7377851D01*
X5884356Y7358377D01*
X5900256Y7342477D01*
X5919730Y7331234D01*
X5941450Y7325414D01*
X5963936D01*
X5985656Y7331234D01*
X6005130Y7342477D01*
X6021030Y7358377D01*
X6032273Y7377851D01*
X6038093Y7399571D01*
Y7422057D01*
X6034031Y7437215D01*
X6947939Y8351123D01*
X6967293Y8341740D01*
Y8326304D01*
X6973113Y8304584D01*
X6984356Y8285110D01*
X7000256Y8269210D01*
X7019730Y8257967D01*
X7041450Y8252147D01*
X7063936D01*
X7085656Y8257967D01*
X7105130Y8269210D01*
X7121030Y8285110D01*
X7132273Y8304584D01*
X7138093Y8326304D01*
Y8348790D01*
X7134031Y8363948D01*
X7679969Y8909885D01*
X7688389Y8922488D01*
X7691347Y8937354D01*
Y9908910D01*
X7853591Y10071154D01*
X8363909D01*
X8441154Y9993909D01*
Y9909415D01*
X8431598Y9906854D01*
X8403003Y9890345D01*
X8379655Y9866997D01*
X8363146Y9838402D01*
X8354600Y9806509D01*
Y9773491D01*
X8363146Y9741597D01*
X8379655Y9713003D01*
X8403003Y9689655D01*
X8431598Y9673146D01*
X8463491Y9664600D01*
X8496509D01*
X8528403Y9673146D01*
X8556997Y9689655D01*
X8580345Y9713003D01*
X8596345Y9740716D01*
X8600447Y9741597D01*
X8613554D01*
X8617655Y9740716D01*
X8633655Y9713003D01*
X8657003Y9689655D01*
X8685598Y9673146D01*
X8717491Y9664600D01*
X8750509D01*
X8782403Y9673146D01*
X8810997Y9689655D01*
X8834345Y9713003D01*
X8850345Y9740716D01*
X8854447Y9741597D01*
X8867554D01*
X8871655Y9740716D01*
X8887655Y9713003D01*
X8911003Y9689655D01*
X8939598Y9673146D01*
X8971491Y9664600D01*
X9004509D01*
X9036403Y9673146D01*
X9064997Y9689655D01*
X9088345Y9713003D01*
X9104345Y9740716D01*
X9108447Y9741597D01*
X9121554D01*
X9125655Y9740716D01*
X9141655Y9713003D01*
X9165003Y9689655D01*
X9193598Y9673146D01*
X9225491Y9664600D01*
X9258509D01*
X9290403Y9673146D01*
X9318997Y9689655D01*
X9342345Y9713003D01*
X9358345Y9740716D01*
X9362447Y9741597D01*
X9375554D01*
X9379655Y9740716D01*
X9395655Y9713003D01*
X9419003Y9689655D01*
X9447598Y9673146D01*
X9479491Y9664600D01*
X9512509D01*
X9544403Y9673146D01*
X9572997Y9689655D01*
X9596345Y9713003D01*
X9612345Y9740716D01*
X9616447Y9741597D01*
X9629554D01*
X9633655Y9740716D01*
X9649655Y9713003D01*
X9673003Y9689655D01*
X9701598Y9673146D01*
X9733491Y9664600D01*
X9766509D01*
X9798403Y9673146D01*
X9826997Y9689655D01*
X9850345Y9713003D01*
X9866345Y9740716D01*
X9870447Y9741597D01*
X9883554D01*
X9887655Y9740716D01*
X9903655Y9713003D01*
X9927003Y9689655D01*
X9955598Y9673146D01*
X9987491Y9664600D01*
X10020509D01*
X10052403Y9673146D01*
X10080997Y9689655D01*
X10104345Y9713003D01*
X10120345Y9740716D01*
X10124447Y9741597D01*
X10137554D01*
X10141655Y9740716D01*
X10157655Y9713003D01*
X10181003Y9689655D01*
X10209598Y9673146D01*
X10241491Y9664600D01*
X10274509D01*
X10306403Y9673146D01*
X10334997Y9689655D01*
X10358345Y9713003D01*
X10374345Y9740716D01*
X10378447Y9741597D01*
X10391554D01*
X10395655Y9740716D01*
X10411655Y9713003D01*
X10435003Y9689655D01*
X10463598Y9673146D01*
X10495491Y9664600D01*
X10528509D01*
X10560403Y9673146D01*
X10588997Y9689655D01*
X10612345Y9713003D01*
X10628345Y9740716D01*
X10632447Y9741597D01*
X10645554D01*
X10649655Y9740716D01*
X10662102Y9719157D01*
X8630671Y7687727D01*
X8611898Y7695503D01*
Y9411000D01*
X8609926Y9420911D01*
X8604312Y9429312D01*
X8595911Y9434926D01*
X8586000Y9436898D01*
X7937000D01*
X7927089Y9434926D01*
X7918687Y9429312D01*
X7913074Y9420911D01*
X7911102Y9411000D01*
Y7642000D01*
X7913074Y7632089D01*
X7918687Y7623688D01*
X7927089Y7618074D01*
X7937000Y7616102D01*
X7949616D01*
X7957392Y7597329D01*
X7362531Y7002468D01*
X7354111Y6989866D01*
X7351153Y6975000D01*
Y5765000D01*
X7354111Y5750134D01*
X7362531Y5737532D01*
X8010031Y5090031D01*
X8022634Y5081611D01*
X8037500Y5078654D01*
X9143909D01*
X9377100Y4845463D01*
Y4669600D01*
X9607900D01*
Y4900400D01*
X9432037D01*
X9187469Y5144969D01*
X9174866Y5153389D01*
X9160000Y5156347D01*
X8053591D01*
X7428846Y5781091D01*
Y6958909D01*
X8034991Y7565053D01*
X8601782D01*
X8616647Y7568011D01*
X8629250Y7576431D01*
X10724196Y9671378D01*
X10749491Y9664600D01*
X10782509D01*
X10814403Y9673146D01*
X10842997Y9689655D01*
X10866345Y9713003D01*
X10882345Y9740716D01*
X10886447Y9741597D01*
X10899554D01*
X10903655Y9740716D01*
X10919655Y9713003D01*
X10943003Y9689655D01*
X10971598Y9673146D01*
X11003491Y9664600D01*
X11036509D01*
X11068403Y9673146D01*
X11096997Y9689655D01*
X11120345Y9713003D01*
X11136345Y9740716D01*
X11140447Y9741597D01*
X11153554D01*
X11157655Y9740716D01*
X11173655Y9713003D01*
X11197003Y9689655D01*
X11225598Y9673146D01*
X11257491Y9664600D01*
X11290509D01*
X11322403Y9673146D01*
X11350997Y9689655D01*
X11374345Y9713003D01*
X11390345Y9740716D01*
X11394447Y9741597D01*
X11407554D01*
X11411655Y9740716D01*
X11427655Y9713003D01*
X11451003Y9689655D01*
X11479598Y9673146D01*
X11511491Y9664600D01*
X11544509D01*
X11576403Y9673146D01*
X11604997Y9689655D01*
X11628345Y9713003D01*
X11644345Y9740716D01*
X11648447Y9741597D01*
X11661554D01*
X11665655Y9740716D01*
X11681655Y9713003D01*
X11705003Y9689655D01*
X11733598Y9673146D01*
X11765491Y9664600D01*
X11769300D01*
Y9790000D01*
Y9915400D01*
X11765491D01*
X11733598Y9906854D01*
X11705003Y9890345D01*
X11681655Y9866997D01*
X11665655Y9839284D01*
X11661554Y9838403D01*
X11648447D01*
X11644345Y9839284D01*
X11628345Y9866997D01*
X11604997Y9890345D01*
X11576403Y9906854D01*
X11544509Y9915400D01*
X11511491D01*
X11479598Y9906854D01*
X11451003Y9890345D01*
X11427655Y9866997D01*
X11411655Y9839284D01*
X11407554Y9838403D01*
X11394447D01*
X11390345Y9839284D01*
X11374345Y9866997D01*
X11350997Y9890345D01*
X11322403Y9906854D01*
X11290509Y9915400D01*
X11257491D01*
X11225598Y9906854D01*
X11197003Y9890345D01*
X11173655Y9866997D01*
X11157655Y9839284D01*
X11153554Y9838403D01*
X11140447D01*
X11136345Y9839284D01*
X11120345Y9866997D01*
X11096997Y9890345D01*
X11068403Y9906854D01*
X11036509Y9915400D01*
X11003491D01*
X10971598Y9906854D01*
X10943003Y9890345D01*
X10919655Y9866997D01*
X10903655Y9839284D01*
X10899554Y9838403D01*
X10886447D01*
X10882345Y9839284D01*
X10866345Y9866997D01*
X10842997Y9890345D01*
X10814403Y9906854D01*
X10782509Y9915400D01*
X10749491D01*
X10717598Y9906854D01*
X10689003Y9890345D01*
X10665655Y9866997D01*
X10649655Y9839284D01*
X10645554Y9838403D01*
X10632447D01*
X10628345Y9839284D01*
X10612345Y9866997D01*
X10588997Y9890345D01*
X10560403Y9906854D01*
X10528509Y9915400D01*
X10495491D01*
X10463598Y9906854D01*
X10435003Y9890345D01*
X10411655Y9866997D01*
X10395655Y9839284D01*
X10391554Y9838403D01*
X10378447D01*
X10374345Y9839284D01*
X10358345Y9866997D01*
X10334997Y9890345D01*
X10306403Y9906854D01*
X10274509Y9915400D01*
X10241491D01*
X10209598Y9906854D01*
X10181003Y9890345D01*
X10157655Y9866997D01*
X10141655Y9839284D01*
X10137554Y9838403D01*
X10124447D01*
X10120345Y9839284D01*
X10104345Y9866997D01*
X10080997Y9890345D01*
X10052403Y9906854D01*
X10020509Y9915400D01*
X10017345D01*
Y10099001D01*
X10014388Y10113867D01*
X10005967Y10126470D01*
X9842469Y10289968D01*
X9829866Y10298389D01*
X9815000Y10301346D01*
D02*
G37*
G36*
X12849275Y9923400D02*
X12814725D01*
X12780838Y9916659D01*
X12748917Y9903437D01*
X12720189Y9884242D01*
X12695758Y9859811D01*
X12676563Y9831083D01*
X12663341Y9799162D01*
X12656600Y9765275D01*
Y9730725D01*
X12663341Y9696838D01*
X12676563Y9664917D01*
X12695758Y9636189D01*
X12720189Y9611758D01*
X12748917Y9592563D01*
X12780838Y9579341D01*
X12814725Y9572600D01*
X12849275D01*
X12883162Y9579341D01*
X12915083Y9592563D01*
X12943811Y9611758D01*
X12968242Y9636189D01*
X12987437Y9664917D01*
X13000659Y9696838D01*
X13007401Y9730725D01*
Y9765275D01*
X13000659Y9799162D01*
X12987437Y9831083D01*
X12968242Y9859811D01*
X12943811Y9884242D01*
X12915083Y9903437D01*
X12883162Y9916659D01*
X12849275Y9923400D01*
D02*
G37*
G36*
X8154275D02*
X8119725D01*
X8085838Y9916659D01*
X8053917Y9903437D01*
X8025189Y9884242D01*
X8000758Y9859811D01*
X7981563Y9831083D01*
X7968341Y9799162D01*
X7961600Y9765275D01*
Y9730725D01*
X7968341Y9696838D01*
X7981563Y9664917D01*
X8000758Y9636189D01*
X8025189Y9611758D01*
X8053917Y9592563D01*
X8085838Y9579341D01*
X8119725Y9572600D01*
X8154275D01*
X8188162Y9579341D01*
X8220083Y9592563D01*
X8248811Y9611758D01*
X8273242Y9636189D01*
X8292437Y9664917D01*
X8305659Y9696838D01*
X8312400Y9730725D01*
Y9765275D01*
X8305659Y9799162D01*
X8292437Y9831083D01*
X8273242Y9859811D01*
X8248811Y9884242D01*
X8220083Y9903437D01*
X8188162Y9916659D01*
X8154275Y9923400D01*
D02*
G37*
G36*
X7063936Y8886313D02*
X7041450D01*
X7019730Y8880493D01*
X7000256Y8869250D01*
X6984356Y8853350D01*
X6973113Y8833876D01*
X6967293Y8812156D01*
Y8789670D01*
X6973113Y8767950D01*
X6984356Y8748476D01*
X7000256Y8732576D01*
X7019730Y8721333D01*
X7041450Y8715513D01*
X7063936D01*
X7085656Y8721333D01*
X7105130Y8732576D01*
X7121030Y8748476D01*
X7132273Y8767950D01*
X7138093Y8789670D01*
Y8812156D01*
X7132273Y8833876D01*
X7121030Y8853350D01*
X7105130Y8869250D01*
X7085656Y8880493D01*
X7063936Y8886313D01*
D02*
G37*
G36*
X5963936D02*
X5941450D01*
X5919730Y8880493D01*
X5900256Y8869250D01*
X5884356Y8853350D01*
X5873113Y8833876D01*
X5867293Y8812156D01*
Y8789670D01*
X5871355Y8774512D01*
X5290031Y8193189D01*
X5281610Y8180586D01*
X5278653Y8165720D01*
Y6005000D01*
X5281610Y5990134D01*
X5290031Y5977531D01*
X6077531Y5190032D01*
X6090134Y5181611D01*
X6105000Y5178654D01*
X6220655D01*
X6222258Y5172668D01*
X6237550Y5146182D01*
X6259175Y5124557D01*
X6285661Y5109266D01*
X6315201Y5101350D01*
X6345784D01*
X6375325Y5109266D01*
X6401810Y5124557D01*
X6423436Y5146182D01*
X6438727Y5172668D01*
X6446643Y5202209D01*
Y5232791D01*
X6438727Y5262332D01*
X6423436Y5288818D01*
X6401810Y5310443D01*
X6375325Y5325735D01*
X6345784Y5333650D01*
X6315201D01*
X6285661Y5325735D01*
X6259175Y5310443D01*
X6237550Y5288818D01*
X6222258Y5262332D01*
X6220655Y5256347D01*
X6121090D01*
X5356346Y6021091D01*
Y8149629D01*
X5926292Y8719575D01*
X5941450Y8715513D01*
X5963936D01*
X5985656Y8721333D01*
X6005130Y8732576D01*
X6021030Y8748476D01*
X6032273Y8767950D01*
X6038093Y8789670D01*
Y8812156D01*
X6032273Y8833876D01*
X6021030Y8853350D01*
X6005130Y8869250D01*
X5985656Y8880493D01*
X5963936Y8886313D01*
D02*
G37*
G36*
Y8422947D02*
X5941450D01*
X5919730Y8417127D01*
X5900256Y8405884D01*
X5884356Y8389983D01*
X5873113Y8370510D01*
X5867293Y8348790D01*
Y8326304D01*
X5873113Y8304584D01*
X5884356Y8285110D01*
X5900256Y8269210D01*
X5919730Y8257967D01*
X5941450Y8252147D01*
X5963936D01*
X5985656Y8257967D01*
X6005130Y8269210D01*
X6021030Y8285110D01*
X6032273Y8304584D01*
X6038093Y8326304D01*
Y8348790D01*
X6032273Y8370510D01*
X6021030Y8389983D01*
X6005130Y8405884D01*
X5985656Y8417127D01*
X5963936Y8422947D01*
D02*
G37*
G36*
X5965393Y7959190D02*
Y7886880D01*
X6037702D01*
X6032273Y7907143D01*
X6021030Y7926617D01*
X6005130Y7942517D01*
X5985656Y7953760D01*
X5965393Y7959190D01*
D02*
G37*
G36*
X5939993D02*
X5919730Y7953760D01*
X5900256Y7942517D01*
X5884356Y7926617D01*
X5873113Y7907143D01*
X5867683Y7886880D01*
X5939993D01*
Y7959190D01*
D02*
G37*
G36*
X6037702Y7861480D02*
X5965393D01*
Y7789171D01*
X5985656Y7794600D01*
X6005130Y7805843D01*
X6021030Y7821744D01*
X6032273Y7841217D01*
X6037702Y7861480D01*
D02*
G37*
G36*
X5939993D02*
X5867683D01*
X5873113Y7841217D01*
X5884356Y7821744D01*
X5900256Y7805843D01*
X5919730Y7794600D01*
X5939993Y7789171D01*
Y7861480D01*
D02*
G37*
G36*
X7063936Y7959580D02*
X7041450D01*
X7019730Y7953760D01*
X7000256Y7942517D01*
X6984356Y7926617D01*
X6973113Y7907143D01*
X6967293Y7885423D01*
Y7862937D01*
X6973113Y7841217D01*
X6984356Y7821744D01*
X7000256Y7805843D01*
X7019730Y7794600D01*
X7041450Y7788780D01*
X7063936D01*
X7085656Y7794600D01*
X7105130Y7805843D01*
X7121030Y7821744D01*
X7132273Y7841217D01*
X7138093Y7862937D01*
Y7885423D01*
X7132273Y7907143D01*
X7121030Y7926617D01*
X7105130Y7942517D01*
X7085656Y7953760D01*
X7063936Y7959580D01*
D02*
G37*
G36*
Y7496214D02*
X7041450D01*
X7019730Y7490394D01*
X7000256Y7479151D01*
X6984356Y7463251D01*
X6973113Y7443777D01*
X6967293Y7422057D01*
Y7399571D01*
X6973113Y7377851D01*
X6984356Y7358377D01*
X7000256Y7342477D01*
X7019730Y7331234D01*
X7041450Y7325414D01*
X7063936D01*
X7085656Y7331234D01*
X7105130Y7342477D01*
X7121030Y7358377D01*
X7132273Y7377851D01*
X7138093Y7399571D01*
Y7422057D01*
X7132273Y7443777D01*
X7121030Y7463251D01*
X7105130Y7479151D01*
X7085656Y7490394D01*
X7063936Y7496214D01*
D02*
G37*
G36*
X12849275Y7472400D02*
X12814725D01*
X12780838Y7465659D01*
X12748917Y7452437D01*
X12720189Y7433242D01*
X12695758Y7408811D01*
X12676563Y7380083D01*
X12663341Y7348162D01*
X12656600Y7314275D01*
Y7279725D01*
X12663341Y7245838D01*
X12676563Y7213917D01*
X12695758Y7185189D01*
X12720189Y7160758D01*
X12748917Y7141563D01*
X12780838Y7128341D01*
X12814725Y7121600D01*
X12849275D01*
X12883162Y7128341D01*
X12915083Y7141563D01*
X12943811Y7160758D01*
X12968242Y7185189D01*
X12987437Y7213917D01*
X13000659Y7245838D01*
X13007401Y7279725D01*
Y7314275D01*
X13000659Y7348162D01*
X12987437Y7380083D01*
X12968242Y7408811D01*
X12943811Y7433242D01*
X12915083Y7452437D01*
X12883162Y7465659D01*
X12849275Y7472400D01*
D02*
G37*
G36*
X8154275D02*
X8119725D01*
X8085838Y7465659D01*
X8053917Y7452437D01*
X8025189Y7433242D01*
X8000758Y7408811D01*
X7981563Y7380083D01*
X7968341Y7348162D01*
X7961600Y7314275D01*
Y7279725D01*
X7968341Y7245838D01*
X7981563Y7213917D01*
X8000758Y7185189D01*
X8025189Y7160758D01*
X8053917Y7141563D01*
X8085838Y7128341D01*
X8119725Y7121600D01*
X8154275D01*
X8188162Y7128341D01*
X8220083Y7141563D01*
X8248811Y7160758D01*
X8273242Y7185189D01*
X8292437Y7213917D01*
X8305659Y7245838D01*
X8312400Y7279725D01*
Y7314275D01*
X8305659Y7348162D01*
X8292437Y7380083D01*
X8273242Y7408811D01*
X8248811Y7433242D01*
X8220083Y7452437D01*
X8188162Y7465659D01*
X8154275Y7472400D01*
D02*
G37*
G36*
X7747700Y6440515D02*
Y6367688D01*
X7820527D01*
X7815046Y6388144D01*
X7803737Y6407732D01*
X7787744Y6423725D01*
X7768156Y6435034D01*
X7747700Y6440515D01*
D02*
G37*
G36*
X7722300D02*
X7701844Y6435034D01*
X7682256Y6423725D01*
X7666263Y6407732D01*
X7654954Y6388144D01*
X7649473Y6367688D01*
X7722300D01*
Y6440515D01*
D02*
G37*
G36*
X7820527Y6342288D02*
X7747700D01*
Y6269461D01*
X7768156Y6274942D01*
X7787744Y6286251D01*
X7803737Y6302244D01*
X7815046Y6321832D01*
X7820527Y6342288D01*
D02*
G37*
G36*
X7722300D02*
X7649473D01*
X7654954Y6321832D01*
X7666263Y6302244D01*
X7682256Y6286251D01*
X7701844Y6274942D01*
X7722300Y6269461D01*
Y6342288D01*
D02*
G37*
G36*
X8000309Y6440888D02*
X7977691D01*
X7955844Y6435034D01*
X7936256Y6423725D01*
X7920263Y6407732D01*
X7908954Y6388144D01*
X7903100Y6366297D01*
Y6343679D01*
X7908954Y6321832D01*
X7920263Y6302244D01*
X7936256Y6286251D01*
X7955844Y6274942D01*
X7977691Y6269088D01*
X8000309D01*
X8022156Y6274942D01*
X8041744Y6286251D01*
X8057737Y6302244D01*
X8069046Y6321832D01*
X8074900Y6343679D01*
Y6366297D01*
X8069046Y6388144D01*
X8057737Y6407732D01*
X8041744Y6423725D01*
X8022156Y6435034D01*
X8000309Y6440888D01*
D02*
G37*
G36*
X9347700Y6112068D02*
Y6035876D01*
X9423892D01*
X9418075Y6057587D01*
X9406338Y6077916D01*
X9389739Y6094514D01*
X9369411Y6106251D01*
X9347700Y6112068D01*
D02*
G37*
G36*
X9190677Y6219295D02*
X8135012D01*
X8115191Y6215353D01*
X8098387Y6204125D01*
X7747700Y5853438D01*
Y5780188D01*
X7820950D01*
X8156466Y6115705D01*
X8876929D01*
X8895850Y6112326D01*
X8895850Y6095385D01*
Y5934026D01*
X9074150D01*
Y6095385D01*
X9074150Y6112326D01*
X9093071Y6115705D01*
X9169222D01*
X9246730Y6038197D01*
X9246108Y6035876D01*
X9322300D01*
Y6112068D01*
X9319980Y6111447D01*
X9227301Y6204125D01*
X9210498Y6215353D01*
X9190677Y6219295D01*
D02*
G37*
G36*
X11009800Y6082510D02*
X10989537Y6077080D01*
X10970063Y6065837D01*
X10954163Y6049937D01*
X10942920Y6030463D01*
X10937490Y6010200D01*
X11009800D01*
Y6082510D01*
D02*
G37*
G36*
X9322300Y6010476D02*
X9246108D01*
X9251926Y5988766D01*
X9263662Y5968437D01*
X9280261Y5951839D01*
X9300589Y5940102D01*
X9322300Y5934285D01*
Y6010476D01*
D02*
G37*
G36*
X8243376Y6961600D02*
X8216624D01*
X8190784Y6954676D01*
X8167616Y6941300D01*
X8148700Y6922384D01*
X8135324Y6899216D01*
X8128400Y6873376D01*
Y6846624D01*
X8135324Y6820784D01*
X8148700Y6797616D01*
X8167616Y6778700D01*
X8190784Y6765324D01*
X8216624Y6758400D01*
X8243376D01*
X8269216Y6765324D01*
X8292384Y6778700D01*
X8311300Y6797616D01*
X8324676Y6820784D01*
X8324775Y6821153D01*
X8946610D01*
X9797732Y5970031D01*
X9810335Y5961611D01*
X9825201Y5958654D01*
X10692317D01*
X10700163Y5945063D01*
X10716063Y5929163D01*
X10735537Y5917920D01*
X10757257Y5912100D01*
X10757221Y5891795D01*
X9539631D01*
X9423270Y6008156D01*
X9423892Y6010476D01*
X9347700D01*
Y5934285D01*
X9350021Y5934906D01*
X9481552Y5803375D01*
X9498355Y5792147D01*
X9518177Y5788205D01*
X10865000D01*
X10884821Y5792147D01*
X10901625Y5803375D01*
X11009800Y5911551D01*
Y5984800D01*
X10936550D01*
X10843545Y5891795D01*
X10779779D01*
X10779743Y5912100D01*
X10801463Y5917920D01*
X10820937Y5929163D01*
X10836837Y5945063D01*
X10848080Y5964537D01*
X10853900Y5986257D01*
Y6008743D01*
X10848080Y6030463D01*
X10836837Y6049937D01*
X10820937Y6065837D01*
X10801463Y6077080D01*
X10779743Y6082900D01*
X10757257D01*
X10735537Y6077080D01*
X10716063Y6065837D01*
X10700163Y6049937D01*
X10692317Y6036347D01*
X9841291D01*
X8990169Y6887469D01*
X8977566Y6895889D01*
X8962701Y6898847D01*
X8324775D01*
X8324676Y6899216D01*
X8311300Y6922384D01*
X8292384Y6941300D01*
X8269216Y6954676D01*
X8243376Y6961600D01*
D02*
G37*
G36*
X7722300Y5853015D02*
X7701844Y5847534D01*
X7682256Y5836225D01*
X7666263Y5820232D01*
X7654954Y5800644D01*
X7649473Y5780188D01*
X7722300D01*
Y5853015D01*
D02*
G37*
G36*
X12910393Y6004900D02*
X12679593D01*
Y5774100D01*
X12910393D01*
Y6004900D01*
D02*
G37*
G36*
X7820527Y5754788D02*
X7747700D01*
Y5681961D01*
X7768156Y5687442D01*
X7787744Y5698751D01*
X7803737Y5714744D01*
X7815046Y5734332D01*
X7820527Y5754788D01*
D02*
G37*
G36*
X7722300D02*
X7649473D01*
X7654954Y5734332D01*
X7666263Y5714744D01*
X7682256Y5698751D01*
X7701844Y5687442D01*
X7722300Y5681961D01*
Y5754788D01*
D02*
G37*
G36*
X12810185Y5750900D02*
X12807693D01*
Y5648200D01*
X12910393D01*
Y5650693D01*
X12902528Y5680043D01*
X12887337Y5706357D01*
X12865849Y5727843D01*
X12839536Y5743036D01*
X12810185Y5750900D01*
D02*
G37*
G36*
X12910393Y5622800D02*
X12807693D01*
Y5520100D01*
X12810185D01*
X12839536Y5527965D01*
X12865849Y5543157D01*
X12887337Y5564643D01*
X12902528Y5590957D01*
X12910393Y5620307D01*
Y5622800D01*
D02*
G37*
G36*
X8000309Y5853388D02*
X7977691D01*
X7955844Y5847534D01*
X7936256Y5836225D01*
X7920263Y5820232D01*
X7908954Y5800644D01*
X7903100Y5778797D01*
Y5756179D01*
X7908954Y5734332D01*
X7920263Y5714744D01*
X7936256Y5698751D01*
X7955844Y5687442D01*
X7977691Y5681588D01*
X8000309D01*
X8022156Y5687442D01*
X8041744Y5698751D01*
X8057737Y5714744D01*
X8062023Y5722168D01*
X8398739D01*
X8667953Y5452954D01*
X8667953Y5452953D01*
X8682656Y5443129D01*
X8700000Y5439679D01*
X11075583D01*
X11085435Y5422616D01*
X11104351Y5403700D01*
X11127519Y5390324D01*
X11153359Y5383400D01*
X11180111D01*
X11205951Y5390324D01*
X11229119Y5403700D01*
X11248035Y5422616D01*
X11261411Y5445784D01*
X11268335Y5471624D01*
Y5498376D01*
X11261411Y5524216D01*
X11248035Y5547384D01*
X11229119Y5566300D01*
X11205951Y5579676D01*
X11180111Y5586600D01*
X11153359D01*
X11127519Y5579676D01*
X11104351Y5566300D01*
X11085435Y5547384D01*
X11075583Y5530321D01*
X8718772D01*
X8449558Y5799535D01*
X8434855Y5809359D01*
X8417511Y5812809D01*
X8062023D01*
X8057737Y5820232D01*
X8041744Y5836225D01*
X8022156Y5847534D01*
X8000309Y5853388D01*
D02*
G37*
G36*
X6700643Y5333650D02*
X6468343D01*
Y5101350D01*
X6700643D01*
Y5333650D01*
D02*
G37*
G36*
X11285693Y4900400D02*
X11255307D01*
X11225957Y4892536D01*
X11199643Y4877343D01*
X11178157Y4855857D01*
X11162964Y4829543D01*
X11155100Y4800193D01*
Y4769807D01*
X11162964Y4740457D01*
X11178157Y4714143D01*
X11199643Y4692657D01*
X11225957Y4677465D01*
X11255307Y4669600D01*
X11285693D01*
X11315043Y4677465D01*
X11341357Y4692657D01*
X11362843Y4714143D01*
X11378035Y4740457D01*
X11385900Y4769807D01*
Y4800193D01*
X11378035Y4829543D01*
X11362843Y4855857D01*
X11341357Y4877343D01*
X11315043Y4892536D01*
X11285693Y4900400D01*
D02*
G37*
G36*
X11031693D02*
X11001307D01*
X10971957Y4892536D01*
X10945643Y4877343D01*
X10924157Y4855857D01*
X10908964Y4829543D01*
X10901100Y4800193D01*
Y4769807D01*
X10908964Y4740457D01*
X10924157Y4714143D01*
X10945643Y4692657D01*
X10971957Y4677465D01*
X11001307Y4669600D01*
X11031693D01*
X11061043Y4677465D01*
X11087357Y4692657D01*
X11108843Y4714143D01*
X11124035Y4740457D01*
X11131900Y4769807D01*
Y4800193D01*
X11124035Y4829543D01*
X11108843Y4855857D01*
X11087357Y4877343D01*
X11061043Y4892536D01*
X11031693Y4900400D01*
D02*
G37*
G36*
X10777693D02*
X10747307D01*
X10717957Y4892536D01*
X10691643Y4877343D01*
X10670157Y4855857D01*
X10654964Y4829543D01*
X10647100Y4800193D01*
Y4769807D01*
X10654964Y4740457D01*
X10670157Y4714143D01*
X10691643Y4692657D01*
X10717957Y4677465D01*
X10747307Y4669600D01*
X10777693D01*
X10807043Y4677465D01*
X10833357Y4692657D01*
X10854843Y4714143D01*
X10870035Y4740457D01*
X10877900Y4769807D01*
Y4800193D01*
X10870035Y4829543D01*
X10854843Y4855857D01*
X10833357Y4877343D01*
X10807043Y4892536D01*
X10777693Y4900400D01*
D02*
G37*
G36*
X10523693D02*
X10493307D01*
X10463957Y4892536D01*
X10437643Y4877343D01*
X10416157Y4855857D01*
X10400964Y4829543D01*
X10393100Y4800193D01*
Y4769807D01*
X10400964Y4740457D01*
X10416157Y4714143D01*
X10437643Y4692657D01*
X10463957Y4677465D01*
X10493307Y4669600D01*
X10523693D01*
X10553043Y4677465D01*
X10579357Y4692657D01*
X10600843Y4714143D01*
X10616035Y4740457D01*
X10623900Y4769807D01*
Y4800193D01*
X10616035Y4829543D01*
X10600843Y4855857D01*
X10579357Y4877343D01*
X10553043Y4892536D01*
X10523693Y4900400D01*
D02*
G37*
G36*
X10269693D02*
X10239307D01*
X10209957Y4892536D01*
X10183643Y4877343D01*
X10162157Y4855857D01*
X10146964Y4829543D01*
X10139100Y4800193D01*
Y4769807D01*
X10146964Y4740457D01*
X10162157Y4714143D01*
X10183643Y4692657D01*
X10209957Y4677465D01*
X10239307Y4669600D01*
X10269693D01*
X10299043Y4677465D01*
X10325357Y4692657D01*
X10346843Y4714143D01*
X10362035Y4740457D01*
X10369900Y4769807D01*
Y4800193D01*
X10362035Y4829543D01*
X10346843Y4855857D01*
X10325357Y4877343D01*
X10299043Y4892536D01*
X10269693Y4900400D01*
D02*
G37*
G36*
X10015693D02*
X9985307D01*
X9955957Y4892536D01*
X9929643Y4877343D01*
X9908157Y4855857D01*
X9892964Y4829543D01*
X9885100Y4800193D01*
Y4769807D01*
X9892964Y4740457D01*
X9908157Y4714143D01*
X9929643Y4692657D01*
X9955957Y4677465D01*
X9985307Y4669600D01*
X10015693D01*
X10045043Y4677465D01*
X10071357Y4692657D01*
X10092843Y4714143D01*
X10108035Y4740457D01*
X10115900Y4769807D01*
Y4800193D01*
X10108035Y4829543D01*
X10092843Y4855857D01*
X10071357Y4877343D01*
X10045043Y4892536D01*
X10015693Y4900400D01*
D02*
G37*
G36*
X9761693D02*
X9731307D01*
X9701957Y4892536D01*
X9675643Y4877343D01*
X9654157Y4855857D01*
X9638964Y4829543D01*
X9631100Y4800193D01*
Y4769807D01*
X9638964Y4740457D01*
X9654157Y4714143D01*
X9675643Y4692657D01*
X9701957Y4677465D01*
X9731307Y4669600D01*
X9761693D01*
X9791043Y4677465D01*
X9817357Y4692657D01*
X9838843Y4714143D01*
X9854035Y4740457D01*
X9861900Y4769807D01*
Y4800193D01*
X9854035Y4829543D01*
X9838843Y4855857D01*
X9817357Y4877343D01*
X9791043Y4892536D01*
X9761693Y4900400D01*
D02*
G37*
G36*
X13025609Y4825400D02*
X12974390D01*
X12923802Y4817387D01*
X12875090Y4801560D01*
X12829453Y4778307D01*
X12788016Y4748201D01*
X12751799Y4711984D01*
X12721693Y4670547D01*
X12698440Y4624910D01*
X12682612Y4576198D01*
X12674600Y4525609D01*
Y4474390D01*
X12682612Y4423802D01*
X12698440Y4375090D01*
X12721693Y4329453D01*
X12751799Y4288016D01*
X12788016Y4251799D01*
X12829453Y4221693D01*
X12875090Y4198440D01*
X12923802Y4182612D01*
X12974390Y4174600D01*
X13025609D01*
X13076198Y4182612D01*
X13124910Y4198440D01*
X13170547Y4221693D01*
X13211984Y4251799D01*
X13248201Y4288016D01*
X13278307Y4329453D01*
X13301559Y4375090D01*
X13317387Y4423802D01*
X13325400Y4474390D01*
Y4525609D01*
X13317387Y4576198D01*
X13301559Y4624910D01*
X13278307Y4670547D01*
X13248201Y4711984D01*
X13211984Y4748201D01*
X13170547Y4778307D01*
X13124910Y4801560D01*
X13076198Y4817387D01*
X13025609Y4825400D01*
D02*
G37*
G36*
X5025609D02*
X4974390D01*
X4923802Y4817387D01*
X4875090Y4801560D01*
X4829453Y4778307D01*
X4788016Y4748201D01*
X4751799Y4711984D01*
X4721693Y4670547D01*
X4698440Y4624910D01*
X4682612Y4576198D01*
X4674600Y4525609D01*
Y4474390D01*
X4682612Y4423802D01*
X4698440Y4375090D01*
X4721693Y4329453D01*
X4751799Y4288016D01*
X4788016Y4251799D01*
X4829453Y4221693D01*
X4875090Y4198440D01*
X4923802Y4182612D01*
X4974390Y4174600D01*
X5025609D01*
X5076198Y4182612D01*
X5124910Y4198440D01*
X5170547Y4221693D01*
X5211984Y4251799D01*
X5248201Y4288016D01*
X5278307Y4329453D01*
X5301560Y4375090D01*
X5317387Y4423802D01*
X5325400Y4474390D01*
Y4525609D01*
X5317387Y4576198D01*
X5301560Y4624910D01*
X5278307Y4670547D01*
X5248201Y4711984D01*
X5211984Y4748201D01*
X5170547Y4778307D01*
X5124910Y4801560D01*
X5076198Y4817387D01*
X5025609Y4825400D01*
D02*
G37*
%LPD*%
G36*
X9939652Y10082911D02*
Y9897648D01*
X9927003Y9890345D01*
X9903655Y9866997D01*
X9887655Y9839284D01*
X9883554Y9838403D01*
X9870447D01*
X9866345Y9839284D01*
X9850345Y9866997D01*
X9826997Y9890345D01*
X9798403Y9906854D01*
X9766509Y9915400D01*
X9733491D01*
X9701598Y9906854D01*
X9673003Y9890345D01*
X9649655Y9866997D01*
X9633655Y9839284D01*
X9629554Y9838403D01*
X9616447D01*
X9612345Y9839284D01*
X9596345Y9866997D01*
X9572997Y9890345D01*
X9544403Y9906854D01*
X9512509Y9915400D01*
X9479491D01*
X9447598Y9906854D01*
X9419003Y9890345D01*
X9395655Y9866997D01*
X9379655Y9839284D01*
X9375554Y9838403D01*
X9362447D01*
X9358345Y9839284D01*
X9342345Y9866997D01*
X9318997Y9890345D01*
X9290403Y9906854D01*
X9258509Y9915400D01*
X9225491D01*
X9193598Y9906854D01*
X9165003Y9890345D01*
X9141655Y9866997D01*
X9125655Y9839284D01*
X9121554Y9838403D01*
X9108447D01*
X9104345Y9839284D01*
X9088345Y9866997D01*
X9064997Y9890345D01*
X9036403Y9906854D01*
X9004509Y9915400D01*
X8971491D01*
X8939598Y9906854D01*
X8911003Y9890345D01*
X8887655Y9866997D01*
X8871655Y9839284D01*
X8867554Y9838403D01*
X8854447D01*
X8850345Y9839284D01*
X8834345Y9866997D01*
X8810997Y9890345D01*
X8782403Y9906854D01*
X8750509Y9915400D01*
X8717491D01*
X8685598Y9906854D01*
X8657003Y9890345D01*
X8633655Y9866997D01*
X8617655Y9839284D01*
X8613554Y9838403D01*
X8600447D01*
X8596345Y9839284D01*
X8580345Y9866997D01*
X8556997Y9890345D01*
X8528403Y9906854D01*
X8518847Y9909415D01*
Y10010000D01*
X8515889Y10024866D01*
X8507469Y10037468D01*
X8407468Y10137469D01*
X8394866Y10145890D01*
X8380000Y10148847D01*
X7837500D01*
X7822634Y10145890D01*
X7810031Y10137469D01*
X7625031Y9952469D01*
X7616611Y9939866D01*
X7613654Y9925000D01*
Y8953445D01*
X7079094Y8418885D01*
X7063936Y8422947D01*
X7048500D01*
X7039116Y8442300D01*
X7482469Y8885652D01*
X7490890Y8898255D01*
X7493847Y8913121D01*
Y9873909D01*
X7843591Y10223653D01*
X9798910D01*
X9939652Y10082911D01*
D02*
G37*
D12*
X8962701Y6860000D02*
X9825201Y5997500D01*
X8230000Y6860000D02*
X8962701D01*
X9825201Y5997500D02*
X10768500D01*
X7390000Y6975000D02*
X8018900Y7603900D01*
X8601782D01*
X7390000Y5765000D02*
Y6975000D01*
X10766000Y9768118D02*
Y9790000D01*
X8601782Y7603900D02*
X10766000Y9768118D01*
X9160000Y5117500D02*
X9492500Y4785000D01*
X7390000Y5765000D02*
X8037500Y5117500D01*
X9160000D01*
X7827500Y10262500D02*
X9815000D01*
X9978499Y10099001D01*
Y9815501D02*
Y10099001D01*
Y9815501D02*
X10004000Y9790000D01*
X7455000Y8913121D02*
Y9890000D01*
X7827500Y10262500D01*
X5952693Y7410814D02*
X7455000Y8913121D01*
X7652500Y8937354D02*
Y9925000D01*
X7052693Y8337547D02*
X7652500Y8937354D01*
Y9925000D02*
X7837500Y10110000D01*
X8380000D02*
X8480000Y10010000D01*
X7837500Y10110000D02*
X8380000D01*
X8480000Y9790000D02*
Y10010000D01*
X6105000Y5217500D02*
X6330493D01*
X5317500Y6005000D02*
X6105000Y5217500D01*
X5317500Y6005000D02*
Y8165720D01*
X5952693Y8800913D01*
D13*
X7989000Y5767488D02*
X8417511D01*
X8700000Y5485000D02*
X11166735D01*
X8417511Y5767488D02*
X8700000Y5485000D01*
X11276500Y5997500D02*
X11405000D01*
X12247500Y6840000D01*
Y9578500D01*
X12036000Y9790000D02*
X12247500Y9578500D01*
D14*
X9335000Y6023176D02*
X9518177Y5840000D01*
X10865000D02*
X11022500Y5997500D01*
X9518177Y5840000D02*
X10865000D01*
X11022500Y5997500D02*
X11782000Y6757000D01*
Y7250000D01*
X11022500Y5997500D02*
X11384500Y5635500D01*
X12794993D01*
X7735000Y5767488D02*
X8135012Y6167500D01*
X9190677D01*
X9335000Y6023176D01*
D15*
X8230000Y6860000D02*
D03*
X11166735Y5485000D02*
D03*
D16*
X10768500Y5997500D02*
D03*
X11022500D02*
D03*
X7052693Y8800913D02*
D03*
X5952693D02*
D03*
X7052693Y8337547D02*
D03*
X5952693D02*
D03*
Y7410814D02*
D03*
X7052693D02*
D03*
X5952693Y7874180D02*
D03*
X7052693D02*
D03*
D17*
X11276500Y5997500D02*
D03*
D18*
X6368014Y10092500D02*
D03*
X6584493Y5217500D02*
D03*
D19*
X6622014Y10092500D02*
D03*
X6330493Y5217500D02*
D03*
D20*
X12794993Y5635500D02*
D03*
X11270500Y4785000D02*
D03*
X11016500D02*
D03*
X10762500D02*
D03*
X10508500D02*
D03*
X10254500D02*
D03*
X10000500D02*
D03*
X9746500D02*
D03*
D21*
X12794993Y5889500D02*
D03*
D22*
X13000000Y4500000D02*
D03*
Y10750000D02*
D03*
X5000000Y4500000D02*
D03*
Y10750000D02*
D03*
D23*
X12832001Y9748000D02*
D03*
Y7297000D02*
D03*
X8137000D02*
D03*
Y9748000D02*
D03*
D24*
X8480000Y7250000D02*
D03*
X8734000D02*
D03*
X8988000D02*
D03*
X9242000D02*
D03*
X9496000D02*
D03*
X9750000D02*
D03*
X10004000D02*
D03*
X10258000D02*
D03*
X10512000D02*
D03*
X10766000D02*
D03*
X11020000D02*
D03*
X11274000D02*
D03*
X11528000D02*
D03*
X11782000D02*
D03*
X12036000D02*
D03*
X8480000Y9790000D02*
D03*
X8734000D02*
D03*
X8988000D02*
D03*
X9242000D02*
D03*
X9496000D02*
D03*
X9750000D02*
D03*
X10004000D02*
D03*
X10258000D02*
D03*
X10512000D02*
D03*
X10766000D02*
D03*
X11020000D02*
D03*
X11274000D02*
D03*
X11528000D02*
D03*
X11782000D02*
D03*
D25*
X12036000D02*
D03*
D26*
X8985000Y6023176D02*
D03*
D27*
X9335000D02*
D03*
D28*
X7989000Y6354988D02*
D03*
X7735000D02*
D03*
X7989000Y5767488D02*
D03*
X7735000D02*
D03*
D29*
X9492500Y4785000D02*
D03*
%TF.MD5,b6b1239ab488560660374dc1feed0a42*%
M02*
