M48
;Layer_Color=9474304
;FILE_FORMAT=4:4
METRIC,LZ
;TYPE=PLATED
T01F00S00C0.7100
T02F00S00C0.7620
T03F00S00C0.8000
T04F00S00C0.8500
T05F00S00C1.0200
T06F00S00C1.2000
T07F00S00C1.2100
;TYPE=NON_PLATED
T08F00S00C3.0000
T09F00S00C3.2000
%
T01
X007989Y00576749
Y00635499
X007735
Y00576749
T02
X00823Y00686
X01116674Y005485
T03
X0107685Y0059975
X0110225
X0112765
X00705269Y00741081
Y00787418
X00595269
Y00741081
Y00833755
Y00880091
X00705269
Y00833755
T04
X008985Y00602318
X009335
T05
X012036Y00725
X011782
X011528
X011274
X01102
X010766
X010512
X010258
X010004
X00975
X009496
X009242
X008988
X008734
X00848
Y00979
X008734
X008988
X009242
X009496
X00975
X010004
X010258
X010512
X010766
X01102
X011274
X011528
X011782
X012036
T06
X01279499Y0056355
Y0058895
X0112705Y004785
X0110165
X0107625
X0105085
X0102545
X0100005
X0097465
X0094925
T07
X00633049Y0052175
X00658449
X00662201Y0100925
X00636801
T08
X012832Y007297
X008137
Y009748
X012832
T09
X013Y0045
X005
Y01075
X013
M30
