M48
;Layer_Color=9474304
;FILE_FORMAT=4:4
METRIC,LZ
;TYPE=PLATED
T01F00S00C0.6800
T02F00S00C0.7100
T03F00S00C0.7112
T04F00S00C0.7300
T05F00S00C0.7400
T06F00S00C0.8000
T07F00S00C0.8500
T08F00S00C1.0000
T09F00S00C1.0200
T10F00S00C1.2000
T11F00S00C1.2100
T12F00S00C2.0000
;TYPE=NON_PLATED
T13F00S00C3.0000
T14F00S00C3.2000
%
T01
X0074477Y009611
Y009865
X0075747Y009738
T02
X0139375Y006685
X0141915
X007475Y007911
Y008165
X007475Y0087525
Y0090065
T03
X012515Y005995
X0137975Y007079
X01080384Y0069775
X0085325Y007665
X0095975Y004865
X0100225Y004745
X0084747Y0083722
T04
X0083525Y007836
X0086065
X0088605
X0091145
Y00863
X0088605
X0086065
X0083525
T05
X00852Y0097075
X00906
T06
X0122809Y00535499
X0127706
X0132603
Y00645499
X0127706
X0122809
X0117912
X0113015
X0108118
X0103221
Y00535499
X0108118
X0113015
X0117912
X009305Y00905
X008205
T07
X01393Y0057225
X01428
T08
X00809Y0074
X008344
X007836
X007582
T09
X0120195Y0075675
X0122735
X0125275
X0127815
X0130355
X0132895
X0135435
X0137975
X0140515
X0117655
X0115115
X0112575
X0110035
X0107495
X0104955
Y0101075
X0107495
X0110035
X0112575
X0115115
X0117655
X0120195
X0122735
X0125275
X0127815
X0130355
X0132895
X0135435
X0137975
X0140515
T10
X0151325Y006006
Y00626
T11
X009588Y0052925
X009842
T12
X009063Y00515
Y00735
X006863
Y00515
T13
X0148475Y0076145
X0101525
Y0100655
X0148475
T14
X01525Y00475
X00625
Y01075
X01525
M30
